<?xml version="1.0" encoding="UTF-8" standalone="no"?>
<!--
Propuesta 00 para logotipo proyecto MX OS.
Autor: Miguel Angel Marcial Martinez @fitorec
Licencia: Creative Commons CC BY-SA 4.0
-->
<svg
   xmlns:dc="http://purl.org/dc/elements/1.1/"
   xmlns:cc="http://creativecommons.org/ns#"
   xmlns:rdf="http://www.w3.org/1999/02/22-rdf-syntax-ns#"
   xmlns:svg="http://www.w3.org/2000/svg"
   xmlns="http://www.w3.org/2000/svg"
   width="150mm"
   height="150mm"
   viewBox="0 0 150 150"
   version="1.1"
   id="propuesta-00">
  <defs
     id="defs248" />
  <metadata
     id="metadata251">
    <rdf:RDF>
      <cc:Work
         rdf:about="">
        <dc:format>image/svg+xml</dc:format>
        <dc:type
           rdf:resource="http://purl.org/dc/dcmitype/StillImage" />
        <dc:title></dc:title>
      </cc:Work>
    </rdf:RDF>
  </metadata>
  <rect
     ry="24.193548"
     y="0"
     x="4.8217763e-10"
     height="150"
     width="150"
     id="rect1393"
     style="opacity:1;fill:#00815b;fill-opacity:1;stroke:none;stroke-width:0.48387092;stroke-linecap:round;stroke-linejoin:bevel;stroke-miterlimit:4;stroke-dasharray:none;stroke-dashoffset:0;stroke-opacity:1;paint-order:markers stroke fill" />
  <path
     id="path16"
     transform="scale(0.26458333)"
     d="M 61.787109 230.32812 L 61.787109 336.45898 L 87.732422 336.45898 L 87.732422 258.83398 L 112.18555 316.05664 L 129.53125 316.05664 L 153.98438 258.83398 L 153.98438 336.45898 L 179.85938 336.45898 L 179.85938 230.32812 L 145.09766 230.32812 L 120.78711 287.125 L 96.619141 230.32812 L 61.787109 230.32812 z M 196.91797 256.84375 L 225.63672 295.72656 L 195.49805 336.45898 L 222.4375 336.45898 L 240.13867 311.29492 L 258.05273 336.45898 L 284.99219 336.45898 L 254.85352 295.58398 L 283.57031 256.84375 L 256.63086 256.84375 L 240.13867 280.44336 L 223.85938 256.84375 L 196.91797 256.84375 z "
     style="font-style:normal;font-weight:bold;font-size:38.51845551px;line-height:1.25;font-family:sans-serif;letter-spacing:0px;word-spacing:0px;fill:#ffffff;fill-opacity:1;stroke:none;stroke-width:21.8372364" />
  <path
     id="path20"
     transform="scale(0.26458333)"
     d="M 349.04102 228.41016 C 332.02807 228.41016 318.66413 233.29043 308.94922 243.05273 C 299.28169 252.81504 294.44727 266.29749 294.44727 283.5 C 294.44727 300.65512 299.28169 314.11465 308.94922 323.87695 C 318.66413 333.63926 332.02807 338.51953 349.04102 338.51953 C 366.10135 338.51953 379.46528 333.63926 389.13281 323.87695 C 398.80034 314.11465 403.63281 300.65512 403.63281 283.5 C 403.63281 266.29749 398.80034 252.81504 389.13281 243.05273 C 379.46528 233.29043 366.10135 228.41016 349.04102 228.41016 z M 461.07031 228.41016 C 448.27505 228.41016 438.46476 231.25267 431.64062 236.93945 C 424.81649 242.62623 421.4043 250.75433 421.4043 261.32227 C 421.4043 269.75765 423.8454 276.46352 428.72656 281.43945 C 433.65512 286.41539 441.42766 290.03974 452.04297 292.31445 L 462.63281 294.66016 C 469.07784 296.08185 473.36746 297.69333 475.5 299.49414 C 477.67993 301.29495 478.76953 303.85459 478.76953 307.17188 C 478.76953 310.86828 477.18294 313.7108 474.00781 315.70117 C 470.83271 317.69154 466.25823 318.6875 460.28711 318.6875 C 454.41078 318.6875 448.2975 317.78714 441.94727 315.98633 C 435.64442 314.13813 429.10487 311.41217 422.32812 307.81055 L 422.32812 330.91406 C 429.10487 333.42572 435.88146 335.32008 442.6582 336.59961 C 449.43495 337.87914 456.18862 338.51953 462.91797 338.51953 C 477.18231 338.51953 487.77443 335.67701 494.69336 329.99023 C 501.65966 324.25606 505.14258 315.53537 505.14258 303.83008 C 505.14258 294.92079 502.65366 288.04861 497.67773 283.21484 C 492.70178 278.38108 484.31373 274.77965 472.51367 272.41016 L 460.85742 270.06445 C 455.31283 268.9271 451.4724 267.57754 449.33984 266.01367 C 447.2547 264.40242 446.21289 262.17542 446.21289 259.33203 C 446.21289 255.54085 447.77656 252.74417 450.9043 250.94336 C 454.03201 249.14255 458.86643 248.24219 465.40625 248.24219 C 470.33478 248.24219 475.57062 248.90551 481.11523 250.23242 C 486.65985 251.55934 492.34684 253.52637 498.17578 256.13281 L 498.17578 233.66992 C 491.58859 231.9165 485.21537 230.61278 479.05469 229.75977 C 472.89401 228.85936 466.89925 228.41016 461.07031 228.41016 z M 349.04102 248.24219 C 357.42902 248.24219 363.92077 251.32174 368.51758 257.48242 C 373.11439 263.6431 375.41211 272.316 375.41211 283.5 C 375.41211 294.63661 373.11439 303.28463 368.51758 309.44531 C 363.92077 315.60599 357.42902 318.6875 349.04102 318.6875 C 340.7004 318.6875 334.23158 315.60599 329.63477 309.44531 C 325.03795 303.28463 322.73828 294.63661 322.73828 283.5 C 322.73828 272.316 325.03795 263.6431 329.63477 257.48242 C 334.23158 251.32174 340.7004 248.24219 349.04102 248.24219 z "
     style="font-style:normal;font-weight:normal;font-size:38.51845551px;line-height:1.25;font-family:sans-serif;letter-spacing:0px;word-spacing:0px;fill:#aa0000;fill-opacity:1;stroke:none;stroke-width:21.8372364" />
</svg>
