<?xml version="1.0" encoding="UTF-8" standalone="no"?>
<!--
Propuesta 01 para logotipo proyecto MX OS.
Autor: Miguel Angel Marcial Martinez @fitorec
Licencia: Creative Commons CC BY-SA 4.0
-->
<svg
   xmlns:dc="http://purl.org/dc/elements/1.1/"
   xmlns:cc="http://creativecommons.org/ns#"
   xmlns:rdf="http://www.w3.org/1999/02/22-rdf-syntax-ns#"
   xmlns:svg="http://www.w3.org/2000/svg"
   xmlns="http://www.w3.org/2000/svg"
   width="150mm"
   height="150mm"
   viewBox="0 0 150 150"
   version="1.1"
   id="propuesta-01">
  <defs
     id="defs248">
    <filter
       style="color-interpolation-filters:sRGB"
       id="filter3086"
       x="-0.12"
       width="1.24"
       y="-0.12"
       height="1.24">
      <feGaussianBlur
         stdDeviation="8.2020832"
         id="feGaussianBlur3088" />
    </filter>
  </defs>
  <metadata
     id="metadata251">
    <rdf:RDF>
      <cc:Work
         rdf:about="">
        <dc:format>image/svg+xml</dc:format>
        <dc:type
           rdf:resource="http://purl.org/dc/dcmitype/StillImage" />
        <dc:title></dc:title>
      </cc:Work>
    </rdf:RDF>
  </metadata>
  <rect
     ry="24.193548"
     y="0"
     x="4.8217763e-10"
     height="150"
     width="150"
     id="rect1393"
     style="opacity:1;fill:#00815b;fill-opacity:1;stroke:none;stroke-width:0.48387092;stroke-linecap:round;stroke-linejoin:bevel;stroke-miterlimit:4;stroke-dasharray:none;stroke-dashoffset:0;stroke-opacity:1;paint-order:markers stroke fill" />
  <path
     transform="matrix(0.88297977,0,0,0.88297977,-2.3424306,-131.49013)"
     id="rect2291"
     d="m 26.126016,152.22507 c -14.65792,0 -26.45832961,11.80041 -26.45832961,26.45833 v 111.125 c 0,14.65792 11.80040961,26.45833 26.45832961,26.45833 H 137.25102 c 14.65792,0 26.45834,-11.80041 26.45834,-26.45833 v -111.125 c 0,-14.65792 -11.80042,-26.45833 -26.45834,-26.45833 z m 7.37992,11.76 H 135.21601 c 13.41606,0 24.21659,10.80055 24.21659,24.21661 v 101.71007 c 0,13.41607 -10.80053,24.21713 -24.21659,24.21713 H 33.505936 c -13.41607,0 -24.2166196,-10.80106 -24.2166196,-24.21713 V 188.20168 c 0,-13.41606 10.8005496,-24.21661 24.2166196,-24.21661 z"
     style="opacity:1;fill:#aa0068;fill-opacity:0.35338344;stroke:none;stroke-width:0.52916664;stroke-linecap:round;stroke-linejoin:bevel;stroke-miterlimit:4;stroke-dasharray:none;stroke-dashoffset:0;stroke-opacity:1;paint-order:markers stroke fill;filter:url(#filter3086)" />
  <path
     id="path250"
     transform="scale(0.26458333)"
     d="M 347.79883 226.91992 C 331.81308 226.91992 319.25531 231.50485 310.12695 240.67773 C 301.04313 249.85062 296.50195 262.51973 296.50195 278.68359 C 296.50195 294.80293 301.04313 307.44821 310.12695 316.62109 C 319.25531 325.79397 331.81308 330.38086 347.79883 330.38086 C 363.82911 330.38086 376.38687 325.79397 385.4707 316.62109 C 394.55452 307.44821 399.0957 294.80293 399.0957 278.68359 C 399.0957 262.51973 394.55452 249.85062 385.4707 240.67773 C 376.38687 231.50485 363.82911 226.91992 347.79883 226.91992 z M 453.06445 226.91992 C 441.04175 226.91992 431.8242 229.59017 425.41211 234.93359 C 418.99999 240.27702 415.79297 247.91388 415.79297 257.84375 C 415.79297 265.76983 418.0874 272.0706 422.67383 276.74609 C 427.30481 281.42159 434.60763 284.82943 444.58203 286.9668 L 454.5332 289.16992 C 460.58909 290.50578 464.61927 292.02081 466.62305 293.71289 C 468.67137 295.40498 469.69531 297.80878 469.69531 300.92578 C 469.69531 304.39901 468.20411 307.07121 465.2207 308.94141 C 462.23727 310.8116 457.94066 311.74609 452.33008 311.74609 C 446.80854 311.74609 441.0645 310.89912 435.09766 309.20703 C 429.17536 307.47042 423.02968 304.91151 416.66211 301.52734 L 416.66211 323.23438 C 423.02968 325.59439 429.39803 327.37585 435.76562 328.57812 C 442.1332 329.7804 448.47773 330.38086 454.80078 330.38086 C 468.20387 330.38086 478.15506 327.70866 484.65625 322.36523 C 491.20194 316.97728 494.47656 308.78566 494.47656 297.78711 C 494.47656 289.41574 492.13839 282.95793 487.46289 278.41602 C 482.78739 273.8741 474.90596 270.4901 463.81836 268.26367 L 452.86328 266.06055 C 447.65343 264.99186 444.04675 263.7214 442.04297 262.25195 C 440.08371 260.73798 439.10352 258.64632 439.10352 255.97461 C 439.10352 252.41233 440.57283 249.78388 443.51172 248.0918 C 446.4506 246.39971 450.99374 245.55469 457.13867 245.55469 C 461.76965 245.55469 466.69056 246.17703 471.90039 247.42383 C 477.11024 248.67063 482.45267 250.51968 487.92969 252.96875 L 487.92969 231.86133 C 481.74021 230.21377 475.75159 228.98901 469.96289 228.1875 C 464.17417 227.34146 458.54147 226.91992 453.06445 226.91992 z M 77.888672 228.72266 L 77.888672 328.44336 L 102.26758 328.44336 L 102.26758 255.50586 L 125.24414 309.27539 L 141.54297 309.27539 L 164.51953 255.50586 L 164.51953 328.44336 L 188.83203 328.44336 L 188.83203 228.72266 L 156.16992 228.72266 L 133.32617 282.08984 L 110.61719 228.72266 L 77.888672 228.72266 z M 347.79883 245.55469 C 355.68038 245.55469 361.78034 248.44957 366.09961 254.23828 C 370.41888 260.02699 372.57812 268.17486 372.57812 278.68359 C 372.57812 289.1478 370.41888 297.27379 366.09961 303.0625 C 361.78034 308.85121 355.68038 311.74609 347.79883 311.74609 C 339.9618 311.74609 333.88372 308.85121 329.56445 303.0625 C 325.24518 297.27379 323.08594 289.1478 323.08594 278.68359 C 323.08594 268.17486 325.24518 260.02699 329.56445 254.23828 C 333.88372 248.44957 339.9618 245.55469 347.79883 245.55469 z M 204.86133 253.63672 L 231.8457 290.17188 L 203.52539 328.44336 L 228.83984 328.44336 L 245.47266 304.79883 L 262.30469 328.44336 L 287.61914 328.44336 L 259.29883 290.03906 L 286.2832 253.63672 L 260.96875 253.63672 L 245.47266 275.8125 L 230.17578 253.63672 L 204.86133 253.63672 z "
     style="font-style:normal;font-weight:bold;font-size:36.19280243px;line-height:1.25;font-family:sans-serif;letter-spacing:0px;word-spacing:0px;fill:#ffffff;fill-opacity:1;stroke:none;stroke-width:20.51875305" />
  <path
     id="text3101"
     d="m 92.55629,59.77202 c -3.93644,0 -7.08626,1.052081 -9.45113,3.154331 2.23774,-1.599028 5.07283,-2.398821 8.50596,-2.398821 4.24135,0 7.56391,1.213614 9.96736,3.640606 2.40342,2.426991 3.60494,5.779029 3.60494,10.055717 0,4.264906 -1.20152,7.610639 -3.60494,10.037627 -0.17053,0.17218 -0.34685,0.33665 -0.5266,0.49661 0.52366,-0.37382 1.01459,-0.791 1.47174,-1.25263 2.40342,-2.426994 3.60495,-5.772727 3.60495,-10.037633 0,-4.276691 -1.20153,-7.628726 -3.60495,-10.055717 -2.40342,-2.426991 -5.72601,-3.64009 -9.96733,-3.64009 z m 27.85152,0 c -3.181,0 -5.61983,0.706504 -7.31636,2.120286 -0.11898,0.09917 -0.23246,0.202335 -0.34311,0.307475 1.65393,-1.113811 3.89085,-1.672251 6.7143,-1.672251 1.44912,0 2.93944,0.112048 4.47104,0.335896 1.53162,0.212069 3.1166,0.53612 4.75424,0.972035 v 4.429704 c 0.31348,0.126473 0.6278,0.257262 0.94464,0.398941 v -5.584671 c -1.63764,-0.435917 -3.22212,-0.759966 -4.75371,-0.972034 -1.5316,-0.223848 -3.02191,-0.335381 -4.47104,-0.335381 z m -99.26526,0.476975 v 0.756026 h 7.71477 l 6.00842,14.120069 0.6351,-1.48363 -5.69887,-13.392465 z m 20.71191,0 -0.32349,0.756026 h 8.02018 V 86.63343 h 0.94517 V 60.248995 Z m 75.28585,5.777426 c -0.0696,0.03374 -0.14078,0.06659 -0.20465,0.103351 -0.77758,0.447699 -1.16634,1.142625 -1.16634,2.085144 0,0.70689 0.25935,1.260827 0.77775,1.661399 0.53017,0.388789 1.48444,0.724416 2.86287,1.007173 l 2.898,0.583427 c 2.9336,0.589074 5.01889,1.484427 6.25594,2.68614 1.23706,1.201714 1.85571,2.909827 1.85571,5.124752 0,2.685605 -0.73927,4.737523 -2.21432,6.158793 0.19592,-0.13028 0.38454,-0.26614 0.56121,-0.41134 1.73188,-1.42556 2.59828,-3.59293 2.59828,-6.502963 0,-2.214922 -0.61864,-3.923554 -1.8557,-5.125267 -1.23706,-1.201714 -3.32235,-2.097067 -6.25594,-2.686143 l -2.89854,-0.582909 c -1.37843,-0.282757 -2.3327,-0.6189 -2.86287,-1.007689 -0.5184,-0.400571 -0.77775,-0.953992 -0.77775,-1.660882 0,-0.568005 0.14394,-1.044692 0.42635,-1.432986 z m -28.8246,0.301273 c -0.57846,0.362744 -1.08879,0.837721 -1.52911,1.427819 -1.14281,1.531596 -1.7141,3.687902 -1.7141,6.46834 0,2.768655 0.57129,4.918654 1.7141,6.45025 1.14282,1.531597 2.75098,2.297537 4.82452,2.297537 1.7549,0 3.17487,-0.54467 4.26228,-1.629358 -0.92702,0.581342 -2.03237,0.873328 -3.31711,0.873328 -2.07357,0 -3.68173,-0.765936 -4.82452,-2.297533 -1.14281,-1.531596 -1.7141,-3.681597 -1.7141,-6.45025 0,-2.780438 0.57129,-4.936744 1.7141,-6.46834 0.18233,-0.244369 0.37791,-0.466413 0.58394,-0.671793 z m -33.57833,0.513146 0.55864,0.756026 h 5.19452 l 4.04677,5.866825 0.73795,-1.056266 -3.84008,-5.566585 z m 14.84511,0 -0.52813,0.756026 h 6.28076 l -7.13963,9.630936 6.9355,9.405628 h 1.50275 L 69.14067,76.472292 76.28026,66.84084 Z M 26.64816,68.091409 V 86.63343 H 27.5928 V 70.302127 Z m 16.47031,0 -5.75624,13.470496 h 0.62218 l 5.13406,-12.014769 z m 67.65787,11.420493 v 1.235583 c 1.34951,0.660152 2.66073,1.179407 3.93259,1.552365 1.57871,0.44769 3.0985,0.67179 4.5594,0.67179 1.48447,0 2.62128,-0.24777 3.41067,-0.74259 0.28413,-0.178127 0.51575,-0.384451 0.69762,-0.617536 -0.77319,0.40154 -1.82589,0.604096 -3.16312,0.604096 -1.46089,0 -2.98069,-0.224094 -4.5594,-0.671792 -1.56694,-0.459478 -3.19299,-1.136521 -4.87776,-2.031916 z m -46.23903,1.621605 -3.8685,5.499923 h 0.41291 l 3.66334,-5.20795 z"
     style="font-style:normal;font-weight:normal;font-size:36.19280243px;line-height:1.25;font-family:sans-serif;letter-spacing:0px;word-spacing:0px;fill:#b51a50;fill-opacity:1;stroke:none;stroke-width:5.42891979" />
</svg>
