<?xml version="1.0" encoding="UTF-8" standalone="no"?>
<svg
   xmlns:dc="http://purl.org/dc/elements/1.1/"
   xmlns:cc="http://creativecommons.org/ns#"
   xmlns:rdf="http://www.w3.org/1999/02/22-rdf-syntax-ns#"
   xmlns:svg="http://www.w3.org/2000/svg"
   xmlns="http://www.w3.org/2000/svg"
   id="svg254"
   version="1.1"
   viewBox="0 0 150 150"
   height="150mm"
   width="150mm">
  <defs
     id="defs248">
    <filter
       height="1.24"
       y="-0.12"
       width="1.24"
       x="-0.12"
       id="filter3086"
       style="color-interpolation-filters:sRGB">
      <feGaussianBlur
         id="feGaussianBlur3088"
         stdDeviation="8.2020832" />
    </filter>
  </defs>
  <metadata
     id="metadata251">
    <rdf:RDF>
      <cc:Work
         rdf:about="">
        <dc:format>image/svg+xml</dc:format>
        <dc:type
           rdf:resource="http://purl.org/dc/dcmitype/StillImage" />
        <dc:title></dc:title>
      </cc:Work>
    </rdf:RDF>
  </metadata>
  <g
     transform="translate(0,-147)"
     id="layer1">
    <rect
       ry="24.193548"
       y="147"
       x="4.8217763e-10"
       height="150"
       width="150"
       id="rect1393"
       style="opacity:1;fill:#00815b;fill-opacity:1;stroke:none;stroke-width:0.48387092;stroke-linecap:round;stroke-linejoin:bevel;stroke-miterlimit:4;stroke-dasharray:none;stroke-dashoffset:0;stroke-opacity:1;paint-order:markers stroke fill" />
    <path
       transform="matrix(0.88297977,0,0,0.88297977,-2.3424306,15.509869)"
       id="rect2291"
       d="m 26.126016,152.22507 c -14.65792,0 -26.45832961,11.80041 -26.45832961,26.45833 v 111.125 c 0,14.65792 11.80040961,26.45833 26.45832961,26.45833 H 137.25102 c 14.65792,0 26.45834,-11.80041 26.45834,-26.45833 v -111.125 c 0,-14.65792 -11.80042,-26.45833 -26.45834,-26.45833 z m 7.37992,11.76 H 135.21601 c 13.41606,0 24.21659,10.80055 24.21659,24.21661 v 101.71007 c 0,13.41607 -10.80053,24.21713 -24.21659,24.21713 H 33.505936 c -13.41607,0 -24.2166196,-10.80106 -24.2166196,-24.21713 V 188.20168 c 0,-13.41606 10.8005496,-24.21661 24.2166196,-24.21661 z"
       style="opacity:1;fill:#aa0068;fill-opacity:0.35338344;stroke:none;stroke-width:0.52916664;stroke-linecap:round;stroke-linejoin:bevel;stroke-miterlimit:4;stroke-dasharray:none;stroke-dashoffset:0;stroke-opacity:1;paint-order:markers stroke fill;filter:url(#filter3086)" />
    <g
       transform="translate(-219.14148,129.0863)"
       id="g3114">
      <text
         id="text2287"
         y="104.81458"
         x="236.42717"
         style="font-style:normal;font-weight:normal;font-size:36.19280243px;line-height:1.25;font-family:sans-serif;letter-spacing:0px;word-spacing:0px;fill:#ffffff;fill-opacity:1;stroke:none;stroke-width:5.42892027"
         xml:space="preserve"><tspan
           style="font-weight:bold;fill:#ffffff;fill-opacity:1;stroke-width:5.42892027"
           y="104.81458"
           x="236.42717"
           id="tspan2285">Mx<tspan
   id="tspan2283"
   style="fill:#ffffff">OS</tspan></tspan></text>
      <path
         style="font-style:normal;font-weight:normal;font-size:36.19280243px;line-height:1.25;font-family:sans-serif;letter-spacing:0px;word-spacing:0px;fill:#b51a50;fill-opacity:1;stroke:none;stroke-width:5.42891979"
         d="m 311.69777,77.68572 c -3.93644,0 -7.08626,1.052081 -9.45113,3.154331 2.23774,-1.599028 5.07283,-2.398821 8.50596,-2.398821 4.24135,0 7.56391,1.213614 9.96736,3.640606 2.40342,2.426991 3.60494,5.779029 3.60494,10.055717 0,4.264906 -1.20152,7.610639 -3.60494,10.037627 -0.17053,0.17218 -0.34685,0.33665 -0.5266,0.49661 0.52366,-0.37382 1.01459,-0.791 1.47174,-1.25263 2.40342,-2.426994 3.60495,-5.772727 3.60495,-10.037633 0,-4.276691 -1.20153,-7.628726 -3.60495,-10.055717 -2.40342,-2.426991 -5.72601,-3.64009 -9.96733,-3.64009 z m 27.85152,0 c -3.181,0 -5.61983,0.706504 -7.31636,2.120286 -0.11898,0.09917 -0.23246,0.202335 -0.34311,0.307475 1.65393,-1.113811 3.89085,-1.672251 6.7143,-1.672251 1.44912,0 2.93944,0.112048 4.47104,0.335896 1.53162,0.212069 3.1166,0.53612 4.75424,0.972035 v 4.429704 c 0.31348,0.126473 0.6278,0.257262 0.94464,0.398941 v -5.584671 c -1.63764,-0.435917 -3.22212,-0.759966 -4.75371,-0.972034 -1.5316,-0.223848 -3.02191,-0.335381 -4.47104,-0.335381 z m -99.26526,0.476975 v 0.756026 h 7.71477 l 6.00842,14.120069 0.6351,-1.48363 -5.69887,-13.392465 z m 20.71191,0 -0.32349,0.756026 h 8.02018 v 25.628409 h 0.94517 V 78.162695 Z m 75.28585,5.777426 c -0.0696,0.03374 -0.14078,0.06659 -0.20465,0.103351 -0.77758,0.447699 -1.16634,1.142625 -1.16634,2.085144 0,0.70689 0.25935,1.260827 0.77775,1.661399 0.53017,0.388789 1.48444,0.724416 2.86287,1.007173 l 2.898,0.583427 c 2.9336,0.589074 5.01889,1.484427 6.25594,2.68614 1.23706,1.201714 1.85571,2.909827 1.85571,5.124752 0,2.685605 -0.73927,4.737523 -2.21432,6.158793 0.19592,-0.13028 0.38454,-0.26614 0.56121,-0.41134 1.73188,-1.42556 2.59828,-3.59293 2.59828,-6.502963 0,-2.214922 -0.61864,-3.923554 -1.8557,-5.125267 -1.23706,-1.201714 -3.32235,-2.097067 -6.25594,-2.686143 l -2.89854,-0.582909 c -1.37843,-0.282757 -2.3327,-0.6189 -2.86287,-1.007689 -0.5184,-0.400571 -0.77775,-0.953992 -0.77775,-1.660882 0,-0.568005 0.14394,-1.044692 0.42635,-1.432986 z m -28.8246,0.301273 c -0.57846,0.362744 -1.08879,0.837721 -1.52911,1.427819 -1.14281,1.531596 -1.7141,3.687902 -1.7141,6.46834 0,2.768655 0.57129,4.918654 1.7141,6.45025 1.14282,1.531597 2.75098,2.297537 4.82452,2.297537 1.7549,0 3.17487,-0.54467 4.26228,-1.629358 -0.92702,0.581342 -2.03237,0.873328 -3.31711,0.873328 -2.07357,0 -3.68173,-0.765936 -4.82452,-2.297533 -1.14281,-1.531596 -1.7141,-3.681597 -1.7141,-6.45025 0,-2.780438 0.57129,-4.936744 1.7141,-6.46834 0.18233,-0.244369 0.37791,-0.466413 0.58394,-0.671793 z m -33.57833,0.513146 0.55864,0.756026 h 5.19452 l 4.04677,5.866825 0.73795,-1.056266 -3.84008,-5.566585 z m 14.84511,0 -0.52813,0.756026 h 6.28076 l -7.13963,9.630936 6.9355,9.405628 h 1.50275 l -7.49307,-10.161138 7.13959,-9.631452 z m -42.93433,1.250569 v 18.542021 h 0.94464 V 88.215827 Z m 16.47031,0 -5.75624,13.470496 h 0.62218 l 5.13406,-12.014769 z m 67.65787,11.420493 v 1.235583 c 1.34951,0.660152 2.66073,1.179407 3.93259,1.552365 1.57871,0.44769 3.0985,0.67179 4.5594,0.67179 1.48447,0 2.62128,-0.24777 3.41067,-0.74259 0.28413,-0.178127 0.51575,-0.384451 0.69762,-0.617536 -0.77319,0.40154 -1.82589,0.604096 -3.16312,0.604096 -1.46089,0 -2.98069,-0.224094 -4.5594,-0.671792 -1.56694,-0.459478 -3.19299,-1.136521 -4.87776,-2.031916 z m -46.23903,1.621605 -3.8685,5.499923 h 0.41291 l 3.66334,-5.20795 z"
         id="text3101" />
    </g>
  </g>
</svg>
