<?xml version="1.0" encoding="UTF-8" standalone="no"?>
<!--
Propuesta 02 para logotipo proyecto MxOS.
Autor: Miguel Angel Marcial Martinez @fitorec
Licencia: Creative Commons CC BY-SA 4.0
-->
<svg
   xmlns:dc="http://purl.org/dc/elements/1.1/"
   xmlns:cc="http://creativecommons.org/ns#"
   xmlns:rdf="http://www.w3.org/1999/02/22-rdf-syntax-ns#"
   xmlns:svg="http://www.w3.org/2000/svg"
   xmlns="http://www.w3.org/2000/svg"
   id="propuesta-02"
   version="1.1"
   viewBox="0 0 150 150"
   height="150mm"
   width="150mm">
  <defs
     id="defs248">
    <filter
       height="1.108032"
       y="-0.05401599"
       width="1.053992"
       x="-0.026996003"
       id="filter3238"
       style="color-interpolation-filters:sRGB">
      <feGaussianBlur
         id="feGaussianBlur3240"
         stdDeviation="0.72001796" />
    </filter>
    <filter
       height="1.0741538"
       y="-0.03707692"
       width="1.0354847"
       x="-0.017742332"
       id="filter3250"
       style="color-interpolation-filters:sRGB">
      <feGaussianBlur
         id="feGaussianBlur3252"
         stdDeviation="0.50545754" />
    </filter>
    <filter
       height="1.048"
       y="-0.024"
       width="1.048"
       x="-0.024"
       id="filter3190"
       style="color-interpolation-filters:sRGB">
      <feGaussianBlur
         id="feGaussianBlur3192"
         stdDeviation="1.6404166" />
    </filter>
    <filter
       height="1.4545048"
       y="-0.22725242"
       width="1.2375263"
       x="-0.11876316"
       id="filter3376"
       style="color-interpolation-filters:sRGB">
      <feGaussianBlur
         id="feGaussianBlur3378"
         stdDeviation="3.2142434" />
    </filter>
    <filter
       height="1.2606643"
       y="-0.13033222"
       width="1.1239401"
       x="-0.061970063"
       id="filter3304"
       style="color-interpolation-filters:sRGB">
      <feGaussianBlur
         id="feGaussianBlur3306"
         stdDeviation="1.7767668" />
    </filter>
  </defs>
  <metadata
     id="metadata251">
    <rdf:RDF>
      <cc:Work
         rdf:about="">
        <dc:format>image/svg+xml</dc:format>
        <dc:type
           rdf:resource="http://purl.org/dc/dcmitype/StillImage" />
        <dc:title></dc:title>
      </cc:Work>
    </rdf:RDF>
  </metadata>
  <rect
     ry="23.477942"
     y="2.218399"
     x="2.2183876"
     height="145.56322"
     width="145.56322"
     id="rect3116"
     style="opacity:1;fill:#f9f9f9;fill-opacity:1;stroke:#1a1a1a;stroke-width:4.43677521;stroke-linecap:round;stroke-linejoin:bevel;stroke-miterlimit:4;stroke-dasharray:none;stroke-dashoffset:0;stroke-opacity:1;paint-order:markers stroke fill" />
  <path
     style="opacity:1;fill:#4d4d4d;fill-opacity:0.16917294;stroke:none;stroke-width:5;stroke-linecap:round;stroke-linejoin:bevel;stroke-miterlimit:4;stroke-dasharray:none;stroke-dashoffset:0;stroke-opacity:1;paint-order:markers stroke fill;filter:url(#filter3190)"
     d="m 27.207991,145.73327 c -14.65792,0 -26.45833034,11.80042 -26.45833034,26.45833 v 111.12501 c 0,14.65792 11.80041034,26.45833 26.45833034,26.45833 H 138.333 c 14.65791,0 26.45833,-11.80041 26.45833,-26.45833 V 172.1916 c 0,-14.65791 -11.80042,-26.45833 -26.45833,-26.45833 z m 1.38284,8.46667 H 136.05147 c 13.3718,0 24.13651,10.76469 24.13651,24.13651 v 101.3747 c 0,13.37181 -10.76471,24.13702 -24.13651,24.13702 H 28.590831 c -13.3718,0 -24.1370103,-10.76521 -24.1370103,-24.13702 v -101.3747 c 0,-13.37182 10.7652103,-24.13651 24.1370103,-24.13651 z"
     id="rect3165"
     transform="matrix(0.88750204,0,0,0.88750204,1.6701194,-126.85559)" />
  <text
     xml:space="preserve"
     style="font-style:normal;font-weight:normal;font-size:44.88074112px;line-height:1.25;font-family:sans-serif;letter-spacing:0px;word-spacing:0px;fill:#ffffff;fill-opacity:1;stroke:none;stroke-width:6.73211098;filter:url(#filter3304)"
     x="11.263751"
     y="243.36633"
     id="text3258"
     transform="matrix(0.88750204,0,0,0.88750204,1.6701194,-126.85559)"><tspan
       id="tspan3256"
       x="11.263751"
       y="243.36633"
       style="font-weight:bold;fill:#ffffff;fill-opacity:1;stroke-width:6.73211098">Mx<tspan
   style="fill:#ffffff;fill-opacity:1;stroke-width:6.73211098"
   id="tspan3254" /></tspan></text>
  <path
     id="path354"
     transform="scale(0.26458333)"
     d="M 55.224609 223.99219 L 55.224609 333.74023 L 82.054688 333.74023 L 82.054688 253.4707 L 107.3418 312.64453 L 125.27734 312.64453 L 150.56445 253.4707 L 150.56445 333.74023 L 177.32227 333.74023 L 177.32227 223.99219 L 141.37695 223.99219 L 116.23633 282.72656 L 91.244141 223.99219 L 55.224609 223.99219 z M 194.96484 251.41211 L 224.66211 291.62109 L 193.49414 333.74023 L 221.35352 333.74023 L 239.6582 307.71875 L 258.18164 333.74023 L 286.04102 333.74023 L 254.87305 291.47461 L 284.57031 251.41211 L 256.71094 251.41211 L 239.6582 275.81641 L 222.82422 251.41211 L 194.96484 251.41211 z "
     style="font-style:normal;font-weight:bold;font-size:39.83174896px;line-height:1.25;font-family:sans-serif;letter-spacing:0px;word-spacing:0px;fill:#00815b;fill-opacity:1;stroke:none;stroke-width:22.58177948" />
  <text
     id="text3310"
     y="242.62523"
     x="83.17794"
     style="font-style:normal;font-weight:normal;font-size:44.88074112px;line-height:1.25;font-family:sans-serif;letter-spacing:0px;word-spacing:0px;fill:#ffffff;fill-opacity:1;stroke:none;stroke-width:6.73211098;filter:url(#filter3376)"
     xml:space="preserve"
     transform="matrix(0.88750204,0,0,0.88750204,1.6701194,-126.85559)"><tspan
       style="font-weight:bold;fill:#ffffff;fill-opacity:1;stroke-width:6.73211098"
       y="242.62523"
       x="83.17794"
       id="tspan3308">OS</tspan></text>
  <path
     id="path346"
     transform="scale(0.26458333)"
     d="M 349.27148 222.66016 C 331.67848 222.66016 317.85865 227.70758 307.8125 237.80273 C 297.81536 247.89789 292.81641 261.83987 292.81641 279.62891 C 292.81641 297.36893 297.81536 311.28766 307.8125 321.38281 C 317.85865 331.47797 331.67848 336.52539 349.27148 336.52539 C 366.9135 336.52539 380.73334 331.47797 390.73047 321.38281 C 400.72762 311.28766 405.72656 297.36893 405.72656 279.62891 C 405.72656 261.83987 400.72762 247.89789 390.73047 237.80273 C 380.73334 227.70758 366.9135 222.66016 349.27148 222.66016 z M 465.12109 222.66016 C 451.88957 222.66016 441.74431 225.5998 434.6875 231.48047 C 427.63069 237.36114 424.10352 245.76706 424.10352 256.69531 C 424.10352 265.41831 426.62624 272.35246 431.67383 277.49805 C 436.77042 282.64363 444.8079 286.39187 455.78516 288.74414 L 466.73828 291.16992 C 473.40305 292.64009 477.83772 294.30576 480.04297 296.16797 C 482.29723 298.03018 483.42383 300.67703 483.42383 304.10742 C 483.42383 307.92986 481.78338 310.8695 478.5 312.92773 C 475.21662 314.98597 470.48722 316.01562 464.3125 316.01562 C 458.2358 316.01563 451.91441 315.08487 445.34766 313.22266 C 438.82991 311.31144 432.06639 308.49396 425.05859 304.76953 L 425.05859 328.66016 C 432.06639 331.25745 439.07423 333.21591 446.08203 334.53906 C 453.08985 335.86221 460.07246 336.52539 467.03125 336.52539 C 481.78194 336.52539 492.73583 333.5838 499.89062 327.70312 C 507.09445 321.77345 510.69531 312.75673 510.69531 300.65234 C 510.69531 291.43929 508.12409 284.33451 502.97852 279.33594 C 497.83292 274.33737 489.15746 270.61239 476.95508 268.16211 L 464.90039 265.73633 C 459.16675 264.56019 455.19744 263.16406 452.99219 261.54688 C 450.83594 259.88069 449.75781 257.57706 449.75781 254.63672 C 449.75781 250.71627 451.37501 247.8251 454.60938 245.96289 C 457.84374 244.10068 462.84268 243.16992 469.60547 243.16992 C 474.70204 243.16992 480.11594 243.85441 485.84961 245.22656 C 491.58325 246.59872 497.4645 248.63282 503.49219 251.32812 L 503.49219 228.09961 C 496.6804 226.2864 490.08947 224.93874 483.71875 224.05664 C 477.34803 223.12553 471.14879 222.66016 465.12109 222.66016 z M 349.27148 243.16992 C 357.94547 243.16992 364.65856 246.35388 369.41211 252.72461 C 374.16565 259.09534 376.54297 268.06358 376.54297 279.62891 C 376.54297 291.14522 374.16565 300.08826 369.41211 306.45898 C 364.65856 312.82971 357.94547 316.01562 349.27148 316.01562 C 340.6465 316.01563 333.95667 312.82971 329.20312 306.45898 C 324.44958 300.08826 322.07422 291.14522 322.07422 279.62891 C 322.07422 268.06358 324.44958 259.09534 329.20312 252.72461 C 333.95667 246.35388 340.6465 243.16992 349.27148 243.16992 z "
     style="font-style:normal;font-weight:bold;font-size:39.83174896px;line-height:1.25;font-family:sans-serif;letter-spacing:0px;word-spacing:0px;fill:#a02c2c;fill-opacity:1;stroke:none;stroke-width:22.58177948" />
  <path
     style="font-style:normal;font-weight:normal;font-size:44.88074112px;line-height:1.25;font-family:sans-serif;letter-spacing:0px;word-spacing:0px;fill:#36b691;fill-opacity:0.53007519;stroke:none;stroke-width:6.73211098;filter:url(#filter3250)"
     d="m 14.685401,209.72565 v 32.71842 h 2.12339 v -31.73244 h 9.03406 l -0.4196,-0.98598 z m 25.68371,0 -6.64043,15.51326 1.26918,2.98225 7.49464,-17.50953 h 8.59274 v -0.98598 z m 15.975762,8.17417 8.85322,11.98739 -9.29196,12.55686 h 2.85306 l 8.56229,-11.5714 -8.85323,-11.98738 h 6.8616 l -0.67956,-0.98547 z m 18.40817,0 -4.35787,6.2358 1.39681,2.0252 5.08445,-7.27553 h 5.45134 l 0.73072,-0.98547 z m -49.945262,1.59939 v 3.98425 l 5.41467,12.67107 h 1.70272 z m 20.42408,0 -2.12338,4.96869 v 17.97617 h 2.12338 z m 26.560122,16.17266 -0.70641,1.00459 4.1057,5.76761 h 1.4216 z"
     id="text3198"
     transform="matrix(0.88750204,0,0,0.88750204,1.6701194,-126.85559)" />
  <path
     style="font-style:normal;font-weight:normal;font-size:44.88074112px;line-height:1.25;font-family:sans-serif;letter-spacing:0px;word-spacing:0px;fill:#d87676;fill-opacity:0.6627451;stroke:none;stroke-width:6.73211098;filter:url(#filter3238)"
     d="m 102.24372,209.31531 c -5.244864,0 -9.365007,1.50487 -12.359967,4.51445 -2.98037,3.00958 -4.47053,7.16572 -4.47053,12.46901 0,4.66494 1.16158,8.44194 3.48041,11.33368 -1.57927,-2.64215 -2.37299,-5.88501 -2.37299,-9.73481 0,-5.3033 1.49018,-9.45994 4.47053,-12.46953 2.99498,-3.00958 7.114593,-4.51445 12.359457,-4.51445 5.25947,0 9.37961,1.50487 12.35996,4.51445 0.35028,0.35371 0.67792,0.72462 0.98703,1.11001 -0.58955,-0.98636 -1.28514,-1.89112 -2.09444,-2.70836 -2.98038,-3.00958 -7.09999,-4.51445 -12.35946,-4.51445 z m 34.53691,0 c -3.94459,0 -6.96852,0.87666 -9.0723,2.62981 -2.10381,1.75315 -3.15589,4.25839 -3.15589,7.51634 0,2.48564 0.68916,4.48319 2.06396,5.99446 -0.63646,-1.24016 -0.95705,-2.70434 -0.95705,-4.39559 0,-3.25795 1.05209,-5.7637 3.15587,-7.51686 2.10381,-1.75315 5.12823,-2.62981 9.07285,-2.62981 1.79697,0 3.64511,0.13893 5.54434,0.41651 1.55131,0.2148 3.14881,0.52709 4.78782,0.92708 v -1.32034 c -2.03073,-0.54055 -3.99597,-0.94212 -5.89523,-1.20509 -1.89926,-0.27758 -3.74737,-0.41651 -5.54437,-0.41651 z m -27.8448,10.05106 c 0.95787,1.78791 1.43814,4.09773 1.43814,6.9324 0,3.43326 -0.70882,6.09974 -2.12595,7.99899 -1.41714,1.89926 -3.41839,2.84893 -6.0043,2.84893 -2.328254,0 -4.182034,-0.78118 -5.564007,-2.33837 0.207303,0.38653 0.436173,0.74984 0.688343,1.0878 1.41713,1.89925 3.411274,2.84892 5.982574,2.84892 2.58591,0 4.58767,-0.94967 6.0048,-2.84892 1.41714,-1.89926 2.12545,-4.56523 2.12545,-7.99848 0,-3.44787 -0.70831,-6.12145 -2.12545,-8.0207 -0.13398,-0.17957 -0.27517,-0.34798 -0.4196,-0.51057 z m 24.42744,1.67174 c 0.11637,0.59972 0.41826,1.08983 0.90848,1.46864 0.65743,0.48212 1.84083,0.89839 3.55017,1.24902 l 3.59408,0.72295 c 3.63781,0.73049 6.22366,1.84089 7.75769,3.33107 0.0862,0.0838 0.16922,0.17012 0.25061,0.25786 -0.35354,-0.69986 -0.80491,-1.3194 -1.35752,-1.85622 -1.53403,-1.49018 -4.11988,-2.60058 -7.75767,-3.33106 l -3.5941,-0.72347 c -1.55297,-0.31856 -2.66702,-0.6917 -3.35174,-1.11879 z m 8.76329,11.63494 c 0.0715,0.2838 0.1111,0.58994 0.1111,0.92346 0,1.13955 -0.48979,2.01622 -1.46865,2.62982 -0.97882,0.61361 -2.38836,0.92036 -4.22918,0.92036 -1.8116,0 -3.69623,-0.27786 -5.65393,-0.83303 -1.94307,-0.56977 -3.95954,-1.40942 -6.04872,-2.51975 v 7.12206 c 0.36915,0.13682 0.73827,0.26571 1.10741,0.39067 v -5.91438 c 2.08918,1.11035 4.10515,1.9505 6.04822,2.52027 1.95768,0.55517 3.84233,0.83251 5.65391,0.83251 1.84081,0 3.25088,-0.30675 4.22973,-0.92036 0.97883,-0.6136 1.46812,-1.49026 1.46812,-2.62982 0,-1.02267 -0.33615,-1.81161 -1.00819,-2.36678 -0.0621,-0.0525 -0.13584,-0.10361 -0.20982,-0.15503 z"
     id="text3223"
     transform="matrix(0.88750204,0,0,0.88750204,1.6701194,-126.85559)" />
</svg>
