<?xml version="1.0" encoding="UTF-8" standalone="no"?>
<!-- Created with Inkscape (http://www.inkscape.org/) -->

<svg
   xmlns:dc="http://purl.org/dc/elements/1.1/"
   xmlns:cc="http://creativecommons.org/ns#"
   xmlns:rdf="http://www.w3.org/1999/02/22-rdf-syntax-ns#"
   xmlns:svg="http://www.w3.org/2000/svg"
   xmlns="http://www.w3.org/2000/svg"
   xmlns:sodipodi="http://sodipodi.sourceforge.net/DTD/sodipodi-0.dtd"
   xmlns:inkscape="http://www.inkscape.org/namespaces/inkscape"
   width="150mm"
   height="150mm"
   viewBox="0 0 150 150"
   version="1.1"
   id="svg254"
   inkscape:version="0.92.5 (2060ec1f9f, 2020-04-08)"
   sodipodi:docname="03.svg">
  <defs
     id="defs248">
    <filter
       inkscape:collect="always"
       style="color-interpolation-filters:sRGB"
       id="filter3238"
       x="-0.026996003"
       width="1.053992"
       y="-0.05401599"
       height="1.108032">
      <feGaussianBlur
         inkscape:collect="always"
         stdDeviation="0.72001796"
         id="feGaussianBlur3240" />
    </filter>
    <filter
       inkscape:collect="always"
       style="color-interpolation-filters:sRGB"
       id="filter3250"
       x="-0.017742332"
       width="1.0354847"
       y="-0.03707692"
       height="1.0741538">
      <feGaussianBlur
         inkscape:collect="always"
         stdDeviation="0.50545754"
         id="feGaussianBlur3252" />
    </filter>
    <filter
       inkscape:collect="always"
       style="color-interpolation-filters:sRGB"
       id="filter3190"
       x="-0.024"
       width="1.048"
       y="-0.024"
       height="1.048">
      <feGaussianBlur
         inkscape:collect="always"
         stdDeviation="1.6404166"
         id="feGaussianBlur3192" />
    </filter>
    <filter
       inkscape:collect="always"
       style="color-interpolation-filters:sRGB"
       id="filter3304"
       x="-0.061970063"
       width="1.1239401"
       y="-0.13033222"
       height="1.2606643">
      <feGaussianBlur
         inkscape:collect="always"
         stdDeviation="1.7767668"
         id="feGaussianBlur3306" />
    </filter>
    <filter
       inkscape:collect="always"
       style="color-interpolation-filters:sRGB"
       id="filter1616"
       x="-0.06943077"
       width="1.1388615"
       y="-0.13285526"
       height="1.2657105">
      <feGaussianBlur
         inkscape:collect="always"
         stdDeviation="1.8790961"
         id="feGaussianBlur1618" />
    </filter>
    <filter
       inkscape:collect="always"
       style="color-interpolation-filters:sRGB"
       id="filter1646"
       x="-0.023131944"
       width="1.0462639"
       y="-0.024935747"
       height="1.0498715">
      <feGaussianBlur
         inkscape:collect="always"
         stdDeviation="0.67096727"
         id="feGaussianBlur1648" />
    </filter>
  </defs>
  <sodipodi:namedview
     id="base"
     pagecolor="#ffffff"
     bordercolor="#666666"
     borderopacity="1.0"
     inkscape:pageopacity="0.0"
     inkscape:pageshadow="2"
     inkscape:zoom="0.48907828"
     inkscape:cx="691.41206"
     inkscape:cy="196.43836"
     inkscape:document-units="mm"
     inkscape:current-layer="layer1"
     showgrid="false"
     inkscape:window-width="1366"
     inkscape:window-height="737"
     inkscape:window-x="1366"
     inkscape:window-y="0"
     inkscape:window-maximized="1" />
  <metadata
     id="metadata251">
    <rdf:RDF>
      <cc:Work
         rdf:about="">
        <dc:format>image/svg+xml</dc:format>
        <dc:type
           rdf:resource="http://purl.org/dc/dcmitype/StillImage" />
        <dc:title></dc:title>
      </cc:Work>
    </rdf:RDF>
  </metadata>
  <g
     inkscape:label="Capa 1"
     inkscape:groupmode="layer"
     id="layer1"
     transform="translate(0,-147)">
    <rect
       ry="23.477942"
       y="149.2184"
       x="2.2183876"
       height="145.56322"
       width="145.56322"
       id="rect3116"
       style="opacity:1;fill:#f9f9f9;fill-opacity:1;stroke:#1a1a1a;stroke-width:4.43677521;stroke-linecap:round;stroke-linejoin:bevel;stroke-miterlimit:4;stroke-dasharray:none;stroke-dashoffset:0;stroke-opacity:1;paint-order:markers stroke fill" />
    <path
       style="opacity:1;fill:#4d4d4d;fill-opacity:0.16917294;stroke:none;stroke-width:5;stroke-linecap:round;stroke-linejoin:bevel;stroke-miterlimit:4;stroke-dasharray:none;stroke-dashoffset:0;stroke-opacity:1;paint-order:markers stroke fill;filter:url(#filter3190)"
       d="m 27.207991,145.73327 c -14.65792,0 -26.45833034,11.80042 -26.45833034,26.45833 v 111.12501 c 0,14.65792 11.80041034,26.45833 26.45833034,26.45833 H 138.333 c 14.65791,0 26.45833,-11.80041 26.45833,-26.45833 V 172.1916 c 0,-14.65791 -11.80042,-26.45833 -26.45833,-26.45833 z m 1.38284,8.46667 H 136.05147 c 13.3718,0 24.13651,10.76469 24.13651,24.13651 v 101.3747 c 0,13.37181 -10.76471,24.13702 -24.13651,24.13702 H 28.590831 c -13.3718,0 -24.1370103,-10.76521 -24.1370103,-24.13702 v -101.3747 c 0,-13.37182 10.7652103,-24.13651 24.1370103,-24.13651 z"
       id="rect3165"
       inkscape:connector-curvature="0"
       inkscape:export-xdpi="177.244"
       inkscape:export-ydpi="177.244"
       transform="matrix(0.88750204,0,0,0.88750204,1.6701194,20.144415)" />
    <g
       id="g1681">
      <text
         transform="matrix(0.88750204,0,0,0.88750204,1.6701194,56.656932)"
         id="text3258"
         y="243.36633"
         x="11.263751"
         style="font-style:normal;font-weight:normal;font-size:44.88074112px;line-height:1.25;font-family:sans-serif;letter-spacing:0px;word-spacing:0px;fill:#ffffff;fill-opacity:1;stroke:none;stroke-width:6.73211098;filter:url(#filter3304);"
         xml:space="preserve"><tspan
           style="font-weight:bold;fill:#ffffff;fill-opacity:1;stroke-width:6.73211098;"
           y="243.36633"
           x="11.263751"
           id="tspan3256"
           sodipodi:role="line">Mx<tspan
   id="tspan3254"
   style="fill:#ffffff;fill-opacity:1;stroke-width:6.73211098;" /></tspan></text>
      <text
         xml:space="preserve"
         style="font-style:normal;font-weight:normal;font-size:39.83174896px;line-height:1.25;font-family:sans-serif;letter-spacing:0px;word-spacing:0px;fill:#00815b;fill-opacity:1;stroke:none;stroke-width:5.97476244"
         x="10.955106"
         y="271.81482"
         id="text3122"><tspan
           sodipodi:role="line"
           id="tspan3120"
           x="10.955106"
           y="271.81482"
           style="font-weight:bold;fill:#00815b;fill-opacity:1;stroke-width:5.97476244">Mx<tspan
   style="fill:#00815b;fill-opacity:1;stroke-width:5.97476244"
   id="tspan3118" /></tspan></text>
      <text
         transform="matrix(0.88750204,0,0,0.88750204,1.6701194,56.656932)"
         xml:space="preserve"
         style="font-style:normal;font-weight:normal;font-size:44.88074112px;line-height:1.25;font-family:sans-serif;letter-spacing:0px;word-spacing:0px;fill:#ffffff;fill-opacity:1;stroke:none;stroke-width:6.73211098;filter:url(#filter1616);"
         x="83.17794"
         y="242.62523"
         id="text3310"><tspan
           sodipodi:role="line"
           id="tspan3308"
           x="83.17794"
           y="242.62523"
           style="font-weight:bold;fill:#ffffff;fill-opacity:1;stroke-width:6.73211098;">OS</tspan></text>
      <text
         id="text3128"
         y="271.9873"
         x="75.4907"
         style="font-style:normal;font-weight:normal;font-size:39.83174896px;line-height:1.25;font-family:sans-serif;letter-spacing:0px;word-spacing:0px;fill:#a02c2c;fill-opacity:1;stroke:none;stroke-width:5.97476244"
         xml:space="preserve"><tspan
           style="font-weight:bold;fill:#a02c2c;fill-opacity:1;stroke-width:5.97476244"
           y="271.9873"
           x="75.4907"
           id="tspan3126"
           sodipodi:role="line">OS</tspan></text>
      <path
         transform="matrix(0.88750204,0,0,0.88750204,1.6701194,56.656932)"
         inkscape:connector-curvature="0"
         id="text3198"
         d="m 14.685401,209.72565 v 32.71842 h 2.12339 v -31.73244 h 9.03406 l -0.4196,-0.98598 z m 25.68371,0 -6.64043,15.51326 1.26918,2.98225 7.49464,-17.50953 h 8.59274 v -0.98598 z m 15.975762,8.17417 8.85322,11.98739 -9.29196,12.55686 h 2.85306 l 8.56229,-11.5714 -8.85323,-11.98738 h 6.8616 l -0.67956,-0.98547 z m 18.40817,0 -4.35787,6.2358 1.39681,2.0252 5.08445,-7.27553 h 5.45134 l 0.73072,-0.98547 z m -49.945262,1.59939 v 3.98425 l 5.41467,12.67107 h 1.70272 z m 20.42408,0 -2.12338,4.96869 v 17.97617 h 2.12338 z m 26.560122,16.17266 -0.70641,1.00459 4.1057,5.76761 h 1.4216 z"
         style="font-style:normal;font-weight:normal;font-size:44.88074112px;line-height:1.25;font-family:sans-serif;letter-spacing:0px;word-spacing:0px;fill:#36b691;fill-opacity:0.53007519;stroke:none;stroke-width:6.73211098;filter:url(#filter3250)" />
      <path
         transform="matrix(0.88750204,0,0,0.88750204,1.6701194,56.656932)"
         inkscape:connector-curvature="0"
         id="text3223"
         d="m 102.24372,209.31531 c -5.244864,0 -9.365007,1.50487 -12.359967,4.51445 -2.98037,3.00958 -4.47053,7.16572 -4.47053,12.46901 0,4.66494 1.16158,8.44194 3.48041,11.33368 -1.57927,-2.64215 -2.37299,-5.88501 -2.37299,-9.73481 0,-5.3033 1.49018,-9.45994 4.47053,-12.46953 2.99498,-3.00958 7.114593,-4.51445 12.359457,-4.51445 5.25947,0 9.37961,1.50487 12.35996,4.51445 0.35028,0.35371 0.67792,0.72462 0.98703,1.11001 -0.58955,-0.98636 -1.28514,-1.89112 -2.09444,-2.70836 -2.98038,-3.00958 -7.09999,-4.51445 -12.35946,-4.51445 z m 34.53691,0 c -3.94459,0 -6.96852,0.87666 -9.0723,2.62981 -2.10381,1.75315 -3.15589,4.25839 -3.15589,7.51634 0,2.48564 0.68916,4.48319 2.06396,5.99446 -0.63646,-1.24016 -0.95705,-2.70434 -0.95705,-4.39559 0,-3.25795 1.05209,-5.7637 3.15587,-7.51686 2.10381,-1.75315 5.12823,-2.62981 9.07285,-2.62981 1.79697,0 3.64511,0.13893 5.54434,0.41651 1.55131,0.2148 3.14881,0.52709 4.78782,0.92708 v -1.32034 c -2.03073,-0.54055 -3.99597,-0.94212 -5.89523,-1.20509 -1.89926,-0.27758 -3.74737,-0.41651 -5.54437,-0.41651 z m -27.8448,10.05106 c 0.95787,1.78791 1.43814,4.09773 1.43814,6.9324 0,3.43326 -0.70882,6.09974 -2.12595,7.99899 -1.41714,1.89926 -3.41839,2.84893 -6.0043,2.84893 -2.328254,0 -4.182034,-0.78118 -5.564007,-2.33837 0.207303,0.38653 0.436173,0.74984 0.688343,1.0878 1.41713,1.89925 3.411274,2.84892 5.982574,2.84892 2.58591,0 4.58767,-0.94967 6.0048,-2.84892 1.41714,-1.89926 2.12545,-4.56523 2.12545,-7.99848 0,-3.44787 -0.70831,-6.12145 -2.12545,-8.0207 -0.13398,-0.17957 -0.27517,-0.34798 -0.4196,-0.51057 z m 24.42744,1.67174 c 0.11637,0.59972 0.41826,1.08983 0.90848,1.46864 0.65743,0.48212 1.84083,0.89839 3.55017,1.24902 l 3.59408,0.72295 c 3.63781,0.73049 6.22366,1.84089 7.75769,3.33107 0.0862,0.0838 0.16922,0.17012 0.25061,0.25786 -0.35354,-0.69986 -0.80491,-1.3194 -1.35752,-1.85622 -1.53403,-1.49018 -4.11988,-2.60058 -7.75767,-3.33106 l -3.5941,-0.72347 c -1.55297,-0.31856 -2.66702,-0.6917 -3.35174,-1.11879 z m 8.76329,11.63494 c 0.0715,0.2838 0.1111,0.58994 0.1111,0.92346 0,1.13955 -0.48979,2.01622 -1.46865,2.62982 -0.97882,0.61361 -2.38836,0.92036 -4.22918,0.92036 -1.8116,0 -3.69623,-0.27786 -5.65393,-0.83303 -1.94307,-0.56977 -3.95954,-1.40942 -6.04872,-2.51975 v 7.12206 c 0.36915,0.13682 0.73827,0.26571 1.10741,0.39067 v -5.91438 c 2.08918,1.11035 4.10515,1.9505 6.04822,2.52027 1.95768,0.55517 3.84233,0.83251 5.65391,0.83251 1.84081,0 3.25088,-0.30675 4.22973,-0.92036 0.97883,-0.6136 1.46812,-1.49026 1.46812,-2.62982 0,-1.02267 -0.33615,-1.81161 -1.00819,-2.36678 -0.0621,-0.0525 -0.13584,-0.10361 -0.20982,-0.15503 z"
         style="font-style:normal;font-weight:normal;font-size:44.88074112px;line-height:1.25;font-family:sans-serif;letter-spacing:0px;word-spacing:0px;fill:#d87676;fill-opacity:0.6627451;stroke:none;stroke-width:6.73211098;filter:url(#filter3238)" />
    </g>
    <path
       style="fill:#b3b3b3;fill-opacity:1;stroke-width:0.13403952;filter:url(#filter1646)"
       d="m 75.449219,167.84154 c -1.866758,5.99452 -3.92833,12.07511 -5.460938,18.08203 1.964963,3.91388 3.524207,8.09544 5.947266,11.75 2.454061,-3.74507 4.292835,-8.07582 5.998047,-12.13085 -1.995092,-6.38635 -3.829581,-12.82486 -5.982422,-19.16016 -0.167318,0.48633 -0.334636,0.97266 -0.501953,1.45898 z m 19.515625,1.55274 c -5.492994,5.3725 -7.764112,13.16138 -11.311035,19.81661 -1.708978,4.08503 -4.367029,8.20728 -5.790528,12.14823 1.575541,2.48728 3.226867,4.95753 5.251953,7.10547 2.514273,-3.00865 5.373909,-5.93047 7.38086,-9.24805 1.80828,-9.8661 3.588272,-19.74707 5.255859,-29.63476 -0.265304,-0.001 -0.512531,-0.48366 -0.787109,-0.1875 z m -38.628906,0.10351 c 0.266818,4.97721 1.772088,10.26944 2.470703,15.35938 0.961353,4.95537 1.638811,10.01536 2.773437,14.91211 4.503092,5.56484 8.913071,11.31197 14.388672,15.96875 1.815873,-1.53126 3.447856,-3.26727 5.179688,-4.89063 -10.217364,-11.4122 -13.761688,-26.87359 -22.259766,-39.35742 -0.706427,-0.58228 -1.454033,-2.57825 -2.552734,-1.99219 z m -14.925782,13.90039 c -0.671051,1.65387 1.660942,4.19773 2.082535,6.1712 4.53893,10.24654 8.359738,20.84711 13.360825,30.86787 5.889993,9.7219 19.510317,13.48459 29.507375,7.97237 1.328676,-0.38019 3.50904,-2.08316 1.215281,-2.47042 C 74.757311,222.09067 66.548687,210.43934 58.385817,200.58012 53.148689,194.5733 48.766249,187.21934 41.625,183.27318 Z m 68.628904,-0.041 c -8.13403,4.93203 -13.037828,13.57385 -19.203764,20.55815 -3.844653,4.90414 -8.037491,9.51914 -12.493499,13.86763 4.089145,3.04205 9.038851,5.98028 14.273437,5.70117 4.728604,-4.91752 6.038369,-12.07428 9.085496,-18.01229 3.06826,-7.28285 6.15355,-14.55929 9.20357,-21.84904 -0.29745,0.0406 -0.54855,-0.56473 -0.86524,-0.26562 z"
       id="path1620"
       inkscape:connector-curvature="0" />
    <path
       style="fill:#333333;fill-opacity:1;stroke-width:0.13403952"
       d="m 73.759655,229.26644 c -7.40269,-0.71272 -14.154373,-5.34254 -17.488864,-11.99259 -0.299096,-0.59649 -3.690614,-8.55844 -7.536715,-17.69322 -3.846102,-9.13478 -7.025804,-16.66253 -7.066003,-16.72832 -0.188014,-0.30771 1.443828,0.74115 2.678788,1.72179 3.071703,2.43913 5.58796,5.23522 12.609689,14.01204 7.77864,9.72293 10.111058,12.4396 13.786448,16.05769 4.322109,4.25472 7.624212,6.76194 11.490517,8.72451 1.605462,0.81495 3.974695,1.73535 5.208894,2.02355 0.387038,0.0904 0.703706,0.2061 0.703706,0.25714 0,0.10674 -1.293282,0.87221 -2.49989,1.47965 -2.195291,1.10518 -5.12716,1.91081 -7.821809,2.14928 -1.73453,0.15352 -2.369309,0.15172 -4.064761,-0.0115 z m 15.793872,-7.55165 c -3.158685,-0.66869 -6.711729,-2.32831 -9.692798,-4.52749 l -0.712161,-0.52537 2.475006,-2.50277 c 3.995389,-4.04021 5.752693,-6.09777 13.642658,-15.97374 6.648148,-8.32157 9.242348,-11.1961 12.283948,-13.61132 1.23496,-0.98064 2.86681,-2.0295 2.67879,-1.72179 -0.0402,0.0658 -3.22044,7.59902 -7.0672,16.74053 -3.84676,9.14149 -7.32704,17.25423 -7.733958,18.02831 -0.758127,1.44217 -1.564192,2.66158 -2.503062,3.78661 -0.509378,0.61039 -0.559545,0.63633 -1.214058,0.62793 -0.375498,-0.005 -1.34622,-0.14922 -2.157165,-0.3209 z m -15.21348,-9.17267 c -2.711329,-2.5589 -6.299945,-6.60258 -10.361944,-11.67591 -1.032951,-1.29013 -1.925576,-2.40823 -1.983607,-2.48466 -0.05801,-0.0764 -1.257948,-6.68123 -2.66648,-14.67733 -1.408533,-7.9961 -2.590724,-14.659 -2.627087,-14.80643 -0.128187,-0.51972 1.557428,1.44898 2.683507,3.13418 2.016033,3.01703 3.287885,5.48109 7.653193,14.82711 3.856598,8.25689 5.990467,12.36761 8.349563,16.08474 1.2129,1.91112 3.039891,4.44041 4.201412,5.81645 l 0.836542,0.99104 -2.19688,2.12539 c -1.20828,1.16895 -2.230596,2.12422 -2.271815,2.1228 -0.04121,-0.002 -0.768605,-0.65724 -1.616404,-1.45738 z m 7.981363,-6.81698 c -0.875752,-1.05434 -2.595481,-3.451 -3.429691,-4.7797 l -0.58142,-0.92607 0.374899,-0.68241 c 1.392373,-2.53441 3.732709,-7.28134 6.581402,-13.34913 4.266302,-9.08736 5.59762,-11.62184 7.654144,-14.57151 0.960325,-1.37739 2.385979,-2.95459 2.276538,-2.51853 -0.03699,0.14743 -1.219724,6.81033 -2.628257,14.80643 -1.408532,7.9961 -2.608103,14.6009 -2.665705,14.67733 -1.107333,1.46932 -6.686331,8.24835 -6.788214,8.24835 -0.02317,0 -0.38037,-0.40714 -0.793696,-0.90476 z m -7.953586,-12.93481 c -0.817859,-1.64031 -2.029861,-4.14521 -2.693352,-5.56645 l -1.206339,-2.58406 2.706181,-8.84281 c 1.488409,-4.86354 2.736796,-8.8428 2.774203,-8.8428 0.03744,0 1.285701,3.97893 2.77398,8.84208 l 2.705958,8.84206 -1.140281,2.45076 c -1.561841,3.35682 -4.223395,8.6836 -4.338798,8.6836 -0.05202,0 -0.763702,-1.34208 -1.581552,-2.98238 z"
       id="path3433-3"
       inkscape:connector-curvature="0" />
  </g>
</svg>
