<?xml version="1.0" encoding="UTF-8" standalone="no"?>
<!--
Propuesta 07 para logotipo proyecto MxOS.
Autor: Miguel Angel Marcial Martinez @fitorec
Licencia: Creative Commons CC BY-SA 4.0
-->
<svg
   xmlns:dc="http://purl.org/dc/elements/1.1/"
   xmlns:cc="http://creativecommons.org/ns#"
   xmlns:rdf="http://www.w3.org/1999/02/22-rdf-syntax-ns#"
   xmlns:svg="http://www.w3.org/2000/svg"
   xmlns="http://www.w3.org/2000/svg"
   width="150mm"
   height="150mm"
   viewBox="0 0 150 150"
   version="1.1"
   id="propuesta-05">
  <defs
     id="defs248">
    <filter
       style="color-interpolation-filters:sRGB"
       id="filter3238"
       x="-0.026996003"
       width="1.053992"
       y="-0.05401599"
       height="1.108032">
      <feGaussianBlur
         stdDeviation="0.72001796"
         id="feGaussianBlur3240" />
    </filter>
    <filter
       style="color-interpolation-filters:sRGB"
       id="filter3250"
       x="-0.017742332"
       width="1.0354847"
       y="-0.03707692"
       height="1.0741538">
      <feGaussianBlur
         stdDeviation="0.50545754"
         id="feGaussianBlur3252" />
    </filter>
    <filter
       style="color-interpolation-filters:sRGB"
       id="filter3190"
       x="-0.024"
       width="1.048"
       y="-0.024"
       height="1.048">
      <feGaussianBlur
         stdDeviation="1.6404166"
         id="feGaussianBlur3192" />
    </filter>
    <filter
       style="color-interpolation-filters:sRGB"
       id="filter3304"
       x="-0.061970063"
       width="1.1239401"
       y="-0.13033222"
       height="1.2606643">
      <feGaussianBlur
         stdDeviation="1.7767668"
         id="feGaussianBlur3306" />
    </filter>
    <filter
       style="color-interpolation-filters:sRGB"
       id="filter1616"
       x="-0.06943077"
       width="1.1388615"
       y="-0.13285526"
       height="1.2657105">
      <feGaussianBlur
         stdDeviation="1.8790961"
         id="feGaussianBlur1618" />
    </filter>
    <filter
       style="color-interpolation-filters:sRGB"
       id="filter3686"
       x="-0.065783136"
       width="1.1315663"
       y="-0.6825"
       height="2.365">
      <feGaussianBlur
         stdDeviation="2.4321527"
         id="feGaussianBlur3688" />
    </filter>
    <filter
       style="color-interpolation-filters:sRGB"
       id="filter1908"
       x="-0.017989326"
       width="1.0359787"
       y="-0.036042773"
       height="1.0720855">
      <feGaussianBlur
         stdDeviation="0.93886166"
         id="feGaussianBlur1910" />
    </filter>
    <filter
       style="color-interpolation-filters:sRGB"
       id="filter3304-3"
       x="-0.061970063"
       width="1.1239401"
       y="-0.13033222"
       height="1.2606643">
      <feGaussianBlur
         stdDeviation="1.7767668"
         id="feGaussianBlur3306-6" />
    </filter>
    <filter
       style="color-interpolation-filters:sRGB"
       id="filter3376"
       x="-0.11876316"
       width="1.2375263"
       y="-0.22725242"
       height="1.4545048">
      <feGaussianBlur
         stdDeviation="3.2142434"
         id="feGaussianBlur3378" />
    </filter>
    <filter
       style="color-interpolation-filters:sRGB"
       id="filter3250-0"
       x="-0.017742332"
       width="1.0354847"
       y="-0.03707692"
       height="1.0741538">
      <feGaussianBlur
         stdDeviation="0.50545754"
         id="feGaussianBlur3252-6" />
    </filter>
    <filter
       style="color-interpolation-filters:sRGB"
       id="filter3238-2"
       x="-0.026996003"
       width="1.053992"
       y="-0.05401599"
       height="1.108032">
      <feGaussianBlur
         stdDeviation="0.72001796"
         id="feGaussianBlur3240-6" />
    </filter>
  </defs>
  <metadata
     id="metadata251">
    <rdf:RDF>
      <cc:Work
         rdf:about="">
        <dc:format>image/svg+xml</dc:format>
        <dc:type
           rdf:resource="http://purl.org/dc/dcmitype/StillImage" />
        <dc:title></dc:title>
      </cc:Work>
    </rdf:RDF>
  </metadata>
  <rect
     style="opacity:1;fill:#f9f9f9;fill-opacity:1;stroke:#1a1a1a;stroke-width:4.43677521;stroke-linecap:round;stroke-linejoin:bevel;stroke-miterlimit:4;stroke-dasharray:none;stroke-dashoffset:0;stroke-opacity:1;paint-order:markers stroke fill"
     id="rect3116"
     width="145.56322"
     height="145.56322"
     x="2.2183876"
     y="2.218399"
     ry="23.477942" />
  <path
     transform="matrix(0.88750204,0,0,0.88750204,1.6701194,-126.85559)"
     id="rect3165"
     d="m 27.207991,145.73327 c -14.65792,0 -26.45833034,11.80042 -26.45833034,26.45833 v 111.12501 c 0,14.65792 11.80041034,26.45833 26.45833034,26.45833 H 138.333 c 14.65791,0 26.45833,-11.80041 26.45833,-26.45833 V 172.1916 c 0,-14.65791 -11.80042,-26.45833 -26.45833,-26.45833 z m 1.38284,8.46667 H 136.05147 c 13.3718,0 24.13651,10.76469 24.13651,24.13651 v 101.3747 c 0,13.37181 -10.76471,24.13702 -24.13651,24.13702 H 28.590831 c -13.3718,0 -24.1370103,-10.76521 -24.1370103,-24.13702 v -101.3747 c 0,-13.37182 10.7652103,-24.13651 24.1370103,-24.13651 z"
     style="opacity:1;fill:#4d4d4d;fill-opacity:0.16917294;stroke:none;stroke-width:5;stroke-linecap:round;stroke-linejoin:bevel;stroke-miterlimit:4;stroke-dasharray:none;stroke-dashoffset:0;stroke-opacity:1;paint-order:markers stroke fill;filter:url(#filter3190)" />
  <ellipse
     transform="matrix(1.1016963,0,0,1.1016963,-1381.8891,-40.38072)"
     style="opacity:1;fill:#b3b3b3;fill-opacity:1;stroke:none;stroke-width:5;stroke-linecap:round;stroke-linejoin:bevel;stroke-miterlimit:4;stroke-dasharray:none;stroke-dashoffset:0;stroke-opacity:1;paint-order:markers stroke fill;filter:url(#filter3686)"
     id="ellipse3835"
     cx="1322.4664"
     cy="104.56595"
     rx="44.366741"
     ry="4.2763124" />
  <path
     transform="matrix(0.72398062,0,0,0.72398062,21.34086,-97.016361)"
     id="path1872"
     d="m 78.26757,164.90847 c -8.731874,0.35486 -16.216826,6.18802 -21.15702,13.04014 -4.441285,6.08914 -7.438967,13.10091 -9.718614,20.24878 13.659887,4.09752 27.757159,7.22686 42.058904,7.63275 3.464029,0.062 6.939101,-0.0947 10.365783,-0.62439 0.385287,-9.5591 -0.27703,-19.43948 -3.963269,-28.37028 -2.239663,-5.46828 -6.688729,-10.57406 -12.784285,-11.54704 -1.584507,-0.23497 -3.19863,-0.38337 -4.801499,-0.37996 z m -63.86225,15.52308 c -1.524667,3.7822 -2.780261,7.89206 -2.123385,12.01012 2.418168,-0.42751 4.83659,-0.85358 7.254854,-1.28054 0,3.32796 0,6.65593 0,9.98389 3.893658,-1.15298 7.78692,-2.30728 11.680425,-3.46077 0.288104,3.74896 0.576863,7.49787 0.864547,11.24686 4.625668,-1.73351 9.250722,-3.46865 13.876155,-5.20279 0.869386,3.76756 1.738632,7.53514 2.608109,11.30267 4.083745,-2.3343 8.168015,-4.66769 12.251965,-7.00164 2.734201,4.02938 5.468397,8.05877 8.202599,12.08815 4.286369,-2.85713 8.572407,-5.71476 12.858647,-8.57208 1.740363,3.48054 3.480141,6.96138 5.220872,10.44174 3.356279,-3.21006 6.712039,-6.42067 10.06811,-9.63094 3.042962,2.75358 6.086572,5.50646 9.129142,8.26048 2.16537,-3.1759 4.33084,-6.35172 6.49625,-9.52759 2.61327,1.88758 5.2266,3.77508 7.83983,5.66271 1.16095,-2.61066 2.32088,-5.22177 3.48144,-7.8326 2.98775,1.56513 5.97559,3.13007 8.96328,4.69532 3.05826,-4.32209 4.84392,-9.75527 4.12068,-15.06781 -7.41279,6.42702 -17.39799,8.57683 -26.85408,9.67972 -19.368589,1.90461 -38.986649,-0.45979 -57.863532,-4.97487 -10.804009,-2.81013 -21.8441,-6.37703 -30.616415,-13.53791 -3.312462,-2.85872 -6.592494,-6.54772 -6.708635,-11.16366 -0.250286,0.62718 -0.500572,1.25437 -0.750858,1.88154 z m 4.785237,0.48008 c 5.518306,8.02294 14.306592,13.88232 23.982,15.3727 1.606285,-2.89173 3.212388,-5.78356 4.819343,-8.67492 -9.847196,-2.61604 -19.694546,-5.2315 -29.541866,-7.84707 0.246841,0.3831 0.493682,0.76619 0.740523,1.14929 z m -2.243274,11.68404 c -1.604737,0.32085 -3.209369,0.64223 -4.814176,0.96273 1.103681,7.88053 6.974292,14.13183 13.43239,18.28888 11.051331,7.06498 23.926479,10.61905 36.69168,13.0844 12.23898,2.08779 24.731694,2.98781 37.135409,2.22443 10.308824,-0.79593 21.152374,-2.77244 29.525134,-9.25269 1.29524,-1.01791 2.46963,-2.18036 3.55841,-3.41451 -2.38708,-1.19413 -4.77459,-2.3874 -7.16184,-3.58118 -1.13427,2.69508 -2.26935,5.38983 -3.40393,8.08478 -2.69313,-1.98465 -5.38685,-3.96849 -8.07961,-5.95365 -2.28283,3.2815 -4.56579,6.5629 -6.84867,9.84436 -3.12905,-2.98668 -6.2578,-5.97367 -9.387015,-8.96017 -3.685011,3.40083 -7.369345,6.8024 -11.054099,10.20351 -1.849734,-3.5572 -3.698975,-7.11466 -5.549013,-10.6717 -4.181682,2.73907 -8.362937,5.47879 -12.544454,8.2181 -2.723629,-4.01409 -5.447763,-8.02785 -8.171077,-12.04216 -4.24602,2.547 -8.491426,5.09503 -12.737208,7.64243 -0.994474,-3.97877 -1.989945,-7.95729 -2.983796,-11.93622 -4.702861,1.7109 -9.406181,3.42054 -14.109216,5.13095 -0.286086,-3.71864 -0.572421,-7.43725 -0.858348,-11.15591 -3.868494,1.1462 -7.736995,2.29237 -11.605492,3.43856 -0.142824,-3.42546 -0.285444,-6.85093 -0.428397,-10.27638 -0.202227,0.0405 -0.404455,0.081 -0.606682,0.12144 z m 86.145107,3.90932 c -0.30728,2.91609 -0.6134,5.83229 -0.92139,8.7483 9.91744,0.18551 20.18645,-1.37222 28.92588,-6.29522 1.50108,-0.85824 2.89341,-1.88705 4.27158,-2.92695 -10.74215,0 -21.48431,0 -32.22646,0 l -0.0276,0.26314 z"
     style="fill:#999999;stroke-width:4.30681944;filter:url(#filter1908)" />
  <g
     id="g3824"
     style="fill:#333333"
     transform="matrix(0.72398062,0,0,0.72398062,-842.80302,-34.16865)">
    <path
       style="fill:#333333;stroke-width:4.30681944"
       id="path3814"
       d="m 1241.1319,110.5145 c 0,0 31.0091,9.90568 51.2511,6.89091 0,0 2.5841,-38.761373 -18.95,-39.192055 0.4307,0 -20.6727,-3.876138 -32.3011,32.301145 z" />
    <path
       style="fill:#333333;stroke-width:4.30681944"
       id="path3816"
       d="m 1296.6899,109.22245 -0.8614,8.18296 c 0,0 18.95,0.86136 31.0091,-8.18296 z" />
    <path
       style="fill:#333333;stroke-width:4.30681944"
       id="path3818"
       d="m 1212.7069,93.287222 c 0,0 7.7522,12.489778 23.2568,15.073868 l 4.3068,-7.75227 z" />
    <path
       style="fill:#333333;stroke-width:4.30681944"
       d="m 1213.1376,113.09859 11.6284,-3.44545 0.8613,11.19773 13.7819,-5.16819 2.584,11.19773 12.0591,-6.89091 8.183,12.0591 12.9205,-8.61364 5.1681,10.33636 9.9057,-9.475 9.0443,8.18296 6.4603,-9.475 7.7522,5.59886 3.4455,-7.75227 9.0443,4.7375 c 4.7375,-6.89091 3.8762,-13.35114 3.8762,-13.35114 -18.95,15.93523 -66.3251,7.75227 -66.3251,7.75227 -53.8352,-8.18295 -55.5579,-26.702278 -55.5579,-26.702278 -1.7228,4.30682 -2.5841,7.752278 -2.1534,11.197728 l 7.3216,-1.29204 z"
       id="path3820" />
    <path
       style="fill:#333333;stroke-width:4.30681944"
       d="m 1315.2092,132.47928 -8.183,-6.02955 -6.8909,9.90569 -9.475,-9.04433 -11.1977,10.33637 -5.5989,-10.76705 -12.4898,8.18296 -8.1829,-12.05909 -12.9205,7.75227 -3.0148,-12.05909 -14.2125,5.16818 -0.8613,-11.19773 -11.6284,3.44545 -0.4307,-10.33636 -4.3068,0.86136 c 4.3068,25.41024 55.9886,31.43978 55.9886,31.43978 38.3307,4.7375 55.558,-2.58409 62.8796,-10.76705 l -6.0296,-3.01477 z"
       id="path3822" />
  </g>
  <g
     id="g149"
     transform="translate(-1.7533146,36.121165)">
    <text
       xml:space="preserve"
       style="font-style:normal;font-weight:normal;font-size:44.88074112px;line-height:1.25;font-family:sans-serif;letter-spacing:0px;word-spacing:0px;fill:#ffffff;fill-opacity:1;stroke:none;stroke-width:6.73211098;filter:url(#filter3304-3)"
       x="11.263751"
       y="243.36633"
       id="text3258-1"
       transform="matrix(0.88750204,0,0,0.88750204,1.6701194,-126.85559)"><tspan
         id="tspan3256-8"
         x="11.263751"
         y="243.36633"
         style="font-weight:bold;fill:#ffffff;fill-opacity:1;stroke-width:6.73211098">Mx<tspan
   style="fill:#ffffff;fill-opacity:1;stroke-width:6.73211098"
   id="tspan3254-7" /></tspan></text>
    <path
       id="path354"
       transform="scale(0.26458333)"
       d="M 55.224609,223.99219 V 333.74023 H 82.054688 V 253.4707 l 25.287112,59.17383 h 17.93554 l 25.28711,-59.17383 v 80.26953 h 26.75782 V 223.99219 h -35.94532 l -25.14062,58.73437 -24.992189,-58.73437 z m 139.740231,27.41992 29.69727,40.20898 -31.16797,42.11914 h 27.85938 l 18.30468,-26.02148 18.52344,26.02148 h 27.85938 l -31.16797,-42.26562 29.69726,-40.0625 h -27.85937 l -17.05274,24.4043 -16.83398,-24.4043 z"
       style="font-style:normal;font-weight:bold;font-size:39.83174896px;line-height:1.25;font-family:sans-serif;letter-spacing:0px;word-spacing:0px;fill:#00815b;fill-opacity:1;stroke:none;stroke-width:22.58177948" />
    <text
       id="text3310-9"
       y="242.62523"
       x="83.17794"
       style="font-style:normal;font-weight:normal;font-size:44.88074112px;line-height:1.25;font-family:sans-serif;letter-spacing:0px;word-spacing:0px;fill:#ffffff;fill-opacity:1;stroke:none;stroke-width:6.73211098;filter:url(#filter3376)"
       xml:space="preserve"
       transform="matrix(0.88750204,0,0,0.88750204,1.6701194,-126.85559)"><tspan
         style="font-weight:bold;fill:#ffffff;fill-opacity:1;stroke-width:6.73211098"
         y="242.62523"
         x="83.17794"
         id="tspan3308-2">OS</tspan></text>
    <path
       id="path346"
       transform="scale(0.26458333)"
       d="m 349.27148,222.66016 c -17.593,0 -31.41283,5.04742 -41.45898,15.14257 -9.99714,10.09516 -14.99609,24.03714 -14.99609,41.82618 0,17.74002 4.99895,31.65875 14.99609,41.7539 10.04615,10.09516 23.86598,15.14258 41.45898,15.14258 17.64202,0 31.46186,-5.04742 41.45899,-15.14258 9.99715,-10.09515 14.99609,-24.01388 14.99609,-41.7539 0,-17.78904 -4.99894,-31.73102 -14.99609,-41.82618 -9.99713,-10.09515 -23.81697,-15.14257 -41.45899,-15.14257 z m 115.84961,0 c -13.23152,0 -23.37678,2.93964 -30.43359,8.82031 -7.05681,5.88067 -10.58398,14.28659 -10.58398,25.21484 0,8.723 2.52272,15.65715 7.57031,20.80274 5.09659,5.14558 13.13407,8.89382 24.11133,11.24609 l 10.95312,2.42578 c 6.66477,1.47017 11.09944,3.13584 13.30469,4.99805 2.25426,1.86221 3.38086,4.50906 3.38086,7.93945 0,3.82244 -1.64045,6.76208 -4.92383,8.82031 -3.28338,2.05824 -8.01278,3.08789 -14.1875,3.08789 -6.0767,10e-6 -12.39809,-0.93075 -18.96484,-2.79296 -6.51775,-1.91122 -13.28127,-4.7287 -20.28907,-8.45313 v 23.89063 c 7.0078,2.59729 14.01564,4.55575 21.02344,5.8789 7.00782,1.32315 13.99043,1.98633 20.94922,1.98633 14.75069,0 25.70458,-2.94159 32.85937,-8.82227 7.20383,-5.92967 10.80469,-14.94639 10.80469,-27.05078 0,-9.21305 -2.57122,-16.31783 -7.71679,-21.3164 -5.1456,-4.99857 -13.82106,-8.72355 -26.02344,-11.17383 l -12.05469,-2.42578 c -5.73364,-1.17614 -9.70295,-2.57227 -11.9082,-4.18945 -2.15625,-1.66619 -3.23438,-3.96982 -3.23438,-6.91016 0,-3.92045 1.6172,-6.81162 4.85157,-8.67383 3.23436,-1.86221 8.2333,-2.79297 14.99609,-2.79297 5.09657,0 10.51047,0.68449 16.24414,2.05664 5.73364,1.37216 11.61489,3.40626 17.64258,6.10156 v -23.22851 c -6.81179,-1.81321 -13.40272,-3.16087 -19.77344,-4.04297 -6.37072,-0.93111 -12.56996,-1.39648 -18.59766,-1.39648 z m -115.84961,20.50976 c 8.67399,0 15.38708,3.18396 20.14063,9.55469 4.75354,6.37073 7.13086,15.33897 7.13086,26.9043 0,11.51631 -2.37732,20.45935 -7.13086,26.83007 -4.75355,6.37073 -11.46664,9.55664 -20.14063,9.55664 -8.62498,10e-6 -15.31481,-3.18591 -20.06836,-9.55664 -4.75354,-6.37072 -7.1289,-15.31376 -7.1289,-26.83007 0,-11.56533 2.37536,-20.53357 7.1289,-26.9043 4.75355,-6.37073 11.44338,-9.55469 20.06836,-9.55469 z"
       style="font-style:normal;font-weight:bold;font-size:39.83174896px;line-height:1.25;font-family:sans-serif;letter-spacing:0px;word-spacing:0px;fill:#a02c2c;fill-opacity:1;stroke:none;stroke-width:22.58177948" />
    <path
       style="font-style:normal;font-weight:normal;font-size:44.88074112px;line-height:1.25;font-family:sans-serif;letter-spacing:0px;word-spacing:0px;fill:#36b691;fill-opacity:0.53007519;stroke:none;stroke-width:6.73211098;filter:url(#filter3250-0)"
       d="m 14.685401,209.72565 v 32.71842 h 2.12339 v -31.73244 h 9.03406 l -0.4196,-0.98598 z m 25.68371,0 -6.64043,15.51326 1.26918,2.98225 7.49464,-17.50953 h 8.59274 v -0.98598 z m 15.975762,8.17417 8.85322,11.98739 -9.29196,12.55686 h 2.85306 l 8.56229,-11.5714 -8.85323,-11.98738 h 6.8616 l -0.67956,-0.98547 z m 18.40817,0 -4.35787,6.2358 1.39681,2.0252 5.08445,-7.27553 h 5.45134 l 0.73072,-0.98547 z m -49.945262,1.59939 v 3.98425 l 5.41467,12.67107 h 1.70272 z m 20.42408,0 -2.12338,4.96869 v 17.97617 h 2.12338 z m 26.560122,16.17266 -0.70641,1.00459 4.1057,5.76761 h 1.4216 z"
       id="text3198-0"
       transform="matrix(0.88750204,0,0,0.88750204,1.6701194,-126.85559)" />
    <path
       style="font-style:normal;font-weight:normal;font-size:44.88074112px;line-height:1.25;font-family:sans-serif;letter-spacing:0px;word-spacing:0px;fill:#d87676;fill-opacity:0.6627451;stroke:none;stroke-width:6.73211098;filter:url(#filter3238-2)"
       d="m 102.24372,209.31531 c -5.244864,0 -9.365007,1.50487 -12.359967,4.51445 -2.98037,3.00958 -4.47053,7.16572 -4.47053,12.46901 0,4.66494 1.16158,8.44194 3.48041,11.33368 -1.57927,-2.64215 -2.37299,-5.88501 -2.37299,-9.73481 0,-5.3033 1.49018,-9.45994 4.47053,-12.46953 2.99498,-3.00958 7.114593,-4.51445 12.359457,-4.51445 5.25947,0 9.37961,1.50487 12.35996,4.51445 0.35028,0.35371 0.67792,0.72462 0.98703,1.11001 -0.58955,-0.98636 -1.28514,-1.89112 -2.09444,-2.70836 -2.98038,-3.00958 -7.09999,-4.51445 -12.35946,-4.51445 z m 34.53691,0 c -3.94459,0 -6.96852,0.87666 -9.0723,2.62981 -2.10381,1.75315 -3.15589,4.25839 -3.15589,7.51634 0,2.48564 0.68916,4.48319 2.06396,5.99446 -0.63646,-1.24016 -0.95705,-2.70434 -0.95705,-4.39559 0,-3.25795 1.05209,-5.7637 3.15587,-7.51686 2.10381,-1.75315 5.12823,-2.62981 9.07285,-2.62981 1.79697,0 3.64511,0.13893 5.54434,0.41651 1.55131,0.2148 3.14881,0.52709 4.78782,0.92708 v -1.32034 c -2.03073,-0.54055 -3.99597,-0.94212 -5.89523,-1.20509 -1.89926,-0.27758 -3.74737,-0.41651 -5.54437,-0.41651 z m -27.8448,10.05106 c 0.95787,1.78791 1.43814,4.09773 1.43814,6.9324 0,3.43326 -0.70882,6.09974 -2.12595,7.99899 -1.41714,1.89926 -3.41839,2.84893 -6.0043,2.84893 -2.328254,0 -4.182034,-0.78118 -5.564007,-2.33837 0.207303,0.38653 0.436173,0.74984 0.688343,1.0878 1.41713,1.89925 3.411274,2.84892 5.982574,2.84892 2.58591,0 4.58767,-0.94967 6.0048,-2.84892 1.41714,-1.89926 2.12545,-4.56523 2.12545,-7.99848 0,-3.44787 -0.70831,-6.12145 -2.12545,-8.0207 -0.13398,-0.17957 -0.27517,-0.34798 -0.4196,-0.51057 z m 24.42744,1.67174 c 0.11637,0.59972 0.41826,1.08983 0.90848,1.46864 0.65743,0.48212 1.84083,0.89839 3.55017,1.24902 l 3.59408,0.72295 c 3.63781,0.73049 6.22366,1.84089 7.75769,3.33107 0.0862,0.0838 0.16922,0.17012 0.25061,0.25786 -0.35354,-0.69986 -0.80491,-1.3194 -1.35752,-1.85622 -1.53403,-1.49018 -4.11988,-2.60058 -7.75767,-3.33106 l -3.5941,-0.72347 c -1.55297,-0.31856 -2.66702,-0.6917 -3.35174,-1.11879 z m 8.76329,11.63494 c 0.0715,0.2838 0.1111,0.58994 0.1111,0.92346 0,1.13955 -0.48979,2.01622 -1.46865,2.62982 -0.97882,0.61361 -2.38836,0.92036 -4.22918,0.92036 -1.8116,0 -3.69623,-0.27786 -5.65393,-0.83303 -1.94307,-0.56977 -3.95954,-1.40942 -6.04872,-2.51975 v 7.12206 c 0.36915,0.13682 0.73827,0.26571 1.10741,0.39067 v -5.91438 c 2.08918,1.11035 4.10515,1.9505 6.04822,2.52027 1.95768,0.55517 3.84233,0.83251 5.65391,0.83251 1.84081,0 3.25088,-0.30675 4.22973,-0.92036 0.97883,-0.6136 1.46812,-1.49026 1.46812,-2.62982 0,-1.02267 -0.33615,-1.81161 -1.00819,-2.36678 -0.0621,-0.0525 -0.13584,-0.10361 -0.20982,-0.15503 z"
       id="text3223-2"
       transform="matrix(0.88750204,0,0,0.88750204,1.6701194,-126.85559)" />
  </g>
</svg>
