<?xml version="1.0" encoding="UTF-8" standalone="no"?>
<!--
Propuesta 06 para logotipo proyecto MX OS.
Autor: Miguel Angel Marcial Martinez @fitorec
Licencia: Creative Commons CC BY-SA 4.0
-->
<svg
   xmlns:dc="http://purl.org/dc/elements/1.1/"
   xmlns:cc="http://creativecommons.org/ns#"
   xmlns:rdf="http://www.w3.org/1999/02/22-rdf-syntax-ns#"
   xmlns:svg="http://www.w3.org/2000/svg"
   xmlns="http://www.w3.org/2000/svg"
   xmlns:xlink="http://www.w3.org/1999/xlink"
   width="150mm"
   height="150mm"
   viewBox="0 0 150 150"
   version="1.1"
   id="propuesta-06">
  <defs
     id="defs248">
    <linearGradient
       id="linearGradient2067">
      <stop
         style="stop-color:#b3b3b3;stop-opacity:1;"
         offset="0"
         id="stop2063" />
      <stop
         style="stop-color:#b3b3b3;stop-opacity:0;"
         offset="1"
         id="stop2065" />
    </linearGradient>
    <filter
       style="color-interpolation-filters:sRGB"
       id="filter3238"
       x="-0.026996003"
       width="1.053992"
       y="-0.05401599"
       height="1.108032">
      <feGaussianBlur
         stdDeviation="0.72001796"
         id="feGaussianBlur3240" />
    </filter>
    <filter
       style="color-interpolation-filters:sRGB"
       id="filter3250"
       x="-0.017742332"
       width="1.0354847"
       y="-0.03707692"
       height="1.0741538">
      <feGaussianBlur
         stdDeviation="0.50545754"
         id="feGaussianBlur3252" />
    </filter>
    <filter
       style="color-interpolation-filters:sRGB"
       id="filter3190"
       x="-0.024"
       width="1.048"
       y="-0.024"
       height="1.048">
      <feGaussianBlur
         stdDeviation="1.6404166"
         id="feGaussianBlur3192" />
    </filter>
    <filter
       style="color-interpolation-filters:sRGB"
       id="filter3304"
       x="-0.061970063"
       width="1.1239401"
       y="-0.13033222"
       height="1.2606643">
      <feGaussianBlur
         stdDeviation="1.7767668"
         id="feGaussianBlur3306" />
    </filter>
    <filter
       style="color-interpolation-filters:sRGB"
       id="filter1616"
       x="-0.06943077"
       width="1.1388615"
       y="-0.13285526"
       height="1.2657105">
      <feGaussianBlur
         stdDeviation="1.8790961"
         id="feGaussianBlur1618" />
    </filter>
    <filter
       style="color-interpolation-filters:sRGB"
       id="filter3686-6"
       x="-0.065783136"
       width="1.1315663"
       y="-0.6825"
       height="2.365">
      <feGaussianBlur
         stdDeviation="2.4321527"
         id="feGaussianBlur3688-7" />
    </filter>
    <linearGradient
       xlink:href="#linearGradient2067"
       id="linearGradient2069"
       x1="844.88172"
       y1="107.23864"
       x2="953.83032"
       y2="107.23864"
       gradientUnits="userSpaceOnUse" />
    <filter
       style="color-interpolation-filters:sRGB"
       id="filter3304-3"
       x="-0.061970063"
       width="1.1239401"
       y="-0.13033222"
       height="1.2606643">
      <feGaussianBlur
         stdDeviation="1.7767668"
         id="feGaussianBlur3306-7" />
    </filter>
    <filter
       style="color-interpolation-filters:sRGB"
       id="filter3376"
       x="-0.11876316"
       width="1.2375263"
       y="-0.22725242"
       height="1.4545048">
      <feGaussianBlur
         stdDeviation="3.2142434"
         id="feGaussianBlur3378" />
    </filter>
    <filter
       style="color-interpolation-filters:sRGB"
       id="filter3250-5"
       x="-0.017742332"
       width="1.0354847"
       y="-0.03707692"
       height="1.0741538">
      <feGaussianBlur
         stdDeviation="0.50545754"
         id="feGaussianBlur3252-9" />
    </filter>
    <filter
       style="color-interpolation-filters:sRGB"
       id="filter3238-2"
       x="-0.026996003"
       width="1.053992"
       y="-0.05401599"
       height="1.108032">
      <feGaussianBlur
         stdDeviation="0.72001796"
         id="feGaussianBlur3240-2" />
    </filter>
  </defs>
  <metadata
     id="metadata251">
    <rdf:RDF>
      <cc:Work
         rdf:about="">
        <dc:format>image/svg+xml</dc:format>
        <dc:type
           rdf:resource="http://purl.org/dc/dcmitype/StillImage" />
        <dc:title></dc:title>
      </cc:Work>
    </rdf:RDF>
  </metadata>
  <rect
     style="opacity:1;fill:#f9f9f9;fill-opacity:1;stroke:#1a1a1a;stroke-width:4.43677521;stroke-linecap:round;stroke-linejoin:bevel;stroke-miterlimit:4;stroke-dasharray:none;stroke-dashoffset:0;stroke-opacity:1;paint-order:markers stroke fill"
     id="rect3116"
     width="145.56322"
     height="145.56322"
     x="2.2183876"
     y="2.218399"
     ry="23.477942" />
  <path
     transform="matrix(0.88750204,0,0,0.88750204,1.6701194,-126.85559)"
     id="rect3165"
     d="m 27.207991,145.73327 c -14.65792,0 -26.45833034,11.80042 -26.45833034,26.45833 v 111.12501 c 0,14.65792 11.80041034,26.45833 26.45833034,26.45833 H 138.333 c 14.65791,0 26.45833,-11.80041 26.45833,-26.45833 V 172.1916 c 0,-14.65791 -11.80042,-26.45833 -26.45833,-26.45833 z m 1.38284,8.46667 H 136.05147 c 13.3718,0 24.13651,10.76469 24.13651,24.13651 v 101.3747 c 0,13.37181 -10.76471,24.13702 -24.13651,24.13702 H 28.590831 c -13.3718,0 -24.1370103,-10.76521 -24.1370103,-24.13702 v -101.3747 c 0,-13.37182 10.7652103,-24.13651 24.1370103,-24.13651 z"
     style="opacity:1;fill:#4d4d4d;fill-opacity:0.16917294;stroke:none;stroke-width:5;stroke-linecap:round;stroke-linejoin:bevel;stroke-miterlimit:4;stroke-dasharray:none;stroke-dashoffset:0;stroke-opacity:1;paint-order:markers stroke fill;filter:url(#filter3190)" />
  <path
     d="m 937.92724,107.23864 a 42.841606,7.5467949 0 0 1 -30.26846,7.21447 42.841606,7.5467949 0 0 1 -48.03483,-2.97987 42.841606,7.5467949 0 0 1 2.07397,-8.96353 42.841606,7.5467949 0 0 1 49.25215,-2.28137 l -15.86444,7.0103 z"
     transform="matrix(0.88677898,0,0,0.66165605,-716.42388,3.89955)"
     id="path3648"
     style="opacity:1;fill:url(#linearGradient2069);fill-opacity:1;stroke:none;stroke-width:5;stroke-linecap:round;stroke-linejoin:bevel;stroke-miterlimit:4;stroke-dasharray:none;stroke-dashoffset:0;stroke-opacity:1;paint-order:markers stroke fill;filter:url(#filter3686-6)" />
  <g
     transform="matrix(0.26548224,0.14936272,-0.14936272,0.26548224,47.630172,-55.264015)"
     data-name="Layer 1-2"
     id="Layer_1-2-2">
    <path
       d="m 343.5,194.7 c -2.7,-14.1 -6.9,-24.2 -13.4,-31.1 2.3,-7.3 4.2,-15.3 5.7,-23.9 l 0.4,-2.2 -1.3,-1.7 c -4.2,-5.8 -10.3,-7.9 -17.2,-5.9 l -1.7,0.5 -1,1.3 c -5.6,7.4 -9.3,15.1 -11.6,23.5 -9.2,1.7 -15.7,8.9 -20,15.1 -2.1,0.7 -4.2,1.5 -5.8,2.8 -5.6,4 -7.4,9.3 -8.6,14.1 -7.8,29.8 -17.7,59.4 -30.3,89.9 -4.9,9 -9,15.7 -13.2,21.6 -11.6,16.4 -28.3,28.5 -54.4,39.2 -0.9,0.4 -1.9,0.7 -2.8,1 -2.6,0.9 -5.6,1.9 -8.3,3.8 -1.9,1.5 -3.4,3.4 -4,5.8 -1.3,4.4 0.4,9.7 4,13.1 2.5,2.4 5.9,4.2 9.7,4.8 5.6,0.9 11.3,1.5 17.2,1.5 18.7,0 38.1,-5.1 58.6,-15.3 12.8,-6.5 24.3,-14.9 35.7,-26.9 11.4,-11.8 22.1,-25 31.7,-39 8.7,-12.6 16.8,-26.2 24.1,-40.7 l 0.8,-1.7 c 3.1,-6.1 6.3,-12.4 7.8,-19.7 1.7,-8.8 2.5,-20.6 -2.4,-29.7 h 0.3 z M 307.7,165 h 4.2 l 0.8,-4.2 c 1.5,-7.7 4.7,-14.7 9.4,-21.5 1.1,0 1.9,0.2 2.9,0.9 -1.5,8.4 -3.6,16.1 -5.9,23.1 l -1,3.2 2.5,2.3 c 3.2,2.9 5.8,6.9 7.9,11.8 -1.7,-1 -3.3,-2.1 -5.1,-3 -7.9,-4.4 -16.5,-7.2 -25.6,-8.3 3.3,-2.9 6.5,-4.4 9.7,-4.2 z m -8.2,108.6 -2.2,4.4 c -0.9,1.7 -2.7,2.8 -4.7,2.8 -0.8,0 -1.5,-0.2 -2.4,-0.6 -2.6,-1.3 -3.5,-4.4 -2.3,-6.9 l 2.2,-4.4 c 1.3,-2.6 4.4,-3.5 6.9,-2.3 2.6,1.3 3.5,4.4 2.3,6.9 h 0.1 v 0.1 z m 29.7,-54 c -4.2,11.8 -10.5,24.8 -19.5,39.9 -0.9,1.7 -2.7,2.5 -4.4,2.5 -0.9,0 -1.9,-0.2 -2.7,-0.7 -2.5,-1.5 -3.2,-4.7 -1.7,-7.2 8.6,-14.4 14.7,-26.9 18.5,-38.1 0.9,-2.7 4,-4.2 6.7,-3.2 2.6,1 4,4.1 3.1,6.8 z"
       class="cls-2"
       data-name="Zesty"
       id="Zesty-2"
       style="fill:#b11f24;stroke-width:0px" />
  </g>
  <g
     id="g757">
    <text
       xml:space="preserve"
       style="font-style:normal;font-weight:normal;font-size:44.88074112px;line-height:1.25;font-family:sans-serif;letter-spacing:0px;word-spacing:0px;fill:#ffffff;fill-opacity:1;stroke:none;stroke-width:6.73211098;filter:url(#filter3304-3)"
       x="11.263751"
       y="243.36633"
       id="text3258"
       transform="matrix(0.88750204,0,0,0.88750204,3.8892672,-97.388285)"><tspan
         id="tspan3256"
         x="11.263751"
         y="243.36633"
         style="font-weight:bold;fill:#ffffff;fill-opacity:1;stroke-width:6.73211098">Mx<tspan
   style="fill:#ffffff;fill-opacity:1;stroke-width:6.73211098"
   id="tspan3254" /></tspan></text>
    <path
       id="path354"
       d="m 16.830659,88.731905 v 29.037505 h 7.098792 V 96.53143 l 6.690548,15.65641 h 4.745445 l 6.690548,-15.65641 v 21.23798 h 7.079673 V 88.731905 H 39.625132 L 32.973343,104.27204 26.360827,88.731905 Z m 36.972936,7.254855 7.857402,10.63862 -8.246525,11.14403 h 7.371127 l 4.843114,-6.88485 4.900993,6.88485 h 7.371128 l -8.246526,-11.18278 7.8574,-10.59987 h -7.371125 l -4.51187,6.45697 -4.453991,-6.45697 z"
       style="font-style:normal;font-weight:bold;font-size:39.83174896px;line-height:1.25;font-family:sans-serif;letter-spacing:0px;word-spacing:0px;fill:#1a1a1a;fill-opacity:1;stroke:none;stroke-width:5.97476244" />
    <text
       id="text3310"
       y="242.62523"
       x="83.17794"
       style="font-style:normal;font-weight:normal;font-size:44.88074112px;line-height:1.25;font-family:sans-serif;letter-spacing:0px;word-spacing:0px;fill:#ffffff;fill-opacity:1;stroke:none;stroke-width:6.73211098;filter:url(#filter3376)"
       xml:space="preserve"
       transform="matrix(0.88750204,0,0,0.88750204,3.8892672,-97.388285)"><tspan
         style="font-weight:bold;fill:#ffffff;fill-opacity:1;stroke-width:6.73211098"
         y="242.62523"
         x="83.17794"
         id="tspan3308">OS</tspan></text>
    <path
       id="path346"
       d="m 94.630559,88.379472 c -4.654814,0 -8.311311,1.335463 -10.969355,4.006471 -2.645076,2.671007 -3.967715,6.359827 -3.967715,11.066507 0,4.69372 1.322639,8.37638 3.967715,11.04739 2.658044,2.67101 6.314541,4.00647 10.969355,4.00647 4.667787,0 8.324291,-1.33546 10.969361,-4.00647 2.64508,-2.67101 3.96772,-6.35367 3.96772,-11.04739 0,-4.70668 -1.32264,-8.3955 -3.96772,-11.066507 -2.64507,-2.671008 -6.301574,-4.006471 -10.969361,-4.006471 z m 30.651881,0 c -3.50084,0 -6.18511,0.777779 -8.05222,2.333707 -1.86712,1.555927 -2.80035,3.779991 -2.80035,6.671421 0,2.30797 0.66747,4.14263 2.00298,5.50406 1.34847,1.36144 3.47506,2.35316 6.37946,2.97553 l 2.89801,0.64182 c 1.76339,0.38898 2.93673,0.82969 3.5202,1.3224 0.59644,0.49271 0.89452,1.19302 0.89452,2.10065 0,1.01135 -0.43404,1.78913 -1.30276,2.33371 -0.86873,0.54457 -2.12005,0.817 -3.75378,0.817 -1.60779,0 -3.28033,-0.24626 -5.01778,-0.73897 -1.72449,-0.50568 -3.514,-1.25114 -5.36815,-2.23656 v 6.32106 c 1.85415,0.6872 3.7083,1.20538 5.56245,1.55546 1.85415,0.35009 3.70164,0.52555 5.54282,0.52555 3.90278,0 6.801,-0.77829 8.69404,-2.33422 1.90601,-1.56889 2.85874,-3.95457 2.85874,-7.15719 0,-2.43762 -0.6803,-4.31742 -2.04174,-5.63996 -1.36144,-1.32254 -3.65682,-2.30811 -6.88536,-2.95641 l -3.18947,-0.64182 c -1.51703,-0.31119 -2.56724,-0.68058 -3.15072,-1.10846 -0.5705,-0.44085 -0.85576,-1.05035 -0.85576,-1.82831 0,-1.03729 0.42789,-1.80224 1.28365,-2.29495 0.85575,-0.49271 2.17839,-0.73898 3.96771,-0.73898 1.34847,0 2.7809,0.18111 4.29793,0.54415 1.51703,0.36306 3.07311,0.90124 4.66793,1.61438 v -6.145881 c -1.80228,-0.479745 -3.54613,-0.836313 -5.23172,-1.069702 -1.68559,-0.246356 -3.3258,-0.369485 -4.92063,-0.369485 z M 94.630559,93.80601 c 2.294997,0 4.071167,0.84242 5.328877,2.52801 1.257714,1.68559 1.886704,4.05844 1.886704,7.11843 0,3.04703 -0.62899,5.41321 -1.886704,7.09879 -1.25771,1.68559 -3.03388,2.52853 -5.328877,2.52853 -2.282026,0 -4.052043,-0.84294 -5.309753,-2.52853 -1.257708,-1.68558 -1.886188,-4.05176 -1.886188,-7.09879 0,-3.05999 0.62848,-5.43284 1.886188,-7.11843 1.25771,-1.68559 3.027727,-2.52801 5.309753,-2.52801 z"
       style="font-style:normal;font-weight:bold;font-size:39.83174896px;line-height:1.25;font-family:sans-serif;letter-spacing:0px;word-spacing:0px;fill:#1a1a1a;fill-opacity:1;stroke:none;stroke-width:5.97476244" />
    <path
       style="font-style:normal;font-weight:normal;font-size:44.88074112px;line-height:1.25;font-family:sans-serif;letter-spacing:0px;word-spacing:0px;fill:#808080;fill-opacity:0.53007519;stroke:none;stroke-width:6.73211098;filter:url(#filter3250-5)"
       d="m 14.685401,209.72565 v 32.71842 h 2.12339 v -31.73244 h 9.03406 l -0.4196,-0.98598 z m 25.68371,0 -6.64043,15.51326 1.26918,2.98225 7.49464,-17.50953 h 8.59274 v -0.98598 z m 15.975762,8.17417 8.85322,11.98739 -9.29196,12.55686 h 2.85306 l 8.56229,-11.5714 -8.85323,-11.98738 h 6.8616 l -0.67956,-0.98547 z m 18.40817,0 -4.35787,6.2358 1.39681,2.0252 5.08445,-7.27553 h 5.45134 l 0.73072,-0.98547 z m -49.945262,1.59939 v 3.98425 l 5.41467,12.67107 h 1.70272 z m 20.42408,0 -2.12338,4.96869 v 17.97617 h 2.12338 z m 26.560122,16.17266 -0.70641,1.00459 4.1057,5.76761 h 1.4216 z"
       id="text3198"
       transform="matrix(0.88750204,0,0,0.88750204,3.8892672,-97.388285)" />
    <path
       style="font-style:normal;font-weight:normal;font-size:44.88074112px;line-height:1.25;font-family:sans-serif;letter-spacing:0px;word-spacing:0px;fill:#808080;fill-opacity:0.6627451;stroke:none;stroke-width:6.73211098;filter:url(#filter3238-2)"
       d="m 102.24372,209.31531 c -5.244864,0 -9.365007,1.50487 -12.359967,4.51445 -2.98037,3.00958 -4.47053,7.16572 -4.47053,12.46901 0,4.66494 1.16158,8.44194 3.48041,11.33368 -1.57927,-2.64215 -2.37299,-5.88501 -2.37299,-9.73481 0,-5.3033 1.49018,-9.45994 4.47053,-12.46953 2.99498,-3.00958 7.114593,-4.51445 12.359457,-4.51445 5.25947,0 9.37961,1.50487 12.35996,4.51445 0.35028,0.35371 0.67792,0.72462 0.98703,1.11001 -0.58955,-0.98636 -1.28514,-1.89112 -2.09444,-2.70836 -2.98038,-3.00958 -7.09999,-4.51445 -12.35946,-4.51445 z m 34.53691,0 c -3.94459,0 -6.96852,0.87666 -9.0723,2.62981 -2.10381,1.75315 -3.15589,4.25839 -3.15589,7.51634 0,2.48564 0.68916,4.48319 2.06396,5.99446 -0.63646,-1.24016 -0.95705,-2.70434 -0.95705,-4.39559 0,-3.25795 1.05209,-5.7637 3.15587,-7.51686 2.10381,-1.75315 5.12823,-2.62981 9.07285,-2.62981 1.79697,0 3.64511,0.13893 5.54434,0.41651 1.55131,0.2148 3.14881,0.52709 4.78782,0.92708 v -1.32034 c -2.03073,-0.54055 -3.99597,-0.94212 -5.89523,-1.20509 -1.89926,-0.27758 -3.74737,-0.41651 -5.54437,-0.41651 z m -27.8448,10.05106 c 0.95787,1.78791 1.43814,4.09773 1.43814,6.9324 0,3.43326 -0.70882,6.09974 -2.12595,7.99899 -1.41714,1.89926 -3.41839,2.84893 -6.0043,2.84893 -2.328254,0 -4.182034,-0.78118 -5.564007,-2.33837 0.207303,0.38653 0.436173,0.74984 0.688343,1.0878 1.41713,1.89925 3.411274,2.84892 5.982574,2.84892 2.58591,0 4.58767,-0.94967 6.0048,-2.84892 1.41714,-1.89926 2.12545,-4.56523 2.12545,-7.99848 0,-3.44787 -0.70831,-6.12145 -2.12545,-8.0207 -0.13398,-0.17957 -0.27517,-0.34798 -0.4196,-0.51057 z m 24.42744,1.67174 c 0.11637,0.59972 0.41826,1.08983 0.90848,1.46864 0.65743,0.48212 1.84083,0.89839 3.55017,1.24902 l 3.59408,0.72295 c 3.63781,0.73049 6.22366,1.84089 7.75769,3.33107 0.0862,0.0838 0.16922,0.17012 0.25061,0.25786 -0.35354,-0.69986 -0.80491,-1.3194 -1.35752,-1.85622 -1.53403,-1.49018 -4.11988,-2.60058 -7.75767,-3.33106 l -3.5941,-0.72347 c -1.55297,-0.31856 -2.66702,-0.6917 -3.35174,-1.11879 z m 8.76329,11.63494 c 0.0715,0.2838 0.1111,0.58994 0.1111,0.92346 0,1.13955 -0.48979,2.01622 -1.46865,2.62982 -0.97882,0.61361 -2.38836,0.92036 -4.22918,0.92036 -1.8116,0 -3.69623,-0.27786 -5.65393,-0.83303 -1.94307,-0.56977 -3.95954,-1.40942 -6.04872,-2.51975 v 7.12206 c 0.36915,0.13682 0.73827,0.26571 1.10741,0.39067 v -5.91438 c 2.08918,1.11035 4.10515,1.9505 6.04822,2.52027 1.95768,0.55517 3.84233,0.83251 5.65391,0.83251 1.84081,0 3.25088,-0.30675 4.22973,-0.92036 0.97883,-0.6136 1.46812,-1.49026 1.46812,-2.62982 0,-1.02267 -0.33615,-1.81161 -1.00819,-2.36678 -0.0621,-0.0525 -0.13584,-0.10361 -0.20982,-0.15503 z"
       id="text3223"
       transform="matrix(0.88750204,0,0,0.88750204,3.8892672,-97.388285)" />
  </g>
</svg>
