<?xml version="1.0" encoding="UTF-8" standalone="no"?>
<!--
Propuesta 07 para logotipo proyecto MX OS.
Autor: Miguel Angel Marcial Martinez @fitorec
Licencia: Creative Commons CC BY-SA 4.0
-->
<svg
   xmlns:dc="http://purl.org/dc/elements/1.1/"
   xmlns:cc="http://creativecommons.org/ns#"
   xmlns:rdf="http://www.w3.org/1999/02/22-rdf-syntax-ns#"
   xmlns:svg="http://www.w3.org/2000/svg"
   xmlns="http://www.w3.org/2000/svg"
   id="propuesta-07"
   version="1.1"
   viewBox="0 0 150 150"
   height="150mm"
   width="150mm">
  <defs
     id="defs248">
    <filter
       height="1.108032"
       y="-0.05401599"
       width="1.053992"
       x="-0.026996003"
       id="filter3238"
       style="color-interpolation-filters:sRGB">
      <feGaussianBlur
         id="feGaussianBlur3240"
         stdDeviation="0.72001796" />
    </filter>
    <filter
       height="1.0741538"
       y="-0.03707692"
       width="1.0354847"
       x="-0.017742332"
       id="filter3250"
       style="color-interpolation-filters:sRGB">
      <feGaussianBlur
         id="feGaussianBlur3252"
         stdDeviation="0.50545754" />
    </filter>
    <filter
       height="1.048"
       y="-0.024"
       width="1.048"
       x="-0.024"
       id="filter3190"
       style="color-interpolation-filters:sRGB">
      <feGaussianBlur
         id="feGaussianBlur3192"
         stdDeviation="1.6404166" />
    </filter>
    <filter
       height="1.2606643"
       y="-0.13033222"
       width="1.1239401"
       x="-0.061970063"
       id="filter3304"
       style="color-interpolation-filters:sRGB">
      <feGaussianBlur
         id="feGaussianBlur3306"
         stdDeviation="1.7767668" />
    </filter>
    <filter
       height="1.2657105"
       y="-0.13285526"
       width="1.1388615"
       x="-0.06943077"
       id="filter1616"
       style="color-interpolation-filters:sRGB">
      <feGaussianBlur
         id="feGaussianBlur1618"
         stdDeviation="1.8790961" />
    </filter>
    <filter
       height="1.1021183"
       y="-0.051059158"
       width="1.0556012"
       x="-0.027800612"
       id="filter2205"
       style="color-interpolation-filters:sRGB">
      <feGaussianBlur
         id="feGaussianBlur2207"
         stdDeviation="1.0586831" />
    </filter>
  </defs>
  <metadata
     id="metadata251">
    <rdf:RDF>
      <cc:Work
         rdf:about="">
        <dc:format>image/svg+xml</dc:format>
        <dc:type
           rdf:resource="http://purl.org/dc/dcmitype/StillImage" />
        <dc:title></dc:title>
      </cc:Work>
    </rdf:RDF>
  </metadata>
  <g
     transform="translate(0,-147)"
     id="layer1">
    <rect
       style="opacity:1;fill:#f9f9f9;fill-opacity:1;stroke:#666666;stroke-width:4.43677521;stroke-linecap:round;stroke-linejoin:bevel;stroke-miterlimit:4;stroke-dasharray:none;stroke-dashoffset:0;stroke-opacity:1;paint-order:markers stroke fill"
       id="rect3116"
       width="145.56322"
       height="145.56322"
       x="2.2183876"
       y="149.2184"
       ry="23.477942" />
    <path
       transform="matrix(0.88750204,0,0,0.88750204,1.6701194,20.144415)"
       id="rect3165"
       d="m 27.207991,145.73327 c -14.65792,0 -26.45833034,11.80042 -26.45833034,26.45833 v 111.12501 c 0,14.65792 11.80041034,26.45833 26.45833034,26.45833 H 138.333 c 14.65791,0 26.45833,-11.80041 26.45833,-26.45833 V 172.1916 c 0,-14.65791 -11.80042,-26.45833 -26.45833,-26.45833 z m 1.38284,8.46667 H 136.05147 c 13.3718,0 24.13651,10.76469 24.13651,24.13651 v 101.3747 c 0,13.37181 -10.76471,24.13702 -24.13651,24.13702 H 28.590831 c -13.3718,0 -24.1370103,-10.76521 -24.1370103,-24.13702 v -101.3747 c 0,-13.37182 10.7652103,-24.13651 24.1370103,-24.13651 z"
       style="opacity:1;fill:#4d4d4d;fill-opacity:0.16917294;stroke:none;stroke-width:5;stroke-linecap:round;stroke-linejoin:bevel;stroke-miterlimit:4;stroke-dasharray:none;stroke-dashoffset:0;stroke-opacity:1;paint-order:markers stroke fill;filter:url(#filter3190)" />
    <g
       transform="translate(0,-1.0583333)"
       id="g1681">
      <text
         xml:space="preserve"
         style="font-style:normal;font-weight:normal;font-size:44.88074112px;line-height:1.25;font-family:sans-serif;letter-spacing:0px;word-spacing:0px;fill:#ffffff;fill-opacity:1;stroke:none;stroke-width:6.73211098;filter:url(#filter3304)"
         x="11.263751"
         y="243.36633"
         id="text3258"
         transform="matrix(0.88750204,0,0,0.88750204,1.6701194,56.656932)"><tspan
           id="tspan3256"
           x="11.263751"
           y="243.36633"
           style="font-weight:bold;fill:#ffffff;fill-opacity:1;stroke-width:6.73211098">Mx<tspan
   style="fill:#ffffff;fill-opacity:1;stroke-width:6.73211098"
   id="tspan3254" /></tspan></text>
      <text
         id="text3122"
         y="271.81482"
         x="10.955106"
         style="font-style:normal;font-weight:normal;font-size:39.83174896px;line-height:1.25;font-family:sans-serif;letter-spacing:0px;word-spacing:0px;fill:#00815b;fill-opacity:1;stroke:none;stroke-width:5.97476244"
         xml:space="preserve"><tspan
           style="font-weight:bold;fill:#00815b;fill-opacity:1;stroke-width:5.97476244"
           y="271.81482"
           x="10.955106"
           id="tspan3120">Mx<tspan
   id="tspan3118"
   style="fill:#00815b;fill-opacity:1;stroke-width:5.97476244" /></tspan></text>
      <text
         id="text3310"
         y="242.62523"
         x="83.17794"
         style="font-style:normal;font-weight:normal;font-size:44.88074112px;line-height:1.25;font-family:sans-serif;letter-spacing:0px;word-spacing:0px;fill:#ffffff;fill-opacity:1;stroke:none;stroke-width:6.73211098;filter:url(#filter1616)"
         xml:space="preserve"
         transform="matrix(0.88750204,0,0,0.88750204,1.6701194,56.656932)"><tspan
           style="font-weight:bold;fill:#ffffff;fill-opacity:1;stroke-width:6.73211098"
           y="242.62523"
           x="83.17794"
           id="tspan3308">OS</tspan></text>
      <text
         xml:space="preserve"
         style="font-style:normal;font-weight:normal;font-size:39.83174896px;line-height:1.25;font-family:sans-serif;letter-spacing:0px;word-spacing:0px;fill:#a02c2c;fill-opacity:1;stroke:none;stroke-width:5.97476244"
         x="75.4907"
         y="271.9873"
         id="text3128"><tspan
           id="tspan3126"
           x="75.4907"
           y="271.9873"
           style="font-weight:bold;fill:#a02c2c;fill-opacity:1;stroke-width:5.97476244">OS</tspan></text>
      <path
         style="font-style:normal;font-weight:normal;font-size:44.88074112px;line-height:1.25;font-family:sans-serif;letter-spacing:0px;word-spacing:0px;fill:#36b691;fill-opacity:0.53007519;stroke:none;stroke-width:6.73211098;filter:url(#filter3250)"
         d="m 14.685401,209.72565 v 32.71842 h 2.12339 v -31.73244 h 9.03406 l -0.4196,-0.98598 z m 25.68371,0 -6.64043,15.51326 1.26918,2.98225 7.49464,-17.50953 h 8.59274 v -0.98598 z m 15.975762,8.17417 8.85322,11.98739 -9.29196,12.55686 h 2.85306 l 8.56229,-11.5714 -8.85323,-11.98738 h 6.8616 l -0.67956,-0.98547 z m 18.40817,0 -4.35787,6.2358 1.39681,2.0252 5.08445,-7.27553 h 5.45134 l 0.73072,-0.98547 z m -49.945262,1.59939 v 3.98425 l 5.41467,12.67107 h 1.70272 z m 20.42408,0 -2.12338,4.96869 v 17.97617 h 2.12338 z m 26.560122,16.17266 -0.70641,1.00459 4.1057,5.76761 h 1.4216 z"
         id="text3198"
         transform="matrix(0.88750204,0,0,0.88750204,1.6701194,56.656932)" />
      <path
         style="font-style:normal;font-weight:normal;font-size:44.88074112px;line-height:1.25;font-family:sans-serif;letter-spacing:0px;word-spacing:0px;fill:#d87676;fill-opacity:0.6627451;stroke:none;stroke-width:6.73211098;filter:url(#filter3238)"
         d="m 102.24372,209.31531 c -5.244864,0 -9.365007,1.50487 -12.359967,4.51445 -2.98037,3.00958 -4.47053,7.16572 -4.47053,12.46901 0,4.66494 1.16158,8.44194 3.48041,11.33368 -1.57927,-2.64215 -2.37299,-5.88501 -2.37299,-9.73481 0,-5.3033 1.49018,-9.45994 4.47053,-12.46953 2.99498,-3.00958 7.114593,-4.51445 12.359457,-4.51445 5.25947,0 9.37961,1.50487 12.35996,4.51445 0.35028,0.35371 0.67792,0.72462 0.98703,1.11001 -0.58955,-0.98636 -1.28514,-1.89112 -2.09444,-2.70836 -2.98038,-3.00958 -7.09999,-4.51445 -12.35946,-4.51445 z m 34.53691,0 c -3.94459,0 -6.96852,0.87666 -9.0723,2.62981 -2.10381,1.75315 -3.15589,4.25839 -3.15589,7.51634 0,2.48564 0.68916,4.48319 2.06396,5.99446 -0.63646,-1.24016 -0.95705,-2.70434 -0.95705,-4.39559 0,-3.25795 1.05209,-5.7637 3.15587,-7.51686 2.10381,-1.75315 5.12823,-2.62981 9.07285,-2.62981 1.79697,0 3.64511,0.13893 5.54434,0.41651 1.55131,0.2148 3.14881,0.52709 4.78782,0.92708 v -1.32034 c -2.03073,-0.54055 -3.99597,-0.94212 -5.89523,-1.20509 -1.89926,-0.27758 -3.74737,-0.41651 -5.54437,-0.41651 z m -27.8448,10.05106 c 0.95787,1.78791 1.43814,4.09773 1.43814,6.9324 0,3.43326 -0.70882,6.09974 -2.12595,7.99899 -1.41714,1.89926 -3.41839,2.84893 -6.0043,2.84893 -2.328254,0 -4.182034,-0.78118 -5.564007,-2.33837 0.207303,0.38653 0.436173,0.74984 0.688343,1.0878 1.41713,1.89925 3.411274,2.84892 5.982574,2.84892 2.58591,0 4.58767,-0.94967 6.0048,-2.84892 1.41714,-1.89926 2.12545,-4.56523 2.12545,-7.99848 0,-3.44787 -0.70831,-6.12145 -2.12545,-8.0207 -0.13398,-0.17957 -0.27517,-0.34798 -0.4196,-0.51057 z m 24.42744,1.67174 c 0.11637,0.59972 0.41826,1.08983 0.90848,1.46864 0.65743,0.48212 1.84083,0.89839 3.55017,1.24902 l 3.59408,0.72295 c 3.63781,0.73049 6.22366,1.84089 7.75769,3.33107 0.0862,0.0838 0.16922,0.17012 0.25061,0.25786 -0.35354,-0.69986 -0.80491,-1.3194 -1.35752,-1.85622 -1.53403,-1.49018 -4.11988,-2.60058 -7.75767,-3.33106 l -3.5941,-0.72347 c -1.55297,-0.31856 -2.66702,-0.6917 -3.35174,-1.11879 z m 8.76329,11.63494 c 0.0715,0.2838 0.1111,0.58994 0.1111,0.92346 0,1.13955 -0.48979,2.01622 -1.46865,2.62982 -0.97882,0.61361 -2.38836,0.92036 -4.22918,0.92036 -1.8116,0 -3.69623,-0.27786 -5.65393,-0.83303 -1.94307,-0.56977 -3.95954,-1.40942 -6.04872,-2.51975 v 7.12206 c 0.36915,0.13682 0.73827,0.26571 1.10741,0.39067 v -5.91438 c 2.08918,1.11035 4.10515,1.9505 6.04822,2.52027 1.95768,0.55517 3.84233,0.83251 5.65391,0.83251 1.84081,0 3.25088,-0.30675 4.22973,-0.92036 0.97883,-0.6136 1.46812,-1.49026 1.46812,-2.62982 0,-1.02267 -0.33615,-1.81161 -1.00819,-2.36678 -0.0621,-0.0525 -0.13584,-0.10361 -0.20982,-0.15503 z"
         id="text3223"
         transform="matrix(0.88750204,0,0,0.88750204,1.6701194,56.656932)" />
    </g>
    <g
       transform="matrix(1.2564636,0,0,1.2564636,-24.151857,-50.405394)"
       id="g2211">
      <path
         style="fill:#b3b3b3;fill-opacity:1;stroke-width:0.2100127;filter:url(#filter2205)"
         d="m 87.388542,178.45873 c -2.559095,-0.25107 -1.305908,3.9042 -3.882813,3.59375 -9.229722,0.75572 -18.55487,-0.76368 -27.753906,0.24219 -3.021223,0.61038 -6.199648,4.02254 -5.033203,7.15429 2.810127,2.13812 6.845196,0.75102 10.111055,1.21806 7.743785,0.006 15.524544,0.0971 23.244414,-0.0325 3.905799,-1.3924 5.576774,-5.7488 4.857422,-9.61914 -0.04175,-0.99469 -0.199025,-2.58357 -1.542969,-2.55664 z m 30.587898,7.38477 c -9.55708,0.24073 -19.116248,0.38688 -28.673835,0.60546 0.157163,3.06586 -0.994903,6.41995 -0.05859,9.32813 10.471612,2.21884 21.133285,4.14078 31.712885,5.88672 2.85292,-1.24751 2.84041,-5.24871 3.15256,-7.94456 0.0772,-2.87904 0.39247,-8.47117 -3.97287,-7.92849 -0.72005,0.0172 -1.4401,0.0352 -2.16015,0.0527 z m -47.269539,4.96093 c -1.737067,0.73082 -3.068126,3.40909 -5.154296,1.64844 -1.828875,-0.94197 -4.405725,-2.35225 -5.179688,0.35547 0.268285,6.28058 11.260863,7.4415 12.539062,1.09961 0.39812,-1.36732 -0.867335,-3.00462 -2.205078,-3.10352 z m 7.382813,0.83399 c -3.055533,-0.57305 -3.1481,3.10697 -4.421875,4.83398 -0.871336,2.30958 -3.416663,2.89436 -4.921875,4.49024 0.08082,2.68439 3.09426,4.35374 4.869141,6.03906 2.089471,1.62412 4.366686,-1.21885 6.09375,-2.23242 3.254631,-2.75112 6.988974,-7.33139 5.175781,-11.82032 -1.323822,-2.38506 -4.671465,-0.87293 -6.794922,-1.31054 z m -22.917969,0.35156 c -6.631226,0.54288 -13.415203,1.16451 -19.75,3.23438 -2.122672,2.30553 -2.865959,5.91036 -2.628906,8.9746 0.273091,1.49059 1.831154,3.0117 2.990234,1.22461 4.86629,-2.33567 10.261165,0.64781 15.236354,1.14323 6.103546,0.91319 12.198635,2.74483 18.373021,2.79623 1.664779,-0.51826 2.553253,-1.95096 0.464118,-2.92989 -4.917894,-4.74417 -9.651493,-10.01804 -14.684821,-14.44316 z m 33.44336,6.08594 c -2.16668,0.66506 -2.662088,3.53324 -3.708985,5.30078 0.440106,3.01417 4.364351,3.73806 6.516954,5.24227 7.46938,3.55945 14.806266,7.59444 22.529926,10.52531 4.32128,0.03 5.81496,-5.15793 6.8933,-8.49786 1.28327,-2.72024 -0.45112,-6.18614 -3.56322,-6.33613 -9.52895,-2.1331 -19.044503,-4.65741 -28.667975,-6.23437 z m -5.650391,8.33984 c -1.923227,1.02064 -4.1338,2.81232 -4.601563,5.04688 1.153131,3.02355 4.586338,4.60575 6.622697,7.02466 3.630879,2.94205 6.634982,6.88248 10.613631,9.2937 5.143941,0.45606 10.522561,0.82114 15.562501,-0.39649 2.2407,-1.53136 3.04064,-5.40461 -0.0332,-6.54101 -9.58361,-4.26807 -18.178119,-10.64597 -27.976566,-14.42774 -0.06207,0.003 -0.125502,-0.011 -0.1875,0 z m -25.162109,3.12305 c -1.129588,-0.18657 -4.08041,0.28076 -2.785157,1.95898 3.975321,2.54937 9.055541,2.83283 13.437716,4.51312 3.630516,0.64205 7.18421,2.87244 10.900175,2.50837 2.146734,-1.36507 -0.53622,-3.9667 -1.841797,-4.94336 -5.725109,-3.79064 -13.081516,-3.84885 -19.710937,-4.03711 z"
         id="path2121" />
      <path
         style="fill:#333333;fill-opacity:1;stroke-width:0.2100127"
         d="m 98.72123,226.50272 c -0.0496,-0.0494 -0.844913,-0.10929 -1.767646,-0.13308 -0.922803,-0.0238 -1.866842,-0.13935 -2.097787,-0.2568 -0.231085,-0.11744 -0.98707,-0.7362 -1.680116,-1.37505 -0.693045,-0.63883 -4.05076,-3.72849 -7.461637,-6.86591 -3.410808,-3.13742 -6.458642,-6.00999 -6.772926,-6.38346 -0.976313,-1.16035 -0.813897,-1.67721 1.161223,-3.69515 0.98707,-1.00844 1.974141,-1.82588 2.293874,-1.89973 0.448478,-0.10355 1.672502,0.43823 6.090429,2.69562 3.040985,1.55386 6.804917,3.56426 8.364252,4.46756 5.678134,3.28923 10.631994,5.98999 11.760674,6.41179 3.5626,1.33129 4.3649,2.81051 2.80166,5.16562 -0.42271,0.63688 -0.96619,1.23684 -1.20754,1.33327 -0.80628,0.32198 -4.72327,0.62515 -8.07701,0.62515 -1.82471,0 -3.358061,-0.0404 -3.40745,-0.0899 z m 14.09066,-9.09192 c -2.0864,-0.78174 -18.748962,-8.75042 -23.090745,-11.04285 -4.529697,-2.39167 -5.460952,-3.38435 -4.473462,-4.76864 0.202094,-0.28337 0.751444,-1.26786 1.22067,-2.18775 0.692346,-1.35725 0.969466,-1.70426 1.470127,-1.84084 0.451622,-0.1232 1.882839,0.11739 5.342266,0.89807 2.598866,0.58649 5.953789,1.33474 7.455424,1.66275 9.23501,2.0173 17.0488,3.84269 17.54296,4.09825 0.72616,0.37549 1.63367,1.44602 1.80516,2.12939 0.52909,2.10793 -1.70813,8.14659 -3.73718,10.08737 -1.03562,0.99064 -2.44148,1.37409 -3.53522,0.96425 z m -36.332231,-0.578 c -0.519801,-0.15395 -2.362613,-0.67278 -4.095191,-1.15295 -2.911823,-0.80694 -14.125309,-4.09011 -15.889393,-4.65217 -0.42263,-0.13464 -1.036947,-0.46152 -1.365063,-0.72636 -0.494304,-0.39895 -0.556615,-0.54702 -0.363253,-0.86319 0.488855,-0.79935 9.248216,-0.45057 14.283743,0.56873 4.016044,0.81294 6.578446,1.89869 8.315425,3.52345 2.68479,2.5113 2.225135,4.22408 -0.886268,3.30249 z m -9.975561,-9.08345 c -5.461093,-0.77247 -17.755815,-3.01513 -21.841366,-3.98405 -4.08569,-0.96896 -7.162584,-1.07936 -8.817901,-0.31639 -0.576105,0.26553 -1.261955,0.6843 -1.524126,0.93059 -0.468946,0.44055 -0.48166,0.44122 -0.783229,0.0422 -0.790147,-1.04548 -0.990075,-1.78421 -0.839535,-3.10147 0.176597,-1.54429 0.996222,-4.47643 1.560522,-5.58271 0.222492,-0.43604 0.657698,-0.95873 0.967231,-1.16153 1.062725,-0.69632 11.152571,-2.48843 16.126834,-2.86438 l 3.329634,-0.25166 7.696078,7.70557 7.696007,7.70556 -0.589238,0.51514 c -0.592033,0.51759 -1.28871,0.60246 -2.980911,0.36309 z m 6.438872,-2.57138 c -1.701492,-1.34501 -3.537736,-3.25428 -3.998719,-4.15789 -0.511977,-1.00358 -0.443239,-1.09749 1.550043,-2.11569 0.961853,-0.49135 1.494018,-0.95789 2.248677,-1.97127 1.149906,-1.5443 2.260133,-3.64386 2.263906,-4.28149 0,-0.24414 0.251832,-0.69305 0.556336,-0.99756 0.553262,-0.55324 0.556406,-0.55367 4.000325,-0.55367 3.409621,0 3.451814,0.005 3.934801,0.52677 0.851061,0.91839 1.058184,2.13751 0.660352,3.88686 -0.427102,1.87764 -0.904012,2.84468 -2.328941,4.72192 -1.112463,1.46565 -2.447768,2.73262 -4.279263,4.06034 -1.14271,0.82835 -2.822966,1.71502 -3.250068,1.71502 -0.166747,0 -0.777641,-0.37502 -1.357449,-0.83334 z m 46.37926,-5.19687 c -3.3633,-0.59351 -13.43716,-2.45239 -22.681322,-4.18529 -1.559405,-0.2923 -3.827502,-0.71254 -5.040348,-0.93384 -1.212845,-0.22131 -2.332992,-0.4502 -2.489331,-0.50863 -0.231085,-0.0864 -0.255465,-0.68573 -0.130422,-3.2022 0.08467,-1.70276 0.181696,-3.23769 0.215716,-3.41096 0.03423,-0.17325 0.06916,-0.65617 0.07789,-1.07313 l 0.01606,-0.75813 6.352879,-0.13631 c 3.494006,-0.0749 8.998978,-0.18483 12.233188,-0.24417 3.2342,-0.0593 7.54757,-0.15555 9.5852,-0.21386 3.70322,-0.10596 3.70504,-0.10579 4.32075,0.41232 0.81683,0.68732 1.12455,1.81446 1.26168,4.62126 0.18812,3.8513 -0.50261,7.46147 -1.7374,9.08026 -0.53251,0.69821 -0.77582,0.76596 -1.98454,0.55268 z m -55.527372,-3.93976 c -1.453712,-0.59767 -2.542982,-1.56292 -3.087163,-2.73582 -0.536358,-1.15601 -0.496749,-1.61284 0.197484,-2.27798 l 0.596503,-0.57147 1.76618,0.76546 c 2.502883,1.08477 3.174832,1.32925 3.682199,1.33973 0.25281,0.005 1.00698,-0.49127 1.740611,-1.14585 0.711976,-0.63529 1.43995,-1.15507 1.617735,-1.15507 0.437021,0 1.545293,1.13449 1.574213,1.61145 0.08208,1.35465 -0.285573,2.21153 -1.422975,3.31613 -1.462373,1.42024 -4.377968,1.79359 -6.664787,0.85342 z m -10.007556,-7.04107 c -3.127051,-0.16368 -3.920688,-0.90826 -3.153595,-2.95856 0.89011,-2.37899 2.247419,-3.60984 4.739685,-4.29792 1.443023,-0.39841 3.872978,-0.41314 16.972585,-0.10282 7.711027,0.18266 10.723584,0.0776 12.031015,-0.41945 0.304853,-0.11589 0.614038,-0.57859 0.903314,-1.3519 0.241982,-0.64664 0.439954,-1.26333 0.439954,-1.37044 0,-0.3346 0.855951,-0.67109 1.375403,-0.54071 0.634435,0.15923 0.814316,0.98899 0.823118,3.7964 0.007,1.59345 -0.09473,2.37449 -0.41341,3.23734 -0.524832,1.42089 -1.840786,2.90807 -3.177278,3.59064 l -1.023047,0.52247 H 69.549277 c -7.565795,0 -14.658593,-0.0473 -15.761975,-0.10504 z"
         id="path3891" />
    </g>
  </g>
</svg>
