<?xml version="1.0" encoding="UTF-8" standalone="no"?>
<!-- Created with Inkscape (http://www.inkscape.org/) -->

<svg
   width="30.436644mm"
   height="30.688648mm"
   viewBox="0 0 30.436644 30.688648"
   version="1.1"
   id="svg1"
   xml:space="preserve"
   sodipodi:docname="drawing.svg"
   inkscape:version="1.4 (e7c3feb100, 2024-10-09)"
   xmlns:inkscape="http://www.inkscape.org/namespaces/inkscape"
   xmlns:sodipodi="http://sodipodi.sourceforge.net/DTD/sodipodi-0.dtd"
   xmlns="http://www.w3.org/2000/svg"
   xmlns:svg="http://www.w3.org/2000/svg"><sodipodi:namedview
     id="namedview1"
     pagecolor="#ffffff"
     bordercolor="#000000"
     borderopacity="0.25"
     inkscape:showpageshadow="2"
     inkscape:pageopacity="0.0"
     inkscape:pagecheckerboard="0"
     inkscape:deskcolor="#d1d1d1"
     inkscape:document-units="mm"
     inkscape:zoom="1.3679892"
     inkscape:cx="-958.70641"
     inkscape:cy="820.91292"
     inkscape:window-width="1920"
     inkscape:window-height="1011"
     inkscape:window-x="0"
     inkscape:window-y="0"
     inkscape:window-maximized="1"
     inkscape:current-layer="layer1"
     showguides="false"><inkscape:page
       x="0"
       y="0"
       width="30.436644"
       height="30.688648"
       id="page2"
       margin="0"
       bleed="0" /></sodipodi:namedview><defs
     id="defs1" /><g
     inkscape:label="Layer 1"
     inkscape:groupmode="layer"
     id="layer1"
     transform="translate(216.39088,-169.41529)"><path
       style="fill:#28818f;fill-opacity:1;stroke-width:1.19381;stroke-linecap:round"
       d="m -187.77951,172.63485 c -0.0175,-0.0179 -0.94833,0.88415 -2.07903,2.01485 l -6.47315,6.47374 a 5.9558527,5.9558527 0 0 1 1.2411,3.63631 5.9558527,5.9558527 0 0 1 -1.52504,3.97055 l 7.02358,7.02359 c 1.1307,1.1307 2.97867,1.13242 3.8901,-0.17628 l -1.74717,-2.30857 -4.45918,-5.89193 a 3.825972,3.825972 0 0 1 0,-4.61742 l 4.2335,-5.59409 c 0.96493,-1.27509 1.01131,-3.38787 -0.10471,-4.53075 z"
       id="path282" /><path
       style="fill:#28818f;fill-opacity:1;stroke-width:1.19381;stroke-linecap:round"
       d="m -187.77951,172.63485 c -0.0175,-0.0179 -0.94833,0.88415 -2.07903,2.01485 l -6.47315,6.47374 a 5.9558527,5.9558527 0 0 1 1.2411,3.63631 5.9558527,5.9558527 0 0 1 -1.52504,3.97055 l 7.02358,7.02359 c 1.1307,1.1307 2.97867,1.13242 3.8901,-0.17628 l -1.74717,-2.30857 -4.45918,-5.89193 a 3.825972,3.825972 0 0 1 0,-4.61742 l 4.2335,-5.59409 c 0.96493,-1.27509 1.01131,-3.38787 -0.10471,-4.53075 z"
       id="path308" /><g
       id="g396"
       inkscape:export-filename="g396.svg"
       inkscape:export-xdpi="96"
       inkscape:export-ydpi="96"><circle
         style="fill:#004e59;fill-opacity:1;stroke-width:3.05285;stroke-linecap:round"
         id="circle277"
         cx="-201.0461"
         cy="184.75954"
         r="4.8245001" /><path
         style="fill:#66b7c6;fill-opacity:1;stroke-width:1.19381;stroke-linecap:round"
         d="m -201.31587,193.81387 a 3.825972,3.825972 0 0 0 -2.03349,0.76518 l -1.70842,1.29315 a 4.2040287,4.2040287 0 0 0 4.18765,3.97972 4.2040287,4.2040287 0 0 0 4.17612,-3.73037 l -2.03793,-1.5425 a 3.825972,3.825972 0 0 0 -2.58393,-0.76518 z"
         id="path278" /><path
         style="fill:#28818f;fill-opacity:1;stroke-width:1.19381;stroke-linecap:round"
         d="m -197.23914,189.33014 a 5.9558527,5.9558527 0 0 1 -3.80728,1.38543 5.9558527,5.9558527 0 0 1 -3.80047,-1.3801 l -6.61246,6.61216 c -1.1307,1.1307 -2.03279,2.06152 -2.01485,2.07903 1.14288,1.11602 3.25566,1.06964 4.53076,0.10471 l 5.59408,-4.2335 a 3.825972,3.825972 0 0 1 4.61742,0 l 5.89194,4.45918 2.30856,1.74687 c 1.30869,-0.91143 1.30698,-2.7591 0.17628,-3.8898 z"
         id="path279" /><path
         style="fill:#66b7c6;fill-opacity:1;stroke-width:1.19381;stroke-linecap:round"
         d="m -189.93397,181.05097 -1.29315,1.70872 a 3.825972,3.825972 0 0 0 0,4.61742 l 1.5425,2.03792 a 4.2040287,4.2040287 0 0 0 3.73037,-4.17641 4.2040287,4.2040287 0 0 0 -3.97972,-4.18765 z"
         id="path280" /><path
         style="fill:#66b7c6;fill-opacity:1;stroke-width:1.19381;stroke-linecap:round"
         d="m -212.15887,181.05097 a 4.2040287,4.2040287 0 0 0 -3.98001,4.18765 4.2040287,4.2040287 0 0 0 3.73037,4.17641 l 1.5425,-2.03792 a 3.825972,3.825972 0 0 0 0,-4.61742 z"
         id="path281" /><path
         style="fill:#28818f;fill-opacity:1;stroke-width:1.19381;stroke-linecap:round"
         d="m -214.31362,172.63485 c -1.11602,1.14288 -1.06964,3.25566 -0.10471,4.53075 l 4.2335,5.59409 a 3.825972,3.825972 0 0 1 0,4.61742 l -4.45888,5.89193 -1.74718,2.30857 c 0.91144,1.3087 2.75911,1.30698 3.88981,0.17628 l 7.02358,-7.02359 a 5.9558527,5.9558527 0 0 1 -1.52474,-3.97055 5.9558527,5.9558527 0 0 1 1.25026,-3.62744 l -6.48261,-6.48261 c -1.13069,-1.1307 -2.06152,-2.03277 -2.07903,-2.01485 z"
         id="path283" /><path
         style="fill:#66b7c6;fill-opacity:1;stroke-width:1.19381;stroke-linecap:round"
         d="m -200.87013,169.66728 a 4.2040287,4.2040287 0 0 0 -4.18765,3.97973 l 1.70842,1.29315 a 3.825972,3.825972 0 0 0 4.61742,0 l 2.03793,-1.5425 a 4.2040287,4.2040287 0 0 0 -4.17612,-3.73038 z"
         id="path284" /><path
         style="fill:#28818f;fill-opacity:1;stroke-width:1.19381;stroke-linecap:round"
         d="m -190.53144,169.41528 -2.30856,1.74687 -5.89194,4.45919 a 3.825972,3.825972 0 0 1 -4.61742,0 l -5.59408,-4.2335 c -1.2751,-0.96494 -3.38788,-1.01132 -4.53076,0.1047 -0.0179,0.0175 0.88415,0.94834 2.01485,2.07904 l 6.61246,6.61216 a 5.9558527,5.9558527 0 0 1 3.80047,-1.38011 5.9558527,5.9558527 0 0 1 3.81172,1.381 l 6.87954,-6.87954 c 1.1307,-1.1307 1.13241,-2.97838 -0.17628,-3.88981 z"
         id="path285" /><circle
         style="fill:#004e59;fill-opacity:1;stroke-width:3.05285;stroke-linecap:round"
         id="circle303"
         cx="-201.0461"
         cy="184.75954"
         r="4.8245001" /><path
         style="fill:#66b7c6;fill-opacity:1;stroke-width:1.19381;stroke-linecap:round"
         d="m -201.31587,193.81387 a 3.825972,3.825972 0 0 0 -2.03349,0.76518 l -1.70842,1.29315 a 4.2040287,4.2040287 0 0 0 4.18765,3.97972 4.2040287,4.2040287 0 0 0 4.17612,-3.73037 l -2.03793,-1.5425 a 3.825972,3.825972 0 0 0 -2.58393,-0.76518 z"
         id="path304" /><path
         style="fill:#28818f;fill-opacity:1;stroke-width:1.19381;stroke-linecap:round"
         d="m -197.23914,189.33014 a 5.9558527,5.9558527 0 0 1 -3.80728,1.38543 5.9558527,5.9558527 0 0 1 -3.80047,-1.3801 l -6.61246,6.61216 c -1.1307,1.1307 -2.03279,2.06152 -2.01485,2.07903 1.14288,1.11602 3.25566,1.06964 4.53076,0.10471 l 5.59408,-4.2335 a 3.825972,3.825972 0 0 1 4.61742,0 l 5.89194,4.45918 2.30856,1.74687 c 1.30869,-0.91143 1.30698,-2.7591 0.17628,-3.8898 z"
         id="path305" /><path
         style="fill:#66b7c6;fill-opacity:1;stroke-width:1.19381;stroke-linecap:round"
         d="m -189.93397,181.05097 -1.29315,1.70872 a 3.825972,3.825972 0 0 0 0,4.61742 l 1.5425,2.03792 a 4.2040287,4.2040287 0 0 0 3.73037,-4.17641 4.2040287,4.2040287 0 0 0 -3.97972,-4.18765 z"
         id="path306" /><path
         style="fill:#66b7c6;fill-opacity:1;stroke-width:1.19381;stroke-linecap:round"
         d="m -212.15887,181.05097 a 4.2040287,4.2040287 0 0 0 -3.98001,4.18765 4.2040287,4.2040287 0 0 0 3.73037,4.17641 l 1.5425,-2.03792 a 3.825972,3.825972 0 0 0 0,-4.61742 z"
         id="path307" /><path
         style="fill:#28818f;fill-opacity:1;stroke-width:1.19381;stroke-linecap:round"
         d="m -214.31362,172.63485 c -1.11602,1.14288 -1.06964,3.25566 -0.10471,4.53075 l 4.2335,5.59409 a 3.825972,3.825972 0 0 1 0,4.61742 l -4.45888,5.89193 -1.74718,2.30857 c 0.91144,1.3087 2.75911,1.30698 3.88981,0.17628 l 7.02358,-7.02359 a 5.9558527,5.9558527 0 0 1 -1.52474,-3.97055 5.9558527,5.9558527 0 0 1 1.25026,-3.62744 l -6.48261,-6.48261 c -1.13069,-1.1307 -2.06152,-2.03277 -2.07903,-2.01485 z"
         id="path309" /><path
         style="fill:#66b7c6;fill-opacity:1;stroke-width:1.19381;stroke-linecap:round"
         d="m -200.87013,169.66728 a 4.2040287,4.2040287 0 0 0 -4.18765,3.97973 l 1.70842,1.29315 a 3.825972,3.825972 0 0 0 4.61742,0 l 2.03793,-1.5425 a 4.2040287,4.2040287 0 0 0 -4.17612,-3.73038 z"
         id="path310" /><path
         style="fill:#28818f;fill-opacity:1;stroke-width:1.19381;stroke-linecap:round"
         d="m -190.53144,169.41528 -2.30856,1.74687 -5.89194,4.45919 a 3.825972,3.825972 0 0 1 -4.61742,0 l -5.59408,-4.2335 c -1.2751,-0.96494 -3.38788,-1.01132 -4.53076,0.1047 -0.0179,0.0175 0.88415,0.94834 2.01485,2.07904 l 6.61246,6.61216 a 5.9558527,5.9558527 0 0 1 3.80047,-1.38011 5.9558527,5.9558527 0 0 1 3.81172,1.381 l 6.87954,-6.87954 c 1.1307,-1.1307 1.13241,-2.97838 -0.17628,-3.88981 z"
         id="path311" /></g></g></svg>
