<?xml version="1.0" encoding="UTF-8" standalone="no"?>
<!-- Created with Inkscape (http://www.inkscape.org/) -->

<svg
   width="30.688936mm"
   height="30.688631mm"
   viewBox="0 0 30.688936 30.688631"
   version="1.1"
   id="svg1"
   xml:space="preserve"
   sodipodi:docname="drawing.svg"
   inkscape:version="1.4 (e7c3feb100, 2024-10-09)"
   xmlns:inkscape="http://www.inkscape.org/namespaces/inkscape"
   xmlns:sodipodi="http://sodipodi.sourceforge.net/DTD/sodipodi-0.dtd"
   xmlns="http://www.w3.org/2000/svg"
   xmlns:svg="http://www.w3.org/2000/svg"><sodipodi:namedview
     id="namedview1"
     pagecolor="#ffffff"
     bordercolor="#000000"
     borderopacity="0.25"
     inkscape:showpageshadow="2"
     inkscape:pageopacity="0.0"
     inkscape:pagecheckerboard="0"
     inkscape:deskcolor="#d1d1d1"
     inkscape:document-units="mm"
     inkscape:zoom="1.3679892"
     inkscape:cx="-958.70641"
     inkscape:cy="820.91292"
     inkscape:window-width="1920"
     inkscape:window-height="1011"
     inkscape:window-x="0"
     inkscape:window-y="0"
     inkscape:window-maximized="1"
     inkscape:current-layer="layer1"
     showguides="false"><inkscape:page
       x="0"
       y="0"
       width="30.688936"
       height="30.688631"
       id="page2"
       margin="0"
       bleed="0" /></sodipodi:namedview><defs
     id="defs1" /><g
     inkscape:label="Layer 1"
     inkscape:groupmode="layer"
     id="layer1"
     transform="translate(181.17179,-205.45181)"><g
       id="g394"
       inkscape:export-filename="g394.svg"
       inkscape:export-xdpi="96"
       inkscape:export-ydpi="96"><path
         style="fill:#004e59;fill-opacity:1;stroke-width:3.05285;stroke-linecap:round"
         d="m -165.33299,222.45866 c -0.006,0.003 -0.13313,0.11597 -0.28163,0.2527 -0.87188,0.80277 -1.65074,1.4699 -1.9544,1.6738 -0.11196,0.0752 -0.31549,0.17323 -0.45631,0.22014 -0.21281,0.0709 -0.34919,0.0947 -0.59014,0.1018 -0.009,2.7e-4 -0.009,-2.4e-4 -0.0171,0 a 4.8245001,4.8245001 0 0 0 1.78181,0.79117 c 0.002,-0.27208 0.0314,-0.90632 0.17363,-1.06609 0.47588,-0.53403 0.89043,-1.09833 1.15032,-1.56424 0.0877,-0.15715 0.20973,-0.41488 0.19378,-0.40928 z"
         id="path351"
         inkscape:export-filename="text104.png"
         inkscape:export-xdpi="96"
         inkscape:export-ydpi="96" /><path
         style="fill:#004e59;fill-opacity:1;stroke-width:3.05285;stroke-linecap:round"
         d="m -166.75047,222.06127 c -0.004,0 -0.31214,0.24383 -0.68523,0.54208 -0.78733,0.6294 -0.89419,0.71339 -1.11156,0.87179 -0.36069,0.26281 -0.62227,0.41818 -0.88367,0.52244 a 4.8245001,4.8245001 0 0 0 0.5917,0.55449 c 0.0276,-0.0277 0.0645,-0.0615 0.11524,-0.10697 0.0971,-0.087 0.35231,-0.33454 0.56689,-0.54984 0.60629,-0.60834 0.91974,-0.99185 1.21594,-1.48724 0.11362,-0.19003 0.1998,-0.34675 0.19069,-0.34675 z"
         id="path352" /><path
         style="fill:#004e59;fill-opacity:1;stroke-width:3.05285;stroke-linecap:round"
         d="m -168.29973,221.70367 c -0.003,-0.003 -0.11531,0.0812 -0.25011,0.18655 -0.13479,0.10534 -0.29806,0.23067 -0.36277,0.27853 -0.36414,0.26929 -0.9675,0.59206 -1.27434,0.6842 a 4.8245001,4.8245001 0 0 0 0.46147,0.76533 c 0.50651,-0.46625 0.93515,-0.98385 1.20354,-1.45831 0.0732,-0.12943 0.22907,-0.44943 0.22221,-0.4563 z"
         id="path353" /><path
         style="fill:#004e59;fill-opacity:1;stroke-width:3.05285;stroke-linecap:round"
         d="m -165.38259,218.40568 v 0.0734 c 0,0.0922 0.0343,0.20332 0.0853,0.2775 0.11458,0.16654 0.36897,0.22847 0.56948,0.13849 l -5.2e-4,0.002 c 0.092,-0.0413 0.17645,-0.1271 0.22117,-0.22479 0.0245,-0.0536 0.0321,-0.091 0.0331,-0.16381 l 0.002,-0.0946 -0.45527,-0.004 z"
         id="path354" /><path
         style="fill:#66b7c6;fill-opacity:1;stroke-width:3.05285;stroke-linecap:round"
         d="m -165.82701,215.97172 a 4.8245001,4.8245001 0 0 0 -4.82451,4.82451 4.8245001,4.8245001 0 0 0 0.35915,1.79782 c 0.12326,-0.17152 0.30464,-0.47461 0.49816,-1.02836 0.0819,-0.23501 0.2056,-0.59456 0.27492,-0.79892 0.33969,-1.00137 0.43518,-1.26639 0.56792,-1.57613 0.42092,-0.9822 0.98118,-1.63285 1.72444,-2.00246 0.20538,-0.10213 0.40497,-0.17632 0.61547,-0.22893 0.28891,-0.0722 0.51827,-0.0887 1.01803,-0.0739 0.47813,0.0142 0.6978,0.0411 1.03818,0.12867 0.71007,0.18284 1.27021,0.63454 1.37149,1.10588 l 0.0212,0.0966 0.10646,0.0145 c 0.2809,0.0382 0.67158,0.19059 0.92501,0.36019 0.33737,0.22578 0.54178,0.53048 0.60719,0.9064 0.03,0.17227 0.0189,0.46952 -0.0238,0.63769 -0.05,0.19711 -0.12957,0.37775 -0.16639,0.37775 -0.0124,0 -0.0461,-0.0329 -0.0775,-0.076 -0.24044,-0.33019 -0.71874,-0.48412 -1.28881,-0.41445 -0.43936,0.0537 -0.7418,0.1702 -0.93483,0.36019 -0.10091,0.0993 -0.15166,0.19193 -0.16226,0.29455 -0.0149,0.14485 0.0902,0.37645 0.33125,0.72967 0.68416,1.00245 0.87521,1.33315 1.02009,1.76269 0.10773,0.31942 0.14272,0.53697 0.15193,0.94774 0.002,0.0839 0.002,0.20657 0.001,0.32918 a 4.8245001,4.8245001 0 0 0 1.6707,-3.65042 4.8245001,4.8245001 0 0 0 -4.82451,-4.82451 z"
         id="path355" /><path
         style="fill:#93c570;fill-opacity:1;stroke-width:1.19381;stroke-linecap:round"
         d="m -166.09679,229.8504 a 3.825972,3.825972 0 0 0 -2.03349,0.76518 l -1.70842,1.29315 a 4.2040287,4.2040287 0 0 0 4.18765,3.97972 4.2040287,4.2040287 0 0 0 4.17612,-3.73037 l -2.03793,-1.5425 a 3.825972,3.825972 0 0 0 -2.58393,-0.76518 z"
         id="path356" /><path
         style="fill:#466731;fill-opacity:1;stroke-width:1.19381;stroke-linecap:round"
         d="m -162.02006,225.36667 a 5.9558527,5.9558527 0 0 1 -3.80728,1.38543 5.9558527,5.9558527 0 0 1 -3.80047,-1.3801 l -6.61246,6.61216 c -1.1307,1.1307 -2.03279,2.06152 -2.01485,2.07903 1.14288,1.11602 3.25566,1.06964 4.53076,0.10471 l 5.59408,-4.2335 a 3.825972,3.825972 0 0 1 4.61742,0 l 5.89194,4.45918 2.30856,1.74687 c 1.30869,-0.91143 1.30698,-2.7591 0.17628,-3.8898 z"
         id="path357" /><path
         style="fill:#66b7c6;fill-opacity:1;stroke-width:1.19381;stroke-linecap:round"
         d="m -154.71489,217.0875 -1.29315,1.70872 a 3.825972,3.825972 0 0 0 0,4.61742 l 1.5425,2.03792 a 4.2040287,4.2040287 0 0 0 3.73037,-4.17641 4.2040287,4.2040287 0 0 0 -3.97972,-4.18765 z"
         id="path358" /><path
         style="fill:#66b7c6;fill-opacity:1;stroke-width:1.19381;stroke-linecap:round"
         d="m -176.93979,217.0875 a 4.2040287,4.2040287 0 0 0 -3.98001,4.18765 4.2040287,4.2040287 0 0 0 3.73037,4.17641 l 1.5425,-2.03792 a 3.825972,3.825972 0 0 0 0,-4.61742 z"
         id="path359" /><path
         style="fill:#28818f;fill-opacity:1;stroke-width:1.19381;stroke-linecap:round"
         d="m -152.56043,208.67138 c -0.0175,-0.0179 -0.94833,0.88415 -2.07903,2.01485 l -6.47315,6.47374 a 5.9558527,5.9558527 0 0 1 1.2411,3.63631 5.9558527,5.9558527 0 0 1 -1.52504,3.97055 l 7.02358,7.02359 c 1.1307,1.1307 2.97867,1.13242 3.8901,-0.17628 l -1.74717,-2.30857 -4.45918,-5.89193 a 3.825972,3.825972 0 0 1 0,-4.61742 l 4.2335,-5.59409 c 0.96493,-1.27509 1.01131,-3.38787 -0.10471,-4.53075 z"
         id="path360" /><path
         style="fill:#28818f;fill-opacity:1;stroke-width:1.19381;stroke-linecap:round"
         d="m -179.09454,208.67138 c -1.11602,1.14288 -1.06964,3.25566 -0.10471,4.53075 l 4.2335,5.59409 a 3.825972,3.825972 0 0 1 0,4.61742 l -4.45888,5.89193 -1.74718,2.30857 c 0.91144,1.3087 2.75911,1.30698 3.88981,0.17628 l 7.02358,-7.02359 a 5.9558527,5.9558527 0 0 1 -1.52474,-3.97055 5.9558527,5.9558527 0 0 1 1.25026,-3.62744 l -6.48261,-6.48261 c -1.13069,-1.1307 -2.06152,-2.03277 -2.07903,-2.01485 z"
         id="path361" /><path
         style="fill:#66b7c6;fill-opacity:1;stroke-width:1.19381;stroke-linecap:round"
         d="m -165.65105,205.70382 a 4.2040287,4.2040287 0 0 0 -4.18765,3.97972 l 1.70842,1.29315 a 3.825972,3.825972 0 0 0 4.61742,0 l 2.03793,-1.5425 a 4.2040287,4.2040287 0 0 0 -4.17612,-3.73037 z"
         id="path362" /><path
         style="fill:#28818f;fill-opacity:1;stroke-width:1.19381;stroke-linecap:round"
         d="m -155.31236,205.45181 -2.30856,1.74688 -5.89194,4.45918 a 3.825972,3.825972 0 0 1 -4.61742,0 l -5.59408,-4.2335 c -1.2751,-0.96494 -3.38788,-1.01131 -4.53076,0.1047 -0.0179,0.0175 0.88415,0.94834 2.01485,2.07904 l 6.61246,6.61216 a 5.9558527,5.9558527 0 0 1 3.80047,-1.38011 5.9558527,5.9558527 0 0 1 3.81172,1.381 l 6.87954,-6.87954 c 1.1307,-1.1307 1.13241,-2.97837 -0.17628,-3.88981 z"
         id="path363" /><path
         style="fill:#44642f;fill-opacity:1;stroke-width:3.05285;stroke-linecap:round"
         d="m -165.33299,222.45866 c -0.006,0.003 -0.13313,0.11597 -0.28163,0.2527 -0.87188,0.80277 -1.65074,1.4699 -1.9544,1.6738 -0.11196,0.0752 -0.31549,0.17323 -0.45631,0.22014 -0.21281,0.0709 -0.34919,0.0947 -0.59014,0.1018 -0.009,2.7e-4 -0.009,-2.4e-4 -0.0171,0 a 4.8245001,4.8245001 0 0 0 1.78181,0.79117 c 0.002,-0.27208 0.0314,-0.90632 0.17363,-1.06609 0.47588,-0.53403 0.89043,-1.09833 1.15032,-1.56424 0.0877,-0.15715 0.20973,-0.41488 0.19378,-0.40928 z"
         id="path372"
         inkscape:export-filename="text104.png"
         inkscape:export-xdpi="96"
         inkscape:export-ydpi="96" /><path
         style="fill:#44642f;fill-opacity:1;stroke-width:3.05285;stroke-linecap:round"
         d="m -166.75047,222.06127 c -0.004,0 -0.31214,0.24383 -0.68523,0.54208 -0.78733,0.6294 -0.89419,0.71339 -1.11156,0.87179 -0.36069,0.26281 -0.62227,0.41818 -0.88367,0.52244 a 4.8245001,4.8245001 0 0 0 0.5917,0.55449 c 0.0276,-0.0277 0.0645,-0.0615 0.11524,-0.10697 0.0971,-0.087 0.35231,-0.33454 0.56689,-0.54984 0.60629,-0.60834 0.91974,-0.99185 1.21594,-1.48724 0.11362,-0.19003 0.1998,-0.34675 0.19069,-0.34675 z"
         id="path373" /><path
         style="fill:#44642f;fill-opacity:1;stroke-width:3.05285;stroke-linecap:round"
         d="m -168.29973,221.70367 c -0.003,-0.003 -0.11531,0.0812 -0.25011,0.18655 -0.13479,0.10534 -0.29806,0.23067 -0.36277,0.27853 -0.36414,0.26929 -0.9675,0.59206 -1.27434,0.6842 a 4.8245001,4.8245001 0 0 0 0.46147,0.76533 c 0.50651,-0.46625 0.93515,-0.98385 1.20354,-1.45831 0.0732,-0.12943 0.22907,-0.44943 0.22221,-0.4563 z"
         id="path374" /><path
         style="fill:#44642f;fill-opacity:1;stroke-width:3.05285;stroke-linecap:round"
         d="m -165.38259,218.40568 v 0.0734 c 0,0.0922 0.0343,0.20332 0.0853,0.2775 0.11458,0.16654 0.36897,0.22847 0.56948,0.13849 l -5.2e-4,0.002 c 0.092,-0.0413 0.17645,-0.1271 0.22117,-0.22479 0.0245,-0.0536 0.0321,-0.091 0.0331,-0.16381 l 0.002,-0.0946 -0.45527,-0.004 z"
         id="path375" /><path
         style="fill:#8cc167;fill-opacity:1;stroke-width:3.05285;stroke-linecap:round"
         d="m -165.82701,215.97172 a 4.8245001,4.8245001 0 0 0 -4.82451,4.82451 4.8245001,4.8245001 0 0 0 0.35915,1.79782 c 0.12326,-0.17152 0.30464,-0.47461 0.49816,-1.02836 0.0819,-0.23501 0.2056,-0.59456 0.27492,-0.79892 0.33969,-1.00137 0.43518,-1.26639 0.56792,-1.57613 0.42092,-0.9822 0.98118,-1.63285 1.72444,-2.00246 0.20538,-0.10213 0.40497,-0.17632 0.61547,-0.22893 0.28891,-0.0722 0.51827,-0.0887 1.01803,-0.0739 0.47813,0.0142 0.6978,0.0411 1.03818,0.12867 0.71007,0.18284 1.27021,0.63454 1.37149,1.10588 l 0.0212,0.0966 0.10646,0.0145 c 0.2809,0.0382 0.67158,0.19059 0.92501,0.36019 0.33737,0.22578 0.54178,0.53048 0.60719,0.9064 0.03,0.17227 0.0189,0.46952 -0.0238,0.63769 -0.05,0.19711 -0.12957,0.37775 -0.16639,0.37775 -0.0124,0 -0.0461,-0.0329 -0.0775,-0.076 -0.24044,-0.33019 -0.71874,-0.48412 -1.28881,-0.41445 -0.43936,0.0537 -0.7418,0.1702 -0.93483,0.36019 -0.10091,0.0993 -0.15166,0.19193 -0.16226,0.29455 -0.0149,0.14485 0.0902,0.37645 0.33125,0.72967 0.68416,1.00245 0.87521,1.33315 1.02009,1.76269 0.10773,0.31942 0.14272,0.53697 0.15193,0.94774 0.002,0.0839 0.002,0.20657 0.001,0.32918 a 4.8245001,4.8245001 0 0 0 1.6707,-3.65042 4.8245001,4.8245001 0 0 0 -4.82451,-4.82451 z"
         id="path376" /><path
         style="fill:#93c570;fill-opacity:1;stroke-width:1.19381;stroke-linecap:round"
         d="m -154.71489,217.0875 -1.29315,1.70872 a 3.825972,3.825972 0 0 0 0,4.61742 l 1.5425,2.03792 a 4.2040287,4.2040287 0 0 0 3.73037,-4.17641 4.2040287,4.2040287 0 0 0 -3.97972,-4.18765 z"
         id="path377" /><path
         style="fill:#93c570;fill-opacity:1;stroke-width:1.19381;stroke-linecap:round"
         d="m -176.93979,217.0875 a 4.2040287,4.2040287 0 0 0 -3.98001,4.18765 4.2040287,4.2040287 0 0 0 3.73037,4.17641 l 1.5425,-2.03792 a 3.825972,3.825972 0 0 0 0,-4.61742 z"
         id="path378" /><path
         style="fill:#466731;fill-opacity:1;stroke-width:1.19381;stroke-linecap:round"
         d="m -152.56043,208.67138 c -0.0175,-0.0179 -0.94833,0.88415 -2.07903,2.01485 l -6.47315,6.47374 a 5.9558527,5.9558527 0 0 1 1.2411,3.63631 5.9558527,5.9558527 0 0 1 -1.52504,3.97055 l 7.02358,7.02359 c 1.1307,1.1307 2.97867,1.13242 3.8901,-0.17628 l -1.74717,-2.30857 -4.45918,-5.89193 a 3.825972,3.825972 0 0 1 0,-4.61742 l 4.2335,-5.59409 c 0.96493,-1.27509 1.01131,-3.38787 -0.10471,-4.53075 z"
         id="path379" /><path
         style="fill:#466731;fill-opacity:1;stroke-width:1.19381;stroke-linecap:round"
         d="m -179.09454,208.67138 c -1.11602,1.14288 -1.06964,3.25566 -0.10471,4.53075 l 4.2335,5.59409 a 3.825972,3.825972 0 0 1 0,4.61742 l -4.45888,5.89193 -1.74718,2.30857 c 0.91144,1.3087 2.75911,1.30698 3.88981,0.17628 l 7.02358,-7.02359 a 5.9558527,5.9558527 0 0 1 -1.52474,-3.97055 5.9558527,5.9558527 0 0 1 1.25026,-3.62744 l -6.48261,-6.48261 c -1.13069,-1.1307 -2.06152,-2.03277 -2.07903,-2.01485 z"
         id="path380" /><path
         style="fill:#93c570;fill-opacity:1;stroke-width:1.19381;stroke-linecap:round"
         d="m -165.65105,205.70382 a 4.2040287,4.2040287 0 0 0 -4.18765,3.97972 l 1.70842,1.29315 a 3.825972,3.825972 0 0 0 4.61742,0 l 2.03793,-1.5425 a 4.2040287,4.2040287 0 0 0 -4.17612,-3.73037 z"
         id="path381" /><path
         style="fill:#466731;fill-opacity:1;stroke-width:1.19381;stroke-linecap:round"
         d="m -155.31236,205.45181 -2.30856,1.74688 -5.89194,4.45918 a 3.825972,3.825972 0 0 1 -4.61742,0 l -5.59408,-4.2335 c -1.2751,-0.96494 -3.38788,-1.01131 -4.53076,0.1047 -0.0179,0.0175 0.88415,0.94834 2.01485,2.07904 l 6.61246,6.61216 a 5.9558527,5.9558527 0 0 1 3.80047,-1.38011 5.9558527,5.9558527 0 0 1 3.81172,1.381 l 6.87954,-6.87954 c 1.1307,-1.1307 1.13241,-2.97837 -0.17628,-3.88981 z"
         id="path382" /></g></g></svg>
