<?xml version="1.0" encoding="UTF-8" standalone="no"?>
<!--
Propuesta a1 para logotipo proyecto MxOS.
Autor: Miguel Angel Marcial Martinez @fitorec
Licencia: Creative Commons CC BY-SA 4.0
-->
<svg
   xmlns:dc="http://purl.org/dc/elements/1.1/"
   xmlns:cc="http://creativecommons.org/ns#"
   xmlns:rdf="http://www.w3.org/1999/02/22-rdf-syntax-ns#"
   xmlns:svg="http://www.w3.org/2000/svg"
   xmlns="http://www.w3.org/2000/svg"
   id="propuesta-00"
   version="1.1"
   viewBox="0 0 132.29167 132.29167"
   height="500"
   width="500">
  <defs
     id="defs248" />
  <metadata
     id="metadata251">
    <rdf:RDF>
      <cc:Work
         rdf:about="">
        <dc:format>image/svg+xml</dc:format>
        <dc:type
           rdf:resource="http://purl.org/dc/dcmitype/StillImage" />
        <dc:title></dc:title>
      </cc:Work>
    </rdf:RDF>
  </metadata>
  <g
     id="g9358"
     transform="matrix(0.84908197,0,0,0.84908197,1153.9297,151.51476)">
    <path
       style="opacity:1;fill:#333333;fill-opacity:1;stroke:none;stroke-width:5;stroke-linecap:round;stroke-linejoin:bevel;stroke-miterlimit:4;stroke-dasharray:none;stroke-dashoffset:0;stroke-opacity:1;paint-order:stroke fill markers"
       d="m -1359.0322,-163.92734 v 141.287494 h 46.5667 v -67.652716 c -14.1836,-14.136838 -28.3371,-28.303188 -42.4915,-42.469758 3.2866,-3.2922 6.5771,-6.58054 9.8651,-9.87123 -3.2402,-3.23897 -6.4808,-6.47763 -9.7209,-9.71672 3.2972,-3.28222 6.5939,-6.56497 9.8909,-9.84746 -0.5461,-0.5862 -1.105,-1.16004 -1.6681,-1.72961 z m 129.6624,0 c -0.5994,0.6 -1.1989,1.19991 -1.7983,1.79989 3.5619,2.89551 6.1991,6.93209 10.4221,8.98239 -3.5003,3.50355 -7.0056,7.00208 -10.5079,10.50376 3.2933,3.29331 6.589,6.58392 9.8805,9.87898 -7.1984,7.18533 -14.398,14.36904 -21.5971,21.55372 -3.4564,2.63052 -5.7625,6.55454 -9.17,9.19272 v 3.707787 c 0.7458,0.681159 1.6077,1.281128 2.4195,1.645377 13.0232,-0.239916 25.4086,10.074415 27.1937,23.068359 1.4713,4.266893 0.8774,10.871047 -4.2793,12.242147 -7.195,-1.049203 -15.6209,0.964848 -19.8851,7.345804 3.1792,3.444684 6.9377,6.379078 9.6195,10.265524 -5.1581,4.275045 -9.2109,9.883301 -15.0683,13.296344 v 7.804692 h 46.5667 V -163.92734 Z"
       id="rect9251" />
    <path
       style="fill:#10b981;fill-opacity:1;stroke-width:0.35277778"
       d="m -1283.5021,-47.660506 -9.7897,-9.79442 3.1808,-3.16607 3.1808,-3.16606 9.7847,9.78469 9.7847,9.78471 -3.1758,3.17578 -3.1757,3.175786 z m 20.993,-0.87922 c -5.8681,-5.87052 -10.6693,-10.83496 -10.6693,-11.0321 0,-0.45433 5.7189,-6.16368 6.174,-6.16368 0.1861,0 1.6988,1.35408 3.3615,3.00906 l 3.023,3.00906 2.0365,-2.99798 c 2.3987,-3.53136 6.4472,-7.43679 9.7103,-9.36717 2.1922,-1.29686 8.1071,-3.53074 9.3488,-3.53074 0.9822,0 0.62,-0.78258 -1.1537,-2.49216 -2.7054,-2.60767 -4.8539,-3.28362 -10.5565,-3.32124 l -4.6908,-0.0309 -8.6266,-8.62163 c -4.7446,-4.7419 -8.6265,-8.70867 -8.6265,-8.81505 0,-0.10638 1.3913,-1.578334 3.0919,-3.271004 l 3.0919,-3.07758 7.2236,7.230084 7.2236,7.23007 1.5907,0.0109 c 9.5199,0.0652 17.0074,4.25862 20.4522,11.45439 1.5233,3.18197 1.9956,5.06225 2.326,9.26041 l 0.2291,2.91042 h -3.5794 c -10.0119,0 -16.4359,3.67262 -21.1897,12.11414 l -1.1601,2.05999 4.3667,4.37717 4.3667,4.37718 -3.1614,3.17603 c -1.7387,1.74681 -3.2449,3.176026 -3.3472,3.176026 -0.1023,0 -4.9871,-4.803146 -10.8553,-10.673656 z m -52.1199,-52.119954 -32.1005,-32.10195 3.2627,-3.26271 3.2627,-3.26271 32.1861,32.18609 32.1861,32.186104 -3.1638,3.17857 c -1.7401,1.74821 -3.2469,3.17856 -3.3483,3.17856 -0.1015,0 -14.6297,-14.44587 -32.285,-32.101954 z m 0.083,-19.67224 -32.0172,-32.01862 3.1817,-3.16691 3.1816,-3.16691 32.0964,32.09489 32.0963,32.094884 -3.0763,3.09065 c -1.692,1.69986 -3.1594,3.09065 -3.2608,3.09065 -0.1015,0 -14.5922,-14.408384 -32.2017,-32.018634 z m 55.0355,10.93866 -3.074,-3.08831 13.3058,-13.31957 13.3059,-13.31955 3.179,3.17901 3.179,3.17901 -13.2254,13.22886 c -7.2739,7.27587 -13.3088,13.22885 -13.4108,13.22885 -0.102,0 -1.5688,-1.38974 -3.2595,-3.0883 z m -54.8572,-30.51161 -32.1887,-32.18849 3.176,-3.17601 3.176,-3.17601 32.1886,32.18858 32.1886,32.18859 -3.1759,3.17592 -3.1759,3.17592 z m 44.9768,20.63121 -3.0766,-3.09093 18.0783,-18.07574 c 9.9431,-9.94165 18.24,-18.07573 18.4376,-18.07573 0.1976,0 1.7031,1.35084 3.3456,3.00187 l 2.9862,3.00187 -18.1622,18.16479 c -9.9892,9.99064 -18.2455,18.1648 -18.3472,18.1648 -0.1018,0 -1.5695,-1.39092 -3.2617,-3.09093 z m -9.6977,-9.69776 -3.2567,-3.27033 23.1034,-23.10143 23.1035,-23.10143 3.2625,3.26252 3.2625,3.26252 -23.1092,23.10924 -23.1093,23.10924 z"
       id="path9249" />
  </g>
</svg>
