<?xml version="1.0" encoding="UTF-8" standalone="no"?>
<!--
Propuesta a3 para logotipo proyecto MxOS.
Autor: Miguel Angel Marcial Martinez @fitorec
Licencia: Creative Commons CC BY-SA 4.0
-->
<svg
   xmlns:dc="http://purl.org/dc/elements/1.1/"
   xmlns:cc="http://creativecommons.org/ns#"
   xmlns:rdf="http://www.w3.org/1999/02/22-rdf-syntax-ns#"
   xmlns:svg="http://www.w3.org/2000/svg"
   xmlns="http://www.w3.org/2000/svg"
   id="propuesta-00"
   version="1.1"
   viewBox="0 0 132.29167 132.29167"
   height="500"
   width="500">
  <defs
     id="defs248">
    <filter
       style="color-interpolation-filters:sRGB"
       id="filter3238"
       x="-0.026996003"
       width="1.053992"
       y="-0.05401599"
       height="1.108032">
      <feGaussianBlur
         stdDeviation="0.72001796"
         id="feGaussianBlur3240" />
    </filter>
    <filter
       style="color-interpolation-filters:sRGB"
       id="filter3250"
       x="-0.017742332"
       width="1.0354847"
       y="-0.03707692"
       height="1.0741538">
      <feGaussianBlur
         stdDeviation="0.50545754"
         id="feGaussianBlur3252" />
    </filter>
    <filter
       style="color-interpolation-filters:sRGB"
       id="filter3190"
       x="-0.024"
       width="1.048"
       y="-0.024"
       height="1.048">
      <feGaussianBlur
         stdDeviation="1.6404166"
         id="feGaussianBlur3192" />
    </filter>
    <filter
       style="color-interpolation-filters:sRGB"
       id="filter3304"
       x="-0.061970063"
       width="1.1239401"
       y="-0.13033222"
       height="1.2606643">
      <feGaussianBlur
         stdDeviation="1.7767668"
         id="feGaussianBlur3306" />
    </filter>
    <filter
       style="color-interpolation-filters:sRGB"
       id="filter1616"
       x="-0.06943077"
       width="1.1388615"
       y="-0.13285526"
       height="1.2657105">
      <feGaussianBlur
         stdDeviation="1.8790961"
         id="feGaussianBlur1618" />
    </filter>
    <filter
       style="color-interpolation-filters:sRGB"
       id="filter2205"
       x="-0.027800612"
       width="1.0556012"
       y="-0.051059158"
       height="1.1021183">
      <feGaussianBlur
         stdDeviation="1.0586831"
         id="feGaussianBlur2207" />
    </filter>
    <filter
       style="color-interpolation-filters:sRGB"
       id="filter3304-8"
       x="-0.061970063"
       width="1.1239401"
       y="-0.13033222"
       height="1.2606643">
      <feGaussianBlur
         stdDeviation="1.7767668"
         id="feGaussianBlur3306-9" />
    </filter>
    <filter
       style="color-interpolation-filters:sRGB"
       id="filter3376"
       x="-0.11876316"
       width="1.2375263"
       y="-0.22725242"
       height="1.4545048">
      <feGaussianBlur
         stdDeviation="3.2142434"
         id="feGaussianBlur3378" />
    </filter>
    <filter
       style="color-interpolation-filters:sRGB"
       id="filter3250-7"
       x="-0.017742332"
       width="1.0354847"
       y="-0.03707692"
       height="1.0741538">
      <feGaussianBlur
         stdDeviation="0.50545754"
         id="feGaussianBlur3252-3" />
    </filter>
    <filter
       style="color-interpolation-filters:sRGB"
       id="filter3238-6"
       x="-0.026996003"
       width="1.053992"
       y="-0.05401599"
       height="1.108032">
      <feGaussianBlur
         stdDeviation="0.72001796"
         id="feGaussianBlur3240-1" />
    </filter>
  </defs>
  <metadata
     id="metadata251">
    <rdf:RDF>
      <cc:Work
         rdf:about="">
        <dc:format>image/svg+xml</dc:format>
        <dc:type
           rdf:resource="http://purl.org/dc/dcmitype/StillImage" />
        <dc:title></dc:title>
      </cc:Work>
    </rdf:RDF>
  </metadata>
  <path
     id="rect962"
     transform="scale(0.26458334)"
     d="m 481.41138,1.0087064 c -1.7907,19.4507396 12.18221,243.3595736 6.6062,262.4131736 -12.90754,20.36064 -30.75221,37.7937 -49.85156,52.56054 10.16473,21.15455 12.05788,46.0998 5.375,68.58399 -4.92866,19.04114 -18.05113,43.3754 -41.06641,41.16211 -8.82152,-1.54316 -13.22947,-7.58216 -16.73438,-14.60547 v 89.28711 h 113.8086 L 500.39815,0.1593856 Z"
     style="opacity:1;fill:#10b981;fill-opacity:1;stroke:none;stroke-width:1.00157475;stroke-linecap:round;stroke-linejoin:bevel;stroke-miterlimit:4;stroke-dasharray:none;stroke-dashoffset:0;stroke-opacity:1;paint-order:stroke fill markers" />
  <path
     id="path425"
     d="m 81.728333,118.321 c -1.371009,0 -2.382716,0.25555 -3.035333,0.76652 -0.647566,0.50591 -0.971493,1.237 -0.971493,2.19316 0,0.88534 0.253076,1.56073 0.758986,2.02617 0.510966,0.46544 1.292487,0.79402 2.344775,0.98626 l 1.350983,0.24295 c 0.753799,0.13659 1.277287,0.36926 1.570714,0.6981 0.293433,0.32378 0.440085,0.76403 0.440085,1.32054 0,0.73356 -0.189661,1.26726 -0.569089,1.60115 -0.379434,0.32884 -1.039672,0.49313 -1.98066,0.49313 -1.016875,0 -1.725068,-0.13892 -2.124733,-0.41716 -0.399671,-0.28331 -0.599532,-0.77679 -0.599532,-1.48 h -1.252117 c 0,1.07758 0.311242,1.84673 0.933509,2.3071 0.627329,0.46038 1.598504,0.69056 2.913863,0.69056 1.396309,0 2.410794,-0.27567 3.043179,-0.82711 0.637442,-0.55143 0.956113,-1.3611 0.956113,-2.42856 0,-0.91065 -0.262983,-1.61883 -0.789131,-2.12474 -0.521078,-0.50591 -1.32549,-0.85738 -2.413197,-1.05469 l -1.350977,-0.24294 c -0.733567,-0.13153 -1.236949,-0.34131 -1.510138,-0.62967 -0.268127,-0.29343 -0.402093,-0.69564 -0.402093,-1.2066 0,-0.63239 0.207295,-1.09276 0.622135,-1.38113 0.419903,-0.28836 1.095304,-0.43254 2.026173,-0.43254 0.607085,0 1.080142,0.0554 1.4191,0.16669 0.338958,0.10624 0.576878,0.28103 0.713473,0.52387 0.136595,0.24283 0.204967,0.57142 0.204967,0.98626 h 1.206604 c 0,-1.0017 -0.270717,-1.71484 -0.812045,-2.13981 -0.541323,-0.42496 -1.439469,-0.63751 -2.694121,-0.63751 z m -11.079136,0.038 c -1.198996,0 -2.160264,0.21256 -2.883719,0.63752 -0.723449,0.42496 -1.247236,1.05735 -1.571019,1.89716 -0.318721,0.83475 -0.478057,1.8743 -0.478057,3.11883 0,1.25466 0.154385,2.31462 0.462987,3.17972 0.308602,0.8651 0.82219,1.52008 1.540576,1.96528 0.723442,0.44014 1.69988,0.66042 2.929232,0.66042 1.23442,0 2.208074,-0.22276 2.921404,-0.66795 0.718392,-0.4452 1.231974,-1.09771 1.540576,-1.95775 0.308602,-0.8651 0.462987,-1.92754 0.462987,-3.18726 0,-1.23441 -0.159336,-2.26901 -0.478057,-3.10376 -0.31872,-0.8398 -0.840036,-1.4722 -1.563484,-1.89715 -0.718386,-0.43003 -1.679362,-0.64506 -2.883426,-0.64506 z m -26.150616,0.23512 v 10.93533 h 1.183995 v -9.75889 h 0.273089 l 3.156809,8.43835 h 1.753083 l 3.179718,-8.43835 h 0.273089 v 9.75889 h 1.18369 V 118.5941 h -2.253743 l -3.126365,8.30965 H 49.856384 L 46.74479,118.5941 Z m 26.150616,0.89553 c 0.961231,0 1.697264,0.16707 2.208236,0.50096 0.516023,0.32884 0.869969,0.82697 1.062221,1.49477 0.197301,0.66273 0.295992,1.50025 0.295992,2.51206 0,1.02194 -0.09344,1.88173 -0.280624,2.57989 -0.187183,0.69309 -0.536484,1.21936 -1.047444,1.57855 -0.510972,0.35413 -1.256919,0.53111 -2.238381,0.53111 -0.971338,0 -1.715111,-0.17202 -2.23114,-0.51604 -0.510959,-0.34402 -0.862733,-0.86008 -1.054978,-1.54811 -0.192245,-0.68804 -0.288159,-1.54288 -0.288159,-2.56481 0,-1.01688 0.09344,-1.86182 0.280624,-2.53468 0.192245,-0.67791 0.544019,-1.18624 1.054979,-1.5252 0.516028,-0.33896 1.26228,-0.5085 2.238674,-0.5085 z m -13.174024,2.36768 2.815303,3.87028 -2.792394,3.80186 h 1.320234 l 2.185627,-3.01273 2.177787,3.01273 h 1.358517 l -2.807762,-3.82477 2.792687,-3.84737 h -1.320533 l -2.185627,3.05824 -2.185321,-3.05824 z"
     style="font-style:normal;font-variant:normal;font-weight:normal;font-stretch:normal;font-size:26.64449883px;line-height:1.25;font-family:Metrophobic;-inkscape-font-specification:Metrophobic;letter-spacing:0px;word-spacing:0px;fill:#000000;fill-opacity:1;stroke:none;stroke-width:2.33122253" />
  <g
     transform="translate(8.5760599,1.2726694)"
     id="g960">
    <path
       style="fill:#000000;stroke-width:1"
       d="m 70.945312,-3.90625 c -1.636966,0 -1.75,2.4306004 -1.75,37.248047 V 70.589844 L 158.62695,160.0918 c 49.18813,49.22614 89.5171,90.17695 89.61914,91.00195 0.43611,3.52602 -0.22212,4.82861 -3.03125,5.99219 -1.65326,0.68483 -4.21387,0.93665 -5.75,0.5664 C 237.5668,257.19488 210.848,231.15501 154.54688,174.89258 94.740056,115.12686 71.962976,92.968535 70.796875,93.416016 c -1.42094,0.545268 -1.601563,4.088467 -1.601563,31.398434 v 30.78516 L 138.625,225.02344 c 38.18631,38.18334 69.63578,70.21454 69.88867,71.18164 0.90288,3.45258 -2.04332,5.88867 -7.12305,5.88867 h -4.68945 L 134.54883,239.94727 C 89.37962,194.7824 71.96055,177.96947 70.796875,178.41602 c -1.424459,0.54662 -1.601563,4.33908 -1.601563,34.35351 v 33.73633 l 54.025388,53.54492 54.02539,53.54297 -0.006,13.30273 92.47852,25.04688 c 28.82971,-28.45626 33.54647,-32.43189 39.10742,-35.34961 7.62356,-3.99994 7.62367,-4 19.2461,-4 11.08226,0 11.93062,0.1506 18.26171,3.24805 12.38985,6.06168 21.84291,18.40022 24.9336,32.54687 0.69641,3.18758 1.62714,6.02047 2.06836,6.29297 1.29297,0.79907 9.85672,-11.45749 13.57812,-19.43164 4.92064,-10.54405 6.55456,-19.40531 6.01953,-32.65625 -0.52682,-13.04922 -3.79644,-24.13403 -9.98632,-33.85156 C 378.12814,301.17666 73.676063,-3.90625 70.945312,-3.90625 Z m 362.749998,0.2226562 c -3.02574,-0.4192468 -169.5,166.3312738 -169.5,169.7812538 0,1.8676 4.10877,6.58844 16.73828,19.23437 12.78025,12.79686 17.33459,16.76172 19.25391,16.76172 1.99339,0 16.33447,-13.82237 69.27344,-66.76563 L 436.2207,68.5625 435.95703,32.578125 c -0.25659,-35.1246563 -0.30948,-35.991218 -2.26172,-36.2617188 z m 0.89844,95.0996098 c -1.16338,-0.446419 -18.11476,15.898564 -62,59.779294 -48.2575,48.25255 -60.39844,60.90388 -60.39844,62.93946 0,1.95076 3.35574,5.87698 14.32617,16.7539 8.31823,8.24732 15.12316,14.20508 16.22461,14.20508 1.16798,0 19.49246,-17.57959 47.67383,-45.73633 l 45.77539,-45.73437 v -30.79688 c 0,-27.316196 -0.18136,-30.865173 -1.60156,-31.410154 z m -0.55664,84.884764 c -2.4316,-0.4679 -79.8418,77.17708 -79.8418,80.08399 0,1.49085 5.16426,7.35796 16.23828,18.44726 11.27928,11.29482 16.91852,16.26172 18.4668,16.26172 1.57183,0 8.87764,-6.63822 24.77539,-22.51367 l 22.54492,-22.51367 -0.26367,-34.72266 c -0.23788,-31.41357 -0.41986,-34.75433 -1.91992,-35.04297 z"
       transform="scale(0.26458334)"
       id="path946" />
    <path
       style="fill:#000000;fill-opacity:1;stroke:#000000;stroke-width:0.26458335px;stroke-linecap:butt;stroke-linejoin:miter;stroke-opacity:1"
       d="m 77.383473,101.22705 -3.098515,3.45604 6.594278,3.37659 3.495763,-5.482 z"
       id="path951" />
    <path
       style="fill:#ffffff;stroke:#000000;stroke-width:0.26458335px;stroke-linecap:butt;stroke-linejoin:miter;stroke-opacity:1"
       d="m 99.23199,88.594636 -3.575212,-4.60805 -0.635593,4.131356 z"
       id="path953" />
  </g>
  <rect
     y="-1.7529296e-06"
     x="0"
     height="132.29167"
     width="25.54598"
     id="rect955"
     style="opacity:1;fill:#10b981;fill-opacity:1;stroke:none;stroke-width:0.3174659;stroke-linecap:round;stroke-linejoin:bevel;stroke-miterlimit:4;stroke-dasharray:none;stroke-dashoffset:0;stroke-opacity:1;paint-order:stroke fill markers" />
</svg>
