<?xml version="1.0" encoding="UTF-8" standalone="no"?>
<!--
Propuesta a4 para logotipo proyecto MxOS.
Autor: Miguel Angel Marcial Martinez @fitorec
Licencia: Creative Commons CC BY-SA 4.0
-->
<svg
   xmlns:dc="http://purl.org/dc/elements/1.1/"
   xmlns:cc="http://creativecommons.org/ns#"
   xmlns:rdf="http://www.w3.org/1999/02/22-rdf-syntax-ns#"
   xmlns:svg="http://www.w3.org/2000/svg"
   xmlns="http://www.w3.org/2000/svg"
   id="propuesta-00"
   version="1.1"
   viewBox="0 0 132.29167 132.29167"
   height="500"
   width="500">
  <defs
     id="defs248" />
  <metadata
     id="metadata251">
    <rdf:RDF>
      <cc:Work
         rdf:about="">
        <dc:format>image/svg+xml</dc:format>
        <dc:type
           rdf:resource="http://purl.org/dc/dcmitype/StillImage" />
        <dc:title></dc:title>
      </cc:Work>
    </rdf:RDF>
  </metadata>
  <g
     transform="matrix(0.42178132,0,0,0.42178132,512.49809,253.75646)"
     id="g9652">
    <path
       style="opacity:1;fill:#677a74;fill-opacity:1;stroke:none;stroke-width:17.54013443;stroke-linecap:round;stroke-linejoin:bevel;stroke-miterlimit:4;stroke-dasharray:none;stroke-dashoffset:0;stroke-opacity:1;paint-order:stroke fill markers"
       d="m -3874.5234,-2074.0996 c 1.0189,4.2301 2.0729,8.4521 3.2246,12.6484 1.5235,-4.1732 2.8898,-8.3953 4.1347,-12.6484 z m -643.877,77.7344 v 673.1113 H -4216 v -296.1367 c -11.4055,-4.8818 -21.7364,-12.1498 -29.9297,-21.7813 -17.7263,-35.2453 -4.7098,-75.3619 2,-111.6289 -50.3422,-32.502 -95.0219,-74.2238 -129.1348,-123.6015 -7.7295,-7.3038 -8.5072,-23.4867 -21.4921,-23.0098 -55.968,14.3131 -114.4281,-39.466 -108.4043,-96.0234 -4.9338,-0.5945 -10.1353,-0.7961 -15.4395,-0.9297 z m 978.6016,0.082 c -4.7176,0 -9.4349,0.012 -14.1524,0.016 1.722,15.9948 -1.4895,32.3611 -8.3945,46.8379 -17.7156,40.7161 -66.5447,55.5563 -107.7305,51.6875 -35.2159,58.8209 -85.3052,108.048 -142.582,145.3789 4.2478,28.2787 16.2447,56.7846 9.666,85.6914 -9.8615,43.7821 -62.6992,65.8134 -103.207,51.6582 v 291.7617 h 99.9433 c 18.6396,-20.5842 37.2186,-41.2158 55.2207,-62.3144 7.3688,-3.2206 1.2061,-8.7807 -3.0683,-11.3828 -13.5277,-22.8564 -42.7134,-30.2834 -67.4629,-26.8477 -12.7801,6.2043 -32.2325,3.572 -37.2793,-11.5742 0.8477,-27.6452 -2.0919,-55.9776 -1.1738,-83.9316 -2.0092,-23.3812 12.1031,-47.5864 34.998,-54.6348 66.8485,-13.2084 141.4209,7.4692 188.5469,57.4902 4.6991,2.0509 6.0546,-8.0647 9.9512,-9.6777 17.0531,-16.1365 28.6967,-42.8384 55.1132,-45.0879 10.498,-1.9504 21.0402,-3.2605 31.6114,-4.1445 z"
       transform="scale(0.26458333)"
       id="rect9506" />
    <path
       style="fill:#10b981;fill-opacity:1;stroke-width:1.72053003"
       d="m -1111.3686,-443.06963 c 0,-0.86305 1.151,-7.58375 2.5575,-14.93483 1.4066,-7.35108 2.3742,-13.47528 2.1505,-13.60936 -0.2211,-0.13396 -4.1631,-2.39602 -8.7541,-5.02653 -10.9396,-6.26752 -26.6822,-22.17231 -32.0821,-32.41231 l -4.2984,-8.15112 h -10.7985 c -10.0091,0 -10.9221,-0.32319 -12.4769,-4.41332 -3.4302,-9.02164 -2.9263,-9.35094 14.3087,-9.35094 h 15.9865 l 4.6963,9.57588 c 5.2894,10.78448 17.4138,24.53099 28.1603,31.92805 3.9557,2.72271 7.5452,4.95037 7.977,4.95037 0.4292,0 1.1536,-2.50884 1.6036,-5.57516 0.7439,-5.06665 -0.2211,-6.53602 -10.5586,-16.10865 -10.4356,-9.66191 -17.4502,-20.68115 -21.5177,-33.80326 -0.8408,-2.7116 -3.8178,-3.01092 -29.948,-3.01092 h -29.0141 l -1.8585,-6.05566 -1.8585,-6.05566 36.2817,0.46365 36.2816,0.46365 1.9814,8.80302 c 1.0899,4.84172 3.9856,12.19703 6.4345,16.34509 4.3966,7.4468 16.1536,20.04856 17.3599,18.6078 0.3446,-0.40838 2.3189,-9.64643 4.3933,-20.52879 2.0744,-10.88235 4.1904,-21.91525 4.7022,-24.51753 l 0.9305,-4.7315 h 22.9418 22.9413 l 2.3689,10.75334 2.369,10.75334 -5.8057,1.62914 c -5.7316,1.6084 -5.7908,1.72617 -4.6619,9.25276 0.6308,4.19293 1.5353,8.6463 2.0152,9.89627 0.5593,1.45871 -1.1848,2.81993 -4.8699,3.80069 -5.5352,1.47288 -5.8148,1.30563 -7.7604,-4.64339 -3.5284,-10.78871 -2.9204,-13.8722 2.9704,-15.05032 4.6652,-0.93302 5.1945,-1.65053 4.7315,-6.40895 l -0.5202,-5.35836 -13.2833,-0.50137 c -12.6304,-0.47665 -13.3268,-0.30758 -14.1722,3.44108 -0.4877,2.16842 -4.8218,24.07281 -9.6287,48.67638 -4.8068,24.60363 -9.1591,46.47583 -9.6716,48.60498 -0.7387,3.07048 -2.1387,3.87124 -6.7668,3.87124 -3.2097,0 -5.8356,-0.70614 -5.8356,-1.56919 z m 23.0387,-3.93985 c 1.8787,-9.39321 13.0303,-18.5784 22.5556,-18.5784 9.5253,0 20.6769,9.18519 22.5556,18.5784 1.0697,5.35024 0.9299,5.50904 -4.8589,5.50904 -4.6983,0 -6.3786,-0.91677 -7.9321,-4.3267 -2.9607,-6.49785 -9.444,-8.88678 -14.7256,-5.42612 -2.3325,1.52841 -4.7392,4.34809 -5.3479,6.26589 -0.8382,2.64137 -2.5907,3.48693 -7.2278,3.48693 -5.9689,0 -6.0931,-0.13656 -5.0189,-5.50904 z m 54.5032,-3.52379 c -1.0157,-4.96801 -3.2683,-16.0009 -5.0058,-24.51754 -2.3541,-11.53725 -3.7788,-15.31075 -5.5879,-14.80211 -1.3357,0.37521 -9.2028,1.05079 -17.4828,1.50085 -14.931,0.81148 -15.0546,0.78462 -15.0286,-3.26343 0.065,-6.70307 1.9814,-7.86155 14.6261,-8.74404 6.6393,-0.463 15.6379,-2.42001 19.9968,-4.34816 16.1171,-7.12946 29.4108,-23.36647 33.3092,-40.68444 l 1.9814,-8.80303 36.28154,-0.46364 36.28165,-0.46365 -1.8585,6.05565 -1.8585,6.05566 h -29.01485 c -26.1301,0 -29.10708,0.29913 -29.94732,3.01093 -4.06722,13.12211 -11.08182,24.14134 -21.51752,33.80326 -10.3394,9.57262 -11.3025,11.04199 -10.5592,16.10864 0.4487,3.06633 1.1718,5.57517 1.6036,5.57517 0.4292,0 4.0219,-2.22766 7.9776,-4.95038 10.7465,-7.39705 22.87089,-21.14356 28.15954,-31.92805 l 4.6969,-9.57588 h 15.9865 c 17.23435,0 17.73832,0.32904 14.3087,9.35095 -1.5554,4.09038 -2.4684,4.41331 -12.4769,4.41331 h -10.7991 l -4.2139,7.94336 c -5.4252,10.22732 -21.44404,26.47669 -32.14564,32.60824 -4.6027,2.63701 -8.5512,4.90427 -8.7743,5.03836 -0.2211,0.13396 0.744,6.25829 2.1505,13.60937 3.3151,17.32629 3.4816,16.50401 -3.3424,16.50401 -5.7361,0 -5.9514,-0.25101 -7.7468,-9.03283 z"
       id="path9451" />
    <text
       transform="scale(1.1647553,0.85854945)"
       id="text9591"
       y="-384.26328"
       x="-866.64124"
       style="font-style:normal;font-variant:normal;font-weight:normal;font-stretch:normal;font-size:138.63769531px;line-height:1.25;font-family:FreeSerif;-inkscape-font-specification:'FreeSerif, Normal';font-variant-ligatures:normal;font-variant-caps:normal;font-variant-numeric:normal;font-feature-settings:normal;text-align:start;letter-spacing:0px;word-spacing:0px;writing-mode:lr-tb;text-anchor:start;fill:#10b981;fill-opacity:1;stroke:none;stroke-width:20.79564857"
       xml:space="preserve"><tspan
         style="font-style:normal;font-variant:normal;font-weight:normal;font-stretch:normal;font-size:138.63723755px;font-family:'Japanese 3017';-inkscape-font-specification:'Japanese 3017, Normal';font-variant-ligatures:normal;font-variant-caps:normal;font-variant-numeric:normal;font-feature-settings:normal;text-align:start;writing-mode:lr-tb;text-anchor:start;fill:#10b981;fill-opacity:1;stroke-width:20.79564857"
         y="-384.26328"
         x="-866.64124"
         id="tspan9589">X</tspan></text>
  </g>
</svg>
