<?xml version="1.0" encoding="UTF-8" standalone="no"?>
<!--
Propuesta c0 para logotipo proyecto MxOS.
Autor: Miguel Angel Marcial Martinez @fitorec
Licencia: Creative Commons CC BY-SA 4.0
-->
<svg
   xmlns:dc="http://purl.org/dc/elements/1.1/"
   xmlns:cc="http://creativecommons.org/ns#"
   xmlns:rdf="http://www.w3.org/1999/02/22-rdf-syntax-ns#"
   xmlns:svg="http://www.w3.org/2000/svg"
   xmlns="http://www.w3.org/2000/svg"
   id="propuesta-00"
   version="1.1"
   viewBox="0 0 150 150"
   height="150mm"
   width="150mm">
  <defs
     id="defs248" />
  <metadata
     id="metadata251">
    <rdf:RDF>
      <cc:Work
         rdf:about="">
        <dc:format>image/svg+xml</dc:format>
        <dc:type
           rdf:resource="http://purl.org/dc/dcmitype/StillImage" />
        <dc:title></dc:title>
      </cc:Work>
    </rdf:RDF>
  </metadata>
  <path
     id="path1604"
     d="m 126.23971,57.504483 c -0.39739,1.78965 -1.44385,3.22472 -2.89798,3.97417 -1.12644,0.58057 -14.38732,3.60981 -15.79113,3.60723 -1.46951,-0.002 -3.08793,-0.74594 -3.97949,-1.82755 -0.65352,-0.79283 -1.32595,-2.36108 -1.32595,-3.09239 0,-0.30204 -0.32997,-0.38413 -2.05213,-0.51055 -4.563023,-0.33495 -7.667643,-1.68641 -10.551403,-4.59309 -2.90283,-2.92591 -3.99091,-5.31735 -6.20711,-13.64242 -1.71824,-6.4545 -2.5118,-8.3802 -4.2862,-10.40113 -2.30787,-2.6285 -6.5597,-3.71734 -9.41372,-2.41074 -2.28986,1.04834 -3.43301,2.88918 -3.71301,5.97917 -0.3219,3.55214 0.81274,6.62598 3.41402,9.24897 1.49179,1.50425 2.42103,2.23316 7.06844,5.5446 8.60936,6.13447 14.26586,12.43916 18.25609,20.34807 1.51801,3.0088 2.91657,6.81497 3.5538,9.67164 0.24281,1.08846 0.36365,2.66376 0.37693,4.91324 0.0233,3.93911 -0.37457,5.78909 -1.90629,8.86521 -1.75302,3.52056 -4.28056,6.08299 -7.78602,7.893477 -2.85565,1.47489 -4.69335,1.91563 -8.00851,1.92069 -3.27662,0.005 -4.81406,-0.33149 -7.69029,-1.68318 -4.85114,-2.279787 -8.80036,-6.935667 -11.06442,-13.044227 -0.65104,-1.75655 -1.38098,-4.51177 -2.17885,-8.22435 -0.79529,-3.70056 -1.61712,-6.15457 -2.93624,-8.76786 -4.96236,-9.83074 -11.83145,-14.78137 -18.205741,-13.12109 -2.86591,0.74647 -4.98307,2.45743 -5.57946,4.50895 -0.74627,2.56708 0.10375,7.20349 1.96331,10.70871 0.76956,1.45062 0.86261,2.00642 0.49763,2.97245 -0.58289,1.54272 -2.24658,2.41668 -3.80279,1.99763 -1.9592,-0.52756 -5.21384,-5.33496 -6.51678,-9.62591 -2.54268,-8.37369 0.57157,-15.6962 8.21592,-19.31802 2.89496,-1.37161 4.52432,-1.69126 8.63263,-1.69356 3.349971,-0.002 3.780581,0.0433 5.554091,0.58261 5.93375,1.80445 10.88602,5.5193 15.42272,11.56907 4.18261,5.57759 6.80695,11.35923 8.38737,18.47807 0.96061,4.32696 1.43108,5.83854 2.41058,7.74513 1.58208,3.07949 3.89912,4.86777 6.52577,5.03657 2.43337,0.1564 4.60003,-1.16836 5.62743,-3.44077 0.44575,-0.98591 0.5041,-1.42913 0.49855,-3.78684 -0.005,-2.43835 -0.0654,-2.84084 -0.68633,-4.63468 -2.59919,-7.5084 -7.92382,-14.23856 -16.27962,-20.57689 -6.87891,-5.21804 -9.83214,-8.10062 -11.78946,-11.50743 -3.25556,-5.66642 -3.75747,-13.14075 -1.2786,-19.04062 1.88192,-4.47913 5.72298,-7.9494 10.36208,-9.36181 1.47468,-0.44898 2.18174,-0.53022 4.72487,-0.54287 2.48844,-0.0123 3.27007,0.0654 4.65445,0.463 6.53481,1.87693 11.0604,6.3637 13.27631,13.16243 0.621,1.90536 1.62792,6.12346 2.14713,8.99459 0.85487,4.72726 2.05761,7.99655 3.48692,9.4781 1.44142,1.4941 4.01012,2.59139 6.066333,2.59139 0.73214,0 0.8096,-0.0539 0.8096,-0.56267 0,-1.63741 1.37672,-3.74082 2.98569,-4.56166 1.68657,-0.86041 2.32068,-0.79574 10.21704,1.04209 7.95256,1.85092 8.70637,2.13269 9.75556,3.64666 0.93053,1.34275 1.37535,3.50127 1.03626,5.02839 z m -74.712983,37.85211 c -0.51371,0.59453 -0.53659,0.59898 -2.83045,0.55168 -1.2719,-0.0262 -2.5225,-0.15925 -2.77912,-0.29559 -0.57766,-0.30692 -1.01102,-1.30222 -0.84862,-1.94899 0.25502,-1.01564 0.68283,-1.32574 1.98916,-1.44188 l 1.2486,-0.111 0.0592,-0.85447 c 0.0762,-1.1009 0.39261,-1.7097 1.04248,-2.00579 0.7784,-0.35466 1.44578,-0.28852 2.07386,0.20553 0.54911,0.43192 0.56286,0.50207 0.56286,2.87194 0,2.26373 -0.0353,2.47003 -0.51791,3.02857 z m -3.5263,-5.64462 c -0.23817,1.70952 -0.65767,1.9552 -3.49043,2.04422 -2.171711,0.0682 -2.451971,0.0333 -2.962111,-0.36907 -0.73561,-0.58026 -0.90813,-1.33426 -0.5186,-2.26654 0.35888,-0.85887 0.99492,-1.17534 2.36231,-1.17534 h 0.932001 l 0.14027,-1.1227 c 0.15306,-1.22506 0.39153,-1.66685 1.10475,-2.04671 0.73201,-0.38987 1.45131,-0.294 2.06562,0.27535 0.51836,0.48038 0.56289,0.65317 0.53672,2.08278 -0.0157,0.85742 -0.0924,2.01752 -0.17053,2.57801 z m -3.8687,-5.35962 c -0.324081,2.77853 -0.510041,2.93022 -3.805231,3.10405 l -2.35115,0.12404 -0.65565,-0.65565 c -0.7266,-0.7266 -0.81111,-1.26359 -0.34171,-2.1713 0.3517,-0.68012 1.26797,-1.08064 2.47214,-1.08064 0.86485,0 1.05907,-0.23571 1.05907,-1.28529 0,-2.07865 2.21106,-3.0843 3.4153,-1.55336 0.459421,0.58406 0.489631,1.09697 0.207231,3.51815 z m -4.070721,-3.9906 c -0.3495,2.45491 -0.49889,2.56201 -3.89035,2.78919 l -2.25982,0.15138 -0.67912,-0.67912 c -0.58905,-0.58905 -0.66237,-0.78237 -0.5528,-1.45752 0.19105,-1.17732 0.74225,-1.59263 2.31311,-1.74281 l 1.35158,-0.12922 0.13224,-1.08324 c 0.15342,-1.25696 0.45979,-1.9159 1.03353,-2.22296 0.7322,-0.39187 1.51005,-0.24581 2.16178,0.40591 0.68788,0.68789 0.75688,1.39026 0.38985,3.96839 z"
     style="fill:#00815b;fill-opacity:1;stroke-width:0.21361928" />
  <path
     id="path1610"
     d="m 38.343476,75.771903 c -0.27833,-0.003 -0.55946,0.0687 -0.83403,0.21563 -0.57375,0.30707 -0.87996,0.9658 -1.03338,2.22276 l -0.13246,1.08357 -1.35164,0.12884 c -1.57087,0.15018 -2.12212,0.56581 -2.31318,1.74312 -0.10957,0.67516 -0.0362,0.86839 0.55286,1.45743 l 0.67899,0.67899 2.25984,-0.15144 c 3.39144,-0.22718 3.54087,-0.33427 3.89036,-2.78918 0.36704,-2.57813 0.29823,-3.28025 -0.38965,-3.96814 -0.40733,-0.40732 -0.86378,-0.61718 -1.32771,-0.62158 z m 4.11282,4.32346 c -0.99501,0.0263 -1.94702,0.92825 -1.94702,2.29237 0,1.04958 -0.1943,1.28519 -1.05915,1.28519 -1.20417,0 -2.12059,0.40029 -2.4723,1.08041 -0.46939,0.90772 -0.38484,1.44509 0.34176,2.17168 l 0.65594,0.65548 2.35113,-0.12387 c 3.29519,-0.17382 3.48086,-0.32572 3.804941,-3.10426 0.28242,-2.42118 0.25237,-2.93428 -0.207041,-3.51834 -0.41395,-0.52626 -0.94708,-0.75242 -1.46826,-0.73866 z m 3.925641,4.44596 c -0.26605,0.0102 -0.53876,0.0884 -0.81325,0.23462 -0.71322,0.37986 -0.95176,0.82139 -1.10482,2.04645 l -0.14014,1.12291 h -0.932131 c -1.3674,0 -2.00357,0.31646 -2.36245,1.17534 -0.38952,0.93228 -0.21664,1.68635 0.51896,2.26661 0.51014,0.4024 0.79015,0.43711 2.961871,0.36887 2.83276,-0.089 3.25216,-0.33467 3.49032,-2.04419 0.0781,-0.56049 0.15512,-1.72065 0.17088,-2.57807 0.0262,-1.42961 -0.0187,-1.60224 -0.53704,-2.08262 -0.38395,-0.35584 -0.80876,-0.52697 -1.2522,-0.50992 z m 3.85875,4.488 c -0.26446,0.0143 -0.54079,0.0881 -0.8327,0.22106 -0.64987,0.2961 -0.96625,0.90486 -1.04244,2.00577 l -0.0592,0.85484 -1.24858,0.11075 c -1.30633,0.11613 -1.73401,0.42642 -1.98903,1.44205 -0.16241,0.64678 0.27085,1.64189 0.84851,1.94881 0.25661,0.13634 1.50733,0.26941 2.77923,0.29565 2.29385,0.0473 2.3166,0.043 2.83032,-0.55151 0.48264,-0.55854 0.51805,-0.76504 0.51805,-3.02877 0,-2.36988 -0.0137,-2.43997 -0.5628,-2.87191 -0.39256,-0.30877 -0.80059,-0.45052 -1.24134,-0.42674 z"
     style="fill:#ab1827;fill-opacity:1;stroke:none;stroke-width:0.23145221px;stroke-linecap:butt;stroke-linejoin:miter;stroke-opacity:1" />
  <path
     id="path1668"
     d="m 94.110357,97.602593 c -4.29848,0 -7.67454,1.2335 -10.1291,3.700027 -2.44259,2.46653 -3.66386,5.87265 -3.66386,10.21901 0,4.33439 1.22127,7.73492 3.66386,10.20145 2.45456,2.46653 5.83062,3.70003 10.1291,3.70003 4.31044,0 7.687013,-1.2335 10.129603,-3.70003 2.44259,-2.46653 3.66386,-5.86706 3.66386,-10.20145 0,-4.34636 -1.22127,-7.75248 -3.66386,-10.21901 -2.44259,-2.466527 -5.819163,-3.700027 -10.129603,-3.700027 z m 28.305233,0 c -3.23283,0 -5.71102,0.7186 -7.4352,2.15542 -1.72418,1.436807 -2.58641,3.490267 -2.58641,6.160337 0,2.13128 0.61675,3.82517 1.85002,5.08238 1.24524,1.25722 3.20906,2.17343 5.89111,2.74816 l 2.67581,0.59272 c 1.62839,0.3592 2.71216,0.76613 3.25096,1.22112 0.55078,0.45499 0.82579,1.10179 0.82579,1.93993 0,0.93393 -0.4008,1.65203 -1.20302,2.15491 -0.80223,0.50289 -1.95781,0.75448 -3.46646,0.75448 -1.48471,0 -3.02938,-0.22765 -4.63383,-0.68265 -1.59247,-0.46696 -3.2446,-1.15501 -4.9568,-2.06499 v 5.83686 c 1.7122,0.63459 3.42443,1.11332 5.13664,1.4366 1.7122,0.32329 3.41832,0.48524 5.11855,0.48524 3.60401,0 6.28032,-0.71861 8.02845,-2.15542 1.7601,-1.44879 2.64015,-3.65197 2.64015,-6.60942 0,-2.25101 -0.62898,-3.98717 -1.88619,-5.20847 -1.25722,-1.22129 -3.37636,-2.13087 -6.35775,-2.72955 l -2.94556,-0.59273 c -1.40089,-0.28736 -2.37058,-0.62858 -2.90938,-1.02371 -0.52684,-0.40709 -0.79014,-0.96986 -0.79014,-1.68827 0,-0.95788 0.3947,-1.66425 1.18495,-2.11925 0.79024,-0.45498 2.01203,-0.68264 3.66437,-0.68264 1.24524,0 2.56786,0.16756 3.96875,0.50281 1.4009,0.33526 2.83811,0.83233 4.31085,1.49087 v -5.675627 c -1.66431,-0.44302 -3.2752,-0.77201 -4.83175,-0.98753 -1.55655,-0.2275 -3.07117,-0.34158 -4.54391,-0.34158 z m -100.882203,0.48524 v 26.814377 h 6.555671 v -19.61276 l 6.178436,14.45804 h 4.382162 l 6.178431,-14.45804 v 19.61276 h 6.53707 V 98.087833 h -8.782409 l -6.14226,14.350017 -6.106604,-14.350017 z m 72.57697,4.525817 c 2.1193,0 3.75972,0.77819 4.92114,2.33474 1.161433,1.55655 1.742523,3.7475 1.742523,6.57324 0,2.81376 -0.58109,4.99913 -1.742523,6.55567 -1.16142,1.55656 -2.80184,2.33475 -4.92114,2.33475 -2.10733,0 -3.74164,-0.77819 -4.90306,-2.33475 -1.16143,-1.55654 -1.74202,-3.74191 -1.74202,-6.55567 0,-2.82574 0.58059,-5.01669 1.74202,-6.57324 1.16142,-1.55655 2.79573,-2.33474 4.90306,-2.33474 z m -38.43435,2.17299 7.25589,9.82421 -7.61556,10.29136 h 6.80734 l 4.47208,-6.35775 4.52582,6.35775 h 6.80682 l -7.61504,-10.32702 7.25589,-9.78855 h -6.80682 l -4.16667,5.96295 -4.11293,-5.96295 z"
     style="font-style:normal;font-weight:bold;font-size:36.78245544px;line-height:1.25;font-family:sans-serif;letter-spacing:0px;word-spacing:0px;fill:#333333;fill-opacity:1;stroke:none;stroke-width:5.51736832" />
</svg>
