<?xml version="1.0" encoding="UTF-8" standalone="no"?>
<!--
Propuesta c1 para logotipo proyecto MxOS.
Autor: Miguel Angel Marcial Martinez @fitorec
Licencia: Creative Commons CC BY-SA 4.0
-->
<svg
   xmlns:dc="http://purl.org/dc/elements/1.1/"
   xmlns:cc="http://creativecommons.org/ns#"
   xmlns:rdf="http://www.w3.org/1999/02/22-rdf-syntax-ns#"
   xmlns:svg="http://www.w3.org/2000/svg"
   xmlns="http://www.w3.org/2000/svg"
   id="propuesta-00"
   version="1.1"
   viewBox="0 0 150 150"
   height="150mm"
   width="150mm">
  <defs
     id="defs248">
    <filter
       height="1.2606643"
       y="-0.13033222"
       width="1.1239401"
       x="-0.061970063"
       id="filter3304-3"
       style="color-interpolation-filters:sRGB">
      <feGaussianBlur
         id="feGaussianBlur3306-7"
         stdDeviation="1.7767668" />
    </filter>
    <filter
       height="1.4545048"
       y="-0.22725242"
       width="1.2375263"
       x="-0.11876316"
       id="filter3376-3"
       style="color-interpolation-filters:sRGB">
      <feGaussianBlur
         id="feGaussianBlur3378-6"
         stdDeviation="3.2142434" />
    </filter>
    <filter
       height="1.0741538"
       y="-0.03707692"
       width="1.0354847"
       x="-0.017742332"
       id="filter3250-5"
       style="color-interpolation-filters:sRGB">
      <feGaussianBlur
         id="feGaussianBlur3252-9"
         stdDeviation="0.50545754" />
    </filter>
    <filter
       height="1.108032"
       y="-0.05401599"
       width="1.053992"
       x="-0.026996003"
       id="filter3238-2"
       style="color-interpolation-filters:sRGB">
      <feGaussianBlur
         id="feGaussianBlur3240-2"
         stdDeviation="0.72001796" />
    </filter>
  </defs>
  <metadata
     id="metadata251">
    <rdf:RDF>
      <cc:Work
         rdf:about="">
        <dc:format>image/svg+xml</dc:format>
        <dc:type
           rdf:resource="http://purl.org/dc/dcmitype/StillImage" />
        <dc:title></dc:title>
      </cc:Work>
    </rdf:RDF>
  </metadata>
  <text
     xml:space="preserve"
     style="font-style:normal;font-weight:normal;font-size:44.88074112px;line-height:1.25;font-family:sans-serif;letter-spacing:0px;word-spacing:0px;fill:#ffffff;fill-opacity:1;stroke:none;stroke-width:6.73211098;filter:url(#filter3304-3)"
     x="11.263751"
     y="243.36633"
     id="text3258-7"
     transform="matrix(0.7782703,0,0,0.7782703,11.382454,-62.102869)"><tspan
       id="tspan3256-5"
       x="11.263751"
       y="243.36633"
       style="font-weight:bold;fill:#ffffff;fill-opacity:1;stroke-width:6.73211098">Mx<tspan
   style="fill:#ffffff;fill-opacity:1;stroke-width:6.73211098"
   id="tspan3254-3" /></tspan></text>
  <path
     id="path354-5"
     d="m 22.731044,101.11007 v 25.46364 h 6.22509 v -18.62406 l 5.86709,13.72945 h 4.16139 l 5.86709,-13.72945 v 18.62406 h 6.20832 v -25.46364 h -8.34 l -5.8331,13.62749 -5.79866,-13.62749 z m 32.42239,6.36195 6.89033,9.32924 -7.23156,9.77245 h 6.46391 l 4.24703,-6.03748 4.29779,6.03748 h 6.46391 l -7.23157,-9.80643 6.89033,-9.29526 h -6.4639 l -3.95656,5.66226 -3.9058,-5.66226 z"
     style="font-style:normal;font-weight:bold;font-size:39.83174896px;line-height:1.25;font-family:sans-serif;letter-spacing:0px;word-spacing:0px;fill:#00815b;fill-opacity:1;stroke:none;stroke-width:5.23940229" />
  <text
     id="text3310-6"
     y="242.62523"
     x="83.17794"
     style="font-style:normal;font-weight:normal;font-size:44.88074112px;line-height:1.25;font-family:sans-serif;letter-spacing:0px;word-spacing:0px;fill:#ffffff;fill-opacity:1;stroke:none;stroke-width:6.73211098;filter:url(#filter3376-3)"
     xml:space="preserve"
     transform="matrix(0.7782703,0,0,0.7782703,11.382454,-62.102869)"><tspan
       style="font-weight:bold;fill:#ffffff;fill-opacity:1;stroke-width:6.73211098"
       y="242.62523"
       x="83.17794"
       id="tspan3308-2">OS</tspan></text>
  <path
     id="path346-9"
     d="m 90.955504,100.80102 c -4.08191,0 -7.28837,1.17109 -9.61927,3.51336 -2.31952,2.34227 -3.47937,5.57707 -3.47937,9.70447 0,4.11602 1.15985,7.34543 3.47937,9.6877 2.3309,2.34227 5.53736,3.51336 9.61927,3.51336 4.09329,0 7.29976,-1.17109 9.619276,-3.51336 2.31953,-2.34227 3.47938,-5.57168 3.47938,-9.6877 0,-4.1274 -1.15985,-7.3622 -3.47938,-9.70447 -2.319516,-2.34227 -5.525986,-3.51336 -9.619276,-3.51336 z m 26.879316,0 c -3.06996,0 -5.42386,0.68205 -7.06117,2.04648 -1.63732,1.36442 -2.45569,3.31475 -2.45569,5.85031 0,2.02391 0.58532,3.63277 1.75646,4.82664 1.1825,1.19387 3.04736,2.06353 5.59429,2.6093 l 2.54133,0.56283 c 1.54636,0.34111 2.57528,0.72757 3.08694,1.15964 0.52303,0.43207 0.78443,1.04619 0.78443,1.84211 0,0.88688 -0.38062,1.56893 -1.14242,2.04648 -0.76181,0.47755 -1.85912,0.71645 -3.29178,0.71645 -1.4099,0 -2.87659,-0.21595 -4.4002,-0.64802 -1.51224,-0.44344 -3.0815,-1.09715 -4.70745,-1.96129 v 5.54308 c 1.62595,0.60262 3.25189,1.05702 4.87784,1.36401 1.62594,0.30701 3.24605,0.46087 4.86062,0.46087 3.42243,0 5.96395,-0.6825 7.624,-2.04693 1.67142,-1.37579 2.50689,-3.46785 2.50689,-6.2763 0,-2.1376 -0.59657,-3.78604 -1.79045,-4.9458 -1.19388,-1.15977 -3.20675,-2.02404 -6.03792,-2.59255 l -2.79692,-0.56282 c -1.33032,-0.27289 -2.25127,-0.59682 -2.76294,-0.97204 -0.50028,-0.38659 -0.75043,-0.92107 -0.75043,-1.60328 0,-0.90962 0.37522,-1.58043 1.12566,-2.01249 0.75042,-0.43207 1.91028,-0.64803 3.47937,-0.64803 1.1825,0 2.43863,0.15882 3.76895,0.47718 1.33032,0.31837 2.69488,0.79031 4.09341,1.41568 v -5.38946 c -1.58046,-0.4207 -3.10968,-0.73338 -4.58781,-0.93804 -1.47813,-0.21604 -2.91647,-0.32401 -4.31501,-0.32401 z m -26.879316,4.75865 c 2.01254,0 3.5701,0.73874 4.67302,2.21687 1.10291,1.47813 1.65449,3.55893 1.65449,6.24231 0,2.672 -0.55158,4.74696 -1.65449,6.22508 -1.10292,1.47813 -2.66048,2.21733 -4.67302,2.21733 -2.00115,0 -3.55332,-0.7392 -4.65624,-2.21733 -1.10291,-1.47812 -1.65404,-3.55308 -1.65404,-6.22508 0,-2.68338 0.55113,-4.76418 1.65404,-6.24231 1.10292,-1.47813 2.65509,-2.21687 4.65624,-2.21687 z"
     style="font-style:normal;font-weight:bold;font-size:39.83174896px;line-height:1.25;font-family:sans-serif;letter-spacing:0px;word-spacing:0px;fill:#00815b;fill-opacity:1;stroke:none;stroke-width:5.23940229" />
  <path
     style="font-style:normal;font-weight:normal;font-size:44.88074112px;line-height:1.25;font-family:sans-serif;letter-spacing:0px;word-spacing:0px;fill:#1b9c77;fill-opacity:1;stroke:none;stroke-width:6.73211098;filter:url(#filter3250-5)"
     d="m 14.685401,209.72565 v 32.71842 h 2.12339 v -31.73244 h 9.03406 l -0.4196,-0.98598 z m 25.68371,0 -6.64043,15.51326 1.26918,2.98225 7.49464,-17.50953 h 8.59274 v -0.98598 z m 15.975762,8.17417 8.85322,11.98739 -9.29196,12.55686 h 2.85306 l 8.56229,-11.5714 -8.85323,-11.98738 h 6.8616 l -0.67956,-0.98547 z m 18.40817,0 -4.35787,6.2358 1.39681,2.0252 5.08445,-7.27553 h 5.45134 l 0.73072,-0.98547 z m -49.945262,1.59939 v 3.98425 l 5.41467,12.67107 h 1.70272 z m 20.42408,0 -2.12338,4.96869 v 17.97617 h 2.12338 z m 26.560122,16.17266 -0.70641,1.00459 4.1057,5.76761 h 1.4216 z"
     id="text3198-1"
     transform="matrix(0.7782703,0,0,0.7782703,11.382454,-62.102869)" />
  <path
     style="font-style:normal;font-weight:normal;font-size:44.88074112px;line-height:1.25;font-family:sans-serif;letter-spacing:0px;word-spacing:0px;fill:#179872;fill-opacity:1;stroke:none;stroke-width:6.73211098;filter:url(#filter3238-2)"
     d="m 102.24372,209.31531 c -5.244864,0 -9.365007,1.50487 -12.359967,4.51445 -2.98037,3.00958 -4.47053,7.16572 -4.47053,12.46901 0,4.66494 1.16158,8.44194 3.48041,11.33368 -1.57927,-2.64215 -2.37299,-5.88501 -2.37299,-9.73481 0,-5.3033 1.49018,-9.45994 4.47053,-12.46953 2.99498,-3.00958 7.114593,-4.51445 12.359457,-4.51445 5.25947,0 9.37961,1.50487 12.35996,4.51445 0.35028,0.35371 0.67792,0.72462 0.98703,1.11001 -0.58955,-0.98636 -1.28514,-1.89112 -2.09444,-2.70836 -2.98038,-3.00958 -7.09999,-4.51445 -12.35946,-4.51445 z m 34.53691,0 c -3.94459,0 -6.96852,0.87666 -9.0723,2.62981 -2.10381,1.75315 -3.15589,4.25839 -3.15589,7.51634 0,2.48564 0.68916,4.48319 2.06396,5.99446 -0.63646,-1.24016 -0.95705,-2.70434 -0.95705,-4.39559 0,-3.25795 1.05209,-5.7637 3.15587,-7.51686 2.10381,-1.75315 5.12823,-2.62981 9.07285,-2.62981 1.79697,0 3.64511,0.13893 5.54434,0.41651 1.55131,0.2148 3.14881,0.52709 4.78782,0.92708 v -1.32034 c -2.03073,-0.54055 -3.99597,-0.94212 -5.89523,-1.20509 -1.89926,-0.27758 -3.74737,-0.41651 -5.54437,-0.41651 z m -27.8448,10.05106 c 0.95787,1.78791 1.43814,4.09773 1.43814,6.9324 0,3.43326 -0.70882,6.09974 -2.12595,7.99899 -1.41714,1.89926 -3.41839,2.84893 -6.0043,2.84893 -2.328254,0 -4.182034,-0.78118 -5.564007,-2.33837 0.207303,0.38653 0.436173,0.74984 0.688343,1.0878 1.41713,1.89925 3.411274,2.84892 5.982574,2.84892 2.58591,0 4.58767,-0.94967 6.0048,-2.84892 1.41714,-1.89926 2.12545,-4.56523 2.12545,-7.99848 0,-3.44787 -0.70831,-6.12145 -2.12545,-8.0207 -0.13398,-0.17957 -0.27517,-0.34798 -0.4196,-0.51057 z m 24.42744,1.67174 c 0.11637,0.59972 0.41826,1.08983 0.90848,1.46864 0.65743,0.48212 1.84083,0.89839 3.55017,1.24902 l 3.59408,0.72295 c 3.63781,0.73049 6.22366,1.84089 7.75769,3.33107 0.0862,0.0838 0.16922,0.17012 0.25061,0.25786 -0.35354,-0.69986 -0.80491,-1.3194 -1.35752,-1.85622 -1.53403,-1.49018 -4.11988,-2.60058 -7.75767,-3.33106 l -3.5941,-0.72347 c -1.55297,-0.31856 -2.66702,-0.6917 -3.35174,-1.11879 z m 8.76329,11.63494 c 0.0715,0.2838 0.1111,0.58994 0.1111,0.92346 0,1.13955 -0.48979,2.01622 -1.46865,2.62982 -0.97882,0.61361 -2.38836,0.92036 -4.22918,0.92036 -1.8116,0 -3.69623,-0.27786 -5.65393,-0.83303 -1.94307,-0.56977 -3.95954,-1.40942 -6.04872,-2.51975 v 7.12206 c 0.36915,0.13682 0.73827,0.26571 1.10741,0.39067 v -5.91438 c 2.08918,1.11035 4.10515,1.9505 6.04822,2.52027 1.95768,0.55517 3.84233,0.83251 5.65391,0.83251 1.84081,0 3.25088,-0.30675 4.22973,-0.92036 0.97883,-0.6136 1.46812,-1.49026 1.46812,-2.62982 0,-1.02267 -0.33615,-1.81161 -1.00819,-2.36678 -0.0621,-0.0525 -0.13584,-0.10361 -0.20982,-0.15503 z"
     id="text3223-2"
     transform="matrix(0.7782703,0,0,0.7782703,11.382454,-62.102869)" />
  <path
     id="path1354"
     d="m 63.315604,25.269493 c -0.68755,0.01297 -1.2968,0.2135 -1.76837,0.640273 -2.16334,1.95778 0.4181,8.030854 4.59042,10.798824 1.96768,1.305409 3.45056,1.347057 4.66637,0.131257 1.14485,-1.14486 1.45331,-2.522966 0.9684,-4.323765 -1.03322,-3.837099 -5.47756,-7.302773 -8.45682,-7.246589 z m 11.36415,8.116303 -0.44339,1.848464 c -0.82254,3.42877 -3.0883,5.200473 -6.23528,4.875673 -1.80083,-0.185862 -1.84777,-0.168691 -1.43452,0.530198 0.23493,0.397331 1.06201,1.01695 1.83812,1.376662 0.77612,0.359719 1.57022,0.650473 1.76424,0.646472 0.78462,-0.01721 3.0897,-1.008652 3.76462,-1.619022 1.92709,-1.742771 2.65494,-5.301123 1.40094,-6.849711 z m 3.84989,5.445144 c -0.26334,0.03175 -0.562,0.473503 -0.9431,1.296045 -1.33919,2.89052 -4.42881,5.028634 -7.2662,5.028634 h -1.3498 l 0.38084,1.09244 c 0.20942,0.600679 0.97025,1.71159 1.69087,2.4691 1.06916,1.12391 1.55385,1.377693 2.63446,1.377693 4.08236,0 6.88356,-4.105878 5.92368,-8.682156 -0.37722,-1.798399 -0.68586,-2.628167 -1.07075,-2.581756 z m 4.14859,4.50877 c -0.23564,-0.01676 -0.35025,0.439769 -0.62426,1.7663 -0.86958,4.210118 -3.82981,7.126035 -7.50392,7.391796 -2.35818,0.170579 -2.48008,0.385059 -1.4087,2.48512 0.82172,1.610691 1.37668,2.098873 3.10936,2.735233 1.40068,0.514419 3.94689,0.364496 5.1997,-0.305924 2.03197,-1.0874 3.05088,-3.590189 3.098,-7.608837 0.0382,-3.255611 -0.43214,-5.265785 -1.44748,-6.184635 -0.1832,-0.165801 -0.3156,-0.271433 -0.4227,-0.279053 z m 4.62865,7.421252 c -0.23638,0.03556 -0.38005,0.637431 -0.50332,1.816941 -0.21762,2.082062 -1.17464,4.47716 -2.30013,5.756238 -1.58096,1.796701 -5.25674,2.594396 -8.65166,1.877407 l -1.37303,-0.289907 0.19635,1.463995 c 0.20616,1.536949 1.01118,2.707013 2.19625,3.192053 2.30495,0.943401 7.25271,-0.187794 9.51725,-2.176095 2.54633,-2.23569 3.4475,-6.820389 1.97716,-10.058299 -0.49348,-1.086726 -0.82249,-1.617893 -1.05887,-1.582333 z m 4.25143,8.507489 c -0.12247,7.3e-4 -0.51252,0.705731 -0.86661,1.566831 -1.43015,3.4779 -5.78766,6.15038 -10.61435,6.509678 l -2.85305,0.212392 0.11109,1.058333 c 0.1474,1.40252 0.91216,2.527038 2.28929,3.36672 2.41014,1.46957 8.22301,0.565565 10.60453,-1.648994 1.47968,-1.375961 2.32418,-3.505224 2.33317,-5.883363 0.008,-2.07306 -0.59494,-5.183597 -1.00407,-5.181597 z m 3.09954,9.233546 c -0.1861,0.01069 -0.40565,0.341487 -0.6728,0.986504 -0.5928,1.431089 -3.23102,3.794752 -5.23328,4.688602 -2.17697,0.971841 -6.71396,1.23549 -8.79327,0.511079 l -1.49966,-0.521933 v 1.239719 c 0,1.58601 1.80565,3.380562 4.16513,4.139282 4.02402,1.293995 10.31044,-0.243277 11.81841,-2.889745 0.77126,-1.353611 1.13366,-4.349713 0.79737,-6.592364 -0.15888,-1.059378 -0.34261,-1.574884 -0.5819,-1.561144 z m 2.05053,9.416481 -1.0423,1.265036 c -1.1991,1.4547 -2.53881,2.22268 -5.0364,2.888186 -3.15315,0.840238 -6.99667,0.555652 -10.14201,-0.751363 -0.51134,-0.212487 -0.61754,-0.06662 -0.61754,0.850582 1.328847,10.064171 17.654452,6.32728 17.99167,-0.128667 0,-0.682889 -0.25956,-1.889919 -0.57671,-2.68252 z"
     style="fill:#000000;fill-opacity:1;stroke-width:0.35277778" />
  <path
     id="path1540"
     d="m 93.979219,24.971354 c 22.194501,9.174308 23.683121,25.513965 17.527851,42.47135"
     style="fill:none;stroke:#666666;stroke-width:3.96875;stroke-linecap:round;stroke-linejoin:miter;stroke-miterlimit:4;stroke-dasharray:none;stroke-opacity:1;paint-order:stroke fill markers" />
  <path
     id="path1542"
     d="m 109.89979,13.687638 c 8.88831,3.900602 17.08764,12.134646 17.92178,22.636159"
     style="fill:none;stroke:#666666;stroke-width:3.96875;stroke-linecap:round;stroke-linejoin:miter;stroke-miterlimit:4;stroke-dasharray:none;stroke-opacity:1;paint-order:stroke fill markers" />
  <path
     id="path1544"
     d="M 40.721495,41.600349 C 34.97876,60.675541 49.689637,79.766021 64.541406,81.15039"
     style="fill:none;stroke:#4d4d4d;stroke-width:3.96875;stroke-linecap:round;stroke-linejoin:miter;stroke-miterlimit:4;stroke-dasharray:none;stroke-opacity:1;paint-order:stroke fill markers" />
  <path
     id="path1546"
     d="m 27.238525,55.982183 c -2.573122,13.942696 2.41349,28.231659 24.494059,34.381567"
     style="fill:none;stroke:#4d4d4d;stroke-width:3.96875;stroke-linecap:round;stroke-linejoin:miter;stroke-miterlimit:4;stroke-dasharray:none;stroke-opacity:1;paint-order:stroke fill markers" />
</svg>
