<?xml version="1.0" encoding="UTF-8" standalone="no"?>
<!--
Propuesta c2 para logotipo proyecto MxOS.
Autor: Miguel Angel Marcial Martinez @fitorec
Licencia: Creative Commons CC BY-SA 4.0
-->
<svg
   xmlns:dc="http://purl.org/dc/elements/1.1/"
   xmlns:cc="http://creativecommons.org/ns#"
   xmlns:rdf="http://www.w3.org/1999/02/22-rdf-syntax-ns#"
   xmlns:svg="http://www.w3.org/2000/svg"
   xmlns="http://www.w3.org/2000/svg"
   id="propuesta-00"
   version="1.1"
   viewBox="0 0 150 150"
   height="150mm"
   width="150mm">
  <defs
     id="defs248">
    <filter
       height="1.2606643"
       y="-0.13033222"
       width="1.1239401"
       x="-0.061970063"
       id="filter3304-3"
       style="color-interpolation-filters:sRGB">
      <feGaussianBlur
         id="feGaussianBlur3306-7"
         stdDeviation="1.7767668" />
    </filter>
    <filter
       height="1.4545048"
       y="-0.22725242"
       width="1.2375263"
       x="-0.11876316"
       id="filter3376-3"
       style="color-interpolation-filters:sRGB">
      <feGaussianBlur
         id="feGaussianBlur3378-6"
         stdDeviation="3.2142434" />
    </filter>
    <filter
       height="1.0741538"
       y="-0.03707692"
       width="1.0354847"
       x="-0.017742332"
       id="filter3250-5"
       style="color-interpolation-filters:sRGB">
      <feGaussianBlur
         id="feGaussianBlur3252-9"
         stdDeviation="0.50545754" />
    </filter>
    <filter
       height="1.108032"
       y="-0.05401599"
       width="1.053992"
       x="-0.026996003"
       id="filter3238-2"
       style="color-interpolation-filters:sRGB">
      <feGaussianBlur
         id="feGaussianBlur3240-2"
         stdDeviation="0.72001796" />
    </filter>
  </defs>
  <metadata
     id="metadata251">
    <rdf:RDF>
      <cc:Work
         rdf:about="">
        <dc:format>image/svg+xml</dc:format>
        <dc:type
           rdf:resource="http://purl.org/dc/dcmitype/StillImage" />
        <dc:title></dc:title>
      </cc:Work>
    </rdf:RDF>
  </metadata>
  <g
     transform="matrix(0.57871181,0,0,0.57871181,-107.07218,30.804197)"
     id="g1700">
    <path
       style="font-style:normal;font-weight:normal;font-size:52.86009216px;line-height:1.25;font-family:sans-serif;letter-spacing:0px;word-spacing:0px;fill:#333333;fill-opacity:1;stroke:none;stroke-width:13.46899319"
       d="m 399.13026,46.793143 c -0.97373,0.01308 -1.74893,0.150793 -2.27623,0.41784 -0.31469,0.159439 -0.80572,0.613688 -1.09112,1.009503 -0.57686,0.799936 -0.60297,1.164396 -0.27387,3.8835 0.17532,1.448093 0.13946,1.79871 -0.23526,2.318342 -0.2618,0.363055 -0.51327,0.532825 -1.63189,0.762828 -4.78679,0.414003 -8.75577,1.892338 -11.90333,4.43917 -3.82925,2.952318 -5.74362,6.942314 -5.74362,11.970036 0,7.366192 5.07138,12.860938 15.2145,16.485572 3.30307,1.198461 5.62707,2.323803 6.97168,3.376116 1.3154,1.052321 1.97334,2.412221 1.97334,4.078381 0,1.63693 -0.7459,2.96664 -2.23668,3.98972 -1.49076,1.023079 -3.40513,1.534439 -5.74361,1.534439 -2.36769,0 -5.30568,-0.55534 -8.81339,-1.666109 -1.49076,-0.49693 -2.90841,-0.36499 -4.25306,0.39502 -1.3154,0.730769 -2.16305,1.841449 -2.54307,3.332229 l -0.0879,0.17556 c -0.32152,1.37385 -0.10158,2.70356 0.6584,3.98972 0.73074,1.28616 1.76812,2.08985 3.11272,2.41138 4.297,1.28616 7.89204,1.92946 10.78588,1.92946 7.57081,0 13.32943,-1.81261 17.27562,-5.43725 3.30308,-3.09847 4.95444,-7.000499 4.95444,-11.706679 0,-7.453889 -4.44269,-12.846888 -13.3289,-16.179214 -4.32619,-1.636931 -7.20548,-2.923537 -8.63782,-3.858924 -1.46156,-0.935389 -2.19192,-2.148694 -2.19192,-3.639465 0,-1.490778 0.6424,-2.74718 1.92858,-3.770265 1.04867,-0.831253 2.42508,-1.32391 4.12839,-1.478259 0.12843,-0.01168 0.26369,-0.01597 0.39592,-0.02369 1.73191,-0.0572 1.83195,0.596223 2.33327,2.712479 0.70747,2.986701 1.25655,3.665164 3.01094,3.719349 2.56517,0.07905 6.49872,-2.044085 11.52322,-6.219397 1.07603,-0.894126 1.83653,-1.646374 2.37101,-2.382419 0.53472,-0.735808 0.84345,-1.454663 1.01827,-2.28147 0.28419,-1.344808 -0.30526,-7.247282 -0.83129,-8.321793 -0.36405,-0.743516 -0.65755,-1.029471 -2.14188,-2.083955 -1.61922,-1.150768 -1.90666,-1.280645 -4.90091,-2.22266 -3.54488,-1.115217 -6.6484,-1.687905 -8.79056,-1.659087 z m 27.43293,2.00495 -1.91279,2.646649 -1.9119,2.646646 -2.16297,0.446813 -2.16206,0.445936 0.20099,1.172772 0.20105,1.172779 2.09451,-0.345863 2.0936,-0.346742 2.65278,1.912781 2.65282,1.912784 0.70576,-0.977897 0.70487,-0.977898 -2.3631,-1.70474 -2.364,-1.703862 1.76357,-2.444745 1.76265,-2.444743 -0.97786,-0.705776 z m -82.6842,5.958685 c -0.40922,0.02922 -1.03697,0.08788 -1.88467,0.175565 -7.1031,0.672314 -13.19806,3.522306 -18.28426,8.550026 -5.08618,5.027721 -7.62919,11.560719 -7.62919,19.599222 0,8.067735 2.26534,14.49899 6.79614,19.292859 4.53079,4.79387 10.9034,7.58523 19.11731,8.37445 0.55538,0.14615 0.92011,0.20481 1.09553,0.17558 h 0.39502 0.74527 c 0.0876,0.0292 0.21965,0.0146 0.39502,-0.0439 0.17538,-0.0584 0.54014,-0.10247 1.09553,-0.13167 7.98003,-0.4677 14.29402,-3.2013 18.94172,-8.19978 4.67695,-5.027719 7.01559,-11.516735 7.01559,-19.467544 0,-7.950812 -2.46971,-14.395851 -7.40972,-19.335873 -4.94004,-4.940029 -11.12297,-7.877988 -18.54759,-8.813377 -0.78923,-0.08769 -1.40322,-0.146342 -1.8417,-0.175566 z m -123.20814,1.008623 c -3.01075,0 -5.55377,1.037374 -7.62919,3.11277 -2.07542,2.104627 -3.14598,4.647818 -3.11278,7.629187 l 0.19053,17.136042 c 4.92558,-0.212899 6.81482,-0.599944 11.80322,0.668903 l -0.33097,-13.989912 9.60259,33.674289 c 0.55536,1.92924 1.66604,3.5366 3.33219,4.82276 1.63694,1.25693 3.46424,1.88558 5.48118,1.88558 h 0.17465 c 1.95847,0 3.80044,-0.61398 5.52506,-1.84168 1.72462,-1.25694 2.86463,-2.87897 3.42002,-4.86666 l 9.51475,-33.674289 -0.78919,34.639019 c 0,1.57847 0.57004,2.93748 1.71002,4.0775 1.14001,1.11076 2.51371,1.66611 4.12137,1.66611 h 0.0879 c 2.04615,0 3.66817,-0.57 4.86667,-1.71 1.19845,-1.14001 1.79778,-2.48438 1.79778,-4.03361 V 66.507358 c 0,-3.010786 -1.06671,-5.553793 -3.20056,-7.629187 -2.0754,-2.075396 -4.58906,-3.11277 -7.5414,-3.11277 h -0.13166 c -2.39695,-0.02922 -4.56054,0.687371 -6.48975,2.148919 -1.92924,1.432315 -3.21497,3.302698 -3.85804,5.611942 l -9.03286,31.613149 -9.11972,-31.700934 c -0.67228,-2.309242 -1.95801,-4.164966 -3.85805,-5.568051 -1.89999,-1.403083 -4.03429,-2.105025 -6.40196,-2.105025 z m 122.94566,6.358092 c 3.68313,0 7.00051,1.724659 9.95282,5.173907 2.95234,3.449251 4.42862,7.584972 4.42862,12.408072 0,9.500049 -1.47628,15.974409 -4.42862,19.423659 -2.95231,3.449249 -6.26969,5.173909 -9.95282,5.173909 -3.68305,0 -6.928,-1.75311 -9.73421,-5.260819 -2.80617,-3.5077 -4.19451,-9.953623 -4.16526,-19.336749 0,-4.764641 1.40301,-8.885701 4.20917,-12.364177 2.77694,-3.478482 6.00725,-5.217802 9.6903,-5.217802 z m -62.56877,7.847767 c -2.39695,-0.02921 -4.10696,1.038344 -5.13003,3.201433 -1.05233,2.163084 -0.86261,4.237839 0.56973,6.22554 l 8.19889,11.356438 -8.19889,10.303919 c -1.46157,1.84155 -1.66594,3.8732 -0.61364,6.09475 1.02313,2.22154 2.74774,3.33222 5.17394,3.33222 h 0.0879 c 2.13383,0 3.78519,-0.90631 4.95441,-2.71863 l 6.27034,-9.689429 6.31332,9.689429 c 1.16925,1.81232 2.79126,2.71863 4.86667,2.71863 h 0.17556 c 2.42615,0.0292 4.16546,-1.05213 5.21781,-3.24445 1.0523,-2.16308 0.80397,-4.22405 -0.74527,-6.18252 l -8.15504,-10.303919 8.15504,-11.356438 c 1.46155,-2.016932 1.70987,-4.091683 0.74527,-6.22554 -0.96466,-2.133858 -2.70397,-3.201433 -5.21781,-3.201433 h -0.17556 c -2.10463,0 -3.72669,0.876988 -4.86667,2.630847 l -6.31332,9.734211 -6.27034,-9.734211 c -1.14,-1.753859 -2.79136,-2.630847 -4.95441,-2.630847 z"
       id="text1666" />
    <path
       style="fill:#00815b;fill-opacity:1;stroke:none;stroke-width:0.29289147;stroke-linecap:butt;stroke-linejoin:miter;stroke-miterlimit:4;stroke-dasharray:none;stroke-opacity:1"
       d="m 207.57074,83.965212 c -0.70797,0.706953 -0.84752,1.083138 -0.78937,2.130721 0.0904,1.628968 0.84883,2.389215 2.65185,2.657184 1.70031,0.252752 12.53535,0.201105 13.43684,-0.06405 2.0467,-0.601953 2.74739,-3.261216 1.25335,-4.757385 -0.73537,-0.736448 -1.21413,-0.78326 -8.23687,-0.803448 -7.27376,-0.02094 -7.47695,-6.78e-4 -8.31577,0.836954 z m -0.0229,10.715916 c -0.57608,0.537549 -0.8595,1.359471 -0.77576,2.340361 0.11024,1.292063 0.72216,2.046597 1.97538,2.436577 0.46951,0.146127 3.89759,0.254307 7.61776,0.240147 6.61368,-0.0251 6.78366,-0.0453 7.64693,-0.907424 0.70762,-0.706637 0.88297,-1.132434 0.88366,-2.144817 7.6e-4,-1.112574 -0.11474,-1.350844 -0.96646,-2.002105 -0.87483,-0.668872 -1.61341,-0.741418 -7.7469,-0.760616 -3.72895,-0.01158 -7.1822,0.102173 -7.6744,0.253107 -0.37558,0.115132 -0.69835,0.300473 -0.96021,0.54477 z m 0.61363,11.061162 c -0.9364,1.01684 -1.01664,2.65224 0.0463,3.71671 0.30984,0.31028 2.17883,1.41086 4.1536,2.44586 l 3.59073,1.88216 3.56145,-1.8726 c 2.319,-1.21892 3.78447,-2.15569 4.19978,-2.68468 0.87861,-1.1191 0.7428,-2.5734 -0.34173,-3.65951 -0.80424,-0.80536 -1.10277,-0.84315 -6.94318,-0.88789 -3.35664,-0.0257 -6.57214,0.11951 -7.14554,0.32348 -0.35545,0.12641 -0.66472,0.31288 -0.92299,0.54155 -0.07,0.0619 -0.13593,0.127 -0.19847,0.19489 z"
       id="path1682" />
  </g>
</svg>
