<?xml version="1.0" encoding="UTF-8" standalone="no"?>
<!--
Propuesta c3 para logotipo proyecto MxOS.
Autor: Miguel Angel Marcial Martinez @fitorec
Licencia: Creative Commons CC BY-SA 4.0
-->
<svg
   xmlns:dc="http://purl.org/dc/elements/1.1/"
   xmlns:cc="http://creativecommons.org/ns#"
   xmlns:rdf="http://www.w3.org/1999/02/22-rdf-syntax-ns#"
   xmlns:svg="http://www.w3.org/2000/svg"
   xmlns="http://www.w3.org/2000/svg"
   id="propuesta-00"
   version="1.1"
   viewBox="0 0 150 150"
   height="150mm"
   width="150mm">
  <defs
     id="defs248">
    <filter
       height="1.2606643"
       y="-0.13033222"
       width="1.1239401"
       x="-0.061970063"
       id="filter3304-3"
       style="color-interpolation-filters:sRGB">
      <feGaussianBlur
         id="feGaussianBlur3306-7"
         stdDeviation="1.7767668" />
    </filter>
    <filter
       height="1.4545048"
       y="-0.22725242"
       width="1.2375263"
       x="-0.11876316"
       id="filter3376-3"
       style="color-interpolation-filters:sRGB">
      <feGaussianBlur
         id="feGaussianBlur3378-6"
         stdDeviation="3.2142434" />
    </filter>
    <filter
       height="1.0741538"
       y="-0.03707692"
       width="1.0354847"
       x="-0.017742332"
       id="filter3250-5"
       style="color-interpolation-filters:sRGB">
      <feGaussianBlur
         id="feGaussianBlur3252-9"
         stdDeviation="0.50545754" />
    </filter>
    <filter
       height="1.108032"
       y="-0.05401599"
       width="1.053992"
       x="-0.026996003"
       id="filter3238-2"
       style="color-interpolation-filters:sRGB">
      <feGaussianBlur
         id="feGaussianBlur3240-2"
         stdDeviation="0.72001796" />
    </filter>
    <filter
       height="1.2606643"
       y="-0.13033222"
       width="1.1239401"
       x="-0.061970063"
       id="filter3304"
       style="color-interpolation-filters:sRGB">
      <feGaussianBlur
         id="feGaussianBlur3306"
         stdDeviation="1.7767668" />
    </filter>
    <filter
       height="1.4545048"
       y="-0.22725242"
       width="1.2375263"
       x="-0.11876316"
       id="filter3376"
       style="color-interpolation-filters:sRGB">
      <feGaussianBlur
         id="feGaussianBlur3378"
         stdDeviation="3.2142434" />
    </filter>
    <filter
       height="1.0741538"
       y="-0.03707692"
       width="1.0354847"
       x="-0.017742332"
       id="filter3250"
       style="color-interpolation-filters:sRGB">
      <feGaussianBlur
         id="feGaussianBlur3252"
         stdDeviation="0.50545754" />
    </filter>
    <filter
       height="1.108032"
       y="-0.05401599"
       width="1.053992"
       x="-0.026996003"
       id="filter3238"
       style="color-interpolation-filters:sRGB">
      <feGaussianBlur
         id="feGaussianBlur3240"
         stdDeviation="0.72001796" />
    </filter>
  </defs>
  <metadata
     id="metadata251">
    <rdf:RDF>
      <cc:Work
         rdf:about="">
        <dc:format>image/svg+xml</dc:format>
        <dc:type
           rdf:resource="http://purl.org/dc/dcmitype/StillImage" />
        <dc:title></dc:title>
      </cc:Work>
    </rdf:RDF>
  </metadata>
  <g
     id="g37"
     transform="translate(-0.95872505,28.951286)">
    <text
       xml:space="preserve"
       style="font-style:normal;font-weight:normal;font-size:44.88074112px;line-height:1.25;font-family:sans-serif;letter-spacing:0px;word-spacing:0px;fill:#ffffff;fill-opacity:1;stroke:none;stroke-width:6.73211098;filter:url(#filter3304)"
       x="11.263751"
       y="243.36633"
       id="text3258"
       transform="matrix(0.88750204,0,0,0.88750204,1.6701194,-126.85559)"><tspan
         id="tspan3256"
         x="11.263751"
         y="243.36633"
         style="font-weight:bold;fill:#ffffff;fill-opacity:1;stroke-width:6.73211098">Mx<tspan
   style="fill:#ffffff;fill-opacity:1;stroke-width:6.73211098"
   id="tspan3254" /></tspan></text>
    <path
       id="path354"
       transform="scale(0.26458333)"
       d="M 55.224609,223.99219 V 333.74023 H 82.054688 V 253.4707 l 25.287112,59.17383 h 17.93554 l 25.28711,-59.17383 v 80.26953 h 26.75782 V 223.99219 h -35.94532 l -25.14062,58.73437 -24.992189,-58.73437 z m 139.740231,27.41992 29.69727,40.20898 -31.16797,42.11914 h 27.85938 l 18.30468,-26.02148 18.52344,26.02148 h 27.85938 l -31.16797,-42.26562 29.69726,-40.0625 h -27.85937 l -17.05274,24.4043 -16.83398,-24.4043 z"
       style="font-style:normal;font-weight:bold;font-size:39.83174896px;line-height:1.25;font-family:sans-serif;letter-spacing:0px;word-spacing:0px;fill:#00815b;fill-opacity:1;stroke:none;stroke-width:22.58177948" />
    <text
       id="text3310"
       y="242.62523"
       x="83.17794"
       style="font-style:normal;font-weight:normal;font-size:44.88074112px;line-height:1.25;font-family:sans-serif;letter-spacing:0px;word-spacing:0px;fill:#ffffff;fill-opacity:1;stroke:none;stroke-width:6.73211098;filter:url(#filter3376)"
       xml:space="preserve"
       transform="matrix(0.88750204,0,0,0.88750204,1.6701194,-126.85559)"><tspan
         style="font-weight:bold;fill:#ffffff;fill-opacity:1;stroke-width:6.73211098"
         y="242.62523"
         x="83.17794"
         id="tspan3308">OS</tspan></text>
    <path
       id="path346"
       transform="scale(0.26458333)"
       d="m 349.27148,222.66016 c -17.593,0 -31.41283,5.04742 -41.45898,15.14257 -9.99714,10.09516 -14.99609,24.03714 -14.99609,41.82618 0,17.74002 4.99895,31.65875 14.99609,41.7539 10.04615,10.09516 23.86598,15.14258 41.45898,15.14258 17.64202,0 31.46186,-5.04742 41.45899,-15.14258 9.99715,-10.09515 14.99609,-24.01388 14.99609,-41.7539 0,-17.78904 -4.99894,-31.73102 -14.99609,-41.82618 -9.99713,-10.09515 -23.81697,-15.14257 -41.45899,-15.14257 z m 115.84961,0 c -13.23152,0 -23.37678,2.93964 -30.43359,8.82031 -7.05681,5.88067 -10.58398,14.28659 -10.58398,25.21484 0,8.723 2.52272,15.65715 7.57031,20.80274 5.09659,5.14558 13.13407,8.89382 24.11133,11.24609 l 10.95312,2.42578 c 6.66477,1.47017 11.09944,3.13584 13.30469,4.99805 2.25426,1.86221 3.38086,4.50906 3.38086,7.93945 0,3.82244 -1.64045,6.76208 -4.92383,8.82031 -3.28338,2.05824 -8.01278,3.08789 -14.1875,3.08789 -6.0767,10e-6 -12.39809,-0.93075 -18.96484,-2.79296 -6.51775,-1.91122 -13.28127,-4.7287 -20.28907,-8.45313 v 23.89063 c 7.0078,2.59729 14.01564,4.55575 21.02344,5.8789 7.00782,1.32315 13.99043,1.98633 20.94922,1.98633 14.75069,0 25.70458,-2.94159 32.85937,-8.82227 7.20383,-5.92967 10.80469,-14.94639 10.80469,-27.05078 0,-9.21305 -2.57122,-16.31783 -7.71679,-21.3164 -5.1456,-4.99857 -13.82106,-8.72355 -26.02344,-11.17383 l -12.05469,-2.42578 c -5.73364,-1.17614 -9.70295,-2.57227 -11.9082,-4.18945 -2.15625,-1.66619 -3.23438,-3.96982 -3.23438,-6.91016 0,-3.92045 1.6172,-6.81162 4.85157,-8.67383 3.23436,-1.86221 8.2333,-2.79297 14.99609,-2.79297 5.09657,0 10.51047,0.68449 16.24414,2.05664 5.73364,1.37216 11.61489,3.40626 17.64258,6.10156 v -23.22851 c -6.81179,-1.81321 -13.40272,-3.16087 -19.77344,-4.04297 -6.37072,-0.93111 -12.56996,-1.39648 -18.59766,-1.39648 z m -115.84961,20.50976 c 8.67399,0 15.38708,3.18396 20.14063,9.55469 4.75354,6.37073 7.13086,15.33897 7.13086,26.9043 0,11.51631 -2.37732,20.45935 -7.13086,26.83007 -4.75355,6.37073 -11.46664,9.55664 -20.14063,9.55664 -8.62498,10e-6 -15.31481,-3.18591 -20.06836,-9.55664 -4.75354,-6.37072 -7.1289,-15.31376 -7.1289,-26.83007 0,-11.56533 2.37536,-20.53357 7.1289,-26.9043 4.75355,-6.37073 11.44338,-9.55469 20.06836,-9.55469 z"
       style="font-style:normal;font-weight:bold;font-size:39.83174896px;line-height:1.25;font-family:sans-serif;letter-spacing:0px;word-spacing:0px;fill:#a02c2c;fill-opacity:1;stroke:none;stroke-width:22.58177948" />
    <path
       style="font-style:normal;font-weight:normal;font-size:44.88074112px;line-height:1.25;font-family:sans-serif;letter-spacing:0px;word-spacing:0px;fill:#36b691;fill-opacity:0.53007519;stroke:none;stroke-width:6.73211098;filter:url(#filter3250)"
       d="m 14.685401,209.72565 v 32.71842 h 2.12339 v -31.73244 h 9.03406 l -0.4196,-0.98598 z m 25.68371,0 -6.64043,15.51326 1.26918,2.98225 7.49464,-17.50953 h 8.59274 v -0.98598 z m 15.975762,8.17417 8.85322,11.98739 -9.29196,12.55686 h 2.85306 l 8.56229,-11.5714 -8.85323,-11.98738 h 6.8616 l -0.67956,-0.98547 z m 18.40817,0 -4.35787,6.2358 1.39681,2.0252 5.08445,-7.27553 h 5.45134 l 0.73072,-0.98547 z m -49.945262,1.59939 v 3.98425 l 5.41467,12.67107 h 1.70272 z m 20.42408,0 -2.12338,4.96869 v 17.97617 h 2.12338 z m 26.560122,16.17266 -0.70641,1.00459 4.1057,5.76761 h 1.4216 z"
       id="text3198"
       transform="matrix(0.88750204,0,0,0.88750204,1.6701194,-126.85559)" />
    <path
       style="font-style:normal;font-weight:normal;font-size:44.88074112px;line-height:1.25;font-family:sans-serif;letter-spacing:0px;word-spacing:0px;fill:#d87676;fill-opacity:0.6627451;stroke:none;stroke-width:6.73211098;filter:url(#filter3238)"
       d="m 102.24372,209.31531 c -5.244864,0 -9.365007,1.50487 -12.359967,4.51445 -2.98037,3.00958 -4.47053,7.16572 -4.47053,12.46901 0,4.66494 1.16158,8.44194 3.48041,11.33368 -1.57927,-2.64215 -2.37299,-5.88501 -2.37299,-9.73481 0,-5.3033 1.49018,-9.45994 4.47053,-12.46953 2.99498,-3.00958 7.114593,-4.51445 12.359457,-4.51445 5.25947,0 9.37961,1.50487 12.35996,4.51445 0.35028,0.35371 0.67792,0.72462 0.98703,1.11001 -0.58955,-0.98636 -1.28514,-1.89112 -2.09444,-2.70836 -2.98038,-3.00958 -7.09999,-4.51445 -12.35946,-4.51445 z m 34.53691,0 c -3.94459,0 -6.96852,0.87666 -9.0723,2.62981 -2.10381,1.75315 -3.15589,4.25839 -3.15589,7.51634 0,2.48564 0.68916,4.48319 2.06396,5.99446 -0.63646,-1.24016 -0.95705,-2.70434 -0.95705,-4.39559 0,-3.25795 1.05209,-5.7637 3.15587,-7.51686 2.10381,-1.75315 5.12823,-2.62981 9.07285,-2.62981 1.79697,0 3.64511,0.13893 5.54434,0.41651 1.55131,0.2148 3.14881,0.52709 4.78782,0.92708 v -1.32034 c -2.03073,-0.54055 -3.99597,-0.94212 -5.89523,-1.20509 -1.89926,-0.27758 -3.74737,-0.41651 -5.54437,-0.41651 z m -27.8448,10.05106 c 0.95787,1.78791 1.43814,4.09773 1.43814,6.9324 0,3.43326 -0.70882,6.09974 -2.12595,7.99899 -1.41714,1.89926 -3.41839,2.84893 -6.0043,2.84893 -2.328254,0 -4.182034,-0.78118 -5.564007,-2.33837 0.207303,0.38653 0.436173,0.74984 0.688343,1.0878 1.41713,1.89925 3.411274,2.84892 5.982574,2.84892 2.58591,0 4.58767,-0.94967 6.0048,-2.84892 1.41714,-1.89926 2.12545,-4.56523 2.12545,-7.99848 0,-3.44787 -0.70831,-6.12145 -2.12545,-8.0207 -0.13398,-0.17957 -0.27517,-0.34798 -0.4196,-0.51057 z m 24.42744,1.67174 c 0.11637,0.59972 0.41826,1.08983 0.90848,1.46864 0.65743,0.48212 1.84083,0.89839 3.55017,1.24902 l 3.59408,0.72295 c 3.63781,0.73049 6.22366,1.84089 7.75769,3.33107 0.0862,0.0838 0.16922,0.17012 0.25061,0.25786 -0.35354,-0.69986 -0.80491,-1.3194 -1.35752,-1.85622 -1.53403,-1.49018 -4.11988,-2.60058 -7.75767,-3.33106 l -3.5941,-0.72347 c -1.55297,-0.31856 -2.66702,-0.6917 -3.35174,-1.11879 z m 8.76329,11.63494 c 0.0715,0.2838 0.1111,0.58994 0.1111,0.92346 0,1.13955 -0.48979,2.01622 -1.46865,2.62982 -0.97882,0.61361 -2.38836,0.92036 -4.22918,0.92036 -1.8116,0 -3.69623,-0.27786 -5.65393,-0.83303 -1.94307,-0.56977 -3.95954,-1.40942 -6.04872,-2.51975 v 7.12206 c 0.36915,0.13682 0.73827,0.26571 1.10741,0.39067 v -5.91438 c 2.08918,1.11035 4.10515,1.9505 6.04822,2.52027 1.95768,0.55517 3.84233,0.83251 5.65391,0.83251 1.84081,0 3.25088,-0.30675 4.22973,-0.92036 0.97883,-0.6136 1.46812,-1.49026 1.46812,-2.62982 0,-1.02267 -0.33615,-1.81161 -1.00819,-2.36678 -0.0621,-0.0525 -0.13584,-0.10361 -0.20982,-0.15503 z"
       id="text3223"
       transform="matrix(0.88750204,0,0,0.88750204,1.6701194,-126.85559)" />
  </g>
  <g
     id="g1748"
     transform="translate(-467.4895,-5.9373984)">
    <path
       style="fill:#00815b;fill-opacity:1;stroke-width:1.33333325"
       d="m 2113.998,127.33594 c -0.427,0.0193 -0.8367,0.0584 -1.2324,0.11718 -4.3301,0.64302 -5.4931,2.48221 -6.3789,10.08594 -0.4523,3.88271 -0.2176,6.71579 -1.4746,8.55078 h -54.2129 c -0.155,5.40206 -0.2726,12.25747 -0.3828,21.59766 l -0.4277,36.33203 h -15.2813 c -16.9612,0 -22.3416,1.46669 -26.9707,7.35156 -3.4721,4.41414 -3.8802,13.31083 -0.8105,17.69336 4.6999,6.71004 6.6378,6.96181 52.8535,6.8711 23.6864,-0.0465 44.2657,-0.57549 45.7324,-1.17578 3.5558,-1.45536 6.8222,-5.22259 8.6133,-9.9336 1.971,-5.18413 -0.2415,-11.69547 -5.4707,-16.0957 -3.5996,-3.02883 -5.171,-3.37695 -15.2442,-3.37695 h -11.2324 V 188.01953 170.6875 h 19.4004 c 0.4119,0 0.7163,-0.007 1.1153,-0.008 0.5867,0.74869 0.9379,1.43983 1.3203,1.85742 1.0789,1.17841 1.2697,2.03792 1.2558,5.67578 -0.026,6.83107 0.1435,7.72679 1.8047,9.54102 0.8218,0.89755 2.1681,1.88004 2.9942,2.18359 4.4277,1.62719 14.7528,-0.77254 27.0546,-6.28711 7.1439,-3.20245 7.8171,-3.60716 11.4942,-6.92773 3.3703,-3.04347 4.0152,-3.83757 4.7012,-5.78516 0.9911,-2.81442 0.7405,-17.60476 -0.3536,-20.85352 -0.6728,-1.99746 -1.6492,-3.68793 -3.1875,-5.35546 -1.5381,-1.66757 -3.6395,-3.3122 -6.5644,-5.21485 -12.8044,-8.32939 -22.7102,-12.46752 -29.1153,-12.17773 z m -154.0429,14.40234 c -0.9675,0.0298 -2.2335,0.32653 -4.1035,0.83008 -6.4369,1.73326 -8.808,4.15354 -8.209,8.37891 0.3352,2.36375 1.3591,3.12539 4.4355,3.30273 2.2,0.12684 5.4362,-0.18376 7.1895,-0.69141 1.7533,-0.50765 4.0189,-2.17457 5.0351,-3.70507 1.6134,-2.42987 1.5411,-3.1621 -0.5703,-5.76954 -1.3797,-1.70386 -2.1649,-2.39528 -3.7773,-2.3457 z m 224.0879,6.24414 -6.0176,5.50781 -6.0156,5.50977 -5.2871,-0.25 -5.2872,-0.25195 -0.1582,2.96484 -0.1582,2.96094 5.4864,0.47851 5.4843,0.47852 5.5059,6.00195 5.5059,6.00196 2.2187,-2.03125 2.2168,-2.03125 -5.0762,-5.54493 -5.0761,-5.54492 5.3593,-4.90625 5.3594,-4.9082 -2.0312,-2.2168 z m -217.461,6.9082 c -2.0986,0.0901 -5.0016,0.87976 -9.1699,2.3418 -4.9677,1.74242 -6.7769,3.09332 -7.1016,5.30274 -0.9584,6.52277 4.0637,8.23008 13.7657,4.67968 7.7309,-2.8291 9.5063,-4.964 7.6015,-9.14453 -1.0273,-2.25476 -2.3974,-3.29555 -5.0957,-3.17969 z m 7.752,13.92383 c -2.2626,-0.002 -5.3466,0.65933 -9.3262,1.96485 -10.705,3.51186 -12.2617,4.61629 -12.2617,8.6914 0,2.49896 3.56,6.19973 5.5781,5.79883 0.2317,-0.046 4.9219,-1.69535 10.4219,-3.66601 8.7778,-3.14511 10.0494,-4.02036 10.4121,-7.16016 0.4367,-3.78005 -1.0533,-5.62584 -4.8242,-5.62891 z m -7.5391,16.63477 c -6.6498,2.48802 -7.3828,3.15109 -7.3828,6.67383 0,6.64237 7.9242,41.69108 9.6777,42.80468 0.9108,0.5784 6.8846,1.06104 13.2754,1.07227 9.9575,0.0174 11.8091,-0.33353 12.9414,-2.44922 0.9977,-1.86419 -0.4386,-8.06495 -5.8652,-25.31836 -3.9528,-12.56757 -7.5614,-23.45606 -8.0195,-24.19726 -4.1018,-3.01378 -10.9799,0.0638 -14.627,1.41406 z m 75.2832,55.9082 c -69.0884,0 -75.7114,0.19403 -79.9043,2.33203 -6.8753,3.50579 -10.0957,8.71309 -10.0957,16.33008 0,7.61696 3.2204,12.82622 10.0957,16.33203 4.1929,2.13801 10.8159,2.33203 79.9043,2.33203 69.0884,0 75.7134,-0.19391 79.9063,-2.33203 6.8752,-3.50581 10.0937,-8.71507 10.0937,-16.33203 0,-7.61699 -3.2185,-12.82429 -10.0937,-16.33008 -4.1929,-2.138 -10.8179,-2.33203 -79.9063,-2.33203 z m -0.9023,43.33008 c -89.8419,0 -90.9457,0.0343 -94.666,2.76172 -4.6308,3.39715 -8.4278,10.5653 -8.4239,15.9043 0,5.28771 4.2614,12.05528 9.6485,15.33984 4.2218,2.57408 6.8868,2.64951 93.6777,2.65234 82.4016,0.003 89.6923,-0.17776 93.9551,-2.32812 12.4519,-6.28146 12.9477,-24.50155 0.8652,-31.81641 -3.9609,-2.39799 -8.3507,-2.51367 -95.0566,-2.51367 z"
       id="path1713"
       transform="scale(0.26458333)" />
    <path
       style="fill:#004e37;fill-opacity:1;stroke:none;stroke-width:0.99999994px;stroke-linecap:butt;stroke-linejoin:miter;stroke-opacity:1"
       d="m 1959.9551,141.73828 c -0.9675,0.0298 -2.2335,0.32653 -4.1035,0.83008 -6.4369,1.73326 -8.808,4.15354 -8.209,8.37891 0.3352,2.36375 1.3591,3.12539 4.4355,3.30273 2.2,0.12684 5.4362,-0.18376 7.1895,-0.69141 1.7533,-0.50765 4.0189,-2.17457 5.0351,-3.70507 1.6134,-2.42987 1.5411,-3.1621 -0.5703,-5.76954 -1.3797,-1.70386 -2.1649,-2.39528 -3.7773,-2.3457 z m 224.0879,6.24414 -6.0176,5.50781 -6.0156,5.50977 -5.2871,-0.25 -5.2872,-0.25195 -0.1582,2.96484 -0.1582,2.96094 5.4864,0.47851 5.4843,0.47852 5.5059,6.00195 5.5059,6.00196 2.2187,-2.03125 2.2168,-2.03125 -5.0762,-5.54493 -5.0761,-5.54492 5.3593,-4.90625 5.3594,-4.9082 -2.0312,-2.2168 z m -217.461,6.9082 c -2.0986,0.0901 -5.0016,0.87976 -9.1699,2.3418 -4.9677,1.74242 -6.7769,3.09332 -7.1016,5.30274 -0.9584,6.52277 4.0637,8.23008 13.7657,4.67968 7.7309,-2.8291 9.5063,-4.964 7.6015,-9.14453 -1.0273,-2.25476 -2.3974,-3.29554 -5.0957,-3.17969 z m 7.752,13.92383 c -2.2626,-0.002 -5.3466,0.65933 -9.3262,1.96485 -10.705,3.51186 -12.2617,4.61629 -12.2617,8.6914 0,2.49896 3.56,6.19973 5.5781,5.79883 0.2317,-0.046 4.9219,-1.69535 10.4219,-3.66601 8.7778,-3.14511 10.0494,-4.02036 10.4121,-7.16016 0.4367,-3.78005 -1.0533,-5.62584 -4.8242,-5.62891 z"
       transform="scale(0.26458333)"
       id="path1734" />
  </g>
</svg>
