<?xml version="1.0" encoding="UTF-8" standalone="no"?>
<!--
Propuesta ch0 para logotipo proyecto MxOS.
Autor: Miguel Angel Marcial Martinez @fitorec
Licencia: Creative Commons CC BY-SA 4.0
-->
<svg
   xmlns:dc="http://purl.org/dc/elements/1.1/"
   xmlns:cc="http://creativecommons.org/ns#"
   xmlns:rdf="http://www.w3.org/1999/02/22-rdf-syntax-ns#"
   xmlns:svg="http://www.w3.org/2000/svg"
   xmlns="http://www.w3.org/2000/svg"
   id="propuesta-00"
   version="1.1"
   viewBox="0 0 132.29167 132.29167"
   height="500"
   width="500">
  <defs
     id="defs248">
    <filter
       style="color-interpolation-filters:sRGB"
       id="filter3238"
       x="-0.026996003"
       width="1.053992"
       y="-0.05401599"
       height="1.108032">
      <feGaussianBlur
         stdDeviation="0.72001796"
         id="feGaussianBlur3240" />
    </filter>
    <filter
       style="color-interpolation-filters:sRGB"
       id="filter3250"
       x="-0.017742332"
       width="1.0354847"
       y="-0.03707692"
       height="1.0741538">
      <feGaussianBlur
         stdDeviation="0.50545754"
         id="feGaussianBlur3252" />
    </filter>
    <filter
       style="color-interpolation-filters:sRGB"
       id="filter3190"
       x="-0.024"
       width="1.048"
       y="-0.024"
       height="1.048">
      <feGaussianBlur
         stdDeviation="1.6404166"
         id="feGaussianBlur3192" />
    </filter>
    <filter
       style="color-interpolation-filters:sRGB"
       id="filter3304"
       x="-0.061970063"
       width="1.1239401"
       y="-0.13033222"
       height="1.2606643">
      <feGaussianBlur
         stdDeviation="1.7767668"
         id="feGaussianBlur3306" />
    </filter>
    <filter
       style="color-interpolation-filters:sRGB"
       id="filter1616"
       x="-0.06943077"
       width="1.1388615"
       y="-0.13285526"
       height="1.2657105">
      <feGaussianBlur
         stdDeviation="1.8790961"
         id="feGaussianBlur1618" />
    </filter>
    <filter
       style="color-interpolation-filters:sRGB"
       id="filter2205"
       x="-0.027800612"
       width="1.0556012"
       y="-0.051059158"
       height="1.1021183">
      <feGaussianBlur
         stdDeviation="1.0586831"
         id="feGaussianBlur2207" />
    </filter>
    <filter
       style="color-interpolation-filters:sRGB"
       id="filter3304-8"
       x="-0.061970063"
       width="1.1239401"
       y="-0.13033222"
       height="1.2606643">
      <feGaussianBlur
         stdDeviation="1.7767668"
         id="feGaussianBlur3306-9" />
    </filter>
    <filter
       style="color-interpolation-filters:sRGB"
       id="filter3376"
       x="-0.11876316"
       width="1.2375263"
       y="-0.22725242"
       height="1.4545048">
      <feGaussianBlur
         stdDeviation="3.2142434"
         id="feGaussianBlur3378" />
    </filter>
    <filter
       style="color-interpolation-filters:sRGB"
       id="filter3250-7"
       x="-0.017742332"
       width="1.0354847"
       y="-0.03707692"
       height="1.0741538">
      <feGaussianBlur
         stdDeviation="0.50545754"
         id="feGaussianBlur3252-3" />
    </filter>
    <filter
       style="color-interpolation-filters:sRGB"
       id="filter3238-6"
       x="-0.026996003"
       width="1.053992"
       y="-0.05401599"
       height="1.108032">
      <feGaussianBlur
         stdDeviation="0.72001796"
         id="feGaussianBlur3240-1" />
    </filter>
  </defs>
  <metadata
     id="metadata251">
    <rdf:RDF>
      <cc:Work
         rdf:about="">
        <dc:format>image/svg+xml</dc:format>
        <dc:type
           rdf:resource="http://purl.org/dc/dcmitype/StillImage" />
        <dc:title></dc:title>
      </cc:Work>
    </rdf:RDF>
  </metadata>
  <path
     id="path425"
     d="m 81.728333,118.321 c -1.371009,0 -2.382716,0.25555 -3.035333,0.76652 -0.647566,0.50591 -0.971493,1.237 -0.971493,2.19316 0,0.88534 0.253076,1.56073 0.758986,2.02617 0.510966,0.46544 1.292487,0.79402 2.344775,0.98626 l 1.350983,0.24295 c 0.753799,0.13659 1.277287,0.36926 1.570714,0.6981 0.293433,0.32378 0.440085,0.76403 0.440085,1.32054 0,0.73356 -0.189661,1.26726 -0.569089,1.60115 -0.379434,0.32884 -1.039672,0.49313 -1.98066,0.49313 -1.016875,0 -1.725068,-0.13892 -2.124733,-0.41716 -0.399671,-0.28331 -0.599532,-0.77679 -0.599532,-1.48 h -1.252117 c 0,1.07758 0.311242,1.84673 0.933509,2.3071 0.627329,0.46038 1.598504,0.69056 2.913863,0.69056 1.396309,0 2.410794,-0.27567 3.043179,-0.82711 0.637442,-0.55143 0.956113,-1.3611 0.956113,-2.42856 0,-0.91065 -0.262983,-1.61883 -0.789131,-2.12474 -0.521078,-0.50591 -1.32549,-0.85738 -2.413197,-1.05469 l -1.350977,-0.24294 c -0.733567,-0.13153 -1.236949,-0.34131 -1.510138,-0.62967 -0.268127,-0.29343 -0.402093,-0.69564 -0.402093,-1.2066 0,-0.63239 0.207295,-1.09276 0.622135,-1.38113 0.419903,-0.28836 1.095304,-0.43254 2.026173,-0.43254 0.607085,0 1.080142,0.0554 1.4191,0.16669 0.338958,0.10624 0.576878,0.28103 0.713473,0.52387 0.136595,0.24283 0.204967,0.57142 0.204967,0.98626 h 1.206604 c 0,-1.0017 -0.270717,-1.71484 -0.812045,-2.13981 -0.541323,-0.42496 -1.439469,-0.63751 -2.694121,-0.63751 z m -11.079136,0.038 c -1.198996,0 -2.160264,0.21256 -2.883719,0.63752 -0.723449,0.42496 -1.247236,1.05735 -1.571019,1.89716 -0.318721,0.83475 -0.478057,1.8743 -0.478057,3.11883 0,1.25466 0.154385,2.31462 0.462987,3.17972 0.308602,0.8651 0.82219,1.52008 1.540576,1.96528 0.723442,0.44014 1.69988,0.66042 2.929232,0.66042 1.23442,0 2.208074,-0.22276 2.921404,-0.66795 0.718392,-0.4452 1.231974,-1.09771 1.540576,-1.95775 0.308602,-0.8651 0.462987,-1.92754 0.462987,-3.18726 0,-1.23441 -0.159336,-2.26901 -0.478057,-3.10376 -0.31872,-0.8398 -0.840036,-1.4722 -1.563484,-1.89715 -0.718386,-0.43003 -1.679362,-0.64506 -2.883426,-0.64506 z m -26.150616,0.23512 v 10.93533 h 1.183995 v -9.75889 h 0.273089 l 3.156809,8.43835 h 1.753083 l 3.179718,-8.43835 h 0.273089 v 9.75889 h 1.18369 V 118.5941 h -2.253743 l -3.126365,8.30965 H 49.856384 L 46.74479,118.5941 Z m 26.150616,0.89553 c 0.961231,0 1.697264,0.16707 2.208236,0.50096 0.516023,0.32884 0.869969,0.82697 1.062221,1.49477 0.197301,0.66273 0.295992,1.50025 0.295992,2.51206 0,1.02194 -0.09344,1.88173 -0.280624,2.57989 -0.187183,0.69309 -0.536484,1.21936 -1.047444,1.57855 -0.510972,0.35413 -1.256919,0.53111 -2.238381,0.53111 -0.971338,0 -1.715111,-0.17202 -2.23114,-0.51604 -0.510959,-0.34402 -0.862733,-0.86008 -1.054978,-1.54811 -0.192245,-0.68804 -0.288159,-1.54288 -0.288159,-2.56481 0,-1.01688 0.09344,-1.86182 0.280624,-2.53468 0.192245,-0.67791 0.544019,-1.18624 1.054979,-1.5252 0.516028,-0.33896 1.26228,-0.5085 2.238674,-0.5085 z m -13.174024,2.36768 2.815303,3.87028 -2.792394,3.80186 h 1.320234 l 2.185627,-3.01273 2.177787,3.01273 h 1.358517 l -2.807762,-3.82477 2.792687,-3.84737 h -1.320533 l -2.185627,3.05824 -2.185321,-3.05824 z"
     style="font-style:normal;font-variant:normal;font-weight:normal;font-stretch:normal;font-size:26.64449883px;line-height:1.25;font-family:Metrophobic;-inkscape-font-specification:Metrophobic;letter-spacing:0px;word-spacing:0px;fill:#10b981;fill-opacity:1;stroke:none;stroke-width:2.33122253" />
  <path
     style="fill:#333333;stroke-width:0.37403223"
     d="m 18.79335,11.892704 c -1.346662,0.185519 -2.483128,1.735196 -3.476961,4.74415 -1.891199,5.725751 -2.029539,13.109751 -0.416518,22.221599 1.12962,6.381133 2.787535,11.265719 5.447343,16.051498 3.162966,5.691072 6.057488,8.477597 12.883521,12.40214 l 4.106069,2.360255 -0.147799,-1.735477 c -0.377674,-4.439773 -0.288983,-8.89966 0.224809,-11.295107 0.299706,-1.397245 0.464868,-2.606395 0.379385,-2.754021 l 0.02947,-0.01634 c 0.975462,-2.55918 1.66569,-4.153445 2.286545,-5.759048 0.04538,-0.0083 0.05605,-0.03765 0.03387,-0.08678 0.392182,-1.018706 0.75828,-2.049066 1.150997,-3.338928 l -0.07312,-0.126324 C 40.969697,43.525288 35.789433,30.667781 34.867562,28.805948 33.413408,25.869079 30.63973,22.734761 27.635119,20.633738 24.474993,18.42398 20.573228,16.55587 19.443785,16.711465 c -1.755773,0.241879 -2.915468,3.462158 -3.148132,8.74021 -0.143957,3.265736 1.420943,14.547775 2.621288,18.894464 1.765198,6.39227 4.854526,12.260803 8.699242,16.527246 1.032952,1.146255 1.814236,2.168824 1.736109,2.271912 -0.228855,0.301973 -4.585651,-4.716124 -6.122246,-7.051449 -4.573435,-6.950799 -7.87247,-17.380036 -8.188346,-25.886378 -0.319799,-8.611712 1.302448,-15.334439 3.783151,-15.676186 2.859494,-0.393931 10.910572,4.384474 14.600432,8.665946 2.44878,2.841402 4.427642,6.409136 7.600617,13.702281 1.547482,3.556893 2.943824,6.582027 3.102768,6.722734 0.159011,0.140724 1.31233,-0.383291 2.563105,-1.165105 1.250759,-0.781819 3.451069,-1.97576 4.889332,-2.652836 1.438256,-0.677073 2.662925,-1.269745 2.721862,-1.317377 C 54.562269,38.277225 51.30562,33.989424 48.458224,30.791758 43.278585,24.974901 38.188999,20.949896 31.159076,17.11062 26.890066,14.779183 19.740329,11.762245 18.793359,11.892702 Z M 117.37998,1.1013897 c -0.1059,0.011369 -0.21404,0.0266 -0.32507,0.045144 -1.38162,0.2315835 -3.17706,1.0289944 -5.76189,2.4128525 C 99.772976,9.726939 89.836348,20.596021 83.722079,33.718627 c -0.93054,1.997131 -1.735954,3.705734 -1.789636,3.796612 -0.0537,0.09087 -1.180839,0.02915 -2.504698,-0.137779 -1.323856,-0.166958 -3.603597,-0.359233 -5.06661,-0.427334 -2.580042,-0.120079 -2.701088,-0.09082 -4.017852,0.984182 -3.582679,2.924853 -6.654757,8.288828 -7.785932,13.594936 l -0.53478,2.508642 -0.960386,-1.547743 C 59.591961,50.120011 59.102481,45.55133 59.877515,41.43995 l 0.602321,-3.197787 0.06144,-0.308736 c -1.994107,0.438103 -4.001321,0.968589 -5.291115,1.440128 -5.480004,2.003456 -8.824821,4.229188 -11.671841,7.767431 -3.570206,4.437008 -5.373877,10.061661 -5.297536,16.520609 0.03874,3.276972 0.465112,3.734136 1.191475,1.278364 0.686222,-2.320191 2.044326,-3.95036 3.770844,-4.527006 1.656079,-0.553127 4.656314,0.438008 6.023014,1.989724 1.462363,1.660334 1.409965,2.430004 -0.08301,1.21641 -3.022566,-2.456948 -6.960519,-2.02864 -8.354712,0.908843 -0.57228,1.205765 -0.436977,1.235133 1.007176,0.216858 1.672744,-1.17948 4.697796,-1.201393 6.618402,-0.04831 3.205752,1.924708 4.796533,4.94198 5.107639,9.686817 0.256556,3.913141 -0.894875,5.598143 -4.411668,6.457811 -3.516084,0.859493 -7.073405,-0.385795 -9.02166,-3.157293 l -0.596127,-0.847951 -0.2222,0.960686 c -0.345326,1.491292 0.544484,4.513698 1.972868,6.699718 1.134685,1.736535 6.380916,6.48365 7.061627,6.389874 0.136843,-0.01885 0.34289,-0.790399 0.458477,-1.714319 0.296187,-2.3678 1.908673,-5.007852 3.922662,-6.420759 1.515376,-1.063109 2.156864,-1.261048 5.61008,-1.736771 3.437988,-0.473626 4.160305,-0.455576 6.115292,0.152465 2.06906,0.643562 5.842719,2.833442 5.549377,3.220487 -0.07207,0.09507 -1.175196,-0.363163 -2.451913,-1.018391 -3.386828,-1.738163 -5.665004,-2.088095 -9.843796,-1.511646 -2.918089,0.402541 -3.762164,0.661044 -4.935769,1.512411 -2.707838,1.964295 -3.863535,4.951181 -3.091243,7.986628 0.783095,3.077811 3.438891,4.718426 6.808138,4.204448 2.375469,-0.362409 2.752298,-0.766287 2.212977,-2.371185 -0.326724,-0.972222 -0.813969,-1.392387 -2.400786,-2.06968 -3.249574,-1.38699 -4.435795,-3.359562 -3.1856,-5.295253 0.667287,-1.033158 1.030249,-1.208556 3.462787,-1.669678 7.657505,-1.451693 11.035318,2.420121 5.556794,6.369863 -1.338839,0.965246 -1.544178,1.295833 -1.410537,2.265918 0.324384,2.354666 3.608372,3.560967 7.980708,2.930662 2.926119,-0.421854 3.498052,-0.786451 5.995431,-3.815656 1.720064,-2.086361 5.771351,-5.353071 6.218333,-5.014315 0.10129,0.07666 -0.620674,0.821402 -1.603998,1.654676 -0.983321,0.833251 -2.822764,2.796919 -4.087965,4.363818 -1.852225,2.293903 -2.703356,3.028566 -4.368971,3.77201 -2.425873,1.08279 -6.203926,1.424252 -8.591099,0.776475 -0.838847,-0.22762 -2.697928,-0.283302 -4.137824,-0.1246 -1.930842,0.21287 -3.004822,0.124418 -4.104878,-0.335689 -0.819465,-0.342876 -1.467343,-0.459097 -1.439745,-0.258766 0.104095,0.755615 3.98103,3.17625 6.343888,3.960735 6.361488,2.11215 11.179286,1.52791 17.245727,-2.09209 1.208174,-0.720952 3.737759,-1.85605 5.622065,-2.522226 9.572209,-3.38419 14.056098,-6.801489 16.122058,-12.287603 1.038802,-2.758499 1.183104,-2.283066 0.575286,-0.01193 l 0.02873,-0.04488 c -1.996065,12.760091 -1.852638,18.281463 -1.331077,22.848403 0.121218,0.0767 0.159059,0.44288 0.122656,1.03089 0.168331,1.31891 0.356702,2.60391 0.522325,4.0015 1.066472,0.40227 1.954027,0.35563 2.653805,-0.29696 -1.372702,-10.26679 -1.229338,-11.11647 0.36987,-17.668759 1.41341,-5.791083 2.04263,-9.276872 2.98663,-16.54869 0.40464,-3.116873 0.97358,-6.349984 1.26403,-7.184766 0.72761,-2.09116 2.34771,-3.910631 7.41944,-8.3323 2.39275,-2.086084 4.79535,-4.47057 5.33928,-5.298858 3.11739,-4.74723 5.74969,-15.598929 6.41897,-26.462195 0.41555,-6.744692 0.12954,-12.519756 -0.95688,-19.325354 -0.90297,-5.6564144 -0.9932,-5.9635619 -2.19754,-7.4888767 -1.13158,-1.4331823 -2.16252,-2.0835993 -3.75067,-1.9140356 z m -2.5206,4.4206761 4e-5,3.547e-4 c 0.091,-0.014451 0.18112,-0.026364 0.26997,-0.035778 1.54007,-0.1634993 2.77117,0.4350052 3.77981,1.8236733 0.95944,1.3209118 1.08862,1.887538 2.06645,9.0061838 0.88712,6.454111 1.0016,8.252013 0.77125,11.958272 -0.49331,7.937171 -1.97901,14.574535 -4.35659,19.462093 -1.22939,2.52719 -6.72575,10.185215 -6.81989,9.501902 -0.0243,-0.176641 1.01449,-1.786566 2.30862,-3.577699 4.37393,-6.053622 6.71284,-13.674981 7.43417,-24.227348 0.3887,-5.686055 0.18279,-10.384026 -0.68588,-15.672351 C 118.904,9.3571106 118.68922,8.6255805 117.87952,7.8024875 116.49773,6.3978403 115.25484,6.2750098 113.0449,7.3245174 106.94873,10.219585 98.832003,20.467494 96.265305,28.510714 c -0.373006,1.16888 -0.675989,2.388668 -0.898764,3.570971 l -0.03336,0.02116 c -0.17853,0.957081 -0.29062,1.895138 -0.347662,2.818026 -0.04144,0.562343 -0.05643,1.091834 -0.04398,1.5765 0.03153,4.703275 1.486354,9.01918 3.327438,13.303806 -0.0034,0.0097 -0.0063,0.01808 -0.01,0.0278 l 0.348324,0.765792 c 0.0018,-0.0017 0.0039,-0.002 0.0055,-0.0039 0.118891,0.270156 0.240375,0.54063 0.361969,0.811135 l 0.84356,1.853537 c 0.271428,0.590551 0.541508,1.180135 0.814288,1.77405 -7.8e-4,0.0016 -0.002,0.0033 -0.002,0.0064 l 0.50834,1.1138 c 9.4e-4,-4.97e-4 0.002,-6.34e-4 0.003,-0.0011 0.12118,0.267029 0.24213,0.533733 0.36211,0.801941 l -1.01891,1.125426 C 96.135381,53.56788 92.64944,48.098652 91.741219,44.464393 l -0.01521,-0.217469 C 90.210606,38.608774 91.452069,30.313321 94.805651,23.916836 98.416273,17.030047 108.62165,7.3623466 114.01282,5.7214242 c 0.29205,-0.088929 0.57393,-0.155037 0.84671,-0.1984091 z M 82.446085,56.728954 c 3.665137,-0.564546 7.519194,1.184537 9.858642,5.170339 l 1.026289,1.747303 -2.307031,-1.821456 c -2.866888,-2.264149 -5.316605,-3.045713 -8.315583,-2.652252 -2.554437,0.335157 -4.954532,1.926388 -6.041603,4.004924 l -0.625749,1.196014 1.943027,-1.567806 c 1.624882,-1.31105 2.298224,-1.617444 4.107732,-1.866726 3.06025,-0.421587 4.584263,0.117527 8.486261,3.000913 2.517922,1.860616 3.683835,2.496301 4.397789,2.397945 0.534403,-0.07362 0.994852,0.03274 1.022928,0.236541 0.07353,0.533725 -2.181852,0.761157 -3.360289,0.338909 l -1.001378,-0.358971 0.461381,2.417908 c 0.420385,2.201519 0.376816,2.614426 -0.488556,4.611955 -0.630224,1.45472 -1.502273,2.648934 -2.587475,3.543874 -1.224078,1.009456 -2.163422,1.446863 -3.725501,1.735114 -2.832007,0.522608 -4.152127,0.197711 -7.166502,-1.763473 -2.260636,-1.470808 -4.313556,-2.174035 -5.774951,-1.97984 -0.312929,0.0418 -0.267565,-0.604329 0.142486,-2.033096 0.330615,-1.151974 0.897425,-3.877616 1.258738,-6.056588 0.534226,-3.221781 0.903574,-4.318237 1.978094,-5.869507 1.784546,-2.576317 4.203526,-4.045724 6.711257,-4.43198 z m -37.524894,9.415633 c -3.085331,0.344368 -5.644598,3.317955 -5.098696,7.280595 0.453653,3.293006 2.736972,5.528074 6.231139,6.09969 1.144444,0.187205 2.767165,-0.293925 4.080111,-1.210206 1.357028,-0.947018 2.087838,-3.37167 1.751666,-5.811899 -0.346805,-2.517414 -0.980681,-3.7127 -2.673491,-5.044366 -1.377487,-1.083579 -2.888299,-1.470334 -4.290729,-1.313814 z m 1.950275,1.567519 c 0.347517,-0.0322 0.721009,0.135311 1.154237,0.498991 0.91832,0.77091 1.004234,1.546267 0.268267,2.423015 -0.755185,0.899542 -0.910755,0.910677 -1.933065,0.135837 -1.015039,-0.769233 -1.160621,-1.471537 -0.48755,-2.359689 0.329117,-0.43428 0.650595,-0.666046 0.998115,-0.698231 z M 82.88847,63.473151 c -2.102249,0.326335 -4.13218,1.368023 -5.099233,2.832955 -2.720396,4.120946 -0.660108,9.272224 4.191007,10.480254 1.496681,0.372722 4.157862,-0.135005 5.651774,-1.07852 1.591458,-1.005144 3.357749,-3.470947 3.514856,-4.906559 0.325818,-2.977209 -1.681811,-6.060545 -4.609923,-7.079367 -1.099734,-0.382641 -2.38713,-0.444489 -3.648481,-0.248763 z m -0.451709,1.950224 c 1.158497,-0.159598 2.014492,0.932219 1.602898,2.044268 -0.17045,0.460521 -0.673526,0.848062 -1.194555,0.919841 -1.158498,0.159597 -2.014889,-0.932518 -1.603289,-2.04457 0.170456,-0.460535 0.673911,-0.84776 1.194946,-0.919539 z m -40.614868,5.97337 c 0.152915,-0.02033 0.397223,0.811287 0.541458,1.847932 0.27504,1.966433 0.868178,2.604698 3.768675,4.05047 1.378202,0.686995 0.57017,0.770036 -0.969196,0.09971 -2.096891,-0.913092 -3.092772,-2.142413 -3.37052,-4.158553 -0.136588,-0.991475 -0.123351,-1.81923 0.02959,-1.839546 z m 36.590581,-1.467123 c 0.02381,-0.04845 0.164003,0.249679 0.444698,0.846237 0.838228,1.781509 2.227181,3.034466 4.034451,3.638885 1.057402,0.353621 1.357898,0.573864 0.871988,0.640066 -0.877958,0.119637 -2.836614,-0.694058 -3.93913,-1.637136 -0.431893,-0.369426 -0.952343,-1.384301 -1.15717,-2.254764 -0.18581,-0.789685 -0.278645,-1.184815 -0.254835,-1.233289 z M 49.175445,93.792019 c -0.139422,0.01921 -0.719883,0.885022 -1.290228,1.924053 -2.101796,3.828869 -5.976809,7.244638 -10.168146,8.963658 -0.463205,0.18998 -1.003996,0.36475 -1.611146,0.52575 a 72.078547,75.943833 82.156168 0 0 20.319665,8.23825 l 0.134806,0.14461 1.438003,0.23329 a 72.078547,75.943833 82.156168 0 0 2.326021,0.50882 c -0.04316,-0.0503 -0.08428,-0.10118 -0.126972,-0.15168 l 1.373117,0.22285 c 0.03456,0.0663 0.06941,0.13503 0.103742,0.19785 a 72.078547,75.943833 82.156168 0 0 2.66128,0.49156 c -0.09015,-0.0928 -0.178059,-0.18976 -0.267877,-0.28416 l 2.664094,0.43266 c 0.02534,0.0379 0.04113,0.062 0.06709,0.10077 a 72.078547,75.943833 82.156168 0 0 1.471838,0.14896 C 57.796514,109.68863 51.194819,100.65333 49.175449,93.792072 Z"
     id="path9786" />
</svg>
