<?xml version="1.0" encoding="UTF-8" standalone="no"?>
<!--
Propuesta ch1 para logotipo proyecto MxOS.
Autor: Miguel Angel Marcial Martinez @fitorec
Licencia: Creative Commons CC BY-SA 4.0
-->
<svg
   xmlns:dc="http://purl.org/dc/elements/1.1/"
   xmlns:cc="http://creativecommons.org/ns#"
   xmlns:rdf="http://www.w3.org/1999/02/22-rdf-syntax-ns#"
   xmlns:svg="http://www.w3.org/2000/svg"
   xmlns="http://www.w3.org/2000/svg"
   id="propuesta-00"
   version="1.1"
   viewBox="0 0 132.29167 132.29167"
   height="500"
   width="500">
  <defs
     id="defs248">
    <filter
       style="color-interpolation-filters:sRGB"
       id="filter3238"
       x="-0.026996003"
       width="1.053992"
       y="-0.05401599"
       height="1.108032">
      <feGaussianBlur
         stdDeviation="0.72001796"
         id="feGaussianBlur3240" />
    </filter>
    <filter
       style="color-interpolation-filters:sRGB"
       id="filter3250"
       x="-0.017742332"
       width="1.0354847"
       y="-0.03707692"
       height="1.0741538">
      <feGaussianBlur
         stdDeviation="0.50545754"
         id="feGaussianBlur3252" />
    </filter>
    <filter
       style="color-interpolation-filters:sRGB"
       id="filter3190"
       x="-0.024"
       width="1.048"
       y="-0.024"
       height="1.048">
      <feGaussianBlur
         stdDeviation="1.6404166"
         id="feGaussianBlur3192" />
    </filter>
    <filter
       style="color-interpolation-filters:sRGB"
       id="filter3304"
       x="-0.061970063"
       width="1.1239401"
       y="-0.13033222"
       height="1.2606643">
      <feGaussianBlur
         stdDeviation="1.7767668"
         id="feGaussianBlur3306" />
    </filter>
    <filter
       style="color-interpolation-filters:sRGB"
       id="filter1616"
       x="-0.06943077"
       width="1.1388615"
       y="-0.13285526"
       height="1.2657105">
      <feGaussianBlur
         stdDeviation="1.8790961"
         id="feGaussianBlur1618" />
    </filter>
    <filter
       style="color-interpolation-filters:sRGB"
       id="filter2205"
       x="-0.027800612"
       width="1.0556012"
       y="-0.051059158"
       height="1.1021183">
      <feGaussianBlur
         stdDeviation="1.0586831"
         id="feGaussianBlur2207" />
    </filter>
    <filter
       style="color-interpolation-filters:sRGB"
       id="filter3304-8"
       x="-0.061970063"
       width="1.1239401"
       y="-0.13033222"
       height="1.2606643">
      <feGaussianBlur
         stdDeviation="1.7767668"
         id="feGaussianBlur3306-9" />
    </filter>
    <filter
       style="color-interpolation-filters:sRGB"
       id="filter3376"
       x="-0.11876316"
       width="1.2375263"
       y="-0.22725242"
       height="1.4545048">
      <feGaussianBlur
         stdDeviation="3.2142434"
         id="feGaussianBlur3378" />
    </filter>
    <filter
       style="color-interpolation-filters:sRGB"
       id="filter3250-7"
       x="-0.017742332"
       width="1.0354847"
       y="-0.03707692"
       height="1.0741538">
      <feGaussianBlur
         stdDeviation="0.50545754"
         id="feGaussianBlur3252-3" />
    </filter>
    <filter
       style="color-interpolation-filters:sRGB"
       id="filter3238-6"
       x="-0.026996003"
       width="1.053992"
       y="-0.05401599"
       height="1.108032">
      <feGaussianBlur
         stdDeviation="0.72001796"
         id="feGaussianBlur3240-1" />
    </filter>
    <filter
       height="1.0244772"
       y="-0.012238609"
       width="1.023541"
       x="-0.011770517"
       id="filter1133"
       style="color-interpolation-filters:sRGB">
      <feGaussianBlur
         id="feGaussianBlur1135"
         stdDeviation="0.50182241" />
    </filter>
    <filter
       height="1.1644104"
       y="-0.082205176"
       width="1.0460926"
       x="-0.023046322"
       id="filter1151"
       style="color-interpolation-filters:sRGB">
      <feGaussianBlur
         id="feGaussianBlur1153"
         stdDeviation="0.74212127" />
    </filter>
  </defs>
  <metadata
     id="metadata251">
    <rdf:RDF>
      <cc:Work
         rdf:about="">
        <dc:format>image/svg+xml</dc:format>
        <dc:type
           rdf:resource="http://purl.org/dc/dcmitype/StillImage" />
        <dc:title></dc:title>
      </cc:Work>
    </rdf:RDF>
  </metadata>
  <rect
     y="-1.7529296e-06"
     x="5.5511151e-17"
     height="132.29167"
     width="132.29167"
     id="rect1131"
     style="opacity:1;fill:#265243;fill-opacity:0.93333333;stroke:none;stroke-width:0.26263806;stroke-linecap:round;stroke-linejoin:bevel;stroke-miterlimit:4;stroke-dasharray:none;stroke-dashoffset:0;stroke-opacity:1;paint-order:stroke fill markers" />
  <g
     transform="translate(-2.8991012)"
     id="g1161">
    <path
       id="path1117"
       d="m 67.242965,102.34582 c -3.440624,-0.2269 -6.914572,-1.58765 -8.772079,-3.43603 -0.658877,-0.65565 -1.280425,-1.5726 -1.609997,-2.37519 L 56.626935,95.96487 56.02945,95.76502 c -1.611604,-0.53906 -2.732514,-1.2342 -3.899485,-2.41829 -1.297239,-1.31626 -1.971042,-2.5759 -2.505485,-4.68386 -0.719002,-2.83589 -0.395594,-5.33347 0.951401,-7.3474 0.555717,-0.83087 1.734339,-1.93102 2.628259,-2.45327 0.70511,-0.41194 0.728524,-0.43585 0.87044,-0.889 0.428421,-1.36796 1.489291,-2.68366 2.966052,-3.67851 0.637972,-0.42978 2.021574,-1.15432 2.386615,-1.24979 0.160078,-0.0419 0.161737,-0.069 0.04877,-0.79601 -0.134402,-0.86501 -0.08776,-2.40792 0.09697,-3.20802 l 0.117293,-0.508 0.0092,0.42333 c 0.01268,0.58496 0.226525,1.93704 0.394841,2.49645 0.07686,0.25545 0.307051,0.83671 0.51154,1.2917 0.204488,0.45499 0.371796,0.84801 0.371796,0.87337 0,0.0254 -0.142875,0.10574 -0.3175,0.17861 -0.815687,0.34036 -2.518826,1.64164 -3.19782,2.44328 -0.886239,1.04633 -1.266715,1.84488 -1.409948,2.95924 -0.04803,0.37364 -0.11438,0.73368 -0.147452,0.80006 -0.03307,0.0664 -0.248264,0.18574 -0.478205,0.26521 -0.919712,0.31789 -2.030933,1.16194 -2.630124,1.99776 -1.235304,1.72314 -1.449842,3.77361 -0.667429,6.37899 0.817904,2.72359 2.612452,4.39125 5.518644,5.12847 3.343025,0.84803 8.058856,0.0301 9.930589,-1.72245 l 0.427231,-0.40002 0.255955,-1.143 c 0.140774,-0.62865 0.334956,-1.50495 0.431513,-1.94733 0.09656,-0.44239 0.20482,-0.85732 0.240583,-0.92208 0.03576,-0.0648 0.07039,0.84854 0.07694,2.02954 0.01187,2.13875 0.01106,2.14904 -0.203042,2.58665 -0.45158,0.923 -1.895942,2.18309 -3.328084,2.9035 -0.639671,0.32178 -2.012607,0.78739 -2.893186,0.98119 -0.415309,0.0914 -1.230703,0.15573 -2.356828,0.18595 -1.409404,0.0378 -1.701293,0.0661 -1.608666,0.15552 0.268315,0.25918 2.304565,1.56178 2.997259,1.91737 1.63021,0.83684 3.443494,1.36125 5.954663,1.72212 l 1.472764,0.21164 1.278903,-0.17486 c 3.845287,-0.52577 5.81595,-1.29558 9.001525,-3.51627 0.196141,-0.13674 0.357989,-0.26766 0.359662,-0.29094 0.0017,-0.0233 -0.749356,-0.0431 -1.668954,-0.044 -1.299878,-10e-4 -1.832163,-0.0363 -2.391662,-0.15717 -2.662753,-0.57537 -4.888773,-1.85745 -6.018792,-3.46654 l -0.415874,-0.59218 0.0087,-2.29388 0.0087,-2.29389 0.151435,0.635 c 0.08329,0.34925 0.295378,1.2754 0.471309,2.05811 0.344816,1.5341 0.389084,1.6208 1.095521,2.14592 0.787382,0.58529 1.742579,1.00092 3.064989,1.33365 1.246461,0.31363 2.127236,0.41473 3.623678,0.41595 3.413622,0.003 5.975729,-1.14409 7.479242,-3.34793 1.135149,-1.6639 1.689529,-4.66373 1.205999,-6.52581 -0.44958,-1.73133 -1.827549,-3.28079 -3.478821,-3.91178 l -0.581233,-0.22211 -0.05437,-0.4815 c -0.133269,-1.18032 -0.453622,-2.01738 -1.102368,-2.8804 -0.766339,-1.01945 -2.409949,-2.37673 -3.460634,-2.85775 l -0.467143,-0.21387 0.219605,-0.48207 c 0.712757,-1.56465 0.932871,-2.361 1.029857,-3.72593 l 0.06429,-0.90482 0.120148,0.508 c 0.12056,0.50975 0.170179,2.58106 0.08375,3.49634 l -0.04233,0.44833 0.635788,0.282 c 0.810057,0.35929 1.936411,1.03065 2.556,1.5235 1.014569,0.80704 1.944685,2.13799 2.278001,3.25971 0.07847,0.26407 0.184176,0.41327 0.359916,0.508 1.669954,0.90016 3.030894,2.30275 3.736274,3.85061 0.52901,1.16083 0.67889,1.94742 0.67122,3.52251 -0.007,1.4919 -0.12826,2.24308 -0.59237,3.67799 -0.96376,2.97967 -3.0958,5.13397 -6.073764,6.13718 l -0.662268,0.22311 -0.232139,0.54769 c -0.311644,0.73528 -1.092816,1.89887 -1.59261,2.37227 -0.512052,0.48501 -1.164981,1.01176 -1.25411,1.01176 -0.03737,0 -0.185851,0.0882 -0.329946,0.19601 -0.452154,0.33826 -1.919759,1.04581 -2.811883,1.35564 -0.991179,0.34422 -2.453655,0.681 -3.546109,0.81658 -0.929794,0.1154 -3.321645,0.15538 -4.529667,0.0757 z m 0.502203,-15.51983 c -0.99044,-0.27331 -2.608564,-1.44136 -2.869529,-2.07139 -0.09388,-0.22664 -0.0822,-0.27839 0.119949,-0.53173 0.12317,-0.15437 0.231543,-0.313 0.240828,-0.35253 0.0093,-0.0395 -0.306967,-0.15675 -0.702784,-0.2605 -1.386381,-0.36342 -2.477447,-1.12413 -2.92536,-2.03963 -0.695662,-1.42189 0.271855,-2.65411 2.56608,-3.26815 l 0.681865,-0.1825 0.262584,0.18697 c 0.575823,0.41002 1.941306,0.83507 3.309498,1.03017 0.620623,0.0885 0.842014,0.0821 1.608666,-0.0462 1.123943,-0.18815 2.086973,-0.48763 2.805966,-0.87259 l 0.562299,-0.30107 0.750034,0.23246 c 0.412519,0.12786 0.971495,0.34976 1.242167,0.49314 0.605466,0.32071 1.208534,0.97236 1.335202,1.44277 0.35552,1.3203 -1.112885,2.87833 -3.142746,3.33458 -0.37084,0.0833 -0.674255,0.18451 -0.674255,0.2248 0,0.0403 0.117958,0.22219 0.26213,0.40421 l 0.262129,0.33097 -0.325629,0.42779 c -0.601023,0.78958 -1.890754,1.6335 -2.825651,1.84892 -0.752804,0.17347 -1.428689,0.0538 -0.845123,-0.14964 0.418643,-0.14594 0.93125,-0.61014 1.447633,-1.31094 l 0.488511,-0.66297 -0.201075,-0.37817 c -0.424127,-0.79768 -0.352282,-1.6181 0.186172,-2.12593 0.233671,-0.22038 0.364563,-0.27654 0.646764,-0.27754 0.866654,-0.003 2.141223,-0.49435 2.643981,-1.01911 l 0.234393,-0.24465 -0.584951,-0.26294 c -0.693779,-0.31187 -0.687193,-0.31128 -1.389284,-0.12268 -0.745153,0.20017 -2.129685,0.1346 -3.132667,-0.14838 -0.714255,-0.20152 -0.723467,-0.20191 -1.225176,-0.0518 -1.206563,0.36094 -2.862412,0.42155 -3.647251,0.13352 -0.334519,-0.12277 -0.358468,-0.11861 -0.996142,0.17328 l -0.653381,0.29907 0.318808,0.28887 c 0.561922,0.50917 1.367458,0.833 2.296425,0.92317 0.661715,0.0642 1.061445,0.31287 1.257543,0.7822 0.171938,0.4115 0.109425,1.13844 -0.140913,1.6386 l -0.199312,0.39822 0.32547,0.47256 c 0.41983,0.60958 1.130072,1.2793 1.561575,1.47249 0.186782,0.0836 0.314373,0.17728 0.283534,0.20812 -0.08906,0.089 -0.7961,0.0509 -1.218977,-0.0658 z M 48.065965,84.32763 C 46.58071,83.74968 45.657501,83.14112 44.463307,81.95285 43.590287,81.08416 43.140549,80.5275 42.366952,79.35813 41.140359,77.50401 40.4794,75.99404 39.435206,72.66055 38.697258,70.30471 35.942513,65.05588 32.770485,59.96172 c -0.644703,-1.03537 -1.172187,-1.90401 -1.172187,-1.93031 0,-0.0263 0.352426,0.19701 0.783167,0.49624 3.002084,2.0855 4.113746,2.79737 5.305846,3.3977 0.655168,0.32994 0.768988,0.35695 0.768988,0.18249 0,-0.24216 0.458142,-1.47483 0.80749,-2.17263 0.902451,-1.80259 2.548884,-3.70237 4.418227,-5.09807 2.894852,-2.16137 7.169646,-4.02873 11.839984,-5.17206 1.928329,-0.47207 2.035581,-0.43206 0.375632,0.14013 -2.246308,0.7743 -3.778591,1.41317 -5.757334,2.40045 -3.004407,1.49904 -5.126295,2.95314 -6.898545,4.72749 -2.16322,2.16579 -3.188686,4.20369 -3.393623,6.74412 -0.0325,0.40282 -0.08513,0.77455 -0.116971,0.82607 -0.03887,0.0629 -0.439482,-0.0595 -1.219743,-0.37257 -0.639021,-0.25643 -1.182798,-0.46623 -1.208392,-0.46623 -0.0256,0 0.0468,0.16192 0.160879,0.35983 2.698792,4.68199 3.624657,6.58769 4.304197,8.85926 0.448252,1.49843 0.622804,1.94617 1.307524,3.35391 1.198387,2.4638 2.244597,4.03213 3.600598,5.3975 0.543405,0.54716 1.021248,0.99418 1.061876,0.99338 0.04063,-8.4e-4 0.163506,-0.20854 0.273065,-0.46166 0.514521,-1.18874 1.694857,-2.5996 2.796408,-3.34255 0.554808,-0.37421 1.942119,-1.06383 2.007847,-0.99811 0.02023,0.0202 -0.195634,0.18024 -0.479699,0.35557 -1.866408,1.15202 -3.284746,3.4565 -3.506549,5.69737 -0.03344,0.33779 -0.08548,0.62881 -0.115665,0.64669 -0.03018,0.0179 -0.321573,-0.0712 -0.64754,-0.1981 z m 41.31696,-0.15259 c -0.28589,-2.16615 -0.89966,-3.49558 -2.24329,-4.85902 -0.44239,-0.44891 -1.05199,-0.97552 -1.35467,-1.17027 -0.59099,-0.38025 -0.45675,-0.37908 0.39581,0.004 1.60032,0.71801 3.24474,2.37934 3.96325,4.00401 0.26036,0.58873 0.25908,0.58913 1.25995,-0.39433 1.86915,-1.8366 3.99812,-5.58996 4.92677,-8.68587 0.73636,-2.45483 1.67656,-4.42608 4.083625,-8.56179 0.25748,-0.44239 0.48246,-0.83139 0.49995,-0.86447 0.0175,-0.0331 -0.18837,0.0373 -0.45748,0.15626 -0.585105,0.25876 -1.998045,0.79493 -2.024675,0.7683 -0.0104,-0.0104 -0.0614,-0.41864 -0.11331,-0.9073 -0.29341,-2.75918 -1.40856,-4.85767 -3.77955,-7.11232 -2.7516,-2.61658 -7.21594,-5.05148 -12.522006,-6.82964 -1.819048,-0.6096 -1.72499,-0.61282 0.686339,-0.0235 6.356957,1.55356 11.511467,4.25089 14.392217,7.53135 0.57758,0.65772 1.3774,1.8489 1.79076,2.667 0.30648,0.60659 0.78368,1.89232 0.78368,2.11152 0,0.0672 0.0365,0.1447 0.0811,0.17225 0.1063,0.0657 1.258875,-0.51385 2.374295,-1.19385 0.8254,-0.50321 1.39668,-0.88829 3.58764,-2.41836 0.4598,-0.3211 0.84682,-0.57266 0.86007,-0.55902 0.0132,0.0136 -0.52545,0.9011 -1.19712,1.97213 -2.34731,3.74296 -4.9578,8.537 -6.082585,11.17038 -0.2125,0.49751 -0.57714,1.52745 -0.81032,2.28875 -0.66496,2.17107 -1.43061,3.90829 -2.43804,5.53183 -1.27847,2.06031 -3.02114,3.86036 -4.59509,4.74638 -0.35733,0.20115 -1.88681,0.85833 -1.99763,0.85833 -0.009,0 -0.0404,-0.18098 -0.0696,-0.40217 z M 46.700942,80.5767 c -2.257284,-2.35122 -3.767453,-5.03243 -4.384772,-7.78486 -0.189978,-0.84705 -0.293475,-1.71015 -0.160441,-1.33797 0.235968,0.66015 0.910555,2.2651 1.0899,2.59304 0.992802,1.8154 3.479237,5.32329 3.773214,5.32329 0.03194,0 0.221697,-0.24503 0.421684,-0.5445 0.921451,-1.37989 2.241893,-2.45327 3.753309,-3.05104 0.547396,-0.2165 0.628235,-0.2815 0.96469,-0.77571 0.897309,-1.31804 2.33107,-2.39943 3.733447,-2.81589 0.709471,-0.21069 0.776994,-0.16212 0.193514,0.13918 -1.452153,0.74989 -2.5177,1.89466 -3.585215,3.85176 -0.09598,0.17595 -0.224237,0.2687 -0.423334,0.30614 -0.157101,0.0296 -0.530938,0.1698 -0.830748,0.31167 -1.51185,0.71541 -2.819293,2.07986 -3.586216,3.74256 -0.166461,0.36089 -0.317747,0.65617 -0.336191,0.65617 -0.01844,0 -0.298722,-0.27623 -0.622841,-0.61384 z m 43.713973,-0.18954 c -0.39903,-0.82538 -1.11517,-1.86007 -1.55302,-2.24384 -0.90934,-0.79705 -1.86901,-1.38164 -2.71652,-1.65481 -0.41231,-0.1329 -0.46236,-0.17936 -0.70277,-0.65246 -0.801756,-1.57776 -2.142326,-2.95405 -3.487277,-3.58021 -0.512741,-0.23871 -0.388483,-0.27109 0.279296,-0.0728 0.602034,0.17879 1.526994,0.64813 2.063392,1.047 0.575299,0.4278 1.397879,1.29905 1.762669,1.86698 0.26754,0.4165 0.35228,0.48253 0.84113,0.6554 1.4795,0.52318 3.07117,1.83417 3.90405,3.2156 0.1474,0.24448 0.29124,0.4445 0.31965,0.4445 0.0716,0 1.05444,-1.1884 1.57547,-1.905 1.38478,-1.90456 2.72286,-4.32381 3.19913,-5.78398 0.0807,-0.2475 0.16122,-0.43553 0.1789,-0.41786 0.0626,0.0626 -0.21637,1.56046 -0.42399,2.27693 -0.72339,2.49626 -2.31454,5.12568 -4.26103,7.04147 l -0.58579,0.57654 z M 49.275503,68.27563 c -1.26048,-0.34595 -2.161664,-0.90952 -3.051147,-1.90807 -0.847014,-0.95088 -1.358214,-2.0466 -1.462942,-3.13572 -0.06367,-0.66216 0.120438,-1.67558 0.425437,-2.34178 0.13674,-0.29868 0.186711,-0.50213 0.13583,-0.55301 -0.04704,-0.047 -0.608288,-0.0655 -1.350496,-0.0444 l -1.27,0.0361 0.179927,-0.25825 c 0.372585,-0.53478 1.396262,-1.47029 1.998053,-1.82596 1.754644,-1.03703 3.709944,-1.23437 6.572467,-0.66332 2.005773,0.40013 4.372181,1.39811 5.477963,2.31021 1.007341,0.8309 1.72143,2.15172 2.0857,3.85781 0.213752,1.00113 0.373358,2.37018 0.33749,2.89487 l -0.02715,0.3972 -1.227667,-1.07213 C 56.865534,64.89202 55.851881,63.91551 55.117576,63.09705 54.67135,62.59968 54.310217,62.3975 52.971417,61.8955 c -1.253655,-0.47007 -2.667959,-0.8183 -4.172121,-1.02727 -0.682731,-0.0948 -1.582074,-0.22736 -1.998539,-0.29446 -0.416464,-0.0671 -0.769557,-0.10965 -0.784651,-0.0946 -0.07367,0.0737 0.171948,1.3197 0.397714,2.01767 0.364753,1.12764 0.847841,1.94855 1.5591,2.64936 1.02379,1.00875 1.894858,1.31972 3.691379,1.31782 1.489845,-0.002 2.664191,-0.2066 3.674942,-0.64159 0.15859,-0.0682 0.15859,-0.0647 0,0.213 -0.27242,0.47704 -1.108494,1.31732 -1.68346,1.69192 -1.199171,0.78129 -2.800848,0.98177 -4.380278,0.54828 z m 36.604602,0.0813 c -0.66299,-0.17832 -1.573532,-0.68388 -2.102643,-1.16746 -0.535569,-0.48948 -1.247154,-1.4753 -0.989583,-1.37095 1.1711,0.47443 2.217506,0.65131 3.838196,0.6488 1.69021,-0.003 2.61972,-0.35704 3.63212,-1.38492 0.60309,-0.61232 1.02705,-1.30707 1.37219,-2.24864 0.26424,-0.72088 0.58668,-2.24804 0.49417,-2.34055 -0.0258,-0.0258 -0.25304,-0.007 -0.50505,0.0418 -0.25201,0.0488 -1.0399,0.16332 -1.75086,0.25453 -2.12102,0.27212 -3.72694,0.68641 -5.444438,1.40455 l -0.895092,0.37426 -1.085691,1.14698 c -1.170132,1.2362 -3.621556,3.4015 -3.673736,3.24496 -0.05764,-0.17292 0.16585,-2.21819 0.329052,-3.01137 0.291409,-1.41627 0.686254,-2.36493 1.364231,-3.27774 1.176136,-1.58352 4.609146,-3.01788 8.031324,-3.35562 1.76567,-0.17425 3.08732,0.0448 4.42584,0.73365 0.62435,0.3213 0.93608,0.55559 1.55287,1.16712 1.18048,1.17041 1.19269,1.12088 -0.26554,1.07701 -0.66994,-0.0202 -1.27563,-0.0146 -1.34598,0.0124 -0.10887,0.0418 -0.0964,0.12038 0.0841,0.52836 0.61272,1.38546 0.59748,2.81163 -0.0439,4.10428 -0.35886,0.72328 -0.67614,1.14921 -1.33117,1.78703 -0.88627,0.86296 -1.79099,1.3697 -2.92107,1.63612 -0.67875,0.16001 -2.16634,0.1575 -2.76932,-0.005 z M 69.891449,60.87051 c 0.01354,-4.44496 0.481765,-9.95037 1.302483,-15.31456 l 0.30287,-1.97956 -0.186868,-0.68744 c -0.482037,-1.77329 -1.170831,-3.68626 -1.86325,-5.17478 l -0.354463,-0.762 -0.25972,0.508 c -0.599893,1.17337 -1.504717,3.65243 -1.976447,5.41514 l -0.203451,0.76022 0.163578,0.97632 c 0.841575,5.02296 1.339297,10.36114 1.397515,14.98866 0.02594,2.06219 0.01553,2.5077 -0.04155,1.778 -0.434367,-5.55228 -1.260783,-11.034 -2.425205,-16.08667 -0.177071,-0.76835 -0.318331,-1.56845 -0.313911,-1.778 0.01089,-0.51653 0.698508,-3.24625 1.179905,-4.68403 0.215522,-0.6437 0.378773,-1.18311 0.362778,-1.19868 -0.04961,-0.0483 -2.507609,0.20434 -3.754346,0.38588 -2.786557,0.40577 -6.483002,1.08214 -9.643793,1.76461 -0.880217,0.19005 -1.67569,0.34555 -1.767719,0.34555 -0.09693,0 -0.459946,-0.29386 -0.862864,-0.6985 -0.755697,-0.75891 -1.197491,-1.51745 -1.440418,-2.47312 -0.141401,-0.55627 -0.169354,-2.01027 -0.04865,-2.53043 0.06546,-0.28208 0.01292,-0.52034 -0.392067,-1.778 C 47.434806,27.58197 45.555333,24.15546 42.506842,20.68923 39.441631,17.204 34.629545,13.81882 27.418629,10.07505 26.142884,9.4127096 22.572827,7.6998396 22.468081,7.6998396 c -0.03557,0 -0.222793,0.65723 -0.416043,1.4605 C 20.205697,16.83493 20.144694,24.5432 21.866148,32.64925 c 1.074759,5.06087 3.264694,11.03547 5.55605,15.15806 l 0.292243,0.5258 0.435949,-0.17184 c 1.1667,-0.45987 3.33759,-0.73232 5.004959,-0.62814 l 0.955797,0.0597 -0.189174,0.78251 c -0.400488,1.6566 -0.47903,2.32193 -0.520531,4.40948 l -0.0404,2.032 0.663794,0.41807 c 0.365086,0.22994 0.970482,0.59527 1.345322,0.81184 l 0.681529,0.39378 0.757805,-0.88494 c 2.160561,-2.52301 5.030601,-4.67568 8.631805,-6.47428 1.4295,-0.71396 2.070519,-0.99166 3.77869,-1.63696 2.860197,-1.08052 6.463415,-2.02017 9.341729,-2.43614 l 0.843752,-0.12194 0.268221,0.22395 c 1.879928,1.56966 3.894571,6.1465 5.538824,12.58303 0.235381,0.92142 0.410028,1.69324 0.388106,1.71516 -0.02192,0.0219 -0.08246,-0.12591 -0.134537,-0.32852 -0.169887,-0.66102 -1.277598,-3.89703 -1.734603,-5.06738 -1.378127,-3.52927 -2.842574,-6.22111 -4.066444,-7.47464 -0.271679,-0.27826 -0.54646,-0.48403 -0.646379,-0.48403 -0.230405,0 -2.386848,0.52189 -3.526535,0.85348 -4.574431,1.3309 -8.989193,3.38058 -12.139578,5.63617 -1.383805,0.99077 -2.001278,1.50695 -3.105206,2.59582 -1.108349,1.09324 -2.074861,2.26055 -2.857129,3.45072 -0.301862,0.45926 -0.577686,0.85285 -0.612941,0.87464 -0.103874,0.0642 -3.796222,-1.98113 -4.739485,-2.62537 -1.098795,-0.75047 -1.040836,-0.65465 -1.135461,-1.87723 -0.08262,-1.06753 -0.0354,-4.20303 0.06882,-4.56906 0.04814,-0.16908 0.02387,-0.1905 -0.215802,-0.1905 -0.376306,0 -1.68972,0.32967 -1.978776,0.49668 -0.131669,0.0761 -0.506749,0.50979 -0.83351,0.96382 -0.32676,0.45402 -0.619081,0.82477 -0.6496,0.82388 -0.08644,-0.002 -1.345679,-1.94661 -1.938742,-2.99312 -2.383581,-4.20606 -4.340977,-9.12811 -5.644096,-14.1926 -2.603211,-10.1172 -2.421545,-20.31495 0.532861,-29.9119904 0.226373,-0.73535 0.431029,-1.35644 0.45479,-1.3802 0.02376,-0.0238 0.719102,0.24611 1.545204,0.5997 5.820254,2.49125 11.650356,5.7065204 16.255159,8.9646304 3.471452,2.45621 6.240166,5.24343 8.414552,8.47078 2.054849,3.04993 3.257198,5.66825 4.619733,10.06026 l 0.623617,2.01017 -0.169842,0.44516 c -0.253715,0.665 -0.19027,1.87931 0.130739,2.50231 0.127097,0.24666 0.282303,0.46813 0.344902,0.49215 0.0626,0.024 1.137376,-0.12854 2.388392,-0.33902 3.994474,-0.67206 7.245585,-1.07602 9.894574,-1.22942 1.815883,-0.10516 8.54322,-0.0582 9.948333,0.0694 2.431076,0.22082 6.655384,0.80021 9.313333,1.27738 0.535517,0.0961 1.149917,0.19752 1.365334,0.22529 l 0.39167,0.0505 0.28553,-0.58 c 0.25652,-0.52106 0.28555,-0.65334 0.28567,-1.30171 8e-5,-0.50355 -0.049,-0.85419 -0.16251,-1.15995 l -0.16264,-0.43823 0.32418,-1.08577 c 0.91717,-3.07185 1.59792,-4.90258 2.58025,-6.93893 2.44769,-5.07407 5.81319,-8.99249 10.78999,-12.56273 3.388355,-2.43072 7.864885,-5.0193004 12.623535,-7.2996104 2.32414,-1.11372 5.0952,-2.32852 5.15248,-2.25879 0.0599,0.0729 0.99197,3.30512 1.24288,4.30996 0.57187,2.2901704 1.04834,5.0609104 1.32494,7.7046604 0.18779,1.79499 0.21446,8.05751 0.0418,9.82134 -0.36952,3.77525 -0.96329,7.02743 -1.92452,10.541 -1.24449,4.5489 -3.26197,9.48887 -5.39413,13.208 -0.48947,0.85376 -1.84948,2.921 -1.92171,2.921 -0.0337,0 -0.3176,-0.36412 -0.63089,-0.80916 -0.31329,-0.44503 -0.6892,-0.88186 -0.83534,-0.97074 -0.27509,-0.16729 -1.57503,-0.5061 -1.94181,-0.5061 h -0.20865 l 0.0398,1.9311 c 0.0219,1.06211 0.0119,2.37726 -0.0222,2.92255 l -0.0619,0.99145 -0.47839,0.36687 c -0.76168,0.58413 -2.30702,1.50093 -4.42357,2.62438 l -0.89719,0.47621 -0.72949,-1.07911 c -2.996165,-4.43215 -7.715535,-7.80156 -14.538735,-10.38003 -2.053701,-0.77608 -5.636158,-1.8172 -6.77093,-1.96773 l -0.388048,-0.0515 -0.506583,0.54154 c -1.620772,1.73261 -3.507413,5.61916 -5.204132,10.72071 -0.366799,1.10286 -0.668293,1.9671 -0.669987,1.92053 -0.0075,-0.20622 0.955855,-3.78199 1.391423,-5.16466 1.361177,-4.32094 2.723433,-7.10411 4.237349,-8.65717 0.529642,-0.54334 0.535422,-0.54377 2.546672,-0.19134 6.680136,1.17055 13.120936,3.87519 17.473836,7.33764 0.81993,0.65221 2.811355,2.60855 3.449375,3.38861 l 0.42784,0.52308 1.13496,-0.69241 c 0.62422,-0.38083 1.22823,-0.76008 1.34222,-0.84278 l 0.20728,-0.15036 -0.0101,-1.5853 c -0.0119,-1.87247 -0.11642,-2.87448 -0.46012,-4.41262 -0.13936,-0.62368 -0.23144,-1.15591 -0.20463,-1.18272 0.0931,-0.0931 3.21858,-0.0457 3.84986,0.0584 0.85712,0.14139 1.65981,0.34528 2.09793,0.53289 l 0.36228,0.15514 0.16976,-0.27321 c 0.31852,-0.51256 1.84265,-3.65708 2.32406,-4.79487 2.24746,-5.31176 3.71589,-10.92275 4.31179,-16.47566 0.32523,-3.03066 0.38116,-7.26905 0.13181,-9.99067 -0.15418,-1.68288 -0.57869,-4.67589 -0.81039,-5.71364 -0.29072,-1.3020604 -0.79115,-3.3248204 -0.8329,-3.3665704 -0.0882,-0.0882 -4.53821,2.09629 -7.07701,3.4741104 -4.0399,2.19248 -7.95309,4.77673 -10.287005,6.79349 -2.21625,1.91508 -4.44631,4.57269 -5.89533,7.0256 -1.50878,2.55407 -2.42452,4.63625 -3.41818,7.77218 l -0.39709,1.25317 0.10361,0.72986 c 0.18452,1.29989 -0.0786,2.60424 -0.74749,3.70566 -0.37899,0.62404 -1.4155,1.65181 -1.66586,1.65181 -0.18669,0 -1.72572,-0.32109 -1.820855,-0.37988 -0.02982,-0.0184 -1.461644,-0.30195 -3.181842,-0.63004 -4.4069,-0.84054 -6.597319,-1.17462 -9.7528,-1.48749 -0.244475,-0.0242 -0.4445,-0.0256 -0.4445,-0.003 0,0.0226 0.08986,0.28014 0.199695,0.57224 0.468185,1.24517 1.408971,4.81258 1.408971,5.34275 0,0.11686 -0.155178,0.91084 -0.344842,1.76441 -0.320861,1.44402 -0.972343,4.70402 -1.173056,5.86994 -0.39125,2.27274 -0.949546,6.62193 -1.108583,8.636 -0.207241,2.6245 -0.233509,2.74624 -0.228368,1.05833 z m 2.431516,-6.7132 c 0,-0.13951 0.549537,-2.69671 0.813489,-3.78547 0.976113,-4.02631 2.042152,-6.99094 3.121137,-8.6798 0.455314,-0.71267 0.390459,-0.68726 1.576469,-0.61748 1.084499,0.0638 2.259238,0.19022 2.997905,0.32259 0.232834,0.0417 0.709083,0.11915 1.058334,0.17206 0.873349,0.13231 2.708927,0.54578 3.979336,0.89634 4.37294,1.20671 8.46058,3.03846 11.53583,5.16942 0.36089,0.25007 0.65617,0.4335 0.65617,0.40762 0,-0.11487 -1.24718,-1.89011 -1.85613,-2.64203 -1.27157,-1.57009 -3.07019,-3.24404 -4.39254,-4.08805 -0.32831,-0.20955 -0.61896,-0.43225 -0.6459,-0.49489 -0.0828,-0.19247 0.11216,-2.3543 0.3369,-3.73651 0.78759,-4.84404 2.68131,-9.70849 5.23777,-13.45445 0.82383,-1.20716 0.80121,-1.1751 1.23161,-1.74515 1.19328,-1.58048 3.639285,-4.07381 5.313685,-5.4165 2.16816,-1.73864 5.57601,-3.85075 7.49577,-4.64572 0.4291,-0.17769 0.40256,-0.10153 -0.0423,0.12149 -1.50618,0.75503 -4.31908,2.77127 -6.2865,4.50604 -6.261025,5.52065 -10.493395,13.49169 -11.555395,21.76284 -0.24692,1.92305 -0.29997,1.71481 0.61222,2.40348 2.79085,2.107 5.05298,4.85336 6.713025,8.15003 0.49293,0.97889 1.87708,4.65667 1.75257,4.65667 -0.0401,0 -0.24163,-0.17964 -1.88705,-1.68219 -1.598705,-1.45986 -3.156015,-2.6296 -5.033405,-3.7807 -1.20214,-0.73709 -4.08437,-2.16094 -5.54567,-2.73962 -3.63584,-1.43982 -8.05833,-2.58622 -11.756841,-3.04762 l -0.538511,-0.0672 -0.284369,0.38815 c -0.327732,0.44735 -1.247422,2.20935 -1.638856,3.13983 -0.146923,0.34925 -0.322548,0.73613 -0.390276,0.85973 -0.06773,0.1236 -0.123144,0.26182 -0.123144,0.30716 0,0.0453 -0.06369,0.22996 -0.141542,0.41027 -0.355861,0.82425 -1.542228,4.40677 -1.987088,6.0005 -0.233071,0.83499 -0.326703,1.10701 -0.326703,0.94914 z m -6.810184,-0.92967 c -0.372342,-1.35617 -1.582298,-4.97353 -2.116339,-6.32713 -0.614189,-1.55675 -1.519041,-3.41974 -2.046084,-4.21267 -0.381645,-0.57417 -0.425157,-0.61158 -0.665697,-0.5723 -0.14155,0.0231 -0.866962,0.13869 -1.612029,0.25682 -4.997219,0.79236 -9.947394,2.38123 -14.010888,4.4971 -2.968397,1.54565 -4.791964,2.8454 -7.587666,5.4081 -0.685717,0.62857 -1.260214,1.1294 -1.276659,1.11296 -0.05448,-0.0545 0.997471,-3.03763 1.368269,-3.88016 0.747651,-1.69882 2.084469,-3.81275 3.432261,-5.42749 0.888211,-1.06412 2.587024,-2.68083 3.578311,-3.40536 l 0.810873,-0.59267 0.0059,-0.44016 c 0.0072,-0.53804 -0.192177,-2.09413 -0.424475,-3.31241 -1.110062,-5.82165 -3.734749,-11.40448 -7.563026,-16.08692 -0.809759,-0.99042 -3.457503,-3.65017 -4.452585,-4.47275 -1.586978,-1.31188 -3.309961,-2.52592 -4.989067,-3.51535 -0.538963,-0.31759 -0.945232,-0.57758 -0.90282,-0.57776 0.168206,-6.7e-4 3.21896,1.62775 4.247937,2.26749 2.760522,1.71627 5.597728,4.06554 7.23195,5.98821 0.34925,0.41089 0.804129,0.94056 1.010841,1.17705 0.478243,0.54712 1.640331,2.11541 2.138443,2.88593 2.532471,3.91744 4.319833,8.73491 5.057454,13.63134 0.126919,0.8425 0.259929,2.26918 0.259929,2.78802 v 0.44175 L 46.39401,41.2764 c -2.227595,1.51425 -4.573947,3.97209 -6.01485,6.30063 l -0.320786,0.51841 0.61712,-0.4156 c 1.116274,-0.75174 2.712945,-1.67854 4.012681,-2.3292 4.702389,-2.35407 10.525948,-3.94958 15.629617,-4.28212 1.222209,-0.0796 1.133966,-0.12486 1.745161,0.8943 0.921393,1.53642 1.926589,4.31114 2.754944,7.60469 0.495773,1.97119 1.026083,4.43285 0.967569,4.49137 -0.0192,0.0192 -0.141913,-0.35486 -0.272703,-0.83124 z m -31.086196,-0.7391 c 0.08138,-1.82002 0.588596,-4.36638 1.319683,-6.62517 0.389964,-1.20484 0.397841,-1.24883 0.223617,-1.24876 -0.867179,3.4e-4 -3.752657,0.38672 -5.457177,0.73075 -0.57379,0.11581 -1.076365,0.19878 -1.116832,0.18437 -0.171684,-0.0611 -1.244203,-1.53313 -1.793997,-2.46223 -1.000097,-1.69006 -1.686046,-3.36338 -2.229203,-5.43796 -0.35557,-1.3581 -0.896911,-4.31443 -0.766067,-4.18358 0.02001,0.02 0.167753,0.35989 0.328329,0.75531 0.682501,1.68064 1.706191,3.85988 3.002431,6.3916 0.401173,0.78354 1.51216,2.58455 1.974777,3.20128 0.02831,0.0377 0.562147,-0.0287 1.18631,-0.14768 1.584984,-0.3021 2.967232,-0.4688 4.352176,-0.52489 1.078177,-0.0437 2.691838,0.0502 2.804814,0.16322 0.02515,0.0251 -0.477327,1.33475 -1.116611,2.91023 -1.854463,4.57022 -2.304802,5.72017 -2.535373,6.47414 l -0.216627,0.70837 z m 68.989435,-0.20061 c -0.19328,-0.5733 -0.64454,-1.76283 -1.00279,-2.64338 -2.04348,-5.02277 -2.566025,-6.33581 -2.534085,-6.36775 0.0732,-0.0732 1.303215,-0.17895 2.119495,-0.18226 1.17366,-0.005 2.53035,0.12853 4.30292,0.42273 0.8299,0.13774 1.59281,0.27149 1.69535,0.29722 0.19679,0.0494 0.21087,0.0349 0.84117,-0.86523 0.97045,-1.38592 2.95373,-5.33185 4.34203,-8.63888 0.1799,-0.42854 0.34207,-0.76418 0.36039,-0.74587 0.0183,0.0183 -0.0506,0.5579 -0.15316,1.19908 -0.22867,1.42964 -0.73312,3.4968 -1.14361,4.68628 -0.35779,1.03673 -1.21423,2.8482 -1.82355,3.85696 -0.53064,0.87849 -1.57479,2.23904 -1.71835,2.23904 -0.0589,0 -0.44824,-0.0742 -0.86516,-0.1649 -1.70426,-0.37074 -5.63149,-0.8742 -5.76644,-0.73925 -0.0222,0.0222 0.15166,0.63905 0.38638,1.37073 0.66133,2.06148 1.09865,4.19499 1.2737,6.21384 0.0501,0.57754 0.0789,1.06222 0.0641,1.07705 -0.0148,0.0148 -0.1851,-0.44211 -0.37837,-1.01541 z"
       style="fill:#1a1a1a;fill-opacity:0.93333333;stroke-width:0.08466667;filter:url(#filter1133)" />
    <path
       style="fill:#10b981;fill-opacity:0.93333333;stroke-width:0.08466667"
       d="m 66.87932,100.85426 c -3.440624,-0.2269 -6.914572,-1.587653 -8.772079,-3.43603 -0.658877,-0.65565 -1.280425,-1.5726 -1.609997,-2.37519 L 56.26329,94.47331 55.665805,94.27346 c -1.611604,-0.53906 -2.732514,-1.2342 -3.899485,-2.41829 -1.297239,-1.31626 -1.971042,-2.5759 -2.505485,-4.68386 -0.719002,-2.83589 -0.395594,-5.33347 0.951401,-7.3474 0.555717,-0.83087 1.734339,-1.93102 2.628259,-2.45327 0.70511,-0.41194 0.728524,-0.43585 0.87044,-0.889 0.428421,-1.36796 1.489291,-2.68366 2.966052,-3.67851 0.637972,-0.42978 2.021574,-1.15432 2.386615,-1.24979 0.160078,-0.0419 0.161737,-0.069 0.04877,-0.79601 -0.134402,-0.86501 -0.08776,-2.40792 0.09697,-3.20802 l 0.117293,-0.508 0.0092,0.42333 c 0.01268,0.58496 0.226525,1.93704 0.394841,2.49645 0.07686,0.25545 0.307051,0.83671 0.51154,1.2917 0.204488,0.45499 0.371796,0.84801 0.371796,0.87337 0,0.0254 -0.142875,0.10574 -0.3175,0.17861 -0.815687,0.34036 -2.518826,1.64164 -3.19782,2.44328 -0.886239,1.04633 -1.266715,1.84488 -1.409948,2.95924 -0.04803,0.37364 -0.11438,0.73368 -0.147452,0.80006 -0.03307,0.0664 -0.248264,0.18574 -0.478205,0.26521 -0.919712,0.31789 -2.030933,1.16194 -2.630124,1.99776 -1.235304,1.72314 -1.449842,3.77361 -0.667429,6.37899 0.817904,2.72359 2.612452,4.39125 5.518644,5.12847 3.343025,0.84803 8.058856,0.0301 9.930589,-1.72245 l 0.427231,-0.40002 0.255955,-1.143 c 0.140774,-0.62865 0.334956,-1.50495 0.431513,-1.94733 0.09656,-0.44239 0.20482,-0.85732 0.240583,-0.92208 0.03576,-0.0648 0.07039,0.84854 0.07694,2.02954 0.01187,2.13875 0.01106,2.14904 -0.203042,2.58665 -0.45158,0.923 -1.895942,2.18309 -3.328084,2.9035 -0.639671,0.32178 -2.012607,0.78739 -2.893186,0.98119 -0.415309,0.0914 -1.230703,0.15573 -2.356828,0.18595 -1.409404,0.0378 -1.701293,0.0661 -1.608666,0.15552 0.268315,0.25918 2.304565,1.56178 2.997259,1.91737 1.63021,0.83684 3.443494,1.36125 5.954663,1.72212 l 1.472764,0.21164 1.278903,-0.17486 c 3.845287,-0.52577 5.81595,-1.29558 9.001525,-3.51627 0.196141,-0.13674 0.357989,-0.26766 0.359662,-0.29094 0.0017,-0.0233 -0.749356,-0.0431 -1.668954,-0.044 -1.299878,-0.001 -1.832163,-0.0363 -2.391662,-0.15717 C 72.59859,94.07777 70.37257,92.79569 69.242551,91.1866 l -0.415874,-0.59218 0.0087,-2.29388 0.0087,-2.29389 0.151435,0.635 c 0.08329,0.34925 0.295378,1.2754 0.471309,2.05811 0.344816,1.5341 0.389084,1.6208 1.095521,2.14592 0.787382,0.58529 1.742579,1.00092 3.064989,1.33365 1.246461,0.31363 2.127236,0.41473 3.623678,0.41595 3.413622,0.003 5.975729,-1.14409 7.479242,-3.34793 1.135149,-1.6639 1.689529,-4.66373 1.205999,-6.52581 -0.44958,-1.73133 -1.827549,-3.28079 -3.478821,-3.91178 l -0.581233,-0.22211 -0.05437,-0.4815 C 81.688557,76.92583 81.368204,76.08877 80.719458,75.22575 79.953119,74.2063 78.309509,72.84902 77.258824,72.368 l -0.467143,-0.21387 0.219605,-0.48207 c 0.712757,-1.56465 0.932871,-2.361 1.029857,-3.72593 l 0.06429,-0.90482 0.120148,0.508 c 0.12056,0.50975 0.170179,2.58106 0.08375,3.49634 l -0.04233,0.44833 0.635788,0.282 c 0.810057,0.35929 1.936411,1.03065 2.556,1.5235 1.014569,0.80704 1.944685,2.13799 2.278001,3.25971 0.07847,0.26407 0.184176,0.41327 0.359916,0.508 1.669954,0.90016 3.030894,2.30275 3.736274,3.85061 0.52901,1.16083 0.67889,1.94742 0.67122,3.52251 -0.007,1.4919 -0.12826,2.24308 -0.59237,3.67799 -0.96376,2.97967 -3.0958,5.13397 -6.073764,6.13718 l -0.662268,0.22311 -0.232139,0.54769 c -0.311644,0.73528 -1.092816,1.89887 -1.59261,2.37227 -0.512052,0.48501 -1.164981,1.01176 -1.25411,1.01176 -0.03737,0 -0.185851,0.0882 -0.329946,0.19601 -0.452154,0.33826 -1.919759,1.045807 -2.811883,1.355637 -0.991179,0.344223 -2.453655,0.681003 -3.546109,0.816583 -0.929794,0.1154 -3.321645,0.15538 -4.529667,0.0757 z m 0.502203,-15.51983 c -0.99044,-0.27331 -2.608564,-1.44136 -2.869529,-2.07139 -0.09388,-0.22664 -0.0822,-0.27839 0.119949,-0.53173 0.12317,-0.15437 0.231543,-0.313 0.240828,-0.35253 0.0093,-0.0395 -0.306967,-0.15675 -0.702784,-0.2605 -1.386381,-0.36342 -2.477447,-1.12413 -2.92536,-2.03963 -0.695662,-1.42189 0.271855,-2.65411 2.56608,-3.26815 l 0.681865,-0.1825 0.262584,0.18697 c 0.575823,0.41002 1.941306,0.83507 3.309498,1.03017 0.620623,0.0885 0.842014,0.0821 1.608666,-0.0462 1.123943,-0.18815 2.086973,-0.48763 2.805966,-0.87259 l 0.562299,-0.30107 0.750034,0.23246 c 0.412519,0.12786 0.971495,0.34976 1.242167,0.49314 0.605466,0.32071 1.208534,0.97236 1.335202,1.44277 0.35552,1.3203 -1.112885,2.87833 -3.142746,3.33458 -0.37084,0.0833 -0.674255,0.18451 -0.674255,0.2248 0,0.0403 0.117958,0.22219 0.26213,0.40421 l 0.262129,0.33097 -0.325629,0.42779 c -0.601023,0.78958 -1.890754,1.6335 -2.825651,1.84892 -0.752804,0.17347 -1.428689,0.0538 -0.845123,-0.14964 0.418643,-0.14594 0.93125,-0.61014 1.447633,-1.31094 l 0.488511,-0.66297 -0.201075,-0.37817 c -0.424127,-0.79768 -0.352282,-1.6181 0.186172,-2.12593 0.233671,-0.22038 0.364563,-0.27654 0.646764,-0.27754 0.866654,-0.003 2.141223,-0.49435 2.643981,-1.01911 l 0.234393,-0.24465 -0.584951,-0.26294 c -0.693779,-0.31187 -0.687193,-0.31128 -1.389284,-0.12268 -0.745153,0.20017 -2.129685,0.1346 -3.132667,-0.14838 -0.714255,-0.20152 -0.723467,-0.20191 -1.225176,-0.0518 -1.206563,0.36094 -2.862412,0.42155 -3.647251,0.13352 -0.334519,-0.12277 -0.358468,-0.11861 -0.996142,0.17328 l -0.653381,0.29907 0.318808,0.28887 c 0.561922,0.50917 1.367458,0.833 2.296425,0.92317 0.661715,0.0642 1.061445,0.31287 1.257543,0.7822 0.171938,0.4115 0.109425,1.13844 -0.140913,1.6386 l -0.199312,0.39822 0.32547,0.47256 c 0.41983,0.60958 1.130072,1.2793 1.561575,1.47249 0.186782,0.0836 0.314373,0.17728 0.283534,0.20812 -0.08906,0.089 -0.7961,0.0509 -1.218977,-0.0658 z M 47.70232,82.83607 c -1.485255,-0.57795 -2.408464,-1.18651 -3.602658,-2.37478 -0.87302,-0.86869 -1.322758,-1.42535 -2.096355,-2.59472 -1.226593,-1.85412 -1.887552,-3.36409 -2.931746,-6.69758 -0.737948,-2.35584 -3.492693,-7.60467 -6.664721,-12.69883 -0.644703,-1.03537 -1.172187,-1.90401 -1.172187,-1.93031 0,-0.0263 0.352426,0.19701 0.783167,0.49624 3.002084,2.0855 4.113746,2.79737 5.305846,3.3977 0.655168,0.32994 0.768988,0.35695 0.768988,0.18249 0,-0.24216 0.458142,-1.47483 0.80749,-2.17263 0.902451,-1.80259 2.548884,-3.70237 4.418227,-5.09807 2.894852,-2.16137 7.169646,-4.02873 11.839984,-5.17206 1.928329,-0.47207 2.035581,-0.43206 0.375632,0.14013 -2.246308,0.7743 -3.778591,1.41317 -5.757334,2.40045 -3.004407,1.49904 -5.126295,2.95314 -6.898545,4.72749 -2.16322,2.16579 -3.188686,4.20369 -3.393623,6.74412 -0.0325,0.40282 -0.08513,0.77455 -0.116971,0.82607 -0.03887,0.0629 -0.439482,-0.0595 -1.219743,-0.37257 -0.639021,-0.25643 -1.182798,-0.46623 -1.208392,-0.46623 -0.0256,0 0.0468,0.16192 0.160879,0.35983 2.698792,4.68199 3.624657,6.58769 4.304197,8.85926 0.448252,1.49843 0.622804,1.94617 1.307524,3.35391 1.198387,2.4638 2.244597,4.03213 3.600598,5.3975 0.543405,0.54716 1.021248,0.99418 1.061876,0.99338 0.04063,-8.4e-4 0.163506,-0.20854 0.273065,-0.46166 0.514521,-1.18874 1.694857,-2.5996 2.796408,-3.34255 0.554808,-0.37421 1.942119,-1.06383 2.007847,-0.99811 0.02023,0.0202 -0.195634,0.18024 -0.479699,0.35557 -1.866408,1.15202 -3.284746,3.4565 -3.506549,5.69737 -0.03344,0.33779 -0.08548,0.62881 -0.115665,0.64669 -0.03018,0.0179 -0.321573,-0.0712 -0.64754,-0.1981 z M 89.01928,82.68348 C 88.73339,80.51733 88.11962,79.1879 86.77599,77.82446 86.3336,77.37555 85.724,76.84894 85.42132,76.65419 c -0.59099,-0.38025 -0.45675,-0.37908 0.39581,0.004 1.60032,0.71801 3.24474,2.37934 3.96325,4.00401 0.26036,0.58873 0.25908,0.58913 1.25995,-0.39433 1.86915,-1.8366 3.99812,-5.58996 4.92677,-8.68587 0.73636,-2.45483 1.67656,-4.42608 4.08363,-8.56179 0.25748,-0.44239 0.48246,-0.83139 0.49995,-0.86447 0.0175,-0.0331 -0.18837,0.0373 -0.45748,0.15626 -0.58511,0.25876 -1.99805,0.79493 -2.02468,0.7683 -0.0104,-0.0104 -0.0614,-0.41864 -0.11331,-0.9073 -0.29341,-2.75918 -1.40856,-4.85767 -3.77955,-7.11232 -2.7516,-2.61658 -7.21594,-5.05148 -12.522006,-6.82964 -1.819048,-0.6096 -1.72499,-0.61282 0.686339,-0.0235 6.356957,1.55356 11.511467,4.25089 14.392217,7.53135 0.57758,0.65772 1.3774,1.8489 1.79076,2.667 0.30648,0.60659 0.78368,1.89232 0.78368,2.11152 0,0.0672 0.0365,0.1447 0.0811,0.17225 0.1063,0.0657 1.25888,-0.51385 2.3743,-1.19385 0.8254,-0.50321 1.39668,-0.88829 3.58764,-2.41836 0.4598,-0.3211 0.84682,-0.57266 0.86007,-0.55902 0.0132,0.0136 -0.52545,0.9011 -1.19712,1.97213 -2.34731,3.74296 -4.9578,8.537 -6.08259,11.17038 -0.2125,0.49751 -0.57714,1.52745 -0.81032,2.28875 -0.66496,2.17107 -1.43061,3.90829 -2.43804,5.53183 -1.27847,2.06031 -3.02114,3.86036 -4.59509,4.74638 -0.35733,0.20115 -1.88681,0.85833 -1.99763,0.85833 -0.009,0 -0.0404,-0.18098 -0.0696,-0.40217 z M 46.337297,79.08514 c -2.257284,-2.35122 -3.767453,-5.03243 -4.384772,-7.78486 -0.189978,-0.84705 -0.293475,-1.71015 -0.160441,-1.33797 0.235968,0.66015 0.910555,2.2651 1.0899,2.59304 0.992802,1.8154 3.479237,5.32329 3.773214,5.32329 0.03194,0 0.221697,-0.24503 0.421684,-0.5445 0.921451,-1.37989 2.241893,-2.45327 3.753309,-3.05104 0.547396,-0.2165 0.628235,-0.2815 0.96469,-0.77571 0.897309,-1.31804 2.33107,-2.39943 3.733447,-2.81589 0.709471,-0.21069 0.776994,-0.16212 0.193514,0.13918 -1.452153,0.74989 -2.5177,1.89466 -3.585215,3.85176 -0.09598,0.17595 -0.224237,0.2687 -0.423334,0.30614 -0.157101,0.0296 -0.530938,0.1698 -0.830748,0.31167 -1.51185,0.71541 -2.819293,2.07986 -3.586216,3.74256 -0.166461,0.36089 -0.317747,0.65617 -0.336191,0.65617 -0.01844,0 -0.298722,-0.27623 -0.622841,-0.61384 z M 90.05127,78.8956 c -0.39903,-0.82538 -1.11517,-1.86007 -1.55302,-2.24384 -0.90934,-0.79705 -1.86901,-1.38164 -2.71652,-1.65481 -0.41231,-0.1329 -0.46236,-0.17936 -0.70277,-0.65246 -0.801756,-1.57776 -2.142326,-2.95405 -3.487277,-3.58021 -0.512741,-0.23871 -0.388483,-0.27109 0.279296,-0.0728 0.602034,0.17879 1.526994,0.64813 2.063392,1.047 0.575299,0.4278 1.397879,1.29905 1.762669,1.86698 0.26754,0.4165 0.35228,0.48253 0.84113,0.6554 1.4795,0.52318 3.07117,1.83417 3.90405,3.2156 0.1474,0.24448 0.29124,0.4445 0.31965,0.4445 0.0716,0 1.05444,-1.1884 1.57547,-1.905 1.38478,-1.90456 2.72286,-4.32381 3.19913,-5.78398 0.0807,-0.2475 0.16122,-0.43553 0.1789,-0.41786 0.0626,0.0626 -0.21637,1.56046 -0.42399,2.27693 -0.72339,2.49626 -2.31454,5.12568 -4.26103,7.04147 l -0.58579,0.57654 z M 48.911858,66.78407 c -1.26048,-0.34595 -2.161664,-0.90952 -3.051147,-1.90807 -0.847014,-0.95088 -1.358214,-2.0466 -1.462942,-3.13572 -0.06367,-0.66216 0.120438,-1.67558 0.425437,-2.34178 0.13674,-0.29868 0.186711,-0.50213 0.13583,-0.55301 -0.04704,-0.047 -0.608288,-0.0655 -1.350496,-0.0444 l -1.27,0.0361 0.179927,-0.25825 c 0.372585,-0.53478 1.396262,-1.47029 1.998053,-1.82596 1.754644,-1.03703 3.709944,-1.23437 6.572467,-0.66332 2.005773,0.40013 4.372181,1.39811 5.477963,2.31021 1.007341,0.8309 1.72143,2.15172 2.0857,3.85781 0.213752,1.00113 0.373358,2.37018 0.33749,2.89487 l -0.02715,0.3972 -1.227667,-1.07213 c -1.233434,-1.07716 -2.247087,-2.05367 -2.981392,-2.87213 -0.446226,-0.49737 -0.807359,-0.69955 -2.146159,-1.20155 -1.253655,-0.47007 -2.667959,-0.8183 -4.172121,-1.02727 -0.682731,-0.0948 -1.582074,-0.22736 -1.998539,-0.29446 -0.416464,-0.0671 -0.769557,-0.10965 -0.784651,-0.0946 -0.07367,0.0737 0.171948,1.3197 0.397714,2.01767 0.364753,1.12764 0.847841,1.94855 1.5591,2.64936 1.02379,1.00875 1.894858,1.31972 3.691379,1.31782 1.489845,-0.002 2.664191,-0.2066 3.674942,-0.64159 0.15859,-0.0682 0.15859,-0.0647 0,0.213 -0.27242,0.47704 -1.108494,1.31732 -1.68346,1.69192 -1.199171,0.78129 -2.800848,0.98177 -4.380278,0.54828 z m 36.604602,0.0813 c -0.66299,-0.17832 -1.573532,-0.68388 -2.102643,-1.16746 -0.535569,-0.48948 -1.247154,-1.4753 -0.989583,-1.37095 1.1711,0.47443 2.217506,0.65131 3.838196,0.6488 1.69021,-0.003 2.61972,-0.35704 3.63212,-1.38492 0.60309,-0.61232 1.02705,-1.30707 1.37219,-2.24864 0.26424,-0.72088 0.58668,-2.24804 0.49417,-2.34055 -0.0258,-0.0258 -0.25304,-0.007 -0.50505,0.0418 -0.25201,0.0488 -1.0399,0.16332 -1.75086,0.25453 -2.12102,0.27212 -3.72694,0.68641 -5.444438,1.40455 l -0.895092,0.37426 -1.085691,1.14698 c -1.170132,1.2362 -3.621556,3.4015 -3.673736,3.24496 -0.05764,-0.17292 0.16585,-2.21819 0.329052,-3.01137 0.291409,-1.41627 0.686254,-2.36493 1.364231,-3.27774 1.176136,-1.58352 4.609146,-3.01788 8.031324,-3.35562 1.76567,-0.17425 3.08732,0.0448 4.42584,0.73365 0.62435,0.3213 0.93608,0.55559 1.55287,1.16712 1.18048,1.17041 1.19269,1.12088 -0.26554,1.07701 -0.66994,-0.0202 -1.27563,-0.0146 -1.34598,0.0124 -0.10887,0.0418 -0.0964,0.12038 0.0841,0.52836 0.61272,1.38546 0.59748,2.81163 -0.0439,4.10428 -0.35886,0.72328 -0.67614,1.14921 -1.33117,1.78703 -0.88627,0.86296 -1.79099,1.3697 -2.92107,1.63612 -0.67875,0.16001 -2.16634,0.1575 -2.76932,-0.005 z M 69.527804,59.37895 c 0.01354,-4.44496 0.481765,-9.95037 1.302483,-15.31456 l 0.30287,-1.97956 -0.186868,-0.68744 c -0.482037,-1.77329 -1.170831,-3.68626 -1.86325,-5.17478 l -0.354463,-0.762 -0.25972,0.508 c -0.599893,1.17337 -1.504717,3.65243 -1.976447,5.41514 l -0.203451,0.76022 0.163578,0.97632 c 0.841575,5.02296 1.339297,10.36114 1.397515,14.98866 0.02594,2.06219 0.01553,2.5077 -0.04155,1.778 -0.434367,-5.55228 -1.260783,-11.034 -2.425205,-16.08667 -0.177071,-0.76835 -0.318331,-1.56845 -0.313911,-1.778 0.01089,-0.51653 0.698508,-3.24625 1.179905,-4.68403 0.215522,-0.6437 0.378773,-1.18311 0.362778,-1.19868 -0.04961,-0.0483 -2.507609,0.20434 -3.754346,0.38588 -2.786557,0.40577 -6.483002,1.08214 -9.643793,1.76461 -0.880217,0.19005 -1.67569,0.34555 -1.767719,0.34555 -0.09693,0 -0.459946,-0.29386 -0.862864,-0.6985 -0.755697,-0.75891 -1.197491,-1.51745 -1.440418,-2.47312 -0.141401,-0.55627 -0.169354,-2.01027 -0.04865,-2.53043 0.06546,-0.28208 0.01292,-0.52034 -0.392067,-1.778 C 47.071161,26.09041 45.191688,22.6639 42.143197,19.19767 39.077986,15.71244 34.2659,12.32726 27.054984,8.5834903 25.779239,7.9211499 22.209182,6.2082799 22.104436,6.2082799 c -0.03557,0 -0.222793,0.65723 -0.416043,1.4605 -1.846341,7.6745901 -1.907344,15.3828601 -0.18589,23.4889101 1.074759,5.06087 3.264694,11.03547 5.55605,15.15806 l 0.292243,0.5258 0.435949,-0.17184 c 1.1667,-0.45987 3.33759,-0.73232 5.004959,-0.62814 l 0.955797,0.0597 -0.189174,0.78251 c -0.400488,1.6566 -0.47903,2.32193 -0.520531,4.40948 l -0.0404,2.032 0.663794,0.41807 c 0.365086,0.22994 0.970482,0.59527 1.345322,0.81184 l 0.681529,0.39378 0.757805,-0.88494 c 2.160561,-2.52301 5.030601,-4.67568 8.631805,-6.47428 1.4295,-0.71396 2.070519,-0.99166 3.77869,-1.63696 2.860197,-1.08052 6.463415,-2.02017 9.341729,-2.43614 l 0.843752,-0.12194 0.268221,0.22395 c 1.879928,1.56966 3.894571,6.1465 5.538824,12.58303 0.235381,0.92142 0.410028,1.69324 0.388106,1.71516 -0.02192,0.0219 -0.08246,-0.12591 -0.134537,-0.32852 -0.169887,-0.66102 -1.277598,-3.89703 -1.734603,-5.06738 -1.378127,-3.52927 -2.842574,-6.22111 -4.066444,-7.47464 -0.271679,-0.27826 -0.54646,-0.48403 -0.646379,-0.48403 -0.230405,0 -2.386848,0.52189 -3.526535,0.85348 -4.574431,1.3309 -8.989193,3.38058 -12.139578,5.63617 -1.383805,0.99077 -2.001278,1.50695 -3.105206,2.59582 -1.108349,1.09324 -2.074861,2.26055 -2.857129,3.45072 -0.301862,0.45926 -0.577686,0.85285 -0.612941,0.87464 -0.103874,0.0642 -3.796222,-1.98113 -4.739485,-2.62537 -1.098795,-0.75047 -1.040836,-0.65465 -1.135461,-1.87723 -0.08262,-1.06753 -0.0354,-4.20303 0.06882,-4.56906 0.04814,-0.16908 0.02387,-0.1905 -0.215802,-0.1905 -0.376306,0 -1.68972,0.32967 -1.978776,0.49668 -0.131669,0.0761 -0.506749,0.50979 -0.83351,0.96382 -0.32676,0.45402 -0.619081,0.82477 -0.6496,0.82388 -0.08644,-0.002 -1.345679,-1.94661 -1.938742,-2.99312 -2.383581,-4.20606 -4.340977,-9.12811 -5.644096,-14.1926 -2.603211,-10.1172 -2.421545,-20.31495 0.532861,-29.9119901 0.226373,-0.73535 0.431029,-1.35644 0.45479,-1.3802 0.02376,-0.0238 0.719102,0.24611 1.545204,0.5997 5.820254,2.49125 11.650356,5.7065204 16.255159,8.9646301 3.471452,2.45621 6.240166,5.24343 8.414552,8.47078 2.054849,3.04993 3.257198,5.66825 4.619733,10.06026 l 0.623617,2.01017 -0.169842,0.44516 c -0.253715,0.665 -0.19027,1.87931 0.130739,2.50231 0.127097,0.24666 0.282303,0.46813 0.344902,0.49215 0.0626,0.024 1.137376,-0.12854 2.388392,-0.33902 3.994474,-0.67206 7.245585,-1.07602 9.894574,-1.22942 1.815883,-0.10516 8.54322,-0.0582 9.948333,0.0694 2.431076,0.22082 6.655384,0.80021 9.313333,1.27738 0.535517,0.0961 1.149917,0.19752 1.365334,0.22529 l 0.39167,0.0505 0.28553,-0.58 c 0.25652,-0.52106 0.28555,-0.65334 0.28567,-1.30171 8e-5,-0.50355 -0.049,-0.85419 -0.16251,-1.15995 l -0.16264,-0.43823 0.32418,-1.08577 c 0.91717,-3.07185 1.59792,-4.90258 2.58025,-6.93893 2.44769,-5.07407 5.81319,-8.99249 10.78999,-12.56273 3.38836,-2.43072 7.86489,-5.0193001 12.62354,-7.2996101 2.32414,-1.11372 5.0952,-2.32852 5.15248,-2.25879 0.0599,0.0729 0.99197,3.30512 1.24288,4.30996 0.57187,2.2901701 1.04834,5.0609101 1.32494,7.7046601 0.18779,1.79499 0.21446,8.05751 0.0418,9.82134 -0.36952,3.77525 -0.96329,7.02743 -1.92452,10.541 -1.24449,4.5489 -3.26197,9.48887 -5.39413,13.208 -0.48947,0.85376 -1.84948,2.921 -1.92171,2.921 -0.0337,0 -0.3176,-0.36412 -0.63089,-0.80916 -0.31329,-0.44503 -0.6892,-0.88186 -0.83534,-0.97074 -0.27509,-0.16729 -1.57503,-0.5061 -1.94181,-0.5061 h -0.20865 l 0.0398,1.9311 c 0.0219,1.06211 0.0119,2.37726 -0.0222,2.92255 l -0.0619,0.99145 -0.47839,0.36687 c -0.76168,0.58413 -2.30702,1.50093 -4.42357,2.62438 l -0.89719,0.47621 -0.72949,-1.07911 C 97.30027,52.51223 92.5809,49.14282 85.7577,46.56435 83.703999,45.78827 80.121542,44.74715 78.98677,44.59662 l -0.388048,-0.0515 -0.506583,0.54154 c -1.620772,1.73261 -3.507413,5.61916 -5.204132,10.72071 -0.366799,1.10286 -0.668293,1.9671 -0.669987,1.92053 -0.0075,-0.20622 0.955855,-3.78199 1.391423,-5.16466 1.361177,-4.32094 2.723433,-7.10411 4.237349,-8.65717 0.529642,-0.54334 0.535422,-0.54377 2.546672,-0.19134 6.680136,1.17055 13.120936,3.87519 17.473836,7.33764 0.81993,0.65221 2.81136,2.60855 3.44938,3.38861 l 0.42784,0.52308 1.13496,-0.69241 c 0.62422,-0.38083 1.22823,-0.76008 1.34222,-0.84278 l 0.20728,-0.15036 -0.0101,-1.5853 c -0.0119,-1.87247 -0.11642,-2.87448 -0.46012,-4.41262 -0.13936,-0.62368 -0.23144,-1.15591 -0.20463,-1.18272 0.0931,-0.0931 3.21858,-0.0457 3.84986,0.0584 0.85712,0.14139 1.65981,0.34528 2.09793,0.53289 l 0.36228,0.15514 0.16976,-0.27321 c 0.31852,-0.51256 1.84265,-3.65708 2.32406,-4.79487 2.24746,-5.31176 3.71589,-10.92275 4.31179,-16.47566 0.32523,-3.03066 0.38116,-7.26905 0.13181,-9.99067 -0.15418,-1.68288 -0.57869,-4.67589 -0.81039,-5.71364 -0.29072,-1.3020601 -0.79115,-3.3248201 -0.8329,-3.3665701 -0.0882,-0.0882 -4.53821,2.09629 -7.07701,3.4741101 -4.0399,2.19248 -7.95309,4.77673 -10.28701,6.79349 -2.21625,1.91508 -4.44631,4.57269 -5.89533,7.0256 -1.50878,2.55407 -2.42452,4.63625 -3.41818,7.77218 l -0.39709,1.25317 0.10361,0.72986 c 0.18452,1.29989 -0.0786,2.60424 -0.74749,3.70566 -0.37899,0.62404 -1.4155,1.65181 -1.66586,1.65181 -0.18669,0 -1.72572,-0.32109 -1.820855,-0.37988 -0.02982,-0.0184 -1.461644,-0.30195 -3.181842,-0.63004 -4.4069,-0.84054 -6.597319,-1.17462 -9.7528,-1.48749 -0.244475,-0.0242 -0.4445,-0.0256 -0.4445,-0.003 0,0.0226 0.08986,0.28014 0.199695,0.57224 0.468185,1.24517 1.408971,4.81258 1.408971,5.34275 0,0.11686 -0.155178,0.91084 -0.344842,1.76441 -0.320861,1.44402 -0.972343,4.70402 -1.173056,5.86994 -0.39125,2.27274 -0.949546,6.62193 -1.108583,8.636 -0.207241,2.6245 -0.233509,2.74624 -0.228368,1.05833 z m 2.431516,-6.7132 c 0,-0.13951 0.549537,-2.69671 0.813489,-3.78547 0.976113,-4.02631 2.042152,-6.99094 3.121137,-8.6798 0.455314,-0.71267 0.390459,-0.68726 1.576469,-0.61748 1.084499,0.0638 2.259238,0.19022 2.997905,0.32259 0.232834,0.0417 0.709083,0.11915 1.058334,0.17206 0.873349,0.13231 2.708927,0.54578 3.979336,0.89634 4.37294,1.20671 8.46058,3.03846 11.53583,5.16942 0.36089,0.25007 0.65617,0.4335 0.65617,0.40762 0,-0.11487 -1.24718,-1.89011 -1.85613,-2.64203 -1.27157,-1.57009 -3.07019,-3.24404 -4.39254,-4.08805 -0.32831,-0.20955 -0.61896,-0.43225 -0.6459,-0.49489 -0.0828,-0.19247 0.11216,-2.3543 0.3369,-3.73651 0.78759,-4.84404 2.68131,-9.70849 5.23777,-13.45445 0.82383,-1.20716 0.80121,-1.1751 1.23161,-1.74515 1.19328,-1.58048 3.63929,-4.07381 5.31369,-5.4165 2.16816,-1.73864 5.57601,-3.85075 7.49577,-4.64572 0.4291,-0.17769 0.40256,-0.10153 -0.0423,0.12149 -1.50618,0.75503 -4.31908,2.77127 -6.2865,4.50604 -6.26103,5.52065 -10.4934,13.49169 -11.5554,21.76284 -0.24692,1.92305 -0.29997,1.71481 0.61222,2.40348 2.79085,2.107 5.05298,4.85336 6.713025,8.15003 0.492935,0.97889 1.877085,4.65667 1.752575,4.65667 -0.0401,0 -0.24163,-0.17964 -1.887055,-1.68219 C 98.12702,48.78623 96.56971,47.61649 94.69232,46.46539 93.49018,45.7283 90.60795,44.30445 89.14665,43.72577 85.51081,42.28595 81.08832,41.13955 77.389809,40.67815 l -0.538511,-0.0672 -0.284369,0.38815 c -0.327732,0.44735 -1.247422,2.20935 -1.638856,3.13983 -0.146923,0.34925 -0.322548,0.73613 -0.390276,0.85973 -0.06773,0.1236 -0.123144,0.26182 -0.123144,0.30716 0,0.0453 -0.06369,0.22996 -0.141542,0.41027 -0.355861,0.82425 -1.542228,4.40677 -1.987088,6.0005 -0.233071,0.83499 -0.326703,1.10701 -0.326703,0.94914 z m -6.810184,-0.92967 c -0.372342,-1.35617 -1.582298,-4.97353 -2.116339,-6.32713 -0.614189,-1.55675 -1.519041,-3.41974 -2.046084,-4.21267 -0.381645,-0.57417 -0.425157,-0.61158 -0.665697,-0.5723 -0.14155,0.0231 -0.866962,0.13869 -1.612029,0.25682 -4.997219,0.79236 -9.947394,2.38123 -14.010888,4.4971 -2.968397,1.54565 -4.791964,2.8454 -7.587666,5.4081 -0.685717,0.62857 -1.260214,1.1294 -1.276659,1.11296 -0.05448,-0.0545 0.997471,-3.03763 1.368269,-3.88016 0.747651,-1.69882 2.084469,-3.81275 3.432261,-5.42749 0.888211,-1.06412 2.587024,-2.68083 3.578311,-3.40536 l 0.810873,-0.59267 0.0059,-0.44016 c 0.0072,-0.53804 -0.192177,-2.09413 -0.424475,-3.31241 -1.110062,-5.82165 -3.734749,-11.40448 -7.563026,-16.08692 -0.809759,-0.99042 -3.457503,-3.65017 -4.452585,-4.47275 -1.586978,-1.31188 -3.309961,-2.52592 -4.989067,-3.51535 -0.538963,-0.31759 -0.945232,-0.57758 -0.90282,-0.57776 0.168206,-6.7e-4 3.21896,1.62775 4.247937,2.26749 2.760522,1.71627 5.597728,4.06554 7.23195,5.98821 0.34925,0.41089 0.804129,0.94056 1.010841,1.17705 0.478243,0.54712 1.640331,2.11541 2.138443,2.88593 2.532471,3.91744 4.319833,8.73491 5.057454,13.63134 0.126919,0.8425 0.259929,2.26918 0.259929,2.78802 v 0.44175 l -0.613604,0.41712 c -2.227595,1.51425 -4.573947,3.97209 -6.01485,6.30063 l -0.320786,0.51841 0.61712,-0.4156 c 1.116274,-0.75174 2.712945,-1.67854 4.012681,-2.3292 4.702389,-2.35407 10.525948,-3.94958 15.629617,-4.28212 1.222209,-0.0796 1.133966,-0.12486 1.745161,0.8943 0.921393,1.53642 1.926589,4.31114 2.754944,7.60469 0.495773,1.97119 1.026083,4.43285 0.967569,4.49137 -0.0192,0.0192 -0.141913,-0.35486 -0.272703,-0.83124 z M 34.06294,50.99698 c 0.08138,-1.82002 0.588596,-4.36638 1.319683,-6.62517 0.389964,-1.20484 0.397841,-1.24883 0.223617,-1.24876 -0.867179,3.4e-4 -3.752657,0.38672 -5.457177,0.73075 -0.57379,0.11581 -1.076365,0.19878 -1.116832,0.18437 -0.171684,-0.0611 -1.244203,-1.53313 -1.793997,-2.46223 -1.000097,-1.69006 -1.686046,-3.36338 -2.229203,-5.43796 -0.35557,-1.3581 -0.896911,-4.31443 -0.766067,-4.18358 0.02001,0.02 0.167753,0.35989 0.328329,0.75531 0.682501,1.68064 1.706191,3.85988 3.002431,6.3916 0.401173,0.78354 1.51216,2.58455 1.974777,3.20128 0.02831,0.0377 0.562147,-0.0287 1.18631,-0.14768 1.584984,-0.3021 2.967232,-0.4688 4.352176,-0.52489 1.078177,-0.0437 2.691838,0.0502 2.804814,0.16322 0.02515,0.0251 -0.477327,1.33475 -1.116611,2.91023 -1.854463,4.57022 -2.304802,5.72017 -2.535373,6.47414 l -0.216627,0.70837 z m 68.98944,-0.20061 c -0.19328,-0.5733 -0.64454,-1.76283 -1.00279,-2.64338 -2.04348,-5.02277 -2.56603,-6.33581 -2.53409,-6.36775 0.0732,-0.0732 1.30322,-0.17895 2.1195,-0.18226 1.17366,-0.005 2.53035,0.12853 4.30292,0.42273 0.8299,0.13774 1.59281,0.27149 1.69535,0.29722 0.19679,0.0494 0.21087,0.0349 0.84117,-0.86523 0.97045,-1.38592 2.95373,-5.33185 4.34203,-8.63888 0.1799,-0.42854 0.34207,-0.76418 0.36039,-0.74587 0.0183,0.0183 -0.0506,0.5579 -0.15316,1.19908 -0.22867,1.42964 -0.73312,3.4968 -1.14361,4.68628 -0.35779,1.03673 -1.21423,2.8482 -1.82355,3.85696 -0.53064,0.87849 -1.57479,2.23904 -1.71835,2.23904 -0.0589,0 -0.44824,-0.0742 -0.86516,-0.1649 -1.70426,-0.37074 -5.63149,-0.8742 -5.76644,-0.73925 -0.0222,0.0222 0.15166,0.63905 0.38638,1.37073 0.66133,2.06148 1.09865,4.19499 1.2737,6.21384 0.0501,0.57754 0.0789,1.06222 0.0641,1.07705 -0.0148,0.0148 -0.1851,-0.44211 -0.37837,-1.01541 z"
       id="path1115" />
  </g>
  <g
     transform="translate(-3.329037)"
     id="g1157">
    <path
       id="path1137"
       d="m 100.99427,105.92694 c -2.58372,0 -4.49032,0.48159 -5.7202,1.44454 -1.22037,0.9534 -1.83082,2.33117 -1.83082,4.13309 0,1.66846 0.47693,2.94126 1.43034,3.8184 0.96294,0.87714 2.43574,1.49636 4.41882,1.85865 l 2.54598,0.45785 c 1.42057,0.25741 2.4071,0.69588 2.96008,1.31559 0.55298,0.61018 0.82935,1.43985 0.82935,2.48861 0,1.38243 -0.35742,2.38821 -1.07247,3.01744 -0.71506,0.61971 -1.9593,0.92932 -3.73263,0.92932 -1.91634,0 -3.25096,-0.2618 -4.00414,-0.78616 -0.7532,-0.5339 -1.12985,-1.46389 -1.12985,-2.78911 h -2.35966 c 0,2.03074 0.58655,3.48023 1.75924,4.34782 1.18222,0.8676 3.01244,1.30138 5.49129,1.30138 2.6314,0 4.54323,-0.51951 5.73499,-1.55872 1.20128,-1.03919 1.80183,-2.56504 1.80183,-4.57671 0,-1.71616 -0.4956,-3.05075 -1.48715,-4.00416 -0.98199,-0.95341 -2.49794,-1.61577 -4.54776,-1.98761 l -2.54597,-0.45783 c -1.38244,-0.24787 -2.33108,-0.64321 -2.84592,-1.18664 -0.50529,-0.55298 -0.75776,-1.31096 -0.75776,-2.27388 0,-1.19176 0.39066,-2.05935 1.17244,-2.6028 0.79132,-0.54342 2.06414,-0.81513 3.8184,-0.81513 1.14408,0 2.03557,0.1044 2.67435,0.31413 0.63878,0.20021 1.08715,0.52961 1.34457,0.98725 0.25742,0.45763 0.38627,1.07687 0.38627,1.85865 h 2.27389 c 0,-1.88774 -0.51017,-3.23168 -1.53033,-4.03256 -1.02014,-0.80085 -2.71273,-1.20141 -5.07718,-1.20141 z m -20.879068,0.0716 c -2.259556,0 -4.071103,0.40058 -5.434483,1.20143 -1.363368,0.80086 -2.350466,1.99262 -2.960648,3.57528 -0.600642,1.57312 -0.900917,3.53219 -0.900917,5.87756 0,2.36445 0.290944,4.36199 0.872517,5.99231 0.581573,1.63031 1.54945,2.86465 2.903277,3.70364 1.363355,0.82947 3.203491,1.24459 5.520254,1.24459 2.326313,0 4.161208,-0.4198 5.505498,-1.25878 1.35384,-0.83899 2.32171,-2.06868 2.90328,-3.68945 0.58157,-1.63032 0.87252,-3.63253 0.87252,-6.00652 0,-2.3263 -0.30028,-4.27604 -0.90092,-5.84916 -0.60064,-1.58264 -1.58308,-2.77442 -2.94645,-3.57526 -1.35382,-0.8104 -3.164822,-1.21564 -5.433928,-1.21564 z m -49.281875,0.4431 v 20.60806 h 2.231286 v -18.39102 h 0.514647 l 5.949132,15.90241 h 3.303754 l 5.992305,-15.90241 h 0.514647 v 18.39102 h 2.230711 v -20.6081 h -4.247268 l -5.891759,15.65986 H 40.93032 L 35.066397,106.4416 Z m 49.281875,1.68766 c 1.811478,0 3.198558,0.31485 4.161508,0.94408 0.97247,0.61971 1.63949,1.55845 2.0018,2.81695 0.37182,1.24894 0.55781,2.82728 0.55781,4.73408 0,1.92588 -0.17609,3.54619 -0.52885,4.8619 -0.35275,1.30616 -1.01103,2.29793 -1.97395,2.97484 -0.96295,0.66737 -2.368714,1.0009 -4.218318,1.0009 -1.830525,0 -3.232195,-0.32418 -4.204672,-0.9725 -0.962923,-0.64832 -1.625855,-1.62085 -1.988148,-2.91747 -0.362293,-1.29664 -0.543047,-2.90762 -0.543047,-4.83349 0,-1.91635 0.176091,-3.50867 0.528847,-4.7767 0.362293,-1.27755 1.025225,-2.23552 1.98815,-2.8743 0.972475,-0.63879 2.378817,-0.95829 4.21887,-0.95829 z m -24.826972,4.46198 5.305551,7.2937 -5.262378,7.16476 h 2.488034 l 4.118901,-5.67761 4.104126,5.67761 h 2.560179 l -5.291339,-7.20793 5.262929,-7.25053 h -2.488596 l -4.118901,5.76338 -4.118325,-5.76338 z"
       style="font-style:normal;font-variant:normal;font-weight:normal;font-stretch:normal;font-size:26.64449883px;line-height:1.25;font-family:Metrophobic;-inkscape-font-specification:Metrophobic;letter-spacing:0px;word-spacing:0px;fill:#35d6a1;fill-opacity:1;stroke:none;stroke-width:4.39328146;filter:url(#filter1151)" />
    <path
       style="font-style:normal;font-variant:normal;font-weight:normal;font-stretch:normal;font-size:26.64449883px;line-height:1.25;font-family:Metrophobic;-inkscape-font-specification:Metrophobic;letter-spacing:0px;word-spacing:0px;fill:#000000;fill-opacity:1;stroke:none;stroke-width:4.39328146"
       d="m 101.52344,106.98528 c -2.583723,0 -4.490323,0.48159 -5.720203,1.44454 -1.22037,0.9534 -1.83082,2.33117 -1.83082,4.13309 0,1.66846 0.47693,2.94126 1.43034,3.8184 0.96294,0.87714 2.43574,1.49636 4.41882,1.85865 l 2.545983,0.45785 c 1.42057,0.25741 2.4071,0.69588 2.96008,1.31559 0.55298,0.61018 0.82935,1.43985 0.82935,2.48861 0,1.38243 -0.35742,2.38821 -1.07247,3.01744 -0.71506,0.61971 -1.9593,0.92932 -3.73263,0.92932 -1.916343,0 -3.250963,-0.2618 -4.004143,-0.78616 -0.7532,-0.5339 -1.12985,-1.46389 -1.12985,-2.78911 h -2.35966 c 0,2.03074 0.58655,3.48023 1.75924,4.34782 1.18222,0.8676 3.01244,1.30138 5.491293,1.30138 2.6314,0 4.54323,-0.51951 5.73499,-1.55872 1.20128,-1.03919 1.80183,-2.56504 1.80183,-4.57671 0,-1.71616 -0.4956,-3.05075 -1.48715,-4.00416 -0.98199,-0.95341 -2.49794,-1.61577 -4.54776,-1.98761 l -2.54597,-0.45783 c -1.382443,-0.24787 -2.331083,-0.64321 -2.845923,-1.18664 -0.50529,-0.55298 -0.75776,-1.31096 -0.75776,-2.27388 0,-1.19176 0.39066,-2.05935 1.17244,-2.6028 0.79132,-0.54342 2.06414,-0.81513 3.818403,-0.81513 1.14408,0 2.03557,0.1044 2.67435,0.31413 0.63878,0.20021 1.08715,0.52961 1.34457,0.98725 0.25742,0.45763 0.38627,1.07687 0.38627,1.85865 h 2.27389 c 0,-1.88774 -0.51017,-3.23168 -1.53033,-4.03256 -1.02014,-0.80085 -2.71273,-1.20141 -5.07718,-1.20141 z m -20.879071,0.0716 c -2.259556,0 -4.071103,0.40058 -5.434483,1.20143 -1.363368,0.80086 -2.350466,1.99262 -2.960648,3.57528 -0.600642,1.57312 -0.900917,3.53219 -0.900917,5.87756 0,2.36445 0.290944,4.36199 0.872517,5.99231 0.581573,1.63031 1.54945,2.86465 2.903277,3.70364 1.363355,0.82947 3.203491,1.24459 5.520254,1.24459 2.326313,0 4.161208,-0.4198 5.505498,-1.25878 1.35384,-0.83899 2.32171,-2.06868 2.90328,-3.68945 0.58157,-1.63032 0.87252,-3.63253 0.87252,-6.00652 0,-2.3263 -0.30028,-4.27604 -0.90092,-5.84916 -0.60064,-1.58264 -1.58308,-2.77442 -2.94645,-3.57526 -1.35382,-0.8104 -3.164822,-1.21564 -5.433928,-1.21564 z m -49.281875,0.4431 v 20.60806 h 2.231286 v -18.39102 h 0.514647 l 5.949132,15.90241 h 3.303754 l 5.992305,-15.90241 h 0.514647 v 18.39102 h 2.230711 v -20.6081 h -4.247268 l -5.891759,15.65986 h -0.500462 l -5.863923,-15.65986 z m 49.281875,1.68766 c 1.811478,0 3.198558,0.31485 4.161508,0.94408 0.97247,0.61971 1.63949,1.55845 2.0018,2.81695 0.37182,1.24894 0.55781,2.82728 0.55781,4.73408 0,1.92588 -0.17609,3.54619 -0.52885,4.8619 -0.35275,1.30616 -1.01103,2.29793 -1.97395,2.97484 -0.96295,0.66737 -2.368714,1.0009 -4.218318,1.0009 -1.830525,0 -3.232195,-0.32418 -4.204672,-0.9725 -0.962923,-0.64832 -1.625855,-1.62085 -1.988148,-2.91747 -0.362293,-1.29664 -0.543047,-2.90762 -0.543047,-4.83349 0,-1.91635 0.176091,-3.50867 0.528847,-4.7767 0.362293,-1.27755 1.025225,-2.23552 1.98815,-2.8743 0.972475,-0.63879 2.378817,-0.95829 4.21887,-0.95829 z m -24.826972,4.46198 5.305551,7.2937 -5.262378,7.16476 h 2.488034 l 4.118901,-5.67761 4.104126,5.67761 h 2.560179 l -5.291339,-7.20793 5.262929,-7.25053 h -2.488596 l -4.118901,5.76338 -4.118325,-5.76338 z"
       id="path425" />
  </g>
</svg>
