<?xml version="1.0" encoding="UTF-8" standalone="no"?>
<!--
Propuesta ch2 para logotipo proyecto MxOS.
Autor: Miguel Angel Marcial Martinez @fitorec
Licencia: Creative Commons CC BY-SA 4.0
-->
<svg
   xmlns:dc="http://purl.org/dc/elements/1.1/"
   xmlns:cc="http://creativecommons.org/ns#"
   xmlns:rdf="http://www.w3.org/1999/02/22-rdf-syntax-ns#"
   xmlns:svg="http://www.w3.org/2000/svg"
   xmlns="http://www.w3.org/2000/svg"
   id="propuesta-00"
   version="1.1"
   viewBox="0 0 132.29167 132.29167"
   height="500"
   width="500">
  <defs
     id="defs248">
    <filter
       style="color-interpolation-filters:sRGB"
       id="filter3238"
       x="-0.026996003"
       width="1.053992"
       y="-0.05401599"
       height="1.108032">
      <feGaussianBlur
         stdDeviation="0.72001796"
         id="feGaussianBlur3240" />
    </filter>
    <filter
       style="color-interpolation-filters:sRGB"
       id="filter3250"
       x="-0.017742332"
       width="1.0354847"
       y="-0.03707692"
       height="1.0741538">
      <feGaussianBlur
         stdDeviation="0.50545754"
         id="feGaussianBlur3252" />
    </filter>
    <filter
       style="color-interpolation-filters:sRGB"
       id="filter3190"
       x="-0.024"
       width="1.048"
       y="-0.024"
       height="1.048">
      <feGaussianBlur
         stdDeviation="1.6404166"
         id="feGaussianBlur3192" />
    </filter>
    <filter
       style="color-interpolation-filters:sRGB"
       id="filter3304"
       x="-0.061970063"
       width="1.1239401"
       y="-0.13033222"
       height="1.2606643">
      <feGaussianBlur
         stdDeviation="1.7767668"
         id="feGaussianBlur3306" />
    </filter>
    <filter
       style="color-interpolation-filters:sRGB"
       id="filter1616"
       x="-0.06943077"
       width="1.1388615"
       y="-0.13285526"
       height="1.2657105">
      <feGaussianBlur
         stdDeviation="1.8790961"
         id="feGaussianBlur1618" />
    </filter>
    <filter
       style="color-interpolation-filters:sRGB"
       id="filter2205"
       x="-0.027800612"
       width="1.0556012"
       y="-0.051059158"
       height="1.1021183">
      <feGaussianBlur
         stdDeviation="1.0586831"
         id="feGaussianBlur2207" />
    </filter>
    <filter
       style="color-interpolation-filters:sRGB"
       id="filter3304-8"
       x="-0.061970063"
       width="1.1239401"
       y="-0.13033222"
       height="1.2606643">
      <feGaussianBlur
         stdDeviation="1.7767668"
         id="feGaussianBlur3306-9" />
    </filter>
    <filter
       style="color-interpolation-filters:sRGB"
       id="filter3376"
       x="-0.11876316"
       width="1.2375263"
       y="-0.22725242"
       height="1.4545048">
      <feGaussianBlur
         stdDeviation="3.2142434"
         id="feGaussianBlur3378" />
    </filter>
    <filter
       style="color-interpolation-filters:sRGB"
       id="filter3250-7"
       x="-0.017742332"
       width="1.0354847"
       y="-0.03707692"
       height="1.0741538">
      <feGaussianBlur
         stdDeviation="0.50545754"
         id="feGaussianBlur3252-3" />
    </filter>
    <filter
       style="color-interpolation-filters:sRGB"
       id="filter3238-6"
       x="-0.026996003"
       width="1.053992"
       y="-0.05401599"
       height="1.108032">
      <feGaussianBlur
         stdDeviation="0.72001796"
         id="feGaussianBlur3240-1" />
    </filter>
    <filter
       height="1.1644104"
       y="-0.082205176"
       width="1.0460926"
       x="-0.023046322"
       id="filter1151"
       style="color-interpolation-filters:sRGB">
      <feGaussianBlur
         id="feGaussianBlur1153"
         stdDeviation="0.74212127" />
    </filter>
    <filter
       height="1.4633236"
       y="-0.23166182"
       width="1.1408264"
       x="-0.070413205"
       id="filter1251"
       style="color-interpolation-filters:sRGB">
      <feGaussianBlur
         id="feGaussianBlur1253"
         stdDeviation="2.5812169" />
    </filter>
  </defs>
  <metadata
     id="metadata251">
    <rdf:RDF>
      <cc:Work
         rdf:about="">
        <dc:format>image/svg+xml</dc:format>
        <dc:type
           rdf:resource="http://purl.org/dc/dcmitype/StillImage" />
        <dc:title></dc:title>
      </cc:Work>
    </rdf:RDF>
  </metadata>
  <path
     id="path1201"
     d="M 112.24887,99.649039 96.403223,94.539358 55.954318,94.988792 39.999471,92.966347 27.640085,99.258398 24.269343,109.37062 82.470823,119.70757 Z"
     style="fill:#cccccc;stroke:none;stroke-width:0.26458335px;stroke-linecap:butt;stroke-linejoin:miter;stroke-opacity:1;filter:url(#filter1251);fill-opacity:0.60439563" />
  <g
     transform="matrix(1.089072,0,0,1.089072,84.463724,-60.571898)"
     id="g1199">
    <path
       id="path1137"
       d="m 15.86856,151.76903 c -2.58372,0 -4.49032,0.48159 -5.7202,1.44454 -1.22037,0.9534 -1.83082,2.33117 -1.83082,4.13309 0,1.66846 0.47693,2.94126 1.43034,3.8184 0.96294,0.87714 2.43574,1.49636 4.41882,1.85865 l 2.54598,0.45785 c 1.42057,0.25741 2.4071,0.69588 2.96008,1.31559 0.55298,0.61018 0.82935,1.43985 0.82935,2.48861 0,1.38243 -0.35742,2.38821 -1.07247,3.01744 -0.71506,0.61971 -1.9593,0.92932 -3.73263,0.92932 -1.91634,0 -3.25096,-0.2618 -4.00414,-0.78616 -0.7532,-0.5339 -1.12985,-1.46389 -1.12985,-2.78911 H 8.20336 c 0,2.03074 0.58655,3.48023 1.75924,4.34782 1.18222,0.8676 3.01244,1.30138 5.49129,1.30138 2.6314,0 4.54323,-0.51951 5.73499,-1.55872 1.20128,-1.03919 1.80183,-2.56504 1.80183,-4.57671 0,-1.71616 -0.4956,-3.05075 -1.48715,-4.00416 -0.98199,-0.95341 -2.49794,-1.61577 -4.54776,-1.98761 l -2.54597,-0.45783 c -1.38244,-0.24787 -2.33108,-0.64321 -2.84592,-1.18664 -0.50529,-0.55298 -0.75776,-1.31096 -0.75776,-2.27388 0,-1.19176 0.39066,-2.05935 1.17244,-2.6028 0.79132,-0.54342 2.06414,-0.81513 3.8184,-0.81513 1.14408,0 2.03557,0.1044 2.67435,0.31413 0.63878,0.20021 1.08715,0.52961 1.34457,0.98725 0.25742,0.45763 0.38627,1.07687 0.38627,1.85865 h 2.27389 c 0,-1.88774 -0.51017,-3.23168 -1.53033,-4.03256 -1.02014,-0.80085 -2.71273,-1.20141 -5.07718,-1.20141 z m -20.879068,0.0716 c -2.259556,0 -4.071103,0.40058 -5.434483,1.20143 -1.363368,0.80086 -2.350466,1.99262 -2.960648,3.57528 -0.600642,1.57312 -0.900917,3.53219 -0.900917,5.87756 0,2.36445 0.290944,4.36199 0.872517,5.99231 0.581573,1.63031 1.54945,2.86465 2.903277,3.70364 1.363355,0.82947 3.203491,1.24459 5.520254,1.24459 2.326313,0 4.161208,-0.4198 5.505498,-1.25878 1.35384,-0.83899 2.32171,-2.06868 2.90328,-3.68945 0.58157,-1.63032 0.87252,-3.63253 0.87252,-6.00652 0,-2.3263 -0.30028,-4.27604 -0.90092,-5.84916 -0.60064,-1.58264 -1.58308,-2.77442 -2.94645,-3.57526 -1.35382,-0.8104 -3.164822,-1.21564 -5.433928,-1.21564 z m -49.281875,0.4431 v 20.60806 h 2.231286 v -18.39102 h 0.514647 l 5.949132,15.90241 h 3.303754 l 5.992305,-15.90241 h 0.514647 v 18.39102 h 2.230711 v -20.6081 h -4.247268 l -5.891759,15.65986 h -0.500462 l -5.863923,-15.65986 z m 49.281875,1.68766 c 1.811478,0 3.198558,0.31485 4.161508,0.94408 0.97247,0.61971 1.63949,1.55845 2.0018,2.81695 0.37182,1.24894 0.55781,2.82728 0.55781,4.73408 0,1.92588 -0.17609,3.54619 -0.52885,4.8619 -0.35275,1.30616 -1.01103,2.29793 -1.97395,2.97484 -0.96295,0.66737 -2.368714,1.0009 -4.218318,1.0009 -1.830525,0 -3.232195,-0.32418 -4.204672,-0.9725 -0.962923,-0.64832 -1.625855,-1.62085 -1.988148,-2.91747 -0.362293,-1.29664 -0.543047,-2.90762 -0.543047,-4.83349 0,-1.91635 0.176091,-3.50867 0.528847,-4.7767 0.362293,-1.27755 1.025225,-2.23552 1.98815,-2.8743 0.972475,-0.63879 2.378817,-0.95829 4.21887,-0.95829 z m -24.826972,4.46198 5.305551,7.2937 -5.262378,7.16476 h 2.488034 l 4.118901,-5.67761 4.104126,5.67761 h 2.560179 l -5.291339,-7.20793 5.262929,-7.25053 h -2.488596 l -4.118901,5.76338 -4.118325,-5.76338 z"
       style="font-style:normal;font-variant:normal;font-weight:normal;font-stretch:normal;font-size:26.64449883px;line-height:1.25;font-family:Metrophobic;-inkscape-font-specification:Metrophobic;letter-spacing:0px;word-spacing:0px;fill:#35d6a1;fill-opacity:1;stroke:none;stroke-width:4.39328146;filter:url(#filter1151)" />
    <path
       style="font-style:normal;font-variant:normal;font-weight:normal;font-stretch:normal;font-size:26.64449883px;line-height:1.25;font-family:Metrophobic;-inkscape-font-specification:Metrophobic;letter-spacing:0px;word-spacing:0px;fill:#000000;fill-opacity:1;stroke:none;stroke-width:4.39328146"
       d="m 16.39773,152.82737 c -2.583723,0 -4.490323,0.48159 -5.720203,1.44454 -1.22037,0.9534 -1.83082,2.33117 -1.83082,4.13309 0,1.66846 0.47693,2.94126 1.43034,3.8184 0.96294,0.87714 2.43574,1.49636 4.41882,1.85865 l 2.545983,0.45785 c 1.42057,0.25741 2.4071,0.69588 2.96008,1.31559 0.55298,0.61018 0.82935,1.43985 0.82935,2.48861 0,1.38243 -0.35742,2.38821 -1.07247,3.01744 -0.71506,0.61971 -1.9593,0.92932 -3.73263,0.92932 -1.916343,0 -3.250963,-0.2618 -4.004143,-0.78616 -0.7532,-0.5339 -1.12985,-1.46389 -1.12985,-2.78911 h -2.35966 c 0,2.03074 0.58655,3.48023 1.75924,4.34782 1.18222,0.8676 3.01244,1.30138 5.491293,1.30138 2.6314,0 4.54323,-0.51951 5.73499,-1.55872 1.20128,-1.03919 1.80183,-2.56504 1.80183,-4.57671 0,-1.71616 -0.4956,-3.05075 -1.48715,-4.00416 -0.98199,-0.95341 -2.49794,-1.61577 -4.54776,-1.98761 L 14.939,161.77976 c -1.382443,-0.24787 -2.331083,-0.64321 -2.845923,-1.18664 -0.50529,-0.55298 -0.75776,-1.31096 -0.75776,-2.27388 0,-1.19176 0.39066,-2.05935 1.17244,-2.6028 0.79132,-0.54342 2.06414,-0.81513 3.818403,-0.81513 1.14408,0 2.03557,0.1044 2.67435,0.31413 0.63878,0.20021 1.08715,0.52961 1.34457,0.98725 0.25742,0.45763 0.38627,1.07687 0.38627,1.85865 h 2.27389 c 0,-1.88774 -0.51017,-3.23168 -1.53033,-4.03256 -1.02014,-0.80085 -2.71273,-1.20141 -5.07718,-1.20141 z m -20.879071,0.0716 c -2.259556,0 -4.071103,0.40058 -5.434483,1.20143 -1.363368,0.80086 -2.350466,1.99262 -2.960648,3.57528 -0.600642,1.57312 -0.900917,3.53219 -0.900917,5.87756 0,2.36445 0.290944,4.36199 0.872517,5.99231 0.581573,1.63031 1.54945,2.86465 2.903277,3.70364 1.363355,0.82947 3.203491,1.24459 5.520254,1.24459 2.326313,0 4.161208,-0.4198 5.505498,-1.25878 1.35384,-0.83899 2.32171,-2.06868 2.90328,-3.68945 0.58157,-1.63032 0.87252,-3.63253 0.87252,-6.00652 0,-2.3263 -0.30028,-4.27604 -0.90092,-5.84916 -0.60064,-1.58264 -1.58308,-2.77442 -2.94645,-3.57526 -1.35382,-0.8104 -3.164822,-1.21564 -5.433928,-1.21564 z m -49.281875,0.4431 v 20.60806 h 2.231286 v -18.39102 h 0.514647 l 5.949132,15.90241 h 3.303754 l 5.992305,-15.90241 h 0.514647 v 18.39102 h 2.230711 v -20.6081 h -4.247268 l -5.891759,15.65986 h -0.500462 l -5.863923,-15.65986 z m 49.281875,1.68766 c 1.811478,0 3.198558,0.31485 4.161508,0.94408 0.97247,0.61971 1.63949,1.55845 2.0018,2.81695 0.37182,1.24894 0.55781,2.82728 0.55781,4.73408 0,1.92588 -0.17609,3.54619 -0.52885,4.8619 -0.35275,1.30616 -1.01103,2.29793 -1.97395,2.97484 -0.96295,0.66737 -2.368714,1.0009 -4.218318,1.0009 -1.830525,0 -3.232195,-0.32418 -4.204672,-0.9725 -0.962923,-0.64832 -1.625855,-1.62085 -1.988148,-2.91747 -0.362293,-1.29664 -0.543047,-2.90762 -0.543047,-4.83349 0,-1.91635 0.176091,-3.50867 0.528847,-4.7767 0.362293,-1.27755 1.025225,-2.23552 1.98815,-2.8743 0.972475,-0.63879 2.378817,-0.95829 4.21887,-0.95829 z m -24.826972,4.46198 5.305551,7.2937 -5.262378,7.16476 h 2.488034 l 4.118901,-5.67761 4.104126,5.67761 h 2.560179 l -5.291339,-7.20793 5.262929,-7.25053 h -2.488596 l -4.118901,5.76338 -4.118325,-5.76338 z"
       id="path425" />
  </g>
  <path
     id="path1193"
     d="m 109.25156,99.52932 c -0.26958,-0.0585 -0.80527,-0.22553 -1.1904,-0.37121 -0.63739,-0.24105 -0.70382,-0.3083 -0.74004,-0.74919 -0.0301,-0.36665 0.11126,-0.73962 0.5818,-1.53472 0.87383,-1.47661 1.23958,-3.03192 1.25046,-5.31752 0.007,-1.39058 -0.0566,-2.000485 -0.30491,-2.937738 -0.84345,-3.184496 -2.70789,-5.528422 -6.10914,-7.680273 -1.00135,-0.633508 -2.00791,-1.306814 -2.23681,-1.496226 -0.40093,-0.331766 -0.40351,-0.341112 -0.07,-0.255065 0.313,0.08072 0.32737,0.06649 0.15007,-0.149697 -0.10786,-0.131501 -0.2654,-0.213926 -0.35012,-0.183259 -0.358501,0.129848 -0.644212,-0.198378 -0.644212,-0.739934 0,-0.582164 -0.225822,-0.78127 -0.535223,-0.471868 -0.246941,0.246942 -0.437735,0.117111 -0.3456,-0.235248 0.05454,-0.208733 0.0044,-0.279959 -0.197969,-0.279959 -0.314204,0 -0.484928,-0.186054 -1.735527,-1.891493 -1.361037,-1.856013 -1.844397,-2.599603 -1.750739,-2.693258 0.04592,-0.04599 0.08346,-0.0167 0.08346,0.06485 0,0.08155 0.0945,0.184681 0.210069,0.229027 0.137805,0.05293 0.21008,-0.005 0.21008,-0.166469 0,-0.182713 -0.127682,-0.255676 -0.490172,-0.280091 -0.459658,-0.03093 -0.490171,-0.0066 -0.490171,0.391528 0,0.353633 -0.05564,0.424528 -0.332971,0.424528 -0.451086,0 -0.680378,0.309881 -0.566128,0.765077 l 0.09329,0.371745 0.332877,-0.312726 0.332871,-0.312727 v 0.606315 c 0,0.597431 -0.0044,0.602592 -0.280092,0.352822 -0.154043,-0.139442 -0.280091,-0.183656 -0.280091,-0.09825 0,0.19358 0.312205,0.914244 0.436972,1.008628 0.05089,0.03854 0.127594,0.385143 0.170438,0.77027 0.126909,1.140742 0.255827,1.748264 0.388399,1.830192 0.06856,0.04235 0.124568,0.236257 0.124568,0.430912 0,0.51696 1.439229,2.06296 2.767038,2.972291 0.970286,0.66449 1.434548,1.091631 1.433985,1.31932 -2.87e-4,0.09329 -0.12171,0.799812 -0.269947,1.570082 -0.148215,0.770255 -0.462882,3.007523 -0.699224,4.971699 -0.60464,5.025045 -0.697238,5.651745 -0.940602,6.365965 -0.232942,0.68366 -0.88313,1.33668 -1.330866,1.33668 -0.153205,0 -0.387439,0.0582 -0.520508,0.12952 -0.495724,0.26531 -2.950492,0.18508 -3.731006,-0.12191 -0.154048,-0.0605 -0.462265,-0.16585 -0.684915,-0.2339 -0.594159,-0.18162 -0.683035,-0.59109 -0.304217,-1.4015 0.360818,-0.77192 0.618682,-1.03033 1.38217,-1.38499 1.060891,-0.49287 1.46341,-1.41332 1.928325,-4.409692 0.377272,-2.431445 0.317273,-3.477953 -0.267523,-4.665836 -0.609759,-1.238599 -1.743901,-2.227146 -4.141699,-3.609984 -1.033702,-0.596158 -2.439267,-1.871594 -2.550369,-2.314251 -0.04607,-0.183524 -0.127813,-0.333684 -0.181655,-0.333684 -0.120536,0 -0.992114,-1.221728 -0.992114,-1.390678 0,-0.195813 -0.604017,-1.442436 -0.920823,-1.900459 -0.31036,-0.448695 -0.758127,-1.752366 -1.034186,-3.011029 -0.614559,-2.802 -2.30764,-6.357298 -3.62621,-7.614671 L 79.8605,64.489063 77.912131,64.98581 c -2.681383,0.683644 -4.317781,1.318228 -7.127087,2.763839 -1.322243,0.680386 -3.053343,1.520394 -3.846887,1.866682 l -1.442806,0.629621 -0.734825,3.195694 c -0.404156,1.757643 -1.432385,6.882462 -2.284955,11.388512 -1.813231,9.583412 -1.901055,10.019992 -2.245114,11.160362 -0.515685,1.70923 -0.970626,2.33357 -2.12887,2.9216 -0.70559,0.3582 -0.808432,0.37146 -2.348457,0.30274 -0.885805,-0.0395 -1.768108,-0.13679 -1.960675,-0.21617 -0.192565,-0.0794 -0.52247,-0.18116 -0.733119,-0.22617 -1.051438,-0.22469 -0.401542,-2.55896 0.76526,-2.74862 0.716878,-0.11661 0.928263,-0.33323 1.4737,-1.51065 0.921605,-1.98948 1.200902,-3.43283 1.431285,-7.396531 0.0843,-1.450177 0.261442,-4.023148 0.393677,-5.717735 0.390983,-5.010471 0.26309,-8.980323 -0.301097,-9.346064 -0.08729,-0.05657 -0.379294,-0.104377 -0.648886,-0.106033 -1.349039,-0.0083 -4.726674,-1.126599 -6.316558,-2.090781 -0.872516,-0.529133 -0.898301,-0.535469 -0.986998,-0.242195 -0.05009,0.16561 -0.09751,0.710755 -0.105371,1.211439 -0.01571,1.005501 -0.615254,6.40788 -1.271109,11.455139 -0.443663,3.414268 -0.699888,6.384871 -0.701967,8.138381 l -0.0012,1.03713 -1.015349,0.99387 c -0.673816,0.65954 -1.250889,1.40616 -1.71559,2.21958 -1.42957,2.5024 -1.374555,2.43488 -2.121648,2.60432 -0.683422,0.15499 -2.958815,0.24199 -3.480278,0.13299 -2.237825,-0.46747 -2.413628,-0.57896 -2.233003,-1.41606 0.229256,-1.06248 0.800237,-1.7778 1.41852,-1.77712 0.139855,1.4e-4 0.870614,-0.25965 1.623894,-0.57732 1.215804,-0.51274 1.407077,-0.64252 1.703296,-1.15568 0.461439,-0.79938 0.864688,-2.19211 1.193847,-4.123232 0.585851,-3.437129 0.605322,-5.685597 0.08209,-9.479319 -0.116863,-0.847285 -0.37001,-2.674913 -0.562556,-4.06139 -0.26728,-1.924625 -0.350676,-3.126784 -0.352592,-5.082656 -0.0034,-3.495701 -0.419603,-5.450911 -1.446658,-6.796432 -0.954179,-1.250045 -1.128052,-1.960007 -1.137961,-4.646599 -0.0047,-1.309444 0.0796,-3.796517 0.18762,-5.526818 0.201821,-3.232878 0.142353,-7.797218 -0.129617,-9.948506 -0.07303,-0.577699 -0.230914,-1.964176 -0.350843,-3.081065 -0.193934,-1.806075 -0.252247,-2.053878 -0.527186,-2.240345 -0.84914,-0.575896 -1.782327,-1.628771 -2.7712,-3.126653 -1.420203,-2.151206 -1.815022,-3.353083 -2.024292,-6.162178 -0.08905,-1.195411 -0.106398,-1.244356 -0.532433,-1.503456 -0.242213,-0.14722 -0.913656,-0.36634 -1.492099,-0.486758 -2.215901,-0.461316 -2.589919,-0.842721 -3.006489,-3.065897 -0.304319,-1.624107 -0.499883,-1.990112 -1.161523,-2.173851 -0.288726,-0.08022 -0.626651,-0.146223 -0.750945,-0.146554 -0.364885,-0.0013 -0.880784,-0.616735 -1.942089,-2.316898 -2.044234,-3.274828 -3.363794,-6.843325 -3.363794,-9.0968054 0,-0.65167 0.05091,-0.791394 0.385134,-1.056928 0.341837,-0.271589 0.503209,-0.29779 1.435492,-0.233048 2.899264,0.201339 7.520263,2.8323864 11.949275,6.8035284 0.613104,0.54971 1.373578,1.088455 1.726916,1.223398 l 0.631376,0.241137 0.965886,-0.521708 c 1.888134,-1.019826 4.954951,-1.553922 8.884852,-1.547323 2.390405,0.0033 2.745845,0.0359 3.496349,0.313157 0.459491,0.169779 0.964789,0.308674 1.122889,0.308674 0.453923,0 1.252585,-0.622277 1.834536,-1.429384 1.097157,-1.521668 3.673574,-4.3950094 4.960151,-5.5318144 1.505851,-1.330551 3.601644,-2.7875085 4.796232,-3.3342425 0.925919,-0.423767 2.159854,-0.597862 2.593326,-0.365873 0.507123,0.271407 0.663226,1.459638 0.471487,3.5888935 -0.260541,2.8933234 -0.702087,4.5887714 -2.042476,7.8426904 l -0.576899,1.400487 -0.864287,0.407375 c -1.064678,0.501825 -1.156277,0.716545 -1.156277,2.710527 0,1.25165 -0.0451,1.545767 -0.30893,2.015221 -0.310333,0.552159 -0.43465,0.62939 -2.674353,1.661439 -1.062574,0.489634 -1.134415,0.684224 -0.931379,2.522836 0.208157,1.885008 0.108738,3.123178 -0.392848,4.89235 -0.328883,1.160045 -0.379013,1.593307 -0.381377,3.296264 -0.0031,2.230157 0.223488,3.203387 0.975303,4.189089 0.655583,0.859525 1.181079,1.142048 3.562054,1.915048 4.287722,1.392051 7.049304,1.92919 17.937645,3.489035 7.543557,1.080663 12.462819,1.95243 13.841865,2.452998 0.50762,0.184267 0.949959,0.307996 0.982989,0.274979 0.03301,-0.03308 0.08887,-0.802095 0.124149,-1.709045 0.17567,-4.518273 -1.629195,-7.69167 -5.163854,-9.079337 -2.427868,-0.953132 -5.96257,-1.188116 -8.435632,-0.560778 -2.283824,0.579337 -3.849082,1.389785 -6.908085,3.57682 -1.9255,1.376617 -3.150571,2.033515 -4.034724,2.163429 l -0.560191,0.08238 0.490168,-0.379635 c 0.803857,-0.622592 1.949082,-1.831268 3.424261,-3.613954 1.978611,-2.391068 4.005455,-4.368609 5.301591,-5.17264 2.722225,-1.688649 5.941958,-2.102855 9.900551,-1.273683 5.360967,1.122912 8.910496,4.366244 10.694761,9.772163 0.77586,2.350691 1.10866,5.746071 0.814476,8.309779 l -0.145974,1.272078 1.845958,1.880858 c 1.98556,2.02311 3.32562,3.850954 4.2511,5.798522 l 0.53241,1.12038 0.10233,3.011029 c 0.23065,6.782735 1.07334,11.841721 2.43639,14.626633 0.26164,0.53456 0.47571,1.18054 0.47571,1.435489 0,0.487036 0.40101,1.023762 0.76489,1.023762 0.11258,0 0.49985,0.286856 0.86059,0.637462 0.36074,0.350588 0.93035,0.826279 1.26581,1.057077 0.33545,0.230798 0.60847,0.49539 0.60671,0.587971 -0.0567,2.984579 0.37926,8.509777 0.98361,12.463687 0.29467,1.92789 0.29471,1.93273 0.0182,2.38082 -0.15241,0.24696 -0.32064,0.83512 -0.37387,1.30702 -0.0817,0.72386 -0.17743,0.94623 -0.61268,1.4224 l -0.51591,0.56438 -1.25357,-0.007 c -0.68947,-0.003 -1.47416,-0.0544 -1.74375,-0.11298 z"
     style="fill:#000000;fill-opacity:0.93333333;stroke-width:0.14004815" />
</svg>
