<?xml version="1.0" encoding="UTF-8" standalone="no"?>
<!--
Propuesta chpln01 para logotipo proyecto MxOS.
Autor: Miguel Angel Marcial Martinez @fitorec
Licencia: Creative Commons CC BY-SA 4.0
-->
<svg
   xmlns:dc="http://purl.org/dc/elements/1.1/"
   xmlns:cc="http://creativecommons.org/ns#"
   xmlns:rdf="http://www.w3.org/1999/02/22-rdf-syntax-ns#"
   xmlns:svg="http://www.w3.org/2000/svg"
   xmlns="http://www.w3.org/2000/svg"
   id="propuesta-00"
   version="1.1"
   viewBox="0 0 150 150"
   height="150mm"
   width="150mm">
  <defs
     id="defs248">
    <filter
       height="1.048"
       y="-0.024"
       width="1.048"
       x="-0.024"
       id="filter3190-2"
       style="color-interpolation-filters:sRGB">
      <feGaussianBlur
         id="feGaussianBlur3192-7"
         stdDeviation="1.6404166" />
    </filter>
  </defs>
  <metadata
     id="metadata251">
    <rdf:RDF>
      <cc:Work
         rdf:about="">
        <dc:format>image/svg+xml</dc:format>
        <dc:type
           rdf:resource="http://purl.org/dc/dcmitype/StillImage" />
        <dc:title></dc:title>
      </cc:Work>
    </rdf:RDF>
  </metadata>
  <rect
     y="-1.1444091e-06"
     x="4.4408921e-16"
     height="150"
     width="150"
     id="rect1092"
     style="opacity:1;fill:#e4481c;fill-opacity:1;stroke:none;stroke-width:2.11114955;stroke-linecap:round;stroke-linejoin:bevel;stroke-miterlimit:4;stroke-dasharray:none;stroke-dashoffset:0;stroke-opacity:1;paint-order:stroke fill markers" />
  <path
     style="fill:#000000;fill-opacity:1;stroke:none;stroke-width:1.61204815;stroke-miterlimit:4;stroke-dasharray:none;stroke-opacity:1"
     d="m 116.88509,20.514124 c 0.31405,0.155439 1.81647,0.86233 3.31175,1.589852 3.20289,1.505942 8.22478,4.726318 9.88047,6.314892 1.24893,1.170927 3.92239,4.264119 4.79207,5.533084 2.60907,3.806975 5.61821,10.099887 6.39911,13.408568 0.13009,0.55145 0.34864,1.179668 0.49672,1.415229 0.14803,0.235608 0.33612,1.083296 0.44929,1.881902 0.1059,0.819125 0.28161,1.570453 0.37616,1.695377 0.36573,0.403395 0.89347,6.752887 0.82058,9.672358 -0.0279,1.071598 -0.0227,2.246713 -5.8e-4,2.645566 0.2892,3.597683 -0.28662,9.217929 -1.40913,13.566586 -2.36022,9.094352 -6.64792,18.96726 -10.46078,24.104992 -0.47571,0.63967 -0.91753,1.3141 -0.9818,1.49879 -0.21429,0.61564 -5.8925,8.07194 -7.22409,9.51804 -0.36231,0.38001 -1.43598,1.54777 -2.4052,2.61381 -0.96208,1.04554 -2.39094,2.57277 -3.1781,3.38011 -0.78715,0.80733 -1.97859,2.04911 -2.64082,2.7619 -3.97419,4.34534 -12.19637,12.43463 -14.66927,14.44973 -4.793221,3.92226 -6.371833,4.82223 -8.70426,5.04569 -1.66501,0.1566 -4.860086,-0.38027 -10.044758,-1.67875 -1.356196,-0.33395 -2.753395,-0.68229 -3.123672,-0.74214 -10.801312,-2.14912 -35.58041,-10.47486 -39.43261,-13.28811 -0.455866,-0.34273 -1.377491,-0.80154 -2.054653,-1.03726 -2.031545,-0.70713 -7.41655,-4.00787 -11.001965,-6.72827 -1.945705,-1.48247 -5.263367,-4.70783 -6.655807,-6.45786 -0.385364,-0.47923 -1.170379,-1.39665 -1.773399,-2.04369 -1.179291,-1.23871 -2.314853,-2.66927 -4.542166,-5.72219 -0.783189,-1.05482 -1.910683,-2.5746 -2.511889,-3.35902 C 9.319806,98.866647 7.0553018,94.466386 5.725649,91.081772 4.8017757,88.712588 3.3546845,83.814614 2.6549724,80.603196 2.2725529,78.859628 2.0477526,74.54815 2.2187236,72.007892 2.5356054,67.263818 4.3101228,59.85213 5.8838845,56.718837 c 1.2345129,-2.423128 3.6497094,-5.79269 6.0549435,-8.406508 1.157541,-1.276588 2.11339,-2.370303 2.141953,-2.452387 0.1143,-0.328328 3.567066,-3.175699 5.224259,-4.301367 1.990063,-1.35493 5.994952,-3.342938 8.251673,-4.075882 3.112409,-1.010271 7.843395,-1.779264 11.04574,-1.791977 1.126912,0.0011 3.261196,0.214849 4.776176,0.48912 1.535521,0.281402 3.311065,0.600315 3.969535,0.691472 2.44117,0.389552 5.118712,1.091467 8.176265,2.155682 3.570591,1.242809 7.400903,2.069865 9.072133,1.961385 0.612115,-0.03994 1.564221,-0.3298 2.124641,-0.617901 1.197551,-0.664461 5.054749,-4.475396 8.320361,-8.239166 2.770262,-3.199938 6.168662,-6.08927 9.076025,-7.700063 1.169888,-0.651109 2.693175,-1.524303 3.351771,-1.962264 3.880067,-2.422568 7.187081,-3.595161 13.49653,-4.735013 2.87233,-0.518688 8.09282,0.148033 12.62254,1.609674 1.48462,0.49381 2.96209,1.008092 3.29672,1.170402 z"
     id="path1333" />
  <path
     id="path1263"
     d="m 113.96111,24.027565 c 0.29411,0.145557 1.70111,0.807554 3.10143,1.488881 2.99952,1.410311 7.70251,4.4262 9.25306,5.913894 1.16961,1.096579 3.67331,3.993341 4.48777,5.181727 2.44338,3.565229 5.26143,9.458524 5.99276,12.557114 0.12183,0.516428 0.32649,1.10475 0.46516,1.325362 0.13864,0.220635 0.31478,1.014494 0.42077,1.762375 0.0992,0.767122 0.26372,1.470748 0.35228,1.587742 0.3425,0.377774 0.83672,6.324055 0.76845,9.058142 -0.0261,1.00355 -0.0213,2.104043 -5.3e-4,2.477562 0.27084,3.369231 -0.26842,8.632586 -1.31965,12.705101 -2.21035,8.516849 -6.22576,17.762806 -9.7965,22.574285 -0.44552,0.59904 -0.85928,1.23066 -0.91946,1.40362 -0.20068,0.57653 -5.51832,7.55935 -6.76535,8.91362 -0.33931,0.35589 -1.3448,1.44949 -2.25248,2.44783 -0.90098,0.97915 -2.2391,2.4094 -2.97627,3.16548 -0.73717,0.75605 -1.85295,1.91898 -2.47312,2.58651 -3.72183,4.06941 -11.42189,11.64502 -13.737759,13.53216 -4.488839,3.67318 -5.967209,4.51601 -8.151535,4.72528 -1.559268,0.14665 -4.551455,-0.35612 -9.406897,-1.57215 -1.270072,-0.31275 -2.578544,-0.63896 -2.925302,-0.69502 -10.115419,-2.01266 -33.321018,-9.80968 -36.928607,-12.44429 -0.426914,-0.32097 -1.289997,-0.75065 -1.924171,-0.9714 -1.902535,-0.66221 -6.945586,-3.75336 -10.303325,-6.30101 -1.822162,-1.38832 -4.929128,-4.40888 -6.23315,-6.04778 -0.360897,-0.4488 -1.096054,-1.30796 -1.660788,-1.91391 -1.104407,-1.16005 -2.167858,-2.49976 -4.253734,-5.35882 C 16.040706,101.14203 14.98481,99.718763 14.421776,98.984143 13.226348,97.404595 11.105644,93.283751 9.8604268,90.114055 8.9952213,87.895323 7.640029,83.308389 6.9847429,80.300887 6.6266076,78.668047 6.416072,74.630349 6.5762018,72.251408 6.8729647,67.808581 8.534791,60.86756 10.00862,57.93322 c 1.156114,-2.269252 3.417948,-5.424843 5.670447,-7.872678 1.084026,-1.19553 1.979187,-2.219781 2.005936,-2.296662 0.107043,-0.307479 3.340554,-2.974031 4.892508,-4.028226 1.863689,-1.268897 5.614267,-3.130646 7.727679,-3.817052 2.914769,-0.946115 7.345328,-1.666277 10.344328,-1.678179 1.055348,0.0011 3.054095,0.201201 4.472874,0.458057 1.438018,0.263531 3.100815,0.562189 3.717472,0.64756 2.286152,0.364811 4.793659,1.022151 7.657064,2.018798 3.343851,1.163885 6.930933,1.938424 8.496033,1.836825 0.573247,-0.03743 1.464893,-0.308848 1.98972,-0.578656 1.121514,-0.622272 4.73377,-4.191209 7.792008,-7.715971 2.594361,-2.99674 5.776941,-5.702594 8.499685,-7.211103 1.095609,-0.609753 2.522159,-1.427509 3.13893,-1.837647 3.633687,-2.268738 6.730691,-3.366881 12.639484,-4.434348 2.689932,-0.485742 7.578902,0.138641 11.820982,1.507471 1.39035,0.46245 2.774,0.944072 3.08738,1.096076 z"
     style="fill:#f9dc00;fill-opacity:1;stroke:#ffffff;stroke-width:1.50968087;stroke-miterlimit:4;stroke-dasharray:none;stroke-opacity:1" />
  <path
     id="path925"
     d="m 101.40764,41.433377 c -6.005355,0.173789 -10.851359,6.315645 -10.009799,12.185181 -2.944017,-3.379182 -8.611954,-6.755853 -12.666609,-3.189496 -4.615407,5.074685 -3.075436,12.705342 -1.702852,18.746933 1.523539,2.49711 -0.339226,1.994651 -2.146393,1.921273 -3.629875,0.07418 -4.369141,4.401813 -3.742258,7.223736 0.292997,1.329288 -0.430224,3.788157 -1.968084,2.072844 -1.80178,-1.24807 -3.20101,-5.000817 -5.890865,-3.156071 -1.732568,1.315901 -4.033156,3.73087 -3.657561,5.750466 3.292019,2.468832 6.58405,4.937664 9.876069,7.406495 -0.480686,3.97628 -0.961372,7.952571 -1.44207,11.928862 C 61.095005,87.337493 54.132827,72.351363 47.17058,57.365268 c -1.880487,7.85694 -3.769293,15.719176 -5.654619,23.579106 -6.102713,-4.117318 -12.20465,-8.235765 -18.307854,-12.352341 5.996858,16.252196 11.992723,32.504767 17.99136,48.756307 2.371125,-1.93232 6.943715,0.15141 8.393876,-2.96884 -1.904817,-6.42918 -5.174218,-12.59609 -7.505253,-18.946891 -0.308506,-1.687252 -4.380439,-8.127776 -0.62339,-4.741427 1.692466,0.989833 4.539701,3.845044 6.189545,2.248915 0.776125,-2.062812 0.788404,-11.298385 2.155716,-7.809741 3.450266,8.920528 6.899493,17.841454 10.35041,26.761734 2.530512,-2.96933 7.23759,-4.56482 8.505322,-8.25793 1.711582,0.47763 5.322651,0.51414 6.124909,-2.14415 1.098428,-1.846462 -0.09095,-4.520465 1.130038,-6.075877 2.785657,0.673146 4.872891,5.581387 8.048407,3.35443 2.363433,-1.202366 2.981562,-5.206696 -0.115898,-5.848527 -1.982451,-2.599097 -7.53272,-3.900928 -5.761604,-8.064019 0.661871,-2.484899 0.868116,-6.019578 1.691703,-7.852261 3.327646,7.346595 8.075293,15.659572 16.402181,17.93785 4.734011,0.790516 7.854921,-5.213486 7.694021,-8.342613 0.19235,3.656282 4.71452,2.661451 7.34186,3.075823 6.56937,0.44596 13.88087,-3.128238 15.36799,-9.998665 1.43603,-6.693751 -3.99108,-12.243816 -9.4303,-15.140646 -5.68194,-3.620198 -13.09479,-5.680295 -16.93488,-11.393924 0.40423,-3.183573 4.6603,-1.262768 5.82178,0.570588 1.54133,1.012155 2.95739,4.941852 4.28389,1.822047 1.37004,-2.506661 5.50264,-5.380633 5.32473,-7.681724 -4.18859,-3.093066 -8.80519,-6.421055 -14.24688,-6.419115 z M 84.403676,59.504973 c 6.294042,4.342415 8.442363,12.366412 10.168061,19.408906 0.43957,1.376464 0.2526,5.433722 -1.921284,3.383416 -4.410349,-4.503583 -6.793958,-10.752618 -8.451835,-16.752111 -0.298441,-1.953705 -0.675577,-4.338398 0.205058,-6.040211 z m 14.064105,4.067665 c 5.445269,4.453417 12.978789,6.835382 16.854639,12.920704 -1.33148,2.577951 -5.39696,0.998666 -7.68957,0.791246 -2.19926,-0.641136 -5.25008,-0.517158 -5.17318,-3.452503 -0.93624,-3.563379 -2.493342,-6.833031 -3.991889,-10.259447 z"
     style="font-style:normal;font-variant:normal;font-weight:normal;font-stretch:normal;font-size:40.37348175px;line-height:1.25;font-family:'Super Toons';-inkscape-font-specification:'Super Toons';letter-spacing:0px;word-spacing:0px;fill:#000000;fill-opacity:1;stroke:none;stroke-width:0.90580851;stroke-miterlimit:4;stroke-dasharray:none;stroke-opacity:1" />
  <path
     id="path916"
     d="M 47.690443,60.122064 42.438031,82.021781 25.7927,70.79165 l 16.267933,44.08817 6.620853,-1.42785 -11.388995,-27.815103 9.371692,5.907914 2.152167,-13.62934 11.998588,31.022809 6.909159,-5.69369 z M 81.00927,49.541809 c -2.558015,1.069785 -3.867674,4.082204 -3.929286,9.037647 -0.0558,4.046029 0.745108,8.426228 2.399779,13.138988 l -6.433255,-0.07543 -1.377319,11.263613 -6.944696,-6.097703 -4.158331,4.358551 10.371054,7.780938 -1.504858,12.445847 3.917874,0.24335 1.947007,-9.439812 7.215485,5.412358 2.652173,-2.885521 -8.805828,-7.72793 3.125966,-15.262591 c 0.36415,1.036051 0.768274,2.087553 1.215033,3.155819 2.47496,5.918026 5.498004,10.594816 9.069087,14.031057 3.564543,3.420562 6.6256,4.596019 9.183614,3.526234 2.573161,-1.076117 3.886031,-4.0808 3.939071,-9.014264 C 102.95344,78.477506 101.74698,73.041 99.272025,67.122975 96.790526,61.189337 93.767254,56.511988 90.20271,53.091392 86.646771,49.64884 83.582474,48.465646 81.009316,49.541764 Z m 17.888438,-7.232477 c -0.211917,0.08867 -0.412764,0.181276 -0.602838,0.279565 -3.869101,2.059549 -5.725634,5.190332 -5.56886,9.392268 0.02008,0.856087 0.216733,1.730296 0.589943,2.622685 1.466651,3.506982 5.631624,7.320519 12.494027,11.440439 6.32442,3.811493 9.91832,6.75033 10.7826,8.816954 0.30772,0.735796 0.27414,1.35695 -0.101,1.863301 -0.31905,0.427759 -0.76593,0.762032 -1.34111,1.002569 -2.04337,0.854558 -5.70847,0.510893 -10.99473,-1.030813 l 1.18997,10.180409 c 5.63105,1.047977 10.12685,0.869599 13.48709,-0.535679 2.78505,-1.164742 4.80199,-3.16722 6.05066,-6.007106 1.12188,-2.547744 1.18515,-5.011668 0.18993,-7.391386 -1.4339,-3.428675 -5.10048,-6.668302 -11.00014,-9.719282 -8.97306,-4.6168 -13.89521,-7.9663 -14.766043,-10.04857 -0.09164,-0.219197 -0.13548,-0.430725 -0.131794,-0.634596 0.01027,-1.549341 0.567267,-2.555036 1.672197,-3.017133 0.31787,-0.132935 0.67811,-0.228429 1.08067,-0.286378 1.80741,-0.185669 4.24255,1.490536 7.30513,5.029072 l 5.3565,-6.710161 c -6.64694,-5.092955 -11.87795,-6.841374 -15.69226,-5.246192 z m -14.90303,15.199473 c 1.059536,-0.443107 2.494474,0.437823 4.305429,2.641959 1.810955,2.204125 3.459841,5.083084 4.94612,8.637003 1.492841,3.569599 2.38766,6.773017 2.685005,9.610152 0.297345,2.837124 -0.08342,4.476777 -1.143002,4.919884 -1.059525,0.443108 -2.494782,-0.437059 -4.305726,-2.641172 -1.810967,-2.204124 -3.463082,-5.090844 -4.955923,-8.660442 -1.486279,-3.553919 -2.377868,-6.749578 -2.675202,-9.586713 -0.297356,-2.837146 0.08376,-4.477564 1.143299,-4.920671 z"
     style="font-style:normal;font-variant:normal;font-weight:normal;font-stretch:normal;font-size:40.37348175px;line-height:1.25;font-family:'Super Toons';-inkscape-font-specification:'Super Toons';letter-spacing:0px;word-spacing:0px;fill:#e61f33;fill-opacity:1;stroke:#ffffff;stroke-width:0.90580851;stroke-miterlimit:4;stroke-dasharray:none;stroke-opacity:1" />
</svg>
