<?xml version="1.0" encoding="UTF-8" standalone="no"?>
<!--
Propuesta cxt0 para logotipo proyecto MxOS.
Autor: Miguel Angel Marcial Martinez @fitorec
Licencia: Creative Commons CC BY-SA 4.0
-->
<svg
   xmlns:dc="http://purl.org/dc/elements/1.1/"
   xmlns:cc="http://creativecommons.org/ns#"
   xmlns:rdf="http://www.w3.org/1999/02/22-rdf-syntax-ns#"
   xmlns:svg="http://www.w3.org/2000/svg"
   xmlns="http://www.w3.org/2000/svg"
   id="propuesta-00"
   version="1.1"
   viewBox="0 0 150 150"
   height="150mm"
   width="150mm">
  <defs
     id="defs248">
    <filter
       height="1.2606643"
       y="-0.13033222"
       width="1.1239401"
       x="-0.061970063"
       id="filter3304-3"
       style="color-interpolation-filters:sRGB">
      <feGaussianBlur
         id="feGaussianBlur3306-7"
         stdDeviation="1.7767668" />
    </filter>
    <filter
       height="1.4545048"
       y="-0.22725242"
       width="1.2375263"
       x="-0.11876316"
       id="filter3376-3"
       style="color-interpolation-filters:sRGB">
      <feGaussianBlur
         id="feGaussianBlur3378-6"
         stdDeviation="3.2142434" />
    </filter>
    <filter
       height="1.0741538"
       y="-0.03707692"
       width="1.0354847"
       x="-0.017742332"
       id="filter3250-5"
       style="color-interpolation-filters:sRGB">
      <feGaussianBlur
         id="feGaussianBlur3252-9"
         stdDeviation="0.50545754" />
    </filter>
    <filter
       height="1.108032"
       y="-0.05401599"
       width="1.053992"
       x="-0.026996003"
       id="filter3238-2"
       style="color-interpolation-filters:sRGB">
      <feGaussianBlur
         id="feGaussianBlur3240-2"
         stdDeviation="0.72001796" />
    </filter>
    <filter
       height="1.2606643"
       y="-0.13033222"
       width="1.1239401"
       x="-0.061970063"
       id="filter3304"
       style="color-interpolation-filters:sRGB">
      <feGaussianBlur
         id="feGaussianBlur3306"
         stdDeviation="1.7767668" />
    </filter>
    <filter
       height="1.4545048"
       y="-0.22725242"
       width="1.2375263"
       x="-0.11876316"
       id="filter3376"
       style="color-interpolation-filters:sRGB">
      <feGaussianBlur
         id="feGaussianBlur3378"
         stdDeviation="3.2142434" />
    </filter>
    <filter
       height="1.0741538"
       y="-0.03707692"
       width="1.0354847"
       x="-0.017742332"
       id="filter3250"
       style="color-interpolation-filters:sRGB">
      <feGaussianBlur
         id="feGaussianBlur3252"
         stdDeviation="0.50545754" />
    </filter>
    <filter
       height="1.108032"
       y="-0.05401599"
       width="1.053992"
       x="-0.026996003"
       id="filter3238"
       style="color-interpolation-filters:sRGB">
      <feGaussianBlur
         id="feGaussianBlur3240"
         stdDeviation="0.72001796" />
    </filter>
    <filter
       height="1.2606643"
       y="-0.13033222"
       width="1.1239401"
       x="-0.061970063"
       id="filter3304-36"
       style="color-interpolation-filters:sRGB">
      <feGaussianBlur
         id="feGaussianBlur3306-75"
         stdDeviation="1.7767668" />
    </filter>
    <filter
       height="1.4545048"
       y="-0.22725242"
       width="1.2375263"
       x="-0.11876316"
       id="filter3376-35"
       style="color-interpolation-filters:sRGB">
      <feGaussianBlur
         id="feGaussianBlur3378-62"
         stdDeviation="3.2142434" />
    </filter>
    <filter
       height="1.0741538"
       y="-0.03707692"
       width="1.0354847"
       x="-0.017742332"
       id="filter3250-9"
       style="color-interpolation-filters:sRGB">
      <feGaussianBlur
         id="feGaussianBlur3252-1"
         stdDeviation="0.50545754" />
    </filter>
    <filter
       height="1.108032"
       y="-0.05401599"
       width="1.053992"
       x="-0.026996003"
       id="filter3238-27"
       style="color-interpolation-filters:sRGB">
      <feGaussianBlur
         id="feGaussianBlur3240-0"
         stdDeviation="0.72001796" />
    </filter>
  </defs>
  <metadata
     id="metadata251">
    <rdf:RDF>
      <cc:Work
         rdf:about="">
        <dc:format>image/svg+xml</dc:format>
        <dc:type
           rdf:resource="http://purl.org/dc/dcmitype/StillImage" />
        <dc:title></dc:title>
      </cc:Work>
    </rdf:RDF>
  </metadata>
  <g
     transform="translate(-0.07391136,2.1667504)"
     id="g1478">
    <g
       transform="translate(-1.6242095,38.15372)"
       id="g37">
      <text
         transform="matrix(0.88750204,0,0,0.88750204,1.6701194,-126.85559)"
         id="text3258"
         y="243.36633"
         x="11.263751"
         style="font-style:normal;font-weight:normal;font-size:44.88074112px;line-height:1.25;font-family:sans-serif;letter-spacing:0px;word-spacing:0px;fill:#ffffff;fill-opacity:1;stroke:none;stroke-width:6.73211098;filter:url(#filter3304-36)"
         xml:space="preserve"><tspan
           style="font-weight:bold;fill:#ffffff;fill-opacity:1;stroke-width:6.73211098"
           y="243.36633"
           x="11.263751"
           id="tspan3256">Mx<tspan
   id="tspan3254"
   style="fill:#ffffff;fill-opacity:1;stroke-width:6.73211098" /></tspan></text>
      <path
         style="font-style:normal;font-weight:bold;font-size:39.83174896px;line-height:1.25;font-family:sans-serif;letter-spacing:0px;word-spacing:0px;fill:#00815b;fill-opacity:1;stroke:none;stroke-width:22.58177948"
         d="M 55.224609,223.99219 V 333.74023 H 82.054688 V 253.4707 l 25.287112,59.17383 h 17.93554 l 25.28711,-59.17383 v 80.26953 h 26.75782 V 223.99219 h -35.94532 l -25.14062,58.73437 -24.992189,-58.73437 z m 139.740231,27.41992 29.69727,40.20898 -31.16797,42.11914 h 27.85938 l 18.30468,-26.02148 18.52344,26.02148 h 27.85938 l -31.16797,-42.26562 29.69726,-40.0625 h -27.85937 l -17.05274,24.4043 -16.83398,-24.4043 z"
         transform="scale(0.26458333)"
         id="path354" />
      <text
         transform="matrix(0.88750204,0,0,0.88750204,1.6701194,-126.85559)"
         xml:space="preserve"
         style="font-style:normal;font-weight:normal;font-size:44.88074112px;line-height:1.25;font-family:sans-serif;letter-spacing:0px;word-spacing:0px;fill:#ffffff;fill-opacity:1;stroke:none;stroke-width:6.73211098;filter:url(#filter3376-35)"
         x="83.17794"
         y="242.62523"
         id="text3310"><tspan
           id="tspan3308"
           x="83.17794"
           y="242.62523"
           style="font-weight:bold;fill:#ffffff;fill-opacity:1;stroke-width:6.73211098">OS</tspan></text>
      <path
         style="font-style:normal;font-weight:bold;font-size:39.83174896px;line-height:1.25;font-family:sans-serif;letter-spacing:0px;word-spacing:0px;fill:#a02c2c;fill-opacity:1;stroke:none;stroke-width:22.58177948"
         d="m 349.27148,222.66016 c -17.593,0 -31.41283,5.04742 -41.45898,15.14257 -9.99714,10.09516 -14.99609,24.03714 -14.99609,41.82618 0,17.74002 4.99895,31.65875 14.99609,41.7539 10.04615,10.09516 23.86598,15.14258 41.45898,15.14258 17.64202,0 31.46186,-5.04742 41.45899,-15.14258 9.99715,-10.09515 14.99609,-24.01388 14.99609,-41.7539 0,-17.78904 -4.99894,-31.73102 -14.99609,-41.82618 -9.99713,-10.09515 -23.81697,-15.14257 -41.45899,-15.14257 z m 115.84961,0 c -13.23152,0 -23.37678,2.93964 -30.43359,8.82031 -7.05681,5.88067 -10.58398,14.28659 -10.58398,25.21484 0,8.723 2.52272,15.65715 7.57031,20.80274 5.09659,5.14558 13.13407,8.89382 24.11133,11.24609 l 10.95312,2.42578 c 6.66477,1.47017 11.09944,3.13584 13.30469,4.99805 2.25426,1.86221 3.38086,4.50906 3.38086,7.93945 0,3.82244 -1.64045,6.76208 -4.92383,8.82031 -3.28338,2.05824 -8.01278,3.08789 -14.1875,3.08789 -6.0767,10e-6 -12.39809,-0.93075 -18.96484,-2.79296 -6.51775,-1.91122 -13.28127,-4.7287 -20.28907,-8.45313 v 23.89063 c 7.0078,2.59729 14.01564,4.55575 21.02344,5.8789 7.00782,1.32315 13.99043,1.98633 20.94922,1.98633 14.75069,0 25.70458,-2.94159 32.85937,-8.82227 7.20383,-5.92967 10.80469,-14.94639 10.80469,-27.05078 0,-9.21305 -2.57122,-16.31783 -7.71679,-21.3164 -5.1456,-4.99857 -13.82106,-8.72355 -26.02344,-11.17383 l -12.05469,-2.42578 c -5.73364,-1.17614 -9.70295,-2.57227 -11.9082,-4.18945 -2.15625,-1.66619 -3.23438,-3.96982 -3.23438,-6.91016 0,-3.92045 1.6172,-6.81162 4.85157,-8.67383 3.23436,-1.86221 8.2333,-2.79297 14.99609,-2.79297 5.09657,0 10.51047,0.68449 16.24414,2.05664 5.73364,1.37216 11.61489,3.40626 17.64258,6.10156 v -23.22851 c -6.81179,-1.81321 -13.40272,-3.16087 -19.77344,-4.04297 -6.37072,-0.93111 -12.56996,-1.39648 -18.59766,-1.39648 z m -115.84961,20.50976 c 8.67399,0 15.38708,3.18396 20.14063,9.55469 4.75354,6.37073 7.13086,15.33897 7.13086,26.9043 0,11.51631 -2.37732,20.45935 -7.13086,26.83007 -4.75355,6.37073 -11.46664,9.55664 -20.14063,9.55664 -8.62498,10e-6 -15.31481,-3.18591 -20.06836,-9.55664 -4.75354,-6.37072 -7.1289,-15.31376 -7.1289,-26.83007 0,-11.56533 2.37536,-20.53357 7.1289,-26.9043 4.75355,-6.37073 11.44338,-9.55469 20.06836,-9.55469 z"
         transform="scale(0.26458333)"
         id="path346" />
      <path
         transform="matrix(0.88750204,0,0,0.88750204,1.6701194,-126.85559)"
         id="text3198"
         d="m 14.685401,209.72565 v 32.71842 h 2.12339 v -31.73244 h 9.03406 l -0.4196,-0.98598 z m 25.68371,0 -6.64043,15.51326 1.26918,2.98225 7.49464,-17.50953 h 8.59274 v -0.98598 z m 15.975762,8.17417 8.85322,11.98739 -9.29196,12.55686 h 2.85306 l 8.56229,-11.5714 -8.85323,-11.98738 h 6.8616 l -0.67956,-0.98547 z m 18.40817,0 -4.35787,6.2358 1.39681,2.0252 5.08445,-7.27553 h 5.45134 l 0.73072,-0.98547 z m -49.945262,1.59939 v 3.98425 l 5.41467,12.67107 h 1.70272 z m 20.42408,0 -2.12338,4.96869 v 17.97617 h 2.12338 z m 26.560122,16.17266 -0.70641,1.00459 4.1057,5.76761 h 1.4216 z"
         style="font-style:normal;font-weight:normal;font-size:44.88074112px;line-height:1.25;font-family:sans-serif;letter-spacing:0px;word-spacing:0px;fill:#36b691;fill-opacity:0.53007519;stroke:none;stroke-width:6.73211098;filter:url(#filter3250-9)" />
      <path
         transform="matrix(0.88750204,0,0,0.88750204,1.6701194,-126.85559)"
         id="text3223"
         d="m 102.24372,209.31531 c -5.244864,0 -9.365007,1.50487 -12.359967,4.51445 -2.98037,3.00958 -4.47053,7.16572 -4.47053,12.46901 0,4.66494 1.16158,8.44194 3.48041,11.33368 -1.57927,-2.64215 -2.37299,-5.88501 -2.37299,-9.73481 0,-5.3033 1.49018,-9.45994 4.47053,-12.46953 2.99498,-3.00958 7.114593,-4.51445 12.359457,-4.51445 5.25947,0 9.37961,1.50487 12.35996,4.51445 0.35028,0.35371 0.67792,0.72462 0.98703,1.11001 -0.58955,-0.98636 -1.28514,-1.89112 -2.09444,-2.70836 -2.98038,-3.00958 -7.09999,-4.51445 -12.35946,-4.51445 z m 34.53691,0 c -3.94459,0 -6.96852,0.87666 -9.0723,2.62981 -2.10381,1.75315 -3.15589,4.25839 -3.15589,7.51634 0,2.48564 0.68916,4.48319 2.06396,5.99446 -0.63646,-1.24016 -0.95705,-2.70434 -0.95705,-4.39559 0,-3.25795 1.05209,-5.7637 3.15587,-7.51686 2.10381,-1.75315 5.12823,-2.62981 9.07285,-2.62981 1.79697,0 3.64511,0.13893 5.54434,0.41651 1.55131,0.2148 3.14881,0.52709 4.78782,0.92708 v -1.32034 c -2.03073,-0.54055 -3.99597,-0.94212 -5.89523,-1.20509 -1.89926,-0.27758 -3.74737,-0.41651 -5.54437,-0.41651 z m -27.8448,10.05106 c 0.95787,1.78791 1.43814,4.09773 1.43814,6.9324 0,3.43326 -0.70882,6.09974 -2.12595,7.99899 -1.41714,1.89926 -3.41839,2.84893 -6.0043,2.84893 -2.328254,0 -4.182034,-0.78118 -5.564007,-2.33837 0.207303,0.38653 0.436173,0.74984 0.688343,1.0878 1.41713,1.89925 3.411274,2.84892 5.982574,2.84892 2.58591,0 4.58767,-0.94967 6.0048,-2.84892 1.41714,-1.89926 2.12545,-4.56523 2.12545,-7.99848 0,-3.44787 -0.70831,-6.12145 -2.12545,-8.0207 -0.13398,-0.17957 -0.27517,-0.34798 -0.4196,-0.51057 z m 24.42744,1.67174 c 0.11637,0.59972 0.41826,1.08983 0.90848,1.46864 0.65743,0.48212 1.84083,0.89839 3.55017,1.24902 l 3.59408,0.72295 c 3.63781,0.73049 6.22366,1.84089 7.75769,3.33107 0.0862,0.0838 0.16922,0.17012 0.25061,0.25786 -0.35354,-0.69986 -0.80491,-1.3194 -1.35752,-1.85622 -1.53403,-1.49018 -4.11988,-2.60058 -7.75767,-3.33106 l -3.5941,-0.72347 c -1.55297,-0.31856 -2.66702,-0.6917 -3.35174,-1.11879 z m 8.76329,11.63494 c 0.0715,0.2838 0.1111,0.58994 0.1111,0.92346 0,1.13955 -0.48979,2.01622 -1.46865,2.62982 -0.97882,0.61361 -2.38836,0.92036 -4.22918,0.92036 -1.8116,0 -3.69623,-0.27786 -5.65393,-0.83303 -1.94307,-0.56977 -3.95954,-1.40942 -6.04872,-2.51975 v 7.12206 c 0.36915,0.13682 0.73827,0.26571 1.10741,0.39067 v -5.91438 c 2.08918,1.11035 4.10515,1.9505 6.04822,2.52027 1.95768,0.55517 3.84233,0.83251 5.65391,0.83251 1.84081,0 3.25088,-0.30675 4.22973,-0.92036 0.97883,-0.6136 1.46812,-1.49026 1.46812,-2.62982 0,-1.02267 -0.33615,-1.81161 -1.00819,-2.36678 -0.0621,-0.0525 -0.13584,-0.10361 -0.20982,-0.15503 z"
         style="font-style:normal;font-weight:normal;font-size:44.88074112px;line-height:1.25;font-family:sans-serif;letter-spacing:0px;word-spacing:0px;fill:#d87676;fill-opacity:0.6627451;stroke:none;stroke-width:6.73211098;filter:url(#filter3238-27)" />
    </g>
    <path
       style="fill:#502d16;fill-opacity:1;stroke:#000000;stroke-width:1.58749998;stroke-linecap:butt;stroke-linejoin:miter;stroke-miterlimit:4;stroke-dasharray:none;stroke-opacity:1"
       d="m 46.452368,38.098137 c -2.640331,-6.406351 -0.632309,-17.539681 6.396303,-24.748396 7.988032,3.186263 11.808237,7.590418 16.365191,19.215307 -8.31561,0.790996 -14.511053,1.457361 -22.761494,5.533089 z"
       id="path25" />
    <path
       id="path27"
       d="m 51.17399,32.591519 c -1.56341,-3.79335 -1.045123,-10.599203 3.116682,-14.867651 4.729897,1.886661 7.032731,5.262312 9.731004,12.145682 -4.92387,0.468367 -7.962404,0.308636 -12.847686,2.721969 z"
       style="fill:#ffffff;stroke:none;stroke-width:0.30534074;stroke-linecap:butt;stroke-linejoin:miter;stroke-miterlimit:4;stroke-dasharray:none;stroke-opacity:1" />
    <path
       id="path837"
       d="m 101.35887,46.471883 c 4.98918,-4.80841 6.77237,-17.177056 2.57709,-25.365158 -7.165003,0.948237 -13.926712,5.659627 -20.360123,12.138481 7.29933,4.061429 11.861518,6.182735 17.783033,13.226677 z"
       style="fill:#502d16;fill-opacity:1;stroke:#000000;stroke-width:1.58749998;stroke-linecap:butt;stroke-linejoin:miter;stroke-miterlimit:4;stroke-dasharray:none;stroke-opacity:1" />
    <path
       style="fill:#ffffff;stroke:none;stroke-width:0.32705858;stroke-linecap:butt;stroke-linejoin:miter;stroke-miterlimit:4;stroke-dasharray:none;stroke-opacity:1"
       d="m 98.594646,42.458774 c 3.296414,-2.906379 6.016794,-9.692447 4.035534,-15.7629 -5.438003,-0.423551 -9.247574,1.731702 -15.095998,7.07115 4.510746,2.778653 7.506557,4.062069 11.060464,8.69175 z"
       id="path839" />
    <path
       style="opacity:1;fill:#502d16;fill-opacity:1;stroke:#000000;stroke-width:1.58749998;stroke-linecap:round;stroke-linejoin:bevel;stroke-miterlimit:4;stroke-dasharray:none;stroke-dashoffset:0;stroke-opacity:1;paint-order:markers stroke fill"
       d="m 61.850239,29.716819 23.325987,1.864008 C 126.38466,44.258787 91.042769,77.838504 68.386162,77.284931 33.726042,63.331151 26.944057,27.806319 61.850239,29.716819 Z"
       id="rect23" />
    <path
       style="opacity:1;fill:#ffffff;fill-opacity:0.99502486;stroke:none;stroke-width:0.54903477;stroke-linecap:round;stroke-linejoin:bevel;stroke-miterlimit:4;stroke-dasharray:none;stroke-dashoffset:0;stroke-opacity:1;paint-order:markers stroke fill"
       d="m 76.130272,54.116828 c -6.411325,2.530025 -15.843547,1.708055 -12.676414,17.146481 5.119171,0.321613 10.929846,0.959185 15.955087,1.206502 0.895049,-1.263625 3.563499,-6.983725 3.563343,-8.601828 -0.318431,-4.299184 -3.525417,-7.925964 -6.842016,-9.751165 z"
       id="path879" />
    <path
       style="fill:#000000;fill-opacity:1;stroke:none;stroke-width:0.51485991px;stroke-linecap:butt;stroke-linejoin:miter;stroke-opacity:1"
       d="m 79.736036,60.247091 c -0.03931,-0.207646 -0.02997,-0.737849 -0.338124,-1.082381 -2.157508,-0.900363 -4.38254,-1.756013 -6.606618,-1.093059 -0.388193,0.1929 -0.455853,0.315501 -0.635852,0.614491 -0.179998,0.29899 -0.375272,0.714109 -0.335886,1.162145 0.376634,1.292582 1.308461,2.192066 2.31361,3.178057 0.462002,0.451701 0.727797,0.754538 1.061037,0.912191 0.33324,0.157659 0.452759,0.172565 0.800418,0.140418 0.347659,-0.03215 0.786427,-0.24306 1.20089,-0.449352 0.414483,-0.206293 0.961424,-0.538718 1.262693,-0.801533 0.301268,-0.262815 0.424893,-0.468114 0.583039,-0.689759 0.158204,-0.221645 0.269394,-0.408244 0.374085,-0.627414 0.104691,-0.21917 0.200314,-0.491709 0.251647,-0.681892 0.05137,-0.190175 0.07375,-0.350162 0.07862,-0.448229 0.0039,-0.09807 0.02977,0.07395 -0.0097,-0.133685 z"
       id="path887" />
    <path
       style="fill:#ffffff;stroke:#000000;stroke-width:1.55680835;stroke-linecap:butt;stroke-linejoin:miter;stroke-miterlimit:4;stroke-dasharray:none;stroke-opacity:1"
       d="m 112.24143,44.241336 c -1.69113,0.118663 -1.08334,1.826337 -2.1146,3.171907 -1.85108,2.415372 -4.58918,3.482346 -7.33745,6.683283 -7.196332,9.571943 -7.566116,16.432207 -21.255657,15.336173 -6.111224,0.03363 -12.68445,-0.06087 -18.020105,-2.022659 -4.138171,-1.56834 -7.595402,-4.543917 -11.400469,-6.803509 -4.311864,-2.443692 -8.381498,-6.252047 -13.239253,-5.700234 -4.630568,1.188232 -9.488187,4.3232 -11.019631,8.642293 -0.846693,2.572242 -1.516501,5.555423 -0.564709,8.090655 1.357363,3.615537 3.900242,6.83111 6.803508,9.377809 3.092681,2.712874 6.850248,4.916711 10.848817,5.884113 9.272948,0.795731 16.32279,-3.594609 25.146753,-2.908589 8.823983,0.686025 27.212744,3.712547 33.705546,1.05866 6.49278,-2.653891 13.56403,-12.871267 14.91456,-19.576536 0.68892,-5.267664 -0.0397,-8.014411 -2.23673,-12.174066 -0.71133,-1.361357 -2.48829,-4.720464 -3.1273,-6.117233 -0.43573,-0.95244 -0.0586,-3.015378 -1.10328,-2.942067 z"
       id="path841" />
    <path
       style="fill:#502d16;fill-opacity:1;stroke:none;stroke-width:0.51485991px;stroke-linecap:butt;stroke-linejoin:miter;stroke-opacity:1"
       d="m 112.24188,44.24078 c -1.69113,0.118701 -1.08348,1.826048 -2.11474,3.171618 -1.85108,2.415363 -4.58949,3.483198 -7.33776,6.684128 -1.05652,1.405291 -1.9434,2.72742 -2.76939,3.999216 5.90885,9.988626 11.95691,10.818451 17.78177,10.399768 0.40077,-1.055041 0.71645,-2.074505 0.90706,-3.020776 0.68889,-5.267669 -0.0395,-8.014956 -2.23644,-12.174629 -0.71133,-1.361351 -2.48837,-4.720215 -3.12738,-6.116978 -0.43571,-0.952456 -0.0584,-3.01567 -1.10312,-2.942347 z M 39.776359,54.851723 c -0.297688,0.0018 -0.598393,0.01981 -0.901996,0.05431 -4.630568,1.18824 -9.488751,4.322919 -11.020215,8.642 -0.846673,2.572247 -1.515936,5.555716 -0.564144,8.090948 1.357382,3.615531 3.899541,6.831398 6.802787,9.378092 1.784124,1.565014 3.794714,2.949864 5.940002,4.036419 C 39.911756,84.418351 39.793463,83.8116 39.793463,83.8116 29.693438,73.267592 33.790822,65.12437 47.835125,57.919771 45.260935,56.280048 42.651311,54.834137 39.776359,54.85173 Z m 10.758779,4.803685 c -7.477965,11.832097 -9.260766,17.344651 -3.4562,27.331821 5.829278,0.02987 10.854441,-1.783495 16.167796,-2.635639 -5.53628,-6.975884 -7.216842,-11.441301 -2.155971,-18.044235 -3.119944,-1.636465 -5.938387,-3.896716 -8.977867,-5.70167 -0.529117,-0.299876 -1.054031,-0.619887 -1.577758,-0.950277 z m 46.876379,2.484802 c -1.695,2.546256 -3.331466,4.5703 -5.740894,5.854521 1.15915,8.916375 1.688754,13.927142 8.870257,17.840093 1.26588,-0.170969 2.37183,-0.424152 3.25308,-0.784359 3.79301,-1.550367 7.7755,-5.683894 10.70747,-10.188593 -10.69242,1.367993 -12.471,-0.233778 -17.089913,-12.721662 z M 70.83589,69.027468 c -2.22404,4.656872 -2.473605,8.980208 -0.111697,15.020432 4.12451,0.351355 10.031295,1.122215 15.865127,1.62101 -3.141388,-6.475254 -4.312409,-11.142141 -1.077985,-16.157757 -1.190674,0.06001 -2.502502,0.0396 -3.977087,-0.07844 -3.521408,0.01946 -7.195417,-0.0068 -10.698436,-0.405251 z"
       id="path900" />
    <path
       style="opacity:1;fill:#ffffff;fill-opacity:1;stroke:none;stroke-width:0.51567072;stroke-linecap:round;stroke-linejoin:bevel;stroke-miterlimit:4;stroke-dasharray:none;stroke-dashoffset:0;stroke-opacity:1;paint-order:markers stroke fill"
       d="m 59.640463,33.223135 c -8.277294,1.924544 -15.762051,10.785386 -8.850642,19.347985 5.1636,2.053209 14.940564,2.348117 18.056222,-1.818362 2.495749,-3.529358 1.72415,-8.536768 -1.797765,-11.666619 l -0.01557,-0.01362 c -0.05449,-0.04993 -0.109556,-0.0993 -0.165015,-0.148066 l -2.837201,-2.545496 -3.061177,-2.435111 z"
       id="path843" />
    <ellipse
       ry="5.2083459"
       rx="5.7482886"
       cy="35.469395"
       cx="68.800079"
       id="ellipse856"
       style="opacity:1;fill:#000000;fill-opacity:1;stroke:none;stroke-width:0.50325954;stroke-linecap:round;stroke-linejoin:bevel;stroke-miterlimit:4;stroke-dasharray:none;stroke-dashoffset:0;stroke-opacity:1;paint-order:markers stroke fill"
       transform="rotate(8.9247609)" />
    <path
       style="opacity:1;fill:#ffffff;fill-opacity:1;stroke:none;stroke-width:0.49206892;stroke-linecap:round;stroke-linejoin:bevel;stroke-miterlimit:4;stroke-dasharray:none;stroke-dashoffset:0;stroke-opacity:1;paint-order:markers stroke fill"
       d="m 62.95304,41.377027 a 3.8172657,4.3260147 8.9247609 0 0 -4.442141,3.681401 3.8172657,4.3260147 8.9247609 0 0 1.300191,3.987818 3.8172657,4.3260147 8.9247609 0 1 -0.484632,-2.938195 3.8172657,4.3260147 8.9247609 0 1 4.442574,-3.681333 3.8172657,4.3260147 8.9247609 0 1 1.800053,0.878626 3.8172657,4.3260147 8.9247609 0 0 -2.616045,-1.928317 z"
       id="path918" />
    <path
       style="opacity:1;fill:#ffffff;fill-opacity:1;stroke:none;stroke-width:0.51567072;stroke-linecap:round;stroke-linejoin:bevel;stroke-miterlimit:4;stroke-dasharray:none;stroke-dashoffset:0;stroke-opacity:1;paint-order:markers stroke fill"
       d="m 96.636863,40.109877 c 0,0 -7.79231,0.53717 -10.482341,1.708217 -2.690031,1.171048 -8.479534,4.410703 -7.673434,10.160973 3.271222,6.771066 12.205484,10.268393 17.788734,9.591805 3.951088,-7.233815 3.596872,-13.078408 0.367041,-21.460995 z"
       id="ellipse847" />
    <ellipse
       style="opacity:1;fill:#000000;fill-opacity:1;stroke:none;stroke-width:0.46566376;stroke-linecap:round;stroke-linejoin:bevel;stroke-miterlimit:4;stroke-dasharray:none;stroke-dashoffset:0;stroke-opacity:1;paint-order:markers stroke fill"
       id="path854"
       cx="82.861496"
       cy="55.81905"
       rx="5.136817"
       ry="4.9900508"
       transform="rotate(-3.7295524)" />
    <path
       style="fill:#502d16;fill-opacity:1;stroke:none;stroke-width:0.51485991px;stroke-linecap:butt;stroke-linejoin:miter;stroke-opacity:1"
       d="m 95.0816,39.82842 -4.114333,0.434275 c 4.687097,6.309759 5.219756,11.596552 -0.948834,16.561171 -0.877594,1.114913 -0.61573,0.59215 -0.654649,0.954302 -0.03892,0.362153 0.114421,0.780864 0.388154,0.952291 0.273773,0.171416 0.439897,0.03541 0.908048,-0.05933 0.468151,-0.09475 0.588351,0.240846 1.847269,-0.641562 C 99.440711,53.454483 98.23373,45.934202 95.0816,39.82842 Z"
       id="path916" />
    <path
       id="path923"
       d="m 86.703955,47.157429 a 3.389989,3.7987879 73.09501 0 1 3.049871,3.788643 3.389989,3.7987879 73.09501 0 1 -2.41725,2.750595 3.389989,3.7987879 73.09501 0 0 1.337961,-2.131428 3.389989,3.7987879 73.09501 0 0 -3.05028,-3.788688 3.389989,3.7987879 73.09501 0 0 -1.949333,0.270885 3.389989,3.7987879 73.09501 0 1 3.029031,-0.890001 z"
       style="opacity:1;fill:#ffffff;fill-opacity:1;stroke:none;stroke-width:0.43453765;stroke-linecap:round;stroke-linejoin:bevel;stroke-miterlimit:4;stroke-dasharray:none;stroke-dashoffset:0;stroke-opacity:1;paint-order:markers stroke fill" />
    <path
       style="fill:#000000;stroke:#000000;stroke-width:0.51485991px;stroke-linecap:butt;stroke-linejoin:miter;stroke-opacity:1"
       d="m 67.375077,61.663827 c -0.278987,-0.08959 -1.212896,0.199787 -1.498909,0.651464 -0.286012,0.451677 -0.351804,1.032468 0.07375,2.014774 0.425652,0.982308 2.412911,1.730523 3.86144,2.298485 1.448548,0.567958 3.437928,1.080392 4.734869,1.011335 1.296941,-0.06906 1.670268,0.02903 2.804159,-0.919396 -1.369037,0.221735 -1.589375,0.357626 -2.850122,0.275822 -1.260746,-0.08181 -3.344815,-0.471864 -4.596961,-1.057306 -1.252146,-0.585448 -2.567885,-1.324589 -2.850122,-2.160571 -0.282237,-0.835982 0.463461,-1.288677 0.459706,-1.654909 0.06713,-0.390728 -0.09846,-0.354063 -0.137967,-0.459698 z"
       id="path941" />
    <path
       style="opacity:1;fill:#502d16;fill-opacity:1;stroke:none;stroke-width:0.51567072;stroke-linecap:round;stroke-linejoin:bevel;stroke-miterlimit:4;stroke-dasharray:none;stroke-dashoffset:0;stroke-opacity:1;paint-order:markers stroke fill"
       d="m 62.886387,33.712014 c -4.034783,1.027795 -9.735358,3.592642 -11.789168,7.347283 -1.60179,4.043381 -0.470564,9.529575 3.740793,11.380218 1.023713,0.469211 2.103917,0.905319 2.731167,0.626475 0.627367,-0.278828 0.525537,-0.716391 0.641573,-1.150387 0.115977,-0.433991 0.459842,-0.747705 0.01946,-1.37866 -7.64442,-3.087837 -5.092706,-12.219255 6.50253,-14.41472 z"
       id="path957" />
  </g>
</svg>
