<?xml version="1.0" encoding="UTF-8" standalone="no"?>
<!--
Propuesta cxt1 para logotipo proyecto MxOS.
Autor: Miguel Angel Marcial Martinez @fitorec
Licencia: Creative Commons CC BY-SA 4.0
-->
<svg
   xmlns:dc="http://purl.org/dc/elements/1.1/"
   xmlns:cc="http://creativecommons.org/ns#"
   xmlns:rdf="http://www.w3.org/1999/02/22-rdf-syntax-ns#"
   xmlns:svg="http://www.w3.org/2000/svg"
   xmlns="http://www.w3.org/2000/svg"
   id="propuesta-00"
   version="1.1"
   viewBox="0 0 150 150"
   height="150mm"
   width="150mm">
  <defs
     id="defs248">
    <filter
       height="1.2606643"
       y="-0.13033222"
       width="1.1239401"
       x="-0.061970063"
       id="filter3304-3"
       style="color-interpolation-filters:sRGB">
      <feGaussianBlur
         id="feGaussianBlur3306-7"
         stdDeviation="1.7767668" />
    </filter>
    <filter
       height="1.4545048"
       y="-0.22725242"
       width="1.2375263"
       x="-0.11876316"
       id="filter3376-3"
       style="color-interpolation-filters:sRGB">
      <feGaussianBlur
         id="feGaussianBlur3378-6"
         stdDeviation="3.2142434" />
    </filter>
    <filter
       height="1.0741538"
       y="-0.03707692"
       width="1.0354847"
       x="-0.017742332"
       id="filter3250-5"
       style="color-interpolation-filters:sRGB">
      <feGaussianBlur
         id="feGaussianBlur3252-9"
         stdDeviation="0.50545754" />
    </filter>
    <filter
       height="1.108032"
       y="-0.05401599"
       width="1.053992"
       x="-0.026996003"
       id="filter3238-2"
       style="color-interpolation-filters:sRGB">
      <feGaussianBlur
         id="feGaussianBlur3240-2"
         stdDeviation="0.72001796" />
    </filter>
    <filter
       height="1.2606643"
       y="-0.13033222"
       width="1.1239401"
       x="-0.061970063"
       id="filter3304"
       style="color-interpolation-filters:sRGB">
      <feGaussianBlur
         id="feGaussianBlur3306"
         stdDeviation="1.7767668" />
    </filter>
    <filter
       height="1.4545048"
       y="-0.22725242"
       width="1.2375263"
       x="-0.11876316"
       id="filter3376"
       style="color-interpolation-filters:sRGB">
      <feGaussianBlur
         id="feGaussianBlur3378"
         stdDeviation="3.2142434" />
    </filter>
    <filter
       height="1.0741538"
       y="-0.03707692"
       width="1.0354847"
       x="-0.017742332"
       id="filter3250"
       style="color-interpolation-filters:sRGB">
      <feGaussianBlur
         id="feGaussianBlur3252"
         stdDeviation="0.50545754" />
    </filter>
    <filter
       height="1.108032"
       y="-0.05401599"
       width="1.053992"
       x="-0.026996003"
       id="filter3238"
       style="color-interpolation-filters:sRGB">
      <feGaussianBlur
         id="feGaussianBlur3240"
         stdDeviation="0.72001796" />
    </filter>
    <filter
       height="1.2606643"
       y="-0.13033222"
       width="1.1239401"
       x="-0.061970063"
       id="filter3304-36"
       style="color-interpolation-filters:sRGB">
      <feGaussianBlur
         id="feGaussianBlur3306-75"
         stdDeviation="1.7767668" />
    </filter>
    <filter
       height="1.4545048"
       y="-0.22725242"
       width="1.2375263"
       x="-0.11876316"
       id="filter3376-35"
       style="color-interpolation-filters:sRGB">
      <feGaussianBlur
         id="feGaussianBlur3378-62"
         stdDeviation="3.2142434" />
    </filter>
    <filter
       height="1.0741538"
       y="-0.03707692"
       width="1.0354847"
       x="-0.017742332"
       id="filter3250-9"
       style="color-interpolation-filters:sRGB">
      <feGaussianBlur
         id="feGaussianBlur3252-1"
         stdDeviation="0.50545754" />
    </filter>
    <filter
       height="1.108032"
       y="-0.05401599"
       width="1.053992"
       x="-0.026996003"
       id="filter3238-27"
       style="color-interpolation-filters:sRGB">
      <feGaussianBlur
         id="feGaussianBlur3240-0"
         stdDeviation="0.72001796" />
    </filter>
    <filter
       height="1.4503051"
       y="-0.22515257"
       width="1.0857033"
       x="-0.042851612"
       id="filter1375"
       style="color-interpolation-filters:sRGB">
      <feGaussianBlur
         id="feGaussianBlur1377"
         stdDeviation="1.2438038" />
    </filter>
    <filter
       height="1.2606643"
       y="-0.13033222"
       width="1.1239401"
       x="-0.061970063"
       id="filter3304-3-9"
       style="color-interpolation-filters:sRGB">
      <feGaussianBlur
         id="feGaussianBlur3306-7-3"
         stdDeviation="1.7767668" />
    </filter>
    <filter
       height="1.4545048"
       y="-0.22725242"
       width="1.2375263"
       x="-0.11876316"
       id="filter3376-3-6"
       style="color-interpolation-filters:sRGB">
      <feGaussianBlur
         id="feGaussianBlur3378-6-0"
         stdDeviation="3.2142434" />
    </filter>
    <filter
       height="1.0741538"
       y="-0.03707692"
       width="1.0354847"
       x="-0.017742332"
       id="filter3250-5-6"
       style="color-interpolation-filters:sRGB">
      <feGaussianBlur
         id="feGaussianBlur3252-9-2"
         stdDeviation="0.50545754" />
    </filter>
    <filter
       height="1.108032"
       y="-0.05401599"
       width="1.053992"
       x="-0.026996003"
       id="filter3238-2-6"
       style="color-interpolation-filters:sRGB">
      <feGaussianBlur
         id="feGaussianBlur3240-2-1"
         stdDeviation="0.72001796" />
    </filter>
  </defs>
  <metadata
     id="metadata251">
    <rdf:RDF>
      <cc:Work
         rdf:about="">
        <dc:format>image/svg+xml</dc:format>
        <dc:type
           rdf:resource="http://purl.org/dc/dcmitype/StillImage" />
        <dc:title></dc:title>
      </cc:Work>
    </rdf:RDF>
  </metadata>
  <g
     transform="translate(-150.3952,0.78819436)"
     id="g1417">
    <ellipse
       style="opacity:1;fill:#808080;fill-opacity:0.3351064;stroke:none;stroke-width:1.58749998;stroke-linecap:round;stroke-linejoin:bevel;stroke-miterlimit:4;stroke-dasharray:none;stroke-dashoffset:0;stroke-opacity:1;paint-order:markers stroke fill;filter:url(#filter1375)"
       id="path1337"
       cx="223.59254"
       cy="87.191833"
       rx="34.831001"
       ry="6.6291256"
       transform="matrix(1.3566428,0,0,1.1329835,-80.900558,-7.3597145)" />
    <g
       id="g1074"
       transform="matrix(0.86088773,0,0,0.86088773,32.400223,6.3302617)">
      <path
         style="fill:#000000;fill-opacity:1;stroke:#000000;stroke-width:1.58749998;stroke-linecap:butt;stroke-linejoin:miter;stroke-miterlimit:4;stroke-dasharray:none;stroke-opacity:1"
         d="m 196.77016,38.098137 c -2.64033,-6.406351 -0.63231,-17.539681 6.39631,-24.748396 7.98803,3.186263 11.80823,7.590418 16.36519,19.215307 -8.31561,0.790996 -14.51106,1.457361 -22.7615,5.533089 z"
         id="path980" />
      <path
         id="path982"
         d="m 201.49179,32.591519 c -1.56341,-3.79335 -1.04513,-10.599203 3.11668,-14.867651 4.72989,1.886661 7.03273,5.262312 9.731,12.145682 -4.92387,0.468367 -7.9624,0.308636 -12.84768,2.721969 z"
         style="fill:#ffffff;stroke:none;stroke-width:0.30534074;stroke-linecap:butt;stroke-linejoin:miter;stroke-miterlimit:4;stroke-dasharray:none;stroke-opacity:1" />
      <path
         id="path984"
         d="m 251.67667,46.471883 c 4.98918,-4.80841 6.77237,-17.177056 2.57709,-25.365158 -7.16501,0.948237 -13.92672,5.659627 -20.36013,12.138481 7.29933,4.061429 11.86152,6.182735 17.78304,13.226677 z"
         style="fill:#000000;fill-opacity:1;stroke:#000000;stroke-width:1.58749998;stroke-linecap:butt;stroke-linejoin:miter;stroke-miterlimit:4;stroke-dasharray:none;stroke-opacity:1" />
      <path
         style="fill:#ffffff;stroke:none;stroke-width:0.32705858;stroke-linecap:butt;stroke-linejoin:miter;stroke-miterlimit:4;stroke-dasharray:none;stroke-opacity:1"
         d="m 248.91244,42.458774 c 3.29642,-2.906379 6.0168,-9.692447 4.03554,-15.7629 -5.43801,-0.423551 -9.24758,1.731702 -15.096,7.07115 4.51074,2.778653 7.50655,4.062069 11.06046,8.69175 z"
         id="path986" />
      <path
         style="opacity:1;fill:#000000;fill-opacity:1;stroke:#000000;stroke-width:1.58749998;stroke-linecap:round;stroke-linejoin:bevel;stroke-miterlimit:4;stroke-dasharray:none;stroke-dashoffset:0;stroke-opacity:1;paint-order:markers stroke fill"
         d="m 212.16803,29.716819 23.32599,1.864008 c 41.20844,12.67796 5.86654,46.257677 -16.79006,45.704104 -34.66012,-13.95378 -41.44211,-49.478612 -6.53593,-47.568112 z"
         id="path988" />
      <path
         style="opacity:1;fill:#ffffff;fill-opacity:0.99502486;stroke:none;stroke-width:0.54903477;stroke-linecap:round;stroke-linejoin:bevel;stroke-miterlimit:4;stroke-dasharray:none;stroke-dashoffset:0;stroke-opacity:1;paint-order:markers stroke fill"
         d="m 226.44807,54.116828 c -6.41133,2.530025 -15.84355,1.708055 -12.67642,17.146481 5.11917,0.321613 10.92985,0.959185 15.95509,1.206502 0.89505,-1.263625 3.5635,-6.983725 3.56334,-8.601828 -0.31843,-4.299184 -3.52541,-7.925964 -6.84201,-9.751165 z"
         id="path990" />
      <path
         style="fill:#000000;fill-opacity:1;stroke:none;stroke-width:0.51485991px;stroke-linecap:butt;stroke-linejoin:miter;stroke-opacity:1"
         d="m 230.05383,60.247091 c -0.0393,-0.207646 -0.03,-0.737849 -0.33812,-1.082381 -2.15751,-0.900363 -4.38254,-1.756013 -6.60662,-1.093059 -0.38819,0.1929 -0.45585,0.315501 -0.63585,0.614491 -0.18,0.29899 -0.37527,0.714109 -0.33589,1.162145 0.37664,1.292582 1.30846,2.192066 2.31361,3.178057 0.462,0.451701 0.7278,0.754538 1.06104,0.912191 0.33324,0.157659 0.45276,0.172565 0.80042,0.140418 0.34766,-0.03215 0.78642,-0.24306 1.20089,-0.449352 0.41448,-0.206293 0.96142,-0.538718 1.26269,-0.801533 0.30127,-0.262815 0.42489,-0.468114 0.58304,-0.689759 0.1582,-0.221645 0.26939,-0.408244 0.37408,-0.627414 0.10469,-0.21917 0.20032,-0.491709 0.25165,-0.681892 0.0514,-0.190175 0.0737,-0.350162 0.0786,-0.448229 0.004,-0.09807 0.0298,0.07395 -0.01,-0.133685 z"
         id="path992" />
      <path
         style="fill:#ffffff;stroke:#000000;stroke-width:1.55680835;stroke-linecap:butt;stroke-linejoin:miter;stroke-miterlimit:4;stroke-dasharray:none;stroke-opacity:1"
         d="m 262.55923,44.241336 c -1.69113,0.118663 -1.08334,1.826337 -2.1146,3.171907 -1.85108,2.415372 -4.58918,3.482346 -7.33745,6.683283 -7.19634,9.571943 -7.56612,16.432207 -21.25566,15.336173 -6.11123,0.03363 -12.68445,-0.06087 -18.02011,-2.022659 -4.13817,-1.56834 -7.5954,-4.543917 -11.40047,-6.803509 -4.31186,-2.443692 -8.38149,-6.252047 -13.23925,-5.700234 -4.63057,1.188232 -9.48819,4.3232 -11.01963,8.642293 -0.84669,2.572242 -1.5165,5.555423 -0.56471,8.090655 1.35736,3.615537 3.90024,6.83111 6.80351,9.377809 3.09268,2.712874 6.85025,4.916711 10.84882,5.884113 9.27294,0.795731 16.32279,-3.594609 25.14675,-2.908589 8.82398,0.686025 27.21274,3.712547 33.70555,1.05866 6.49278,-2.653891 13.56403,-12.871267 14.91456,-19.576536 0.68892,-5.267664 -0.0397,-8.014411 -2.23673,-12.174066 -0.71133,-1.361357 -2.48829,-4.720464 -3.1273,-6.117233 -0.43573,-0.95244 -0.0586,-3.015378 -1.10328,-2.942067 z"
         id="path994" />
      <path
         style="fill:#000000;fill-opacity:1;stroke:none;stroke-width:0.51485991px;stroke-linecap:butt;stroke-linejoin:miter;stroke-opacity:1"
         d="m 262.55968,44.24078 c -1.69113,0.118701 -1.08348,1.826048 -2.11474,3.171618 -1.85108,2.415363 -4.58949,3.483198 -7.33776,6.684128 -1.05652,1.405291 -1.9434,2.72742 -2.76939,3.999216 5.90885,9.988626 11.95691,10.818451 17.78177,10.399768 0.40077,-1.055041 0.71645,-2.074505 0.90706,-3.020776 0.68889,-5.267669 -0.0395,-8.014956 -2.23644,-12.174629 -0.71133,-1.361351 -2.48837,-4.720215 -3.12738,-6.116978 -0.43571,-0.952456 -0.0584,-3.01567 -1.10312,-2.942347 z m -72.46553,10.610943 c -0.29768,0.0018 -0.59839,0.01981 -0.90199,0.05431 -4.63057,1.18824 -9.48875,4.322919 -11.02022,8.642 -0.84667,2.572247 -1.51593,5.555716 -0.56414,8.090948 1.35738,3.615531 3.89954,6.831398 6.80279,9.378092 1.78412,1.565014 3.79471,2.949864 5.94,4.036419 -0.12104,-0.635141 -0.23933,-1.241892 -0.23933,-1.241892 -10.10003,-10.544008 -6.00264,-18.68723 8.04166,-25.891829 -2.57419,-1.639723 -5.18381,-3.085634 -8.05877,-3.068041 z m 10.75878,4.803685 c -7.47796,11.832097 -9.26076,17.344651 -3.4562,27.331821 5.82928,0.02987 10.85444,-1.783495 16.1678,-2.635639 -5.53628,-6.975884 -7.21684,-11.441301 -2.15597,-18.044235 -3.11995,-1.636465 -5.93839,-3.896716 -8.97787,-5.70167 -0.52912,-0.299876 -1.05403,-0.619887 -1.57776,-0.950277 z m 46.87638,2.484802 c -1.695,2.546256 -3.33146,4.5703 -5.74089,5.854521 1.15915,8.916375 1.68875,13.927142 8.87026,17.840093 1.26588,-0.170969 2.37183,-0.424152 3.25308,-0.784359 3.79301,-1.550367 7.7755,-5.683894 10.70747,-10.188593 -10.69242,1.367993 -12.471,-0.233778 -17.08992,-12.721662 z m -26.57562,6.887258 c -2.22404,4.656872 -2.47361,8.980208 -0.1117,15.020432 4.12451,0.351355 10.03129,1.122215 15.86513,1.62101 -3.14139,-6.475254 -4.31241,-11.142141 -1.07799,-16.157757 -1.19067,0.06001 -2.5025,0.0396 -3.97709,-0.07844 -3.5214,0.01946 -7.19541,-0.0068 -10.69843,-0.405251 z"
         id="path996" />
      <path
         style="opacity:1;fill:#ffffff;fill-opacity:1;stroke:none;stroke-width:0.51567072;stroke-linecap:round;stroke-linejoin:bevel;stroke-miterlimit:4;stroke-dasharray:none;stroke-dashoffset:0;stroke-opacity:1;paint-order:markers stroke fill"
         d="m 209.95826,33.223135 c -8.2773,1.924544 -15.76205,10.785386 -8.85064,19.347985 5.1636,2.053209 14.94056,2.348117 18.05622,-1.818362 2.49575,-3.529358 1.72415,-8.536768 -1.79777,-11.666619 l -0.0156,-0.01362 c -0.0545,-0.04993 -0.10955,-0.0993 -0.16501,-0.148066 l -2.8372,-2.545496 -3.06118,-2.435111 z"
         id="path998" />
      <ellipse
         ry="5.2083459"
         rx="5.7482886"
         cy="12.149493"
         cx="217.29796"
         id="ellipse1000"
         style="opacity:1;fill:#000000;fill-opacity:1;stroke:none;stroke-width:0.50325954;stroke-linecap:round;stroke-linejoin:bevel;stroke-miterlimit:4;stroke-dasharray:none;stroke-dashoffset:0;stroke-opacity:1;paint-order:markers stroke fill"
         transform="rotate(8.9247609)" />
      <path
         style="opacity:1;fill:#ffffff;fill-opacity:1;stroke:none;stroke-width:0.49206892;stroke-linecap:round;stroke-linejoin:bevel;stroke-miterlimit:4;stroke-dasharray:none;stroke-dashoffset:0;stroke-opacity:1;paint-order:markers stroke fill"
         d="m 213.27084,41.377027 a 3.8172657,4.3260147 8.9247609 0 0 -4.44215,3.681401 3.8172657,4.3260147 8.9247609 0 0 1.3002,3.987818 3.8172657,4.3260147 8.9247609 0 1 -0.48464,-2.938195 3.8172657,4.3260147 8.9247609 0 1 4.44258,-3.681333 3.8172657,4.3260147 8.9247609 0 1 1.80005,0.878626 3.8172657,4.3260147 8.9247609 0 0 -2.61604,-1.928317 z"
         id="path1002" />
      <path
         style="opacity:1;fill:#ffffff;fill-opacity:1;stroke:none;stroke-width:0.51567072;stroke-linecap:round;stroke-linejoin:bevel;stroke-miterlimit:4;stroke-dasharray:none;stroke-dashoffset:0;stroke-opacity:1;paint-order:markers stroke fill"
         d="m 246.95466,40.109877 c 0,0 -7.79231,0.53717 -10.48234,1.708217 -2.69003,1.171048 -8.47954,4.410703 -7.67344,10.160973 3.27123,6.771066 12.20549,10.268393 17.78874,9.591805 3.95109,-7.233815 3.59687,-13.078408 0.36704,-21.460995 z"
         id="path1004" />
      <ellipse
         style="opacity:1;fill:#000000;fill-opacity:1;stroke:none;stroke-width:0.46566376;stroke-linecap:round;stroke-linejoin:bevel;stroke-miterlimit:4;stroke-dasharray:none;stroke-dashoffset:0;stroke-opacity:1;paint-order:markers stroke fill"
         id="ellipse1006"
         cx="232.86095"
         cy="65.596771"
         rx="5.136817"
         ry="4.9900508"
         transform="rotate(-3.7295524)" />
      <path
         style="fill:#000000;fill-opacity:1;stroke:none;stroke-width:0.51485991px;stroke-linecap:butt;stroke-linejoin:miter;stroke-opacity:1"
         d="m 245.3994,39.82842 -4.11434,0.434275 c 4.6871,6.309759 5.21976,11.596552 -0.94883,16.561171 -0.8776,1.114913 -0.61573,0.59215 -0.65465,0.954302 -0.0389,0.362153 0.11442,0.780864 0.38815,0.952291 0.27378,0.171416 0.4399,0.03541 0.90805,-0.05933 0.46815,-0.09475 0.58835,0.240846 1.84727,-0.641562 6.93346,-4.575084 5.72648,-12.095365 2.57435,-18.201147 z"
         id="path1008" />
      <path
         id="path1010"
         d="m 237.02175,47.157429 a 3.389989,3.7987879 73.09501 0 1 3.04987,3.788643 3.389989,3.7987879 73.09501 0 1 -2.41725,2.750595 3.389989,3.7987879 73.09501 0 0 1.33796,-2.131428 3.389989,3.7987879 73.09501 0 0 -3.05028,-3.788688 3.389989,3.7987879 73.09501 0 0 -1.94933,0.270885 3.389989,3.7987879 73.09501 0 1 3.02903,-0.890001 z"
         style="opacity:1;fill:#ffffff;fill-opacity:1;stroke:none;stroke-width:0.43453765;stroke-linecap:round;stroke-linejoin:bevel;stroke-miterlimit:4;stroke-dasharray:none;stroke-dashoffset:0;stroke-opacity:1;paint-order:markers stroke fill" />
      <path
         style="fill:#000000;stroke:#000000;stroke-width:0.51485991px;stroke-linecap:butt;stroke-linejoin:miter;stroke-opacity:1"
         d="m 217.69287,61.663827 c -0.27898,-0.08959 -1.21289,0.199787 -1.49891,0.651464 -0.28601,0.451677 -0.3518,1.032468 0.0737,2.014774 0.42566,0.982308 2.41291,1.730523 3.86144,2.298485 1.44855,0.567958 3.43793,1.080392 4.73487,1.011335 1.29694,-0.06906 1.67027,0.02903 2.80416,-0.919396 -1.36904,0.221735 -1.58937,0.357626 -2.85012,0.275822 -1.26075,-0.08181 -3.34482,-0.471864 -4.59696,-1.057306 -1.25215,-0.585448 -2.56789,-1.324589 -2.85012,-2.160571 -0.28224,-0.835982 0.46346,-1.288677 0.4597,-1.654909 0.0671,-0.390728 -0.0985,-0.354063 -0.13796,-0.459698 z"
         id="path1012" />
      <path
         style="opacity:1;fill:#000000;fill-opacity:1;stroke:none;stroke-width:0.51567072;stroke-linecap:round;stroke-linejoin:bevel;stroke-miterlimit:4;stroke-dasharray:none;stroke-dashoffset:0;stroke-opacity:1;paint-order:markers stroke fill"
         d="m 213.20418,33.712014 c -4.03478,1.027795 -9.73536,3.592642 -11.78917,7.347283 -1.60179,4.043381 -0.47056,9.529575 3.7408,11.380218 1.02371,0.469211 2.10391,0.905319 2.73116,0.626475 0.62737,-0.278828 0.52554,-0.716391 0.64158,-1.150387 0.11597,-0.433991 0.45984,-0.747705 0.0195,-1.37866 -7.64442,-3.087837 -5.09271,-12.219255 6.50253,-14.41472 z"
         id="path1014" />
    </g>
    <text
       transform="matrix(0.7782703,0,0,0.7782703,158.7094,-62.234497)"
       id="text3258-7"
       y="243.36633"
       x="11.263751"
       style="font-style:normal;font-weight:normal;font-size:44.88074112px;line-height:1.25;font-family:sans-serif;letter-spacing:0px;word-spacing:0px;fill:#ffffff;fill-opacity:1;stroke:none;stroke-width:6.73211098;filter:url(#filter3304-3-9)"
       xml:space="preserve"><tspan
         style="font-weight:bold;fill:#ffffff;fill-opacity:1;stroke-width:6.73211098"
         y="243.36633"
         x="11.263751"
         id="tspan3256-5">Mx<tspan
   id="tspan3254-3"
   style="fill:#ffffff;fill-opacity:1;stroke-width:6.73211098" /></tspan></text>
    <path
       style="font-style:normal;font-weight:bold;font-size:39.83174896px;line-height:1.25;font-family:sans-serif;letter-spacing:0px;word-spacing:0px;fill:#00815b;fill-opacity:1;stroke:none;stroke-width:5.23940229"
       d="m 170.05799,100.97844 v 25.46364 h 6.22509 v -18.62406 l 5.86709,13.72945 h 4.16139 l 5.86709,-13.72945 v 18.62406 h 6.20832 v -25.46364 h -8.34 l -5.8331,13.62749 -5.79866,-13.62749 z m 32.42239,6.36195 6.89033,9.32924 -7.23156,9.77245 h 6.46391 l 4.24703,-6.03748 4.29779,6.03748 h 6.46391 l -7.23157,-9.80643 6.89033,-9.29526 h -6.4639 l -3.95656,5.66226 -3.9058,-5.66226 z"
       id="path354-5" />
    <text
       transform="matrix(0.7782703,0,0,0.7782703,158.7094,-62.234497)"
       xml:space="preserve"
       style="font-style:normal;font-weight:normal;font-size:44.88074112px;line-height:1.25;font-family:sans-serif;letter-spacing:0px;word-spacing:0px;fill:#ffffff;fill-opacity:1;stroke:none;stroke-width:6.73211098;filter:url(#filter3376-3-6)"
       x="83.17794"
       y="242.62523"
       id="text3310-6"><tspan
         id="tspan3308-2"
         x="83.17794"
         y="242.62523"
         style="font-weight:bold;fill:#ffffff;fill-opacity:1;stroke-width:6.73211098">OS</tspan></text>
    <path
       style="font-style:normal;font-weight:bold;font-size:39.83174896px;line-height:1.25;font-family:sans-serif;letter-spacing:0px;word-spacing:0px;fill:#00815b;fill-opacity:1;stroke:none;stroke-width:5.23940229"
       d="m 238.28245,100.66939 c -4.08191,0 -7.28837,1.17109 -9.61927,3.51336 -2.31952,2.34227 -3.47937,5.57707 -3.47937,9.70447 0,4.11602 1.15985,7.34543 3.47937,9.6877 2.3309,2.34227 5.53736,3.51336 9.61927,3.51336 4.09329,0 7.29976,-1.17109 9.61928,-3.51336 2.31953,-2.34227 3.47938,-5.57168 3.47938,-9.6877 0,-4.1274 -1.15985,-7.3622 -3.47938,-9.70447 -2.31952,-2.34227 -5.52599,-3.51336 -9.61928,-3.51336 z m 26.87932,0 c -3.06996,0 -5.42386,0.68205 -7.06117,2.04648 -1.63732,1.36442 -2.45569,3.31475 -2.45569,5.85031 0,2.02391 0.58532,3.63277 1.75646,4.82664 1.1825,1.19387 3.04736,2.06353 5.59429,2.6093 l 2.54133,0.56283 c 1.54636,0.34111 2.57528,0.72757 3.08694,1.15964 0.52303,0.43207 0.78443,1.04619 0.78443,1.84211 0,0.88688 -0.38062,1.56893 -1.14242,2.04648 -0.76181,0.47755 -1.85912,0.71645 -3.29178,0.71645 -1.4099,0 -2.87659,-0.21595 -4.4002,-0.64802 -1.51224,-0.44344 -3.0815,-1.09715 -4.70745,-1.96129 v 5.54308 c 1.62595,0.60262 3.25189,1.05702 4.87784,1.36401 1.62594,0.30701 3.24605,0.46087 4.86062,0.46087 3.42243,0 5.96395,-0.6825 7.624,-2.04693 1.67142,-1.37579 2.50689,-3.46785 2.50689,-6.2763 0,-2.1376 -0.59657,-3.78604 -1.79045,-4.9458 -1.19388,-1.15977 -3.20675,-2.02404 -6.03792,-2.59255 l -2.79692,-0.56282 c -1.33032,-0.27289 -2.25127,-0.59682 -2.76294,-0.97204 -0.50028,-0.38659 -0.75043,-0.92107 -0.75043,-1.60328 0,-0.90962 0.37522,-1.58043 1.12566,-2.01249 0.75042,-0.43207 1.91028,-0.64803 3.47937,-0.64803 1.1825,0 2.43863,0.15882 3.76895,0.47718 1.33032,0.31837 2.69488,0.79031 4.09341,1.41568 v -5.38946 c -1.58046,-0.4207 -3.10968,-0.73338 -4.58781,-0.93804 -1.47813,-0.21604 -2.91647,-0.32401 -4.31501,-0.32401 z m -26.87932,4.75865 c 2.01254,0 3.5701,0.73874 4.67302,2.21687 1.10291,1.47813 1.65449,3.55893 1.65449,6.24231 0,2.672 -0.55158,4.74696 -1.65449,6.22508 -1.10292,1.47813 -2.66048,2.21733 -4.67302,2.21733 -2.00115,0 -3.55332,-0.7392 -4.65624,-2.21733 -1.10291,-1.47812 -1.65404,-3.55308 -1.65404,-6.22508 0,-2.68338 0.55113,-4.76418 1.65404,-6.24231 1.10292,-1.47813 2.65509,-2.21687 4.65624,-2.21687 z"
       id="path346-9" />
    <path
       transform="matrix(0.7782703,0,0,0.7782703,158.7094,-62.234497)"
       id="text3198-1"
       d="m 14.685401,209.72565 v 32.71842 h 2.12339 v -31.73244 h 9.03406 l -0.4196,-0.98598 z m 25.68371,0 -6.64043,15.51326 1.26918,2.98225 7.49464,-17.50953 h 8.59274 v -0.98598 z m 15.975762,8.17417 8.85322,11.98739 -9.29196,12.55686 h 2.85306 l 8.56229,-11.5714 -8.85323,-11.98738 h 6.8616 l -0.67956,-0.98547 z m 18.40817,0 -4.35787,6.2358 1.39681,2.0252 5.08445,-7.27553 h 5.45134 l 0.73072,-0.98547 z m -49.945262,1.59939 v 3.98425 l 5.41467,12.67107 h 1.70272 z m 20.42408,0 -2.12338,4.96869 v 17.97617 h 2.12338 z m 26.560122,16.17266 -0.70641,1.00459 4.1057,5.76761 h 1.4216 z"
       style="font-style:normal;font-weight:normal;font-size:44.88074112px;line-height:1.25;font-family:sans-serif;letter-spacing:0px;word-spacing:0px;fill:#1b9c77;fill-opacity:1;stroke:none;stroke-width:6.73211098;filter:url(#filter3250-5-6)" />
    <path
       transform="matrix(0.7782703,0,0,0.7782703,158.7094,-62.234497)"
       id="text3223-2"
       d="m 102.24372,209.31531 c -5.244864,0 -9.365007,1.50487 -12.359967,4.51445 -2.98037,3.00958 -4.47053,7.16572 -4.47053,12.46901 0,4.66494 1.16158,8.44194 3.48041,11.33368 -1.57927,-2.64215 -2.37299,-5.88501 -2.37299,-9.73481 0,-5.3033 1.49018,-9.45994 4.47053,-12.46953 2.99498,-3.00958 7.114593,-4.51445 12.359457,-4.51445 5.25947,0 9.37961,1.50487 12.35996,4.51445 0.35028,0.35371 0.67792,0.72462 0.98703,1.11001 -0.58955,-0.98636 -1.28514,-1.89112 -2.09444,-2.70836 -2.98038,-3.00958 -7.09999,-4.51445 -12.35946,-4.51445 z m 34.53691,0 c -3.94459,0 -6.96852,0.87666 -9.0723,2.62981 -2.10381,1.75315 -3.15589,4.25839 -3.15589,7.51634 0,2.48564 0.68916,4.48319 2.06396,5.99446 -0.63646,-1.24016 -0.95705,-2.70434 -0.95705,-4.39559 0,-3.25795 1.05209,-5.7637 3.15587,-7.51686 2.10381,-1.75315 5.12823,-2.62981 9.07285,-2.62981 1.79697,0 3.64511,0.13893 5.54434,0.41651 1.55131,0.2148 3.14881,0.52709 4.78782,0.92708 v -1.32034 c -2.03073,-0.54055 -3.99597,-0.94212 -5.89523,-1.20509 -1.89926,-0.27758 -3.74737,-0.41651 -5.54437,-0.41651 z m -27.8448,10.05106 c 0.95787,1.78791 1.43814,4.09773 1.43814,6.9324 0,3.43326 -0.70882,6.09974 -2.12595,7.99899 -1.41714,1.89926 -3.41839,2.84893 -6.0043,2.84893 -2.328254,0 -4.182034,-0.78118 -5.564007,-2.33837 0.207303,0.38653 0.436173,0.74984 0.688343,1.0878 1.41713,1.89925 3.411274,2.84892 5.982574,2.84892 2.58591,0 4.58767,-0.94967 6.0048,-2.84892 1.41714,-1.89926 2.12545,-4.56523 2.12545,-7.99848 0,-3.44787 -0.70831,-6.12145 -2.12545,-8.0207 -0.13398,-0.17957 -0.27517,-0.34798 -0.4196,-0.51057 z m 24.42744,1.67174 c 0.11637,0.59972 0.41826,1.08983 0.90848,1.46864 0.65743,0.48212 1.84083,0.89839 3.55017,1.24902 l 3.59408,0.72295 c 3.63781,0.73049 6.22366,1.84089 7.75769,3.33107 0.0862,0.0838 0.16922,0.17012 0.25061,0.25786 -0.35354,-0.69986 -0.80491,-1.3194 -1.35752,-1.85622 -1.53403,-1.49018 -4.11988,-2.60058 -7.75767,-3.33106 l -3.5941,-0.72347 c -1.55297,-0.31856 -2.66702,-0.6917 -3.35174,-1.11879 z m 8.76329,11.63494 c 0.0715,0.2838 0.1111,0.58994 0.1111,0.92346 0,1.13955 -0.48979,2.01622 -1.46865,2.62982 -0.97882,0.61361 -2.38836,0.92036 -4.22918,0.92036 -1.8116,0 -3.69623,-0.27786 -5.65393,-0.83303 -1.94307,-0.56977 -3.95954,-1.40942 -6.04872,-2.51975 v 7.12206 c 0.36915,0.13682 0.73827,0.26571 1.10741,0.39067 v -5.91438 c 2.08918,1.11035 4.10515,1.9505 6.04822,2.52027 1.95768,0.55517 3.84233,0.83251 5.65391,0.83251 1.84081,0 3.25088,-0.30675 4.22973,-0.92036 0.97883,-0.6136 1.46812,-1.49026 1.46812,-2.62982 0,-1.02267 -0.33615,-1.81161 -1.00819,-2.36678 -0.0621,-0.0525 -0.13584,-0.10361 -0.20982,-0.15503 z"
       style="font-style:normal;font-weight:normal;font-size:44.88074112px;line-height:1.25;font-family:sans-serif;letter-spacing:0px;word-spacing:0px;fill:#179872;fill-opacity:1;stroke:none;stroke-width:6.73211098;filter:url(#filter3238-2-6)" />
  </g>
</svg>
