<?xml version="1.0" encoding="UTF-8" standalone="no"?>
<!--
Propuesta cxt2 para logotipo proyecto MxOS.
Autor: Miguel Angel Marcial Martinez @fitorec
Licencia: Creative Commons CC BY-SA 4.0
-->
<svg
   xmlns:dc="http://purl.org/dc/elements/1.1/"
   xmlns:cc="http://creativecommons.org/ns#"
   xmlns:rdf="http://www.w3.org/1999/02/22-rdf-syntax-ns#"
   xmlns:svg="http://www.w3.org/2000/svg"
   xmlns="http://www.w3.org/2000/svg"
   id="propuesta-00"
   version="1.1"
   viewBox="0 0 150 150"
   height="150mm"
   width="150mm">
  <defs
     id="defs248">
    <filter
       height="1.2606643"
       y="-0.13033222"
       width="1.1239401"
       x="-0.061970063"
       id="filter3304-3"
       style="color-interpolation-filters:sRGB">
      <feGaussianBlur
         id="feGaussianBlur3306-7"
         stdDeviation="1.7767668" />
    </filter>
    <filter
       height="1.4545048"
       y="-0.22725242"
       width="1.2375263"
       x="-0.11876316"
       id="filter3376-3"
       style="color-interpolation-filters:sRGB">
      <feGaussianBlur
         id="feGaussianBlur3378-6"
         stdDeviation="3.2142434" />
    </filter>
    <filter
       height="1.0741538"
       y="-0.03707692"
       width="1.0354847"
       x="-0.017742332"
       id="filter3250-5"
       style="color-interpolation-filters:sRGB">
      <feGaussianBlur
         id="feGaussianBlur3252-9"
         stdDeviation="0.50545754" />
    </filter>
    <filter
       height="1.108032"
       y="-0.05401599"
       width="1.053992"
       x="-0.026996003"
       id="filter3238-2"
       style="color-interpolation-filters:sRGB">
      <feGaussianBlur
         id="feGaussianBlur3240-2"
         stdDeviation="0.72001796" />
    </filter>
    <filter
       height="1.2606643"
       y="-0.13033222"
       width="1.1239401"
       x="-0.061970063"
       id="filter3304"
       style="color-interpolation-filters:sRGB">
      <feGaussianBlur
         id="feGaussianBlur3306"
         stdDeviation="1.7767668" />
    </filter>
    <filter
       height="1.4545048"
       y="-0.22725242"
       width="1.2375263"
       x="-0.11876316"
       id="filter3376"
       style="color-interpolation-filters:sRGB">
      <feGaussianBlur
         id="feGaussianBlur3378"
         stdDeviation="3.2142434" />
    </filter>
    <filter
       height="1.0741538"
       y="-0.03707692"
       width="1.0354847"
       x="-0.017742332"
       id="filter3250"
       style="color-interpolation-filters:sRGB">
      <feGaussianBlur
         id="feGaussianBlur3252"
         stdDeviation="0.50545754" />
    </filter>
    <filter
       height="1.108032"
       y="-0.05401599"
       width="1.053992"
       x="-0.026996003"
       id="filter3238"
       style="color-interpolation-filters:sRGB">
      <feGaussianBlur
         id="feGaussianBlur3240"
         stdDeviation="0.72001796" />
    </filter>
    <filter
       height="1.2606643"
       y="-0.13033222"
       width="1.1239401"
       x="-0.061970063"
       id="filter3304-36"
       style="color-interpolation-filters:sRGB">
      <feGaussianBlur
         id="feGaussianBlur3306-75"
         stdDeviation="1.7767668" />
    </filter>
    <filter
       height="1.4545048"
       y="-0.22725242"
       width="1.2375263"
       x="-0.11876316"
       id="filter3376-35"
       style="color-interpolation-filters:sRGB">
      <feGaussianBlur
         id="feGaussianBlur3378-62"
         stdDeviation="3.2142434" />
    </filter>
    <filter
       height="1.0741538"
       y="-0.03707692"
       width="1.0354847"
       x="-0.017742332"
       id="filter3250-9"
       style="color-interpolation-filters:sRGB">
      <feGaussianBlur
         id="feGaussianBlur3252-1"
         stdDeviation="0.50545754" />
    </filter>
    <filter
       height="1.108032"
       y="-0.05401599"
       width="1.053992"
       x="-0.026996003"
       id="filter3238-27"
       style="color-interpolation-filters:sRGB">
      <feGaussianBlur
         id="feGaussianBlur3240-0"
         stdDeviation="0.72001796" />
    </filter>
    <filter
       height="1.2606643"
       y="-0.13033222"
       width="1.1239401"
       x="-0.061970063"
       id="filter3304-3-9"
       style="color-interpolation-filters:sRGB">
      <feGaussianBlur
         id="feGaussianBlur3306-7-3"
         stdDeviation="1.7767668" />
    </filter>
    <filter
       height="1.4545048"
       y="-0.22725242"
       width="1.2375263"
       x="-0.11876316"
       id="filter3376-3-6"
       style="color-interpolation-filters:sRGB">
      <feGaussianBlur
         id="feGaussianBlur3378-6-0"
         stdDeviation="3.2142434" />
    </filter>
    <filter
       height="1.0741538"
       y="-0.03707692"
       width="1.0354847"
       x="-0.017742332"
       id="filter3250-5-6"
       style="color-interpolation-filters:sRGB">
      <feGaussianBlur
         id="feGaussianBlur3252-9-2"
         stdDeviation="0.50545754" />
    </filter>
    <filter
       height="1.108032"
       y="-0.05401599"
       width="1.053992"
       x="-0.026996003"
       id="filter3238-2-6"
       style="color-interpolation-filters:sRGB">
      <feGaussianBlur
         id="feGaussianBlur3240-2-1"
         stdDeviation="0.72001796" />
    </filter>
    <filter
       height="1.108032"
       y="-0.05401599"
       width="1.053992"
       x="-0.026996003"
       id="filter3238-2-8"
       style="color-interpolation-filters:sRGB">
      <feGaussianBlur
         id="feGaussianBlur3240-2-7"
         stdDeviation="0.72001796" />
    </filter>
    <filter
       height="1.0741538"
       y="-0.03707692"
       width="1.0354847"
       x="-0.017742332"
       id="filter3250-5-9"
       style="color-interpolation-filters:sRGB">
      <feGaussianBlur
         id="feGaussianBlur3252-9-20"
         stdDeviation="0.50545754" />
    </filter>
    <filter
       height="1.4545048"
       y="-0.22725242"
       width="1.2375263"
       x="-0.11876316"
       id="filter3376-3-2"
       style="color-interpolation-filters:sRGB">
      <feGaussianBlur
         id="feGaussianBlur3378-6-3"
         stdDeviation="3.2142434" />
    </filter>
    <filter
       height="1.2606643"
       y="-0.13033222"
       width="1.1239401"
       x="-0.061970063"
       id="filter3304-3-7"
       style="color-interpolation-filters:sRGB">
      <feGaussianBlur
         id="feGaussianBlur3306-7-5"
         stdDeviation="1.7767668" />
    </filter>
  </defs>
  <metadata
     id="metadata251">
    <rdf:RDF>
      <cc:Work
         rdf:about="">
        <dc:format>image/svg+xml</dc:format>
        <dc:type
           rdf:resource="http://purl.org/dc/dcmitype/StillImage" />
        <dc:title></dc:title>
      </cc:Work>
    </rdf:RDF>
  </metadata>
  <text
     transform="matrix(0.88750203,0,0,0.88750203,-0.47743284,-94.98959)"
     id="text1219"
     y="243.36633"
     x="11.263751"
     style="font-style:normal;font-weight:normal;font-size:44.88074112px;line-height:1.25;font-family:sans-serif;letter-spacing:0px;word-spacing:0px;fill:#ffffff;fill-opacity:1;stroke:none;stroke-width:6.73211098;filter:url(#filter3304-3-7)"
     xml:space="preserve"><tspan
       style="font-weight:bold;fill:#ffffff;fill-opacity:1;stroke-width:6.73211098"
       y="243.36633"
       x="11.263751"
       id="tspan1217">Mx<tspan
   id="tspan1215"
   style="fill:#ffffff;fill-opacity:1;stroke-width:6.73211098" /></tspan></text>
  <path
     style="font-style:normal;font-weight:bold;font-size:39.83174896px;line-height:1.25;font-family:sans-serif;letter-spacing:0px;word-spacing:0px;fill:#ab1827;fill-opacity:1;stroke:none;stroke-width:5.97476244"
     d="m 12.463957,91.130612 v 29.037498 h 7.09879 V 98.930132 l 6.69055,15.656408 h 4.745436 l 6.69055,-15.656408 v 21.237978 h 7.07968 V 91.130612 h -9.51054 l -6.651786,15.540128 -6.61251,-15.540128 z m 36.972936,7.25485 7.8574,10.638618 -8.24652,11.14403 h 7.37112 l 4.84311,-6.88485 4.901,6.88485 h 7.37112 l -8.24652,-11.18278 7.8574,-10.599868 h -7.37113 l -4.51187,6.456968 -4.45399,-6.456968 z"
     id="path1221" />
  <text
     transform="matrix(0.88750203,0,0,0.88750203,-0.47743284,-94.98959)"
     xml:space="preserve"
     style="font-style:normal;font-weight:normal;font-size:44.88074112px;line-height:1.25;font-family:sans-serif;letter-spacing:0px;word-spacing:0px;fill:#ffffff;fill-opacity:1;stroke:none;stroke-width:6.73211098;filter:url(#filter3376-3-2)"
     x="83.17794"
     y="242.62523"
     id="text1225"><tspan
       id="tspan1223"
       x="83.17794"
       y="242.62523"
       style="font-weight:bold;fill:#ffffff;fill-opacity:1;stroke-width:6.73211098">OS</tspan></text>
  <path
     style="font-style:normal;font-weight:bold;font-size:39.83174896px;line-height:1.25;font-family:sans-serif;letter-spacing:0px;word-spacing:0px;fill:#ab1827;fill-opacity:1;stroke:none;stroke-width:5.97476244"
     d="m 90.263863,90.778172 c -4.65482,0 -8.31132,1.33547 -10.96937,4.00647 -2.64507,2.67101 -3.96771,6.359828 -3.96771,11.066508 0,4.69372 1.32264,8.37638 3.96771,11.04739 2.65805,2.67101 6.31455,4.00647 10.96937,4.00647 4.66779,0 8.32428,-1.33546 10.969347,-4.00647 2.64508,-2.67101 3.96772,-6.35367 3.96772,-11.04739 0,-4.70668 -1.32264,-8.395498 -3.96772,-11.066508 -2.645067,-2.671 -6.301557,-4.00647 -10.969347,-4.00647 z m 30.651867,0 c -3.50084,0 -6.18511,0.77778 -8.05222,2.33371 -1.86712,1.55593 -2.80035,3.77999 -2.80035,6.67142 0,2.307968 0.66747,4.142628 2.00298,5.504058 1.34847,1.36144 3.47506,2.35316 6.37946,2.97553 l 2.89801,0.64182 c 1.76339,0.38898 2.93673,0.82969 3.5202,1.3224 0.59644,0.49271 0.89452,1.19302 0.89452,2.10065 0,1.01135 -0.43404,1.78913 -1.30276,2.33371 -0.86873,0.54457 -2.12005,0.817 -3.75378,0.817 -1.60779,0 -3.28033,-0.24626 -5.01778,-0.73897 -1.72449,-0.50568 -3.514,-1.25114 -5.36815,-2.23656 v 6.32106 c 1.85415,0.6872 3.7083,1.20538 5.56245,1.55546 1.85415,0.35009 3.70164,0.52555 5.54282,0.52555 3.90278,0 6.801,-0.77829 8.69404,-2.33422 1.90601,-1.56889 2.85874,-3.95457 2.85874,-7.15719 0,-2.43762 -0.6803,-4.31742 -2.04174,-5.63996 -1.36144,-1.32254 -3.65682,-2.30811 -6.88536,-2.95641 l -3.18947,-0.64182 c -1.51703,-0.31119 -2.56724,-0.68058 -3.15072,-1.10846 -0.5705,-0.44085 -0.85576,-1.05035 -0.85576,-1.828308 0,-1.03729 0.42789,-1.80224 1.28365,-2.29495 0.85575,-0.49271 2.17839,-0.73898 3.96771,-0.73898 1.34847,0 2.7809,0.18111 4.29793,0.54415 1.51703,0.36306 3.07311,0.90124 4.66793,1.61438 v -6.14588 c -1.80228,-0.47975 -3.54613,-0.83631 -5.23172,-1.0697 -1.68559,-0.24636 -3.3258,-0.36949 -4.92063,-0.36949 z m -30.651867,5.42654 c 2.29499,0 4.07116,0.84242 5.32887,2.52801 1.25771,1.685588 1.8867,4.058438 1.8867,7.118428 0,3.04703 -0.62899,5.41321 -1.8867,7.09879 -1.25771,1.68559 -3.03388,2.52853 -5.32887,2.52853 -2.28204,0 -4.05205,-0.84294 -5.30976,-2.52853 -1.25771,-1.68558 -1.88619,-4.05176 -1.88619,-7.09879 0,-3.05999 0.62848,-5.43284 1.88619,-7.118428 1.25771,-1.68559 3.02772,-2.52801 5.30976,-2.52801 z"
     id="path1227" />
  <path
     transform="matrix(0.88750203,0,0,0.88750203,-0.47743284,-94.98959)"
     id="path1229"
     d="m 14.685401,209.72565 v 32.71842 h 2.12339 v -31.73244 h 9.03406 l -0.4196,-0.98598 z m 25.68371,0 -6.64043,15.51326 1.26918,2.98225 7.49464,-17.50953 h 8.59274 v -0.98598 z m 15.975762,8.17417 8.85322,11.98739 -9.29196,12.55686 h 2.85306 l 8.56229,-11.5714 -8.85323,-11.98738 h 6.8616 l -0.67956,-0.98547 z m 18.40817,0 -4.35787,6.2358 1.39681,2.0252 5.08445,-7.27553 h 5.45134 l 0.73072,-0.98547 z m -49.945262,1.59939 v 3.98425 l 5.41467,12.67107 h 1.70272 z m 20.42408,0 -2.12338,4.96869 v 17.97617 h 2.12338 z m 26.560122,16.17266 -0.70641,1.00459 4.1057,5.76761 h 1.4216 z"
     style="font-style:normal;font-weight:normal;font-size:44.88074112px;line-height:1.25;font-family:sans-serif;letter-spacing:0px;word-spacing:0px;fill:#ab1827;fill-opacity:1;stroke:none;stroke-width:6.73211098;filter:url(#filter3250-5-9)" />
  <path
     transform="matrix(0.88750203,0,0,0.88750203,-0.47743284,-94.98959)"
     id="path1231"
     d="m 102.24372,209.31531 c -5.244864,0 -9.365007,1.50487 -12.359967,4.51445 -2.98037,3.00958 -4.47053,7.16572 -4.47053,12.46901 0,4.66494 1.16158,8.44194 3.48041,11.33368 -1.57927,-2.64215 -2.37299,-5.88501 -2.37299,-9.73481 0,-5.3033 1.49018,-9.45994 4.47053,-12.46953 2.99498,-3.00958 7.114593,-4.51445 12.359457,-4.51445 5.25947,0 9.37961,1.50487 12.35996,4.51445 0.35028,0.35371 0.67792,0.72462 0.98703,1.11001 -0.58955,-0.98636 -1.28514,-1.89112 -2.09444,-2.70836 -2.98038,-3.00958 -7.09999,-4.51445 -12.35946,-4.51445 z m 34.53691,0 c -3.94459,0 -6.96852,0.87666 -9.0723,2.62981 -2.10381,1.75315 -3.15589,4.25839 -3.15589,7.51634 0,2.48564 0.68916,4.48319 2.06396,5.99446 -0.63646,-1.24016 -0.95705,-2.70434 -0.95705,-4.39559 0,-3.25795 1.05209,-5.7637 3.15587,-7.51686 2.10381,-1.75315 5.12823,-2.62981 9.07285,-2.62981 1.79697,0 3.64511,0.13893 5.54434,0.41651 1.55131,0.2148 3.14881,0.52709 4.78782,0.92708 v -1.32034 c -2.03073,-0.54055 -3.99597,-0.94212 -5.89523,-1.20509 -1.89926,-0.27758 -3.74737,-0.41651 -5.54437,-0.41651 z m -27.8448,10.05106 c 0.95787,1.78791 1.43814,4.09773 1.43814,6.9324 0,3.43326 -0.70882,6.09974 -2.12595,7.99899 -1.41714,1.89926 -3.41839,2.84893 -6.0043,2.84893 -2.328254,0 -4.182034,-0.78118 -5.564007,-2.33837 0.207303,0.38653 0.436173,0.74984 0.688343,1.0878 1.41713,1.89925 3.411274,2.84892 5.982574,2.84892 2.58591,0 4.58767,-0.94967 6.0048,-2.84892 1.41714,-1.89926 2.12545,-4.56523 2.12545,-7.99848 0,-3.44787 -0.70831,-6.12145 -2.12545,-8.0207 -0.13398,-0.17957 -0.27517,-0.34798 -0.4196,-0.51057 z m 24.42744,1.67174 c 0.11637,0.59972 0.41826,1.08983 0.90848,1.46864 0.65743,0.48212 1.84083,0.89839 3.55017,1.24902 l 3.59408,0.72295 c 3.63781,0.73049 6.22366,1.84089 7.75769,3.33107 0.0862,0.0838 0.16922,0.17012 0.25061,0.25786 -0.35354,-0.69986 -0.80491,-1.3194 -1.35752,-1.85622 -1.53403,-1.49018 -4.11988,-2.60058 -7.75767,-3.33106 l -3.5941,-0.72347 c -1.55297,-0.31856 -2.66702,-0.6917 -3.35174,-1.11879 z m 8.76329,11.63494 c 0.0715,0.2838 0.1111,0.58994 0.1111,0.92346 0,1.13955 -0.48979,2.01622 -1.46865,2.62982 -0.97882,0.61361 -2.38836,0.92036 -4.22918,0.92036 -1.8116,0 -3.69623,-0.27786 -5.65393,-0.83303 -1.94307,-0.56977 -3.95954,-1.40942 -6.04872,-2.51975 v 7.12206 c 0.36915,0.13682 0.73827,0.26571 1.10741,0.39067 v -5.91438 c 2.08918,1.11035 4.10515,1.9505 6.04822,2.52027 1.95768,0.55517 3.84233,0.83251 5.65391,0.83251 1.84081,0 3.25088,-0.30675 4.22973,-0.92036 0.97883,-0.6136 1.46812,-1.49026 1.46812,-2.62982 0,-1.02267 -0.33615,-1.81161 -1.00819,-2.36678 -0.0621,-0.0525 -0.13584,-0.10361 -0.20982,-0.15503 z"
     style="font-style:normal;font-weight:normal;font-size:44.88074112px;line-height:1.25;font-family:sans-serif;letter-spacing:0px;word-spacing:0px;fill:#7d101b;fill-opacity:1;stroke:none;stroke-width:6.73211098;filter:url(#filter3238-2-8)" />
  <g
     transform="translate(-300.15764,-14.970776)"
     id="g1087">
    <path
       id="path1003"
       d="m 336.62919,76.520307 c -0.32307,0.004 -0.63494,0.0192 -0.94967,0.0317 0.80097,2.48973 1.18756,3.68774 1.98687,6.16789 1.05983,-0.17132 2.20109,-0.25447 3.46464,-0.23774 l -0.91484,-5.8433 c -1.25156,-0.0914 -2.44911,-0.13375 -3.587,-0.11855 z m 6.5394,0.41906 0.35504,5.67593 c 0.92691,0.0858 1.91987,0.21668 2.97584,0.38609 l 0.54839,-5.42615 c -1.35387,-0.26305 -2.64371,-0.4733 -3.87927,-0.63587 z m -11.77028,0.0647 c -1.93574,0.34312 -3.7212,0.85763 -5.40966,1.5209 l 5.29936,6.80313 c 1.1118,-0.75917 2.23521,-1.3705 3.44182,-1.82964 z m 18.82764,1.26351 c -0.29664,1.72516 -0.60656,3.55593 -0.87994,5.25624 0.75689,0.15487 1.54851,0.32835 2.37167,0.51859 l 1.03844,-5.1415 c -0.86618,-0.22924 -1.70797,-0.43923 -2.53017,-0.63333 z m 4.17407,1.08345 -1.13608,5.05972 c 0.79951,0.1957 1.62365,0.4038 2.48642,0.63016 l 0.68216,-5.09965 c -0.69106,-0.20729 -1.36757,-0.40323 -2.0325,-0.59023 z m -31.39737,0.53761 c -2.24056,1.16385 -4.37028,2.57682 -6.55271,4.16582 l 8.67461,6.57744 c 1.681,-1.60795 3.15702,-2.98689 4.59058,-4.13412 z m 37.583,1.36367 -2.0027,4.55444 c 0.84271,0.2337 1.71813,0.48193 2.61894,0.74111 l 1.65529,-4.5183 c -0.76941,-0.26802 -1.53068,-0.53061 -2.27153,-0.77725 z m 5.32092,1.86641 -1.44671,2.9581 4.38833,-1.8569 c -1.00273,-0.38353 -1.98222,-0.74927 -2.94162,-1.1012 z"
       style="fill:#000000;stroke:#000000;stroke-width:0.32459268px;stroke-linecap:butt;stroke-linejoin:miter;stroke-opacity:1" />
    <path
       id="path1005"
       d="m 314.50058,85.418887 8.91839,7.65129 c -4.0526,5.75044 -6.21695,8.944083 -10.70546,4.04712 -4.4885,-4.89696 -0.91823,-8.03955 1.78712,-11.69841 z"
       style="fill:#000000;stroke:#000000;stroke-width:0.32459271px;stroke-linecap:butt;stroke-linejoin:miter;stroke-opacity:1" />
    <path
       id="path1011"
       d="m 408.09794,41.738047 c -5.55336,0.0628 -7.83492,1.38252 -13.11341,4.27364 -3.81167,2.08772 -9.06219,9.99373 -11.79772,13.37076 -3.07848,3.80043 -8.44544,5.63527 -9.9999,9.10074 -0.71937,1.60378 -1.17972,3.49957 -1.46918,5.07824 0.27421,-0.0171 -0.42464,0.89697 -0.57552,2.04103 -0.21468,1.62785 0.0469,3.66374 0.37003,3.65167 5.7092,-0.21333 7.834,-5.0111 13.47239,-1.22062 -1.93627,-4.3893 -4.32488,-6.01257 -7.86514,-9.10074 5.65355,1.39928 7.3579,3.1061 10.02006,7.84448 0.43693,-5.75282 -1.49171,-7.12634 -5.48184,-10.80502 6.2368,1.87135 7.99688,4.05433 10.80502,9.45472 -0.35024,-5.96071 -0.94392,-8.52837 -5.40276,-11.91762 5.96947,-0.81778 8.10361,4.755 9.53378,7.07089 -0.51426,-5.42296 -1.83213,-7.17623 -5.87922,-10.24847 6.29017,0.73762 6.84806,2.92233 9.4547,8.26254 -0.72626,-6.357 -1.0964,-9.43979 -6.19702,-12.71188 7.3556,0.96505 9.03001,2.48766 14.93655,6.51484 -3.82332,-6.21018 -6.70841,-8.4798 -12.31501,-12.6323 0,0 0.95367,-0.95342 1.1126,-0.63562 7.30956,2.65734 9.00923,5.85034 12.79147,12.39408 -1.22404,-6.15708 -2.7899,-10.57547 -7.07141,-14.85698 l 5.00538,-2.70164 c 7.04339,4.31687 6.49496,17.21499 7.23003,3.97288 3.35896,1.75016 2.94641,1.82281 4.2902,5.24361 -0.0665,-1.60521 -0.13293,-3.21041 -0.19939,-4.81562 3.14097,0.66474 3.06425,4.70606 5.21211,6.12557 l -3.52135,-8.34828 c -3.31335,-2.18981 -7.92138,-4.32745 -12.18943,-4.40077 -0.40116,-0.007 -0.78579,-0.008 -1.15602,-0.004 z"
       style="fill:#000000;stroke:#000000;stroke-width:0.26458332px;stroke-linecap:butt;stroke-linejoin:miter;stroke-opacity:1" />
    <path
       style="fill:#000000;fill-opacity:1;stroke-width:0.19628912"
       d="m 1649.3086,182.8125 c -0.1251,-0.0738 -0.6641,0.31476 -1.7109,1.2207 -13.5315,4.0565 -20.7668,5.31104 -28.4016,14.28806 -2.2724,5.01133 -6.7353,6.85666 -6.7245,12.55639 l 8.5367,23.76182 c 2.2657,5.13273 1.9105,4.56706 4.1547,9.14954 2.8267,7.70139 5.4523,19.98384 3.3546,29.64068 -0.1463,0.14627 -1.1497,-0.17995 -10.2246,-3.33985 -2.4631,-0.81239 -4.8836,-1.75827 -7.3614,-2.52539 v 2.76758 c 0,2.3969 -0.048,2.84047 -0.3691,3.30078 -0.2041,0.29254 -0.5204,1.32718 -0.7031,2.29883 -0.1826,0.97164 -0.717,3.3119 -1.1875,5.20117 -0.4704,1.88931 -0.9125,3.79085 -0.9824,4.22266 -0.07,0.43181 -0.1691,0.93992 -0.2207,1.12891 -0.051,0.18896 -0.1549,0.33732 -0.2286,0.33203 -0.1213,-0.008 -7.3172,-4.98266 -13.2988,-9.19532 -1.2881,-0.90713 -4.1657,-3.01295 -6.3965,-4.67968 l -4.0566,-3.03125 -0.209,-1.21094 c -2.6083,-15.18875 -0.6298,-33.10705 5.4219,-49.10352 0.9092,-2.40338 2.8008,-6.80851 3.8847,-9.13281 l -2.6425,-1.38281 c -0.1047,0.22314 -0.1762,0.38219 -0.2911,0.62304 -4.7306,9.90823 -7.8841,19.3447 -9.832,29.42383 -1.2365,6.39738 -2.0224,15.78238 -1.7832,21.29883 0.1474,3.39549 0.645,9.0697 0.8926,10.18164 0.2166,0.97161 0.9401,1.71956 3.7324,3.85938 1.2416,0.95138 2.7005,2.07265 3.2402,2.48828 0.8379,0.64513 6.5907,4.81861 10.8946,7.90625 6.6319,4.7579 14.1577,9.90735 21.959,15.07226 l 15.3711,0.29297 12.2402,-7.6289 -2.4766,-4.66993 c -1.0918,-1.2316 -5.8139,-4.17492 -6.6972,-5.22461 l -0.9082,-1.08007 -0.02,-3.53321 c -0.084,-14.83442 -2.7835,-28.01509 -7.791,-38.03125 -0.6887,-1.37763 -1.2519,-2.57619 -1.2519,-2.66406 0,-0.0877 0.4937,-0.72626 1.0957,-1.41992 6.2339,-7.1825 17.085,-13.55659 20.8353,-25.78854 2.9062,-9.77368 -2.2825,-17.61301 0.1451,-27.14701 0.047,-0.12518 0.051,-0.20196 0.012,-0.22656 z m -72.4277,23.36719 -0.01,0.002 c -0.3749,0.37493 -3.5847,12.21949 -4.9922,18.41992 -2.0194,8.89663 -3.6766,19.91753 -4.043,26.89258 -0.072,1.37357 -0.066,2.18752 -0.2324,2.54102 l 0.2207,11.46093 c -0.8131,13.13991 -26.1647,8.9223 -37.1679,5.76172 -0.2494,-0.0268 -0.4705,-0.0562 -0.5215,-0.0898 -0.01,-0.006 -0.02,-0.0555 -0.029,-0.0723 -0.2399,-0.0713 -0.5146,-0.14524 -0.7383,-0.21484 0.093,-8.00091 0.4471,-17.40105 2.3223,-26.37695 -0.4908,0.11097 -0.9693,0.21525 -1.5196,0.35937 -3.103,0.81275 -3.4527,1.11454 -4.2304,3.6582 -1.2282,4.01639 -1.7479,7.72383 -1.9024,13.57227 -0.2396,9.08092 0.9683,18.77925 3.6426,29.25391 2.5831,10.11799 7.3418,21.25246 10.5801,24.75 1.2236,1.32159 1.8348,1.77128 3.0801,2.27343 0.4242,0.17122 2.2622,0.22637 6.5742,0.19727 l 5.9882,-0.041 1.1172,-0.52539 c 0.9394,-0.44032 1.3109,-0.78435 2.3282,-2.15625 1.4244,-1.92121 3.0515,-5.20413 3.8769,-7.82031 0.9735,-3.08538 1.548,-6.03479 2.5762,-13.24805 0.5386,-3.77858 1.1182,-7.53405 1.2851,-8.34375 0.6577,-3.18689 2.4214,-5.63474 6.0176,-8.34375 2.2529,-1.69708 2.634,-1.77775 3.918,-0.83789 2.1262,1.55627 12.5445,8.15053 18.4961,11.70899 6.5565,3.92009 18.5388,10.54567 17.8965,9.89453 -0.1928,-0.1954 -1.9288,-1.30274 -13.3457,-8.49805 -9.7864,-6.16766 -15.2943,-9.8529 -20.5118,-13.73047 -1.24,-0.92156 -2.3187,-1.72384 -2.3964,-1.78125 -0.197,-0.14551 -1.0455,-5.19764 -1.4668,-8.72851 -0.4992,-4.1808 -0.502,-17.22839 0,-21.78711 1.2584,-11.53784 3.8752,-23.3436 7.7168,-34.82422 0.2676,-0.79944 0.4159,-1.51224 0.33,-1.58594 -0.086,-0.0737 -0.9522,-0.42173 -1.9238,-0.77148 -0.9716,-0.34961 -2.0119,-0.72961 -2.3125,-0.84375 -0.2961,-0.11262 -0.5693,-0.16637 -0.6211,-0.125 z m -59,36.375 -1.6309,18.17773 c 0.1387,3.78499 -6.4791,10.01939 -8.375,11.85156 -7.482,7.22922 -11.3943,10.75703 -16.6816,15.04102 -10.6458,8.62552 -22.3905,14.84346 -31.6524,16.75391 -4.4785,0.92378 -10.7856,1.17093 -15.2012,0.59765 -4.3596,-0.56602 -9.2457,-1.97039 -12.9726,-3.72851 l -1.8242,-0.85938 -2.8868,1.97852 c -12.8034,8.76711 -25.2403,15.53039 -37.6621,20.48047 -1.4889,0.59331 -2.7948,1.07812 -2.9043,1.07812 -0.1092,0 1.1686,-0.78408 2.8399,-1.74023 7.4107,-4.23987 13.723,-8.4975 21.9082,-14.85938 l -6.3125,3.74219 -0.125,-2.04688 c -2.688,2.00039 -7.6011,5.37238 -11.5742,7.88086 -7.3105,4.6156 -14.3497,8.26201 -21.1504,10.95704 -2.6839,1.06351 -2.7872,1.12389 -2.0606,1.21093 1.2412,0.14854 8.784,-0.19098 11.7578,-0.52929 14.0634,-1.6006 27.8708,-5.79182 47.7832,-14.50586 1.1269,-0.49319 2.0894,-0.85794 2.1368,-0.81055 0.048,0.0472 0.4107,0.81797 0.8086,1.71289 1.0413,2.34277 2.8522,5.39786 5.7871,9.77148 1.4125,2.10521 2.5945,3.93121 2.6269,4.05664 0.043,0.16366 -0.6242,0.23325 -2.3554,0.2461 -1.3286,0.0113 -3.7838,0.11446 -5.4571,0.23242 -1.6734,0.11792 -5.03,0.27307 -7.459,0.34375 l -4.416,0.12695 -0.061,0.61328 c -0.054,0.54872 0.011,0.62567 0.5898,0.75977 1.2552,0.28913 12.2981,0.48307 38.4336,0.67773 14.5193,0.1081 27.8536,0.22783 29.6367,0.26563 7.8661,0.1663 71.2443,-0.0295 79.3848,-0.24609 9.9782,-0.26533 9.454,-0.1764 11.1758,-1.93946 0.865,-0.88471 0.9466,-1.04189 0.834,-1.63281 -0.2087,-1.09399 -1.248,-2.66685 -2.3243,-3.51758 -2.1632,-1.71001 -5.7852,-3.00723 -9.8085,-3.51172 -2.5547,-0.3205 -8.3009,-0.23366 -13.1153,0.19532 -9.3167,0.83048 -14.2899,0.72876 -16.4804,-0.33203 -2.3009,-1.11405 -4.7539,-4.26385 -7.9473,-10.20704 -5.8873,-10.95677 -9.9147,-23.07822 -11.666,-35.10546 -0.7753,-5.32418 -0.8979,-7.17992 -0.9024,-13.8379 0,-6.69762 0.1286,-8.72538 0.9024,-13.88867 0.2128,-1.43203 0.3249,-2.71432 0.2422,-2.84765 -0.059,-0.0964 -1.0077,-1.42988 -1.8418,-2.60547 z m 13.0332,35.30859 c 0.1534,-0.15345 13.8841,1.18581 18.5175,1.80664 0.9076,0.1217 0.8719,-0.0306 0.5352,2.19922 l -0.096,0.63867 -2.4961,-0.0293 c -8.1038,-0.10092 -15.6409,-0.39366 -15.7754,-0.61133 -0.2162,-0.34961 -0.8187,-3.87065 -0.6855,-4.00391 z m -18.0606,1.7832 c 3.0228,7.75575 7.4038,18.5055 10.4649,24.52149 2.5977,5.66856 5.1606,12.50865 8.3945,17.5 1.4125,2.15025 3.8942,5.47869 4.248,5.69726 0.1021,0.0631 0.1856,0.19949 0.1856,0.30079 0,0.11452 -9.9877,0.18359 -26.2774,0.18359 h -26.2812 l -0.2617,-0.63477 c -0.1448,-0.3496 -0.8093,-1.18217 -1.4785,-1.85156 -2.1876,-2.18756 -6.0632,-3.66568 -11.0469,-4.20898 -2.564,-0.27969 -8.5267,-0.1241 -12.875,0.33398 -1.9472,0.20523 -4.9676,0.34029 -7.9492,0.35352 -4.5521,0.0189 -4.8689,-3.5e-4 -5.8907,-0.41602 -2.2229,-0.9032 -4.2351,-3.07025 -5.7988,-6.24414 -0.481,-0.97663 -0.873,-1.83805 -0.873,-1.91406 0,-0.16895 1.3187,-0.17826 2.6582,-0.0156 0.9828,0.1183 0.996,0.13028 1.625,1.34375 0.8183,1.57825 2.3149,3.14706 3.5078,3.67774 0.583,0.25927 1.505,0.45197 2.416,0.50586 2.0301,0.12019 13.4274,-0.29712 17.9609,-0.65821 4.1537,-0.33091 8.1726,0.463 11.6581,1.64106 4.2805,-4.29896 8.2073,-10.6871 7.8771,-17.63715 12.408,-6.21691 18.0367,-11.56347 27.7363,-22.47852 z m 20.461,8.58204 c 0.2607,-0.003 0.6307,6e-5 1.082,0.01 0.9026,0.0189 2.1306,0.063 3.4668,0.125 2.6726,0.12397 6.3381,0.28082 8.1465,0.34961 l 3.289,0.125 v 1.32031 1.32032 l -2.1093,0.12695 c -1.1607,0.0692 -4.0546,0.21259 -6.4297,0.32031 -2.3751,0.10734 -4.8698,0.23571 -5.543,0.28711 -1.016,0.0775 -1.2529,0.0394 -1.4004,-0.24023 -0.3039,-0.57362 -1.0591,-3.58722 -0.9316,-3.71485 0.019,-0.017 0.1689,-0.0263 0.4297,-0.0293 z m 15.9843,9.34179 v 1.17383 1.17383 l -2.6015,0.42578 c -1.4305,0.23357 -4.1725,0.64339 -6.0938,0.91211 -1.9212,0.26872 -3.5224,0.48828 -3.5547,0.48828 -0.034,0 -0.3726,-0.81778 -0.75,-1.81641 l -0.6855,-1.8164 0.709,-0.12305 c 0.3901,-0.0692 3.47,-0.19174 6.8437,-0.27148 z m -0.037,7.74024 v 0 c 0.2237,0.004 0.226,0.18697 0.2226,0.88281 v 0.94922 l -4.164,1.33203 c -2.2914,0.73312 -4.2553,1.33023 -4.3633,1.32422 -0.3409,-0.0189 -1.7124,-2.75334 -1.4278,-2.84571 0.1384,-0.045 2.1952,-0.39682 4.5704,-0.7832 2.3751,-0.38638 4.5586,-0.75146 4.8554,-0.8125 0.13,-0.0261 0.2295,-0.0465 0.3047,-0.0469 z"
       transform="scale(0.26458333)"
       id="path1000" />
    <path
       style="fill:#f9f9f9;stroke:#000000;stroke-width:0.20292079px;stroke-linecap:butt;stroke-linejoin:miter;stroke-opacity:1"
       d="m 433.74639,52.026224 c -3.38055,0.969595 -2.82157,0.626451 -4.63092,3.427487 0.99365,1.198263 1.30252,2.448215 1.6452,3.914953 2.97044,-3.018801 3.82535,-3.459066 2.98572,-7.34244 z"
       id="path1041" />
    <path
       style="fill:#000000;stroke:#000000;stroke-width:0.26458332px;stroke-linecap:butt;stroke-linejoin:miter;stroke-opacity:1"
       d="m 429.15165,51.770957 -0.0562,-4.578591 0.56179,-2.556145 -1.99435,1.544923 -1.99435,2.640415 -1.06741,2.808952 -0.28088,1.853908 3.06176,1.68537 2.30333,-2.893219 -0.56179,-0.58988 z"
       id="path1043" />
    <path
       style="fill:#000000;stroke:#000000;stroke-width:0.99999994px;stroke-linecap:butt;stroke-linejoin:miter;stroke-opacity:1"
       d="m 1603.2207,225.4043 c -5.4049,0.0622 -12.3325,2.91711 -20.5117,9.65234 l -2.5469,19.53516 3.252,14.97851 -4.1016,1.79492 -4.8848,4.67188 32.4864,19.95898 11.8418,3.9375 15.3711,0.29297 c 23.2283,-5.10263 9.7406,-23.48958 0.6035,-22.27929 l 0.2129,-4.66993 -13.377,-1.91211 -6.7949,-4.67187 0.2012,-15.91406 c 3.981,-13.94156 -0.6971,-25.50214 -11.752,-25.375 z"
       transform="scale(0.26458333)"
       id="path1056" />
    <ellipse
       style="opacity:1;fill:#ffffff;fill-opacity:1;stroke:none;stroke-width:5.97014952;stroke-linecap:round;stroke-linejoin:bevel;stroke-miterlimit:4;stroke-dasharray:none;stroke-dashoffset:0;stroke-opacity:1;paint-order:markers stroke fill"
       id="path1058"
       cx="423.92697"
       cy="64.585228"
       rx="2.2471614"
       ry="2.2807012" />
    <path
       style="opacity:1;fill:#000000;fill-opacity:1;stroke:none;stroke-width:3.76426721;stroke-linecap:round;stroke-linejoin:bevel;stroke-miterlimit:4;stroke-dasharray:none;stroke-dashoffset:0;stroke-opacity:1;paint-order:markers stroke fill"
       d="m 425.21695,63.948521 a 1.4168683,1.4380157 64.526855 0 0 -1.90729,-0.660893 1.4168683,1.4380157 64.526855 0 0 -0.68894,1.897737 1.4168683,1.4380157 64.526855 0 0 0.93876,0.760566 0.99728744,1.2135919 64.526855 0 1 -0.27924,-0.326601 0.99728744,1.2135919 64.526855 0 1 0.66692,-1.422491 0.99728744,1.2135919 64.526855 0 1 1.39445,0.185159 1.4168683,1.4380157 64.526855 0 0 -0.12466,-0.433477 z"
       id="ellipse1060" />
    <path
       style="fill:#ffffff;stroke:none;stroke-width:0.26458332px;stroke-linecap:butt;stroke-linejoin:miter;stroke-opacity:1"
       d="m 432.68008,75.278072 c -0.57318,1.414163 0.19506,1.826774 1.35064,2.423199 -1.60462,1.159125 -4.48287,0.970211 -6.45626,0.667674 -0.45567,-3.205111 0.27412,-3.720311 2.12628,-4.362061 z"
       id="path1068" />
  </g>
</svg>
