<?xml version="1.0" encoding="UTF-8" standalone="no"?>
<!--
Propuesta cxt3 para logotipo proyecto MxOS.
Autor: Miguel Angel Marcial Martinez @fitorec
Licencia: Creative Commons CC BY-SA 4.0
-->
<svg
   xmlns:dc="http://purl.org/dc/elements/1.1/"
   xmlns:cc="http://creativecommons.org/ns#"
   xmlns:rdf="http://www.w3.org/1999/02/22-rdf-syntax-ns#"
   xmlns:svg="http://www.w3.org/2000/svg"
   xmlns="http://www.w3.org/2000/svg"
   id="propuesta-00"
   version="1.1"
   viewBox="0 0 150 150"
   height="150mm"
   width="150mm">
  <defs
     id="defs248">
    <filter
       height="1.2606643"
       y="-0.13033222"
       width="1.1239401"
       x="-0.061970063"
       id="filter3304-3"
       style="color-interpolation-filters:sRGB">
      <feGaussianBlur
         id="feGaussianBlur3306-7"
         stdDeviation="1.7767668" />
    </filter>
    <filter
       height="1.4545048"
       y="-0.22725242"
       width="1.2375263"
       x="-0.11876316"
       id="filter3376-3"
       style="color-interpolation-filters:sRGB">
      <feGaussianBlur
         id="feGaussianBlur3378-6"
         stdDeviation="3.2142434" />
    </filter>
    <filter
       height="1.0741538"
       y="-0.03707692"
       width="1.0354847"
       x="-0.017742332"
       id="filter3250-5"
       style="color-interpolation-filters:sRGB">
      <feGaussianBlur
         id="feGaussianBlur3252-9"
         stdDeviation="0.50545754" />
    </filter>
    <filter
       height="1.108032"
       y="-0.05401599"
       width="1.053992"
       x="-0.026996003"
       id="filter3238-2"
       style="color-interpolation-filters:sRGB">
      <feGaussianBlur
         id="feGaussianBlur3240-2"
         stdDeviation="0.72001796" />
    </filter>
    <filter
       height="1.2606643"
       y="-0.13033222"
       width="1.1239401"
       x="-0.061970063"
       id="filter3304"
       style="color-interpolation-filters:sRGB">
      <feGaussianBlur
         id="feGaussianBlur3306"
         stdDeviation="1.7767668" />
    </filter>
    <filter
       height="1.4545048"
       y="-0.22725242"
       width="1.2375263"
       x="-0.11876316"
       id="filter3376"
       style="color-interpolation-filters:sRGB">
      <feGaussianBlur
         id="feGaussianBlur3378"
         stdDeviation="3.2142434" />
    </filter>
    <filter
       height="1.0741538"
       y="-0.03707692"
       width="1.0354847"
       x="-0.017742332"
       id="filter3250"
       style="color-interpolation-filters:sRGB">
      <feGaussianBlur
         id="feGaussianBlur3252"
         stdDeviation="0.50545754" />
    </filter>
    <filter
       height="1.108032"
       y="-0.05401599"
       width="1.053992"
       x="-0.026996003"
       id="filter3238"
       style="color-interpolation-filters:sRGB">
      <feGaussianBlur
         id="feGaussianBlur3240"
         stdDeviation="0.72001796" />
    </filter>
    <filter
       height="1.2606643"
       y="-0.13033222"
       width="1.1239401"
       x="-0.061970063"
       id="filter3304-36"
       style="color-interpolation-filters:sRGB">
      <feGaussianBlur
         id="feGaussianBlur3306-75"
         stdDeviation="1.7767668" />
    </filter>
    <filter
       height="1.4545048"
       y="-0.22725242"
       width="1.2375263"
       x="-0.11876316"
       id="filter3376-35"
       style="color-interpolation-filters:sRGB">
      <feGaussianBlur
         id="feGaussianBlur3378-62"
         stdDeviation="3.2142434" />
    </filter>
    <filter
       height="1.0741538"
       y="-0.03707692"
       width="1.0354847"
       x="-0.017742332"
       id="filter3250-9"
       style="color-interpolation-filters:sRGB">
      <feGaussianBlur
         id="feGaussianBlur3252-1"
         stdDeviation="0.50545754" />
    </filter>
    <filter
       height="1.108032"
       y="-0.05401599"
       width="1.053992"
       x="-0.026996003"
       id="filter3238-27"
       style="color-interpolation-filters:sRGB">
      <feGaussianBlur
         id="feGaussianBlur3240-0"
         stdDeviation="0.72001796" />
    </filter>
    <filter
       height="1.2606643"
       y="-0.13033222"
       width="1.1239401"
       x="-0.061970063"
       id="filter3304-3-9"
       style="color-interpolation-filters:sRGB">
      <feGaussianBlur
         id="feGaussianBlur3306-7-3"
         stdDeviation="1.7767668" />
    </filter>
    <filter
       height="1.4545048"
       y="-0.22725242"
       width="1.2375263"
       x="-0.11876316"
       id="filter3376-3-6"
       style="color-interpolation-filters:sRGB">
      <feGaussianBlur
         id="feGaussianBlur3378-6-0"
         stdDeviation="3.2142434" />
    </filter>
    <filter
       height="1.0741538"
       y="-0.03707692"
       width="1.0354847"
       x="-0.017742332"
       id="filter3250-5-6"
       style="color-interpolation-filters:sRGB">
      <feGaussianBlur
         id="feGaussianBlur3252-9-2"
         stdDeviation="0.50545754" />
    </filter>
    <filter
       height="1.108032"
       y="-0.05401599"
       width="1.053992"
       x="-0.026996003"
       id="filter3238-2-6"
       style="color-interpolation-filters:sRGB">
      <feGaussianBlur
         id="feGaussianBlur3240-2-1"
         stdDeviation="0.72001796" />
    </filter>
    <filter
       height="1.108032"
       y="-0.05401599"
       width="1.053992"
       x="-0.026996003"
       id="filter3238-2-8"
       style="color-interpolation-filters:sRGB">
      <feGaussianBlur
         id="feGaussianBlur3240-2-7"
         stdDeviation="0.72001796" />
    </filter>
    <filter
       height="1.0741538"
       y="-0.03707692"
       width="1.0354847"
       x="-0.017742332"
       id="filter3250-5-9"
       style="color-interpolation-filters:sRGB">
      <feGaussianBlur
         id="feGaussianBlur3252-9-20"
         stdDeviation="0.50545754" />
    </filter>
    <filter
       height="1.4545048"
       y="-0.22725242"
       width="1.2375263"
       x="-0.11876316"
       id="filter3376-3-2"
       style="color-interpolation-filters:sRGB">
      <feGaussianBlur
         id="feGaussianBlur3378-6-3"
         stdDeviation="3.2142434" />
    </filter>
    <filter
       height="1.2606643"
       y="-0.13033222"
       width="1.1239401"
       x="-0.061970063"
       id="filter3304-3-7"
       style="color-interpolation-filters:sRGB">
      <feGaussianBlur
         id="feGaussianBlur3306-7-5"
         stdDeviation="1.7767668" />
    </filter>
  </defs>
  <metadata
     id="metadata251">
    <rdf:RDF>
      <cc:Work
         rdf:about="">
        <dc:format>image/svg+xml</dc:format>
        <dc:type
           rdf:resource="http://purl.org/dc/dcmitype/StillImage" />
        <dc:title></dc:title>
      </cc:Work>
    </rdf:RDF>
  </metadata>
  <path
     id="path1070"
     d="m 48.244105,16.862926 c -0.51068,5.18e-4 -0.80866,0.11962 -1.28528,0.442654 -1.55719,1.055368 -2.62867,3.218191 -3.71462,7.497092 -1.59075,6.268173 -1.34575,13.072733 0.6907,19.195381 0.64087,1.926902 2.58335,6.147284 3.8052,8.266403 l 0.59329,1.029298 -0.57198,2.027933 c -0.86076,3.054448 -1.09422,4.98511 -0.94663,7.818419 0.19791,3.801245 1.20828,7.142457 3.12925,10.344994 2.07325,3.456451 6.22612,9.046729 8.78373,11.824957 0.8862,0.962681 2.17653,2.4868 2.86656,3.387892 1.68987,2.206783 3.46892,3.844544 4.87981,4.490519 1.40494,0.64319 4.2993,1.40795 5.32784,1.40795 0.71808,0 0.77233,0.0628 1.58393,1.80262 0.373,0.79948 4.20278,3.870282 4.85668,5.684432 1.47683,-1.95204 2.89681,-1.42602 5.18305,-1.3133 -2.13197,-3.057252 -7.16313,-6.279792 -7.24647,-6.585732 -0.0321,-0.11673 1.02369,-0.746955 2.34528,-1.401291 3.71933,-1.84145 13.27321,-7.223358 15.94617,-8.982376 7.686445,-5.058286 11.808045,-10.317853 12.766205,-16.291473 0.12508,-0.780939 0.22848,-3.312377 0.22937,-5.625155 0,-2.3128 0.0465,-4.205193 0.10135,-4.205193 0.54114,-2.175454 1.14971,-3.23111 2.17061,-5.279834 3.60976,-7.24779 4.85852,-15.885136 3.39452,-23.471243 -0.76353,-3.956957 -1.62059,-5.874342 -3.33185,-7.451763 -2.07395,-1.911658 -4.82993,-1.836104 -9.24636,0.255991 -3.247605,1.538409 -6.323325,3.666833 -10.562345,7.309097 -2.42701,2.085358 -3.47944,2.64847 -6.44376,3.447896 -1.9686,0.530865 -2.55056,0.588657 -5.89717,0.589314 -3.364,5.82e-4 -3.91557,-0.05529 -5.85579,-0.590652 -3.21102,-0.885964 -3.85052,-1.302882 -7.2518,-4.739848 -6.48451,-6.552583 -12.19776,-10.499896 -15.70349,-10.848986 -0.23203,-0.02308 -0.42577,-0.03618 -0.59595,-0.03597 z m 0.72394,3.611887 c 0.24276,0.01469 0.60319,0.129851 1.27061,0.355984 1.81468,0.614813 3.85462,1.7641 6.14913,3.465222 2.51582,1.865143 3.91496,3.234671 5.65053,5.530487 0.81747,1.081316 2.04015,2.507102 2.71726,3.167902 1.14773,1.12007 1.22139,1.253827 1.0906,1.966603 -0.23682,1.289701 -1.34632,3.93234 -2.60791,6.210469 -0.66073,1.193052 -1.16569,2.203503 -1.12262,2.24659 0.0431,0.04322 0.88745,-0.785244 1.87591,-1.84127 1.69611,-1.811991 3.78459,-4.67337 4.39589,-6.023806 0.17749,-0.392221 0.38877,-0.565632 0.59466,-0.486651 0.17578,0.06744 1.5597,0.382623 3.07456,0.699978 3.97149,0.831877 7.34198,0.827187 10.59834,-0.01323 1.311,-0.338401 2.51512,-0.664959 2.6759,-0.726649 0.2125,-0.0816 0.2934,0.116425 0.29598,0.72931 0.006,1.441931 0.601,3.746574 1.30392,5.053176 0.72238,1.342694 2.11825,3.100372 1.8613,2.343922 -1.07686,-3.168434 -1.20042,-5.608125 -0.36665,-7.242438 0.46741,-0.916176 3.93157,-4.34934 6.91847,-6.854441 4.16154,-3.490315 9.273855,-6.166303 11.086285,-5.803811 0.97967,0.195939 2.01946,1.075534 2.53855,2.147928 1.21729,2.514228 1.88233,9.137643 1.34795,13.431566 -0.53281,4.281896 -1.91789,8.785877 -4.36517,14.19954 -1.47881,3.271406 -1.84342,4.873463 -1.67725,7.378435 0.0716,1.081307 0.19626,2.347479 0.27598,2.814572 l 0.14541,0.849304 -2.49193,-2.049264 c -1.37008,-1.127186 -4.309065,-3.81916 -6.531825,-5.982472 -4.9409,-4.808927 -5.62935,-5.243833 -8.30368,-5.243833 -1.67548,0 -2.01155,0.07422 -3.37861,0.746644 -1.07933,0.530873 -2.02848,1.256223 -3.28789,2.511922 -3.40073,3.390802 -4.50888,5.769644 -5.67715,12.195603 -0.42126,2.316883 -0.99393,5.04716 -1.27326,6.06647 -0.46639,1.701581 -0.55064,1.849313 -1.03462,1.810607 -0.28993,-0.02294 -1.27921,-0.05516 -2.19731,-0.07066 -0.91807,-0.01625 -2.13783,0.04048 -2.71187,0.126656 l -1.04396,0.155996 0.81194,-1.394624 c 3.4139,-5.869459 3.87454,-8.563031 2.26923,-13.251572 -1.35743,-3.964773 -3.62088,-7.198339 -5.85708,-8.367731 -1.48632,-0.777354 -3.20282,-0.712364 -5.0145,0.190664 -2.71652,1.353992 -5.82931,4.487296 -8.19175,8.243734 l -1.23196,1.958602 0.14541,-1.419955 c 0.22378,-2.182847 0.94499,-5.610725 1.56258,-7.426431 1.13981,-3.351046 2.57986,-5.656659 6.40245,-10.251663 1.94671,-2.340003 2.62395,-3.673148 2.62395,-5.163838 0,-1.564444 -0.91985,-5.044137 -1.83993,-6.957106 -1.25667,-2.612705 -3.25737,-4.936278 -5.44518,-6.325132 -0.71118,-0.45148 -2.87892,-1.233034 -3.39855,-1.225293 -0.46255,0.0068 -2.09749,3.648661 -2.57323,5.731812 -0.55287,2.420714 -0.50084,7.515591 0.10539,10.333002 0.64543,3.000087 1.40617,5.260323 2.64388,7.859746 1.01686,2.135603 1.03523,2.210607 0.712,2.893245 -0.18261,0.385612 -0.40317,0.701308 -0.48932,0.701308 -0.31327,0 -2.18186,-3.94176 -2.91462,-6.147803 -2.09046,-6.293963 -2.41391,-12.405413 -0.96929,-18.318073 0.50864,-2.081841 1.65316,-4.723989 2.28796,-5.283835 0.19728,-0.173984 0.32255,-0.259964 0.56529,-0.245322 z m 56.268835,5.13983 c -0.58222,5.82e-4 -1.2792,0.20349 -2.17724,0.586652 -7.202505,3.07302 -11.731845,11.019099 -9.259715,16.244807 0.77377,1.635588 1.77541,2.722687 4.45323,4.835848 1.28338,1.012777 3.217025,2.734045 4.295815,3.825205 1.07885,1.091166 1.99441,1.983936 2.03461,1.983936 0.16596,0 1.58428,-3.316634 2.29997,-5.377156 2.70035,-7.775187 2.99422,-16.383719 0.6933,-20.310011 -0.71999,-1.228549 -1.36953,-1.790243 -2.33997,-1.789281 z m -53.290255,5.561158 c 0.0881,-0.0073 0.30201,0.0902 0.64266,0.263993 1.76271,0.899275 3.39888,3.333176 4.09852,6.094468 0.7447,2.939324 0.26548,2.44943 -2.51459,-2.573251 -0.63172,-1.141381 -1.36556,-2.370142 -1.63064,-2.730579 -0.54187,-0.736914 -0.74278,-1.042425 -0.59595,-1.054631 z m 49.937025,1.662609 c 0.0307,0.004 0.0545,0.01452 0.0707,0.03065 0.0676,0.06723 -0.42501,0.696679 -1.09462,1.398616 -2.167385,2.272285 -3.670565,4.936367 -4.305155,7.629093 -0.14863,0.630751 -0.35518,1.146624 -0.45867,1.146624 -0.10329,0 -0.30535,-0.393838 -0.44932,-0.874638 -0.53103,-1.772378 0.77207,-5.136881 2.7626,-7.131766 1.00301,-1.005221 3.013525,-2.259424 3.474515,-2.198601 z M 60.537035,60.600183 c 1.0237,0.03542 2.06978,0.448908 2.94657,1.319961 1.40134,1.392262 1.73597,3.422672 0.84662,5.1425 -0.45437,0.878721 -1.72914,1.918716 -2.67461,2.181262 -1.06615,0.296043 -1.51103,0.279448 -2.56122,-0.09467 -1.98034,-0.705472 -2.95455,-2.074154 -2.95455,-4.151866 0,-2.724631 2.14501,-4.475117 4.39719,-4.397192 z m 26.35247,0.389324 c 0.68791,-0.03836 1.36824,0.05768 1.95462,0.302659 1.74852,0.730573 2.54885,2.103951 2.41855,4.151866 -0.0962,1.509834 -0.63972,2.435479 -2.07189,3.527888 -0.64531,0.492117 -1.0506,0.612373 -2.23191,0.663974 -2.12829,0.09299 -3.36967,-0.549208 -4.19855,-2.173261 -0.81534,-1.597456 -0.35265,-3.94 1.03592,-5.242499 0.77998,-0.73161 1.94669,-1.166741 3.09326,-1.230627 z m -27.11117,0.635982 c -0.32104,0.015 -0.63328,0.111614 -0.97992,0.291986 -1.4335,0.745852 -2.03613,2.144715 -1.69862,3.943871 0.18553,0.989049 1.2708,2.24137 2.16793,2.501257 v -0.0013 c 0.94103,0.273571 1.1132,0.274474 1.81994,0.0079 0.8748,-0.329784 1.99148,-1.473017 2.15196,-2.203923 0.0762,-0.342252 0.0683,-0.936356 -0.0163,-1.319962 l -0.15332,-0.697309 -0.42795,0.587983 c -0.46447,0.637583 -1.46926,0.806286 -1.87727,0.314651 -0.52775,-0.635754 -0.5109,-1.369801 0.0505,-2.197261 l 0.55594,-0.818635 -0.5586,-0.211997 c -0.38405,-0.146037 -0.71357,-0.212418 -1.03468,-0.197324 z m 26.83381,0.203988 c -1.82736,0 -3.39192,1.653479 -3.39055,3.582554 0,1.321871 0.54236,2.338419 1.58128,2.971905 0.83419,0.508612 2.26522,0.567968 3.29593,0.137324 0.90022,-0.376123 1.89326,-1.540721 1.89326,-2.219925 0,-0.492078 -0.0554,-0.513083 -1.05598,-0.394658 -0.96369,0.114149 -1.09593,0.07322 -1.5279,-0.47598 -0.6025,-0.765929 -0.59445,-1.105331 0.056,-2.179931 0.65078,-1.075198 0.44332,-1.421292 -0.852,-1.421292 z m -22.33524,14.015548 c 0.0315,0.0013 0.0566,0.0097 0.072,0.02532 0.0704,0.07049 0.0198,0.630359 -0.11201,1.24529 -0.13185,0.614942 -0.24001,1.604367 -0.24001,2.197264 0,1.312979 0.44796,1.874256 2.83858,3.558553 1.93967,1.366539 2.3687,2.134841 1.55731,2.791915 -0.37116,0.300445 -0.84968,0.411721 -1.74394,0.403982 -4.59359,-0.0357 -7.86709,-4.694214 -5.56247,-7.915743 0.56966,-0.796375 2.71835,-2.324434 3.19054,-2.306595 z m 4.98781,0.0667 c 0.95366,0.0055 1.88683,0.369044 2.06665,1.085295 0.2,0.797015 -0.052,1.595334 -0.61999,1.962605 -0.91598,0.592439 -1.53184,0.601154 -2.46926,0.03331 -1.01646,-0.615704 -1.4268,-1.325367 -1.16931,-2.021268 0.26398,-0.713611 1.23826,-1.065753 2.19191,-1.059963 z m 8.05711,0.751973 0.81993,0.14933 c 2.2285,0.403757 4.55994,1.71449 5.17984,2.91324 0.49036,0.948256 0.41061,1.733378 -0.30131,2.97457 -0.84444,1.472221 -2.17579,2.636449 -3.92787,3.433226 -1.15811,0.526592 -1.8095,0.671129 -3.29992,0.733311 -1.02115,0.04259 -2.00382,0.01564 -2.18391,-0.06 -0.73534,-0.308297 -1.55471,-1.020876 -1.86525,-1.621282 l -0.32931,-0.637317 1.83856,-0.8733 c 2.8394,-1.348994 4.05491,-3.035467 4.06523,-5.635818 z m -6.80514,11.019648 c 0.19571,0.009 0.32692,0.107757 0.54797,0.302657 1.16083,1.023387 2.90731,1.699778 5.01456,1.941271 1.47383,0.168942 1.38878,0.403045 -0.308,0.854636 -3.30592,0.879861 -7.51887,-0.0034 -9.35838,-1.961266 l -0.5253,-0.558647 h 1.34127 c 0.73758,0 1.79705,-0.155948 2.35456,-0.345323 0.4784,-0.162401 0.73768,-0.242422 0.93332,-0.233328 z"
     style="fill:#00815b;fill-opacity:1;stroke-width:0.21844628" />
  <text
     xml:space="preserve"
     style="font-style:normal;font-weight:normal;font-size:36.78245544px;line-height:1.25;font-family:sans-serif;letter-spacing:0px;word-spacing:0px;fill:#333333;fill-opacity:1;stroke:none;stroke-width:5.51736832"
     x="18.815872"
     y="128.91039"
     id="text2418"><tspan
       id="tspan2416"
       x="18.815872"
       y="128.91039"
       style="font-weight:bold;fill:#333333;stroke-width:5.51736832">MxOS</tspan></text>
</svg>
