<?xml version="1.0" encoding="UTF-8" standalone="no"?>
<!-- Created with Inkscape (http://www.inkscape.org/) -->

<svg
   width="55.943363mm"
   height="53.417595mm"
   viewBox="0 0 55.943363 53.417595"
   version="1.1"
   id="svg1"
   xml:space="preserve"
   sodipodi:docname="drawing.svg"
   inkscape:version="1.4 (e7c3feb100, 2024-10-09)"
   xmlns:inkscape="http://www.inkscape.org/namespaces/inkscape"
   xmlns:sodipodi="http://sodipodi.sourceforge.net/DTD/sodipodi-0.dtd"
   xmlns="http://www.w3.org/2000/svg"
   xmlns:svg="http://www.w3.org/2000/svg"><sodipodi:namedview
     id="namedview1"
     pagecolor="#ffffff"
     bordercolor="#000000"
     borderopacity="0.25"
     inkscape:showpageshadow="2"
     inkscape:pageopacity="0.0"
     inkscape:pagecheckerboard="0"
     inkscape:deskcolor="#d1d1d1"
     inkscape:document-units="mm"
     inkscape:zoom="1.1687957"
     inkscape:cx="-426.93518"
     inkscape:cy="953.11781"
     inkscape:window-width="1920"
     inkscape:window-height="1011"
     inkscape:window-x="0"
     inkscape:window-y="0"
     inkscape:window-maximized="1"
     inkscape:current-layer="layer1"
     showguides="false"><inkscape:page
       x="0"
       y="-1.2197751e-12"
       width="55.943363"
       height="53.417591"
       id="page2"
       margin="0"
       bleed="0" /></sodipodi:namedview><defs
     id="defs1" /><g
     inkscape:label="Layer 1"
     inkscape:groupmode="layer"
     id="layer1"
     transform="translate(165.28884,-250.04327)"><path
       stroke="none"
       d="m -134.72139,180.66192 h 73.65112 v 73.65116 h -73.65112 z"
       fill="none"
       id="path1-5"
       style="stroke-width:3.0688" /><g
       id="g65"
       transform="translate(-23.472164,19.856011)"><path
         id="path2-1-2"
         style="fill:#9c1d33;fill-opacity:1;stroke:none;stroke-width:5.87101;stroke-linecap:butt;stroke-linejoin:miter"
         d="m -130.07519,245.15454 c -0.75115,0 -1.50264,0.28642 -2.07584,0.85938 l -8.80619,8.8067 c -1.14593,1.1464 -1.14593,3.00425 0,4.15065 l 0.54157,0.54157 1.35909,-3.05873 c 0.37265,-0.8388 1.20967,-1.38194 2.12752,-1.38182 h 4.18734 c 0.91786,-1.2e-4 1.75436,0.54302 2.12701,1.38182 l 0.98598,2.21796 c 0.007,0.0151 0.014,0.0304 0.0202,0.046 l 3.42977,7.23883 6.98562,-6.98562 c 1.14592,-1.1464 1.14592,-3.00425 0,-4.15065 l -8.8067,-8.8067 c -0.5732,-0.57296 -1.32418,-0.85938 -2.07533,-0.85938 z m -6.85385,11.46907 c -0.30862,-4e-5 -0.5837,0.17892 -0.709,0.46096 l -0.5395,1.21284 c 0.29709,0.1013 0.5707,0.26692 0.7984,0.50488 l 0.003,0.002 c 0.0535,0.0544 0.24465,0.15015 0.46199,0.14728 0.007,-8e-5 0.0131,-8e-5 0.0196,0 0.21884,0.003 0.41331,-0.095 0.46664,-0.15038 0.42076,-0.43935 0.99795,-0.63127 1.59216,-0.62425 0.5942,-0.007 1.17149,0.18487 1.59215,0.62425 0.0533,0.0554 0.2478,0.15325 0.46663,0.15038 0.007,-8e-5 0.0131,-8e-5 0.0196,0 0.21734,0.003 0.40848,-0.0929 0.46199,-0.14728 5.4e-4,-5.4e-4 0.001,-10e-4 0.002,-0.002 1.6e-4,-1.6e-4 0.001,1.6e-4 0.002,0 0.22771,-0.23798 0.50131,-0.40358 0.7984,-0.50488 l -0.53898,-1.21284 c -0.1253,-0.28204 -0.40038,-0.461 -0.709,-0.46096 z m 2.07998,3.10317 c -0.21701,-0.004 -0.40693,0.0922 -0.45889,0.14676 -0.001,0.001 -0.002,0.002 -0.003,0.003 -0.42164,0.43807 -0.9982,0.62635 -1.59267,0.62115 -0.595,0.006 -1.17188,-0.18301 -1.5937,-0.6227 -0.001,-5.1e-4 -0.002,-0.001 -0.003,-0.002 -0.0402,-0.0422 -0.1632,-0.1089 -0.31729,-0.13539 l -0.4222,0.95033 7.08898,7.08949 c 1.1464,1.14593 3.00476,1.14593 4.15116,0 l 0.65578,-0.65577 -3.50883,-7.38353 c -0.15408,0.0265 -0.27763,0.0927 -0.31781,0.13487 -10e-4,5.2e-4 -0.002,10e-4 -0.003,0.002 -0.42183,0.43969 -0.99871,0.62829 -1.5937,0.6227 -0.59447,0.005 -1.17051,-0.18308 -1.59215,-0.62115 -0.001,-10e-4 -0.002,-0.002 -0.003,-0.003 -0.052,-0.0545 -0.24188,-0.15048 -0.45889,-0.14676 -0.009,1.6e-4 -0.0183,1.6e-4 -0.0274,0 z" /><path
         id="path3-9"
         style="fill:#004e59;fill-opacity:1;stroke:none;stroke-width:5.87101;stroke-linecap:butt;stroke-linejoin:miter"
         d="m -100.1411,245.15454 c -0.75115,0 -1.50213,0.28642 -2.07533,0.85938 l -8.8067,8.8067 c -1.14592,1.1464 -1.14592,3.00425 0,4.15065 l 8.8067,8.8067 c 1.1464,1.14593 3.004767,1.14593 4.15117,0 l 2.912484,-2.91248 c -0.502518,-0.18172 -0.952967,-0.39623 -1.327567,-0.64596 -2.318257,-1.5455 -4.348007,-1.5455 -6.666257,0 -0.38816,0.2588 -0.91262,0.15401 -1.17151,-0.23409 -0.2588,-0.38816 -0.154,-0.91262 0.2341,-1.17151 1.37542,-0.91695 2.82302,-1.37614 4.270537,-1.37614 1.447521,0 2.895117,0.45919 4.27054,1.37614 0.45531,0.30354 1.044975,0.54536 1.71204,0.72967 l 2.220537,-2.22105 c -1.92784,-0.13355 -3.737961,-0.57237 -4.869987,-1.32705 -2.318257,-1.5455 -4.348007,-1.5455 -6.666257,0 -0.38816,0.2588 -0.91262,0.154 -1.17151,-0.2341 -0.25915,-0.38825 -0.15432,-0.9131 0.2341,-1.17202 1.37542,-0.91695 2.82302,-1.37614 4.270537,-1.37614 1.447521,0 2.895117,0.45919 4.27054,1.37614 1.22243,0.81496 3.394099,1.19586 5.514392,1.15135 l 0.769462,-0.76946 c 0.536891,-0.53711 0.818859,-1.23054 0.852661,-1.93373 -2.93383,0.32484 -6.317038,-0.0948 -8.073925,-1.26607 -2.318257,-1.54551 -4.348007,-1.54551 -6.666257,0 -0.38829,0.2587 -0.91278,0.15366 -1.17151,-0.23461 -0.2588,-0.38816 -0.154,-0.91262 0.2341,-1.17151 1.37542,-0.91695 2.82302,-1.37614 4.270537,-1.37614 1.447521,0 2.895117,0.45919 4.27054,1.37614 1.463721,0.97582 4.288093,1.33388 6.75566,1.07746 -0.126846,-0.22215 -0.282245,-0.43255 -0.471806,-0.62219 l -8.806181,-8.8067 c -0.573201,-0.57296 -1.324696,-0.85938 -2.07584,-0.85938 z" /><path
         id="path4-3"
         style="fill:#c08400;fill-opacity:1;stroke:none;stroke-width:5.87101;stroke-linecap:butt;stroke-linejoin:miter"
         d="m -115.10815,230.1875 c -0.75114,0 -1.50212,0.28641 -2.07532,0.85938 l -8.8067,8.80618 c -1.14593,1.1464 -1.14593,3.00476 0,4.15117 l 8.8067,8.80669 c 0.0763,0.0763 0.15602,0.14626 0.23823,0.21239 v -5.71024 c -1.70178,0 -3.1049,-1.3348 -3.18999,-3.03444 l -0.004,-0.15968 v -0.7984 c 0.001,-1.0028 1.4732,-1.08879 1.59163,-0.093 l 0.006,0.093 v 0.7984 c -2.6e-4,0.83565 0.64361,1.53051 1.47692,1.59318 l 0.11989,0.004 v -5.58933 c -0.003,-3.10432 4.60714,-3.23971 4.78627,-0.14056 l 0.004,0.14056 v 7.98453 c 0.83565,2.6e-4 1.52999,-0.64413 1.59266,-1.47743 l 0.004,-0.11937 v -3.99252 c 0.001,-1.0028 1.47268,-1.0888 1.59112,-0.093 l 0.006,0.093 v 3.99252 c 0,1.70177 -1.33428,3.10438 -3.03392,3.18947 l -0.15968,0.004 v 2.22467 l 7.92871,-7.92871 c 1.14593,-1.14641 1.14593,-3.00477 0,-4.15117 l -8.80669,-8.80618 c -0.57321,-0.57297 -1.32418,-0.85938 -2.07533,-0.85938 z" /><path
         id="path5-1"
         style="fill:#44642f;fill-opacity:1;stroke:none;stroke-width:5.87101;stroke-linecap:butt;stroke-linejoin:miter"
         d="m -115.10815,260.12159 c -0.75114,0 -1.50212,0.28642 -2.07532,0.85938 l -8.8067,8.8067 c -1.14593,1.1464 -1.14593,3.00476 0,4.15116 l 2.08979,2.0898 0.0289,-0.0537 c 0.39729,-0.44395 0.99014,-0.70165 1.61593,-0.70177 l 14.28388,-0.004 c 0.62584,-1.1e-4 1.21879,0.2571 1.61592,0.70124 l 0.0341,0.0641 2.09548,-2.09548 c 1.14593,-1.1464 1.14593,-3.00476 0,-4.15116 l -8.8067,-8.8067 c -0.5732,-0.57296 -1.32418,-0.85938 -2.07532,-0.85938 z m -1.73736,6.9448 c 0.76395,0 2.65411,0.002 3.47421,0.003 0.18197,3.5e-4 0.36291,0.13243 0.40462,0.29507 l 0.80616,3.14503 c 0.0417,0.16264 -0.0723,0.29408 -0.25425,0.29352 -0.84944,-0.002 -1.84439,-0.004 -3.07733,-0.003 -0.18198,7e-5 -0.47691,-2.7e-4 -0.65888,0 -0.61287,0.003 -1.13394,0.007 -1.65468,0.009 -0.18197,9.9e-4 -0.29493,-0.13087 -0.25321,-0.29352 l 0.80873,-3.15382 c 0.0417,-0.16264 0.2227,-0.29467 0.40463,-0.29455 z m 0.91002,1.01389 c -0.18197,0 -0.32917,0.13573 -0.32918,0.30282 v 1.11053 c 10e-6,0.16709 0.14721,0.30282 0.32918,0.30282 h 1.65158 c 0.18197,0 0.32918,-0.13573 0.32918,-0.30282 v -1.11053 c 0,-0.16709 -0.14721,-0.30282 -0.32918,-0.30282 z m 0.30644,0.31832 h 1.03818 c 0.11447,-4e-5 0.20727,0.0856 0.20723,0.19069 v 0.69815 c 4e-5,0.10516 -0.0928,0.19021 -0.20723,0.19017 h -1.03818 c -0.11446,4e-5 -0.20726,-0.0851 -0.20722,-0.19017 v -0.69815 c -5e-5,-0.10518 0.0928,-0.19073 0.20722,-0.19069 z m -3.45405,2.76986 v 5.2e-4 c 1.60833,0 5.76451,0.001 7.97936,0.003 0.36395,4.6e-4 0.79706,0.24029 0.9679,0.53537 l 1.54306,2.66495 c 0.17083,0.29509 0.0146,0.53437 -0.34934,0.53382 -4.7858,-0.008 -7.27906,-0.007 -12.34188,0.004 -0.36394,7.3e-4 -0.51916,-0.23719 -0.34623,-0.53123 l 1.57562,-2.67787 c 0.17292,-0.29405 0.60756,-0.53232 0.97151,-0.53227 z m 1.95285,1.58698 c -0.17061,-0.0105 -0.31834,0.10793 -0.32969,0.26459 0,0.16709 0.14772,0.30282 0.32969,0.30282 h 4.03697 c 0.17061,0.0105 0.31783,-0.10792 0.32918,-0.26458 -1e-5,-0.16709 -0.14721,-0.30283 -0.32918,-0.30283 z m -1.86397,4.27468 c -0.17037,-0.0105 -0.318,0.10764 -0.32969,0.26406 -1e-5,0.16709 0.14772,0.30283 0.32969,0.30283 h 7.77266 c 0.17038,0.0105 0.31801,-0.10816 0.32969,-0.26458 0,-0.16709 -0.14772,-0.30231 -0.32969,-0.30231 z m 5.46996,4.11706 c -1.59031,-3.7e-4 -3.50717,0.003 -5.25343,0.004 l 1.59422,1.59421 c 1.1464,1.14593 3.00425,1.14593 4.15065,0 l 1.59473,-1.59473 c -0.78933,-5.9e-4 -1.23753,-0.003 -2.08617,-0.003 z" /><path
         stroke="none"
         d="m -122.54376,236.13489 h 19.1623 v 19.1623 h -19.1623 z"
         fill="none"
         id="path1-2"
         style="stroke-width:0.798429" /><path
         stroke="none"
         d="m -141.26064,253.1877 h 18.6163 v 18.6163 h -18.6163 z"
         fill="none"
         id="path1-1"
         style="stroke-width:1.55136;stroke-linecap:round;stroke-linejoin:round" /><path
         stroke="none"
         d="m -106.14971,249.15438 h 20.276405 v 20.2764 h -20.276405 z"
         fill="none"
         id="path1-22"
         style="stroke-width:1.6897;stroke-linecap:round;stroke-linejoin:round" /></g></g></svg>
