<?xml version="1.0" encoding="UTF-8" standalone="no"?>
<!-- Created with Inkscape (http://www.inkscape.org/) -->

<svg
   width="53.417027mm"
   height="53.417091mm"
   viewBox="0 0 53.417027 53.417091"
   version="1.1"
   id="svg1"
   xml:space="preserve"
   sodipodi:docname="drawing.svg"
   inkscape:version="1.4 (e7c3feb100, 2024-10-09)"
   xmlns:inkscape="http://www.inkscape.org/namespaces/inkscape"
   xmlns:sodipodi="http://sodipodi.sourceforge.net/DTD/sodipodi-0.dtd"
   xmlns="http://www.w3.org/2000/svg"
   xmlns:svg="http://www.w3.org/2000/svg"><sodipodi:namedview
     id="namedview1"
     pagecolor="#ffffff"
     bordercolor="#000000"
     borderopacity="0.25"
     inkscape:showpageshadow="2"
     inkscape:pageopacity="0.0"
     inkscape:pagecheckerboard="0"
     inkscape:deskcolor="#d1d1d1"
     inkscape:document-units="mm"
     inkscape:zoom="1.1687957"
     inkscape:cx="-426.93518"
     inkscape:cy="953.11781"
     inkscape:window-width="1920"
     inkscape:window-height="1011"
     inkscape:window-x="0"
     inkscape:window-y="0"
     inkscape:window-maximized="1"
     inkscape:current-layer="layer1"
     showguides="false"><inkscape:page
       x="0"
       y="0"
       width="53.417027"
       height="53.417091"
       id="page2"
       margin="0"
       bleed="0" /></sodipodi:namedview><defs
     id="defs1" /><g
     inkscape:label="Layer 1"
     inkscape:groupmode="layer"
     id="layer1"
     transform="translate(105.16488,-251.69185)"><path
       stroke="none"
       d="m -134.72139,180.66192 h 73.65112 v 73.65116 h -73.65112 z"
       fill="none"
       id="path1-5"
       style="stroke-width:3.0688" /><g
       id="g71"
       transform="translate(3.8178644,1.7966421)"
       inkscape:export-filename="g71.png"
       inkscape:export-xdpi="96"
       inkscape:export-ydpi="96"><g
         id="g70"
         transform="translate(-2.105481,55.411979)"><path
           id="path2-1-0"
           style="fill:#9c1d33;fill-opacity:1;stroke:none;stroke-width:5.87101;stroke-linecap:butt;stroke-linejoin:miter"
           d="m -95.135795,209.45026 c -0.751146,0 -1.502641,0.28642 -2.075842,0.85938 l -8.806183,8.8067 c -1.14593,1.1464 -1.14593,3.00425 0,4.15065 l 2.36833,2.36885 c 0.31297,-0.3326 0.72255,-0.59023 1.21853,-0.71055 0.46478,-0.11262 0.66081,-0.58907 0.41186,-0.99736 -0.64763,-1.0631 -0.36596,-2.34066 0.37104,-3.07784 0.73698,-0.73717 2.014373,-1.01797 3.077849,-0.37052 0.413223,0.25124 0.883727,0.0549 0.997355,-0.41238 0.293485,-1.20981 1.394264,-1.91771 2.436544,-1.91771 1.042267,0 2.146155,0.7079 2.439645,1.91771 0.112612,0.46471 0.585958,0.66339 0.994254,0.41444 1.063095,-0.64763 2.344292,-0.36853 3.081466,0.36846 0.737174,0.737 1.01797,2.01747 0.37052,3.08094 -0.248529,0.40803 -0.05288,0.88142 0.411344,0.99426 0.495519,0.12021 0.90504,0.37736 1.217497,0.70952 l 2.367814,-2.36782 c 1.145925,-1.1464 1.145925,-3.00425 0,-4.15065 l -8.806698,-8.8067 c -0.573201,-0.57296 -1.324179,-0.85938 -2.075325,-0.85938 z m -5.17e-4,10.54251 c -0.30461,0 -0.547502,0.10161 -0.646472,0.50953 -0.394925,1.62407 -2.314154,2.42083 -3.743441,1.55185 -0.358948,-0.21859 -0.605045,-0.11901 -0.820625,0.0966 -0.21559,0.21564 -0.31549,0.46016 -0.0971,0.81856 0.87148,1.42929 0.0751,3.35182 -1.55184,3.74602 -0.17565,0.0426 -0.29177,0.11354 -0.37,0.20361 l 5.154203,5.15472 c 1.146402,1.14593 3.004765,1.14593 4.151167,0 l 5.156275,-5.15627 c -0.07824,-0.0894 -0.194208,-0.15965 -0.36897,-0.20206 a 0.92134714,0.92134714 0 0 1 -0.0031,0 c -1.625374,-0.39525 -2.419934,-2.31433 -1.549777,-3.74292 0.218526,-0.35894 0.119,-0.60608 -0.09663,-0.82166 -0.215636,-0.21558 -0.462736,-0.31497 -0.821138,-0.0966 -1.429283,0.87144 -3.34872,0.0751 -3.742924,-1.55185 -0.09897,-0.40787 -0.344975,-0.50953 -0.649573,-0.50953 z m 0,3.68505 c 0.895663,0 1.804873,0.29606 2.513025,0.92552 0.708153,0.62947 1.174088,1.6095 1.174089,2.76108 -10e-7,1.15156 -0.465936,2.13213 -1.174089,2.76159 -0.708152,0.62947 -1.617362,0.92294 -2.513025,0.92294 -0.895675,0 -1.802288,-0.29347 -2.510441,-0.92294 -0.708162,-0.62946 -1.173572,-1.61003 -1.173572,-2.76159 0,-1.15158 0.46541,-2.13161 1.173572,-2.76108 0.708153,-0.62946 1.614766,-0.92552 2.510441,-0.92552 z m 0,1.8433 c -0.48622,0 -0.960544,0.16554 -1.28881,0.45733 -0.328253,0.29179 -0.551904,0.69502 -0.551904,1.38597 0,0.69093 0.223651,1.0921 0.551904,1.38389 0.328266,0.29179 0.80259,0.45682 1.28881,0.45682 0.486221,0 0.960556,-0.16503 1.28881,-0.45682 0.328266,-0.29179 0.554488,-0.69296 0.554488,-1.38389 0,-0.69095 -0.226222,-1.09418 -0.554488,-1.38597 -0.328254,-0.29179 -0.802589,-0.45733 -1.28881,-0.45733 z" /><path
           id="path3-7"
           style="fill:#28818f;fill-opacity:1;stroke:none;stroke-width:5.87101;stroke-linecap:butt;stroke-linejoin:miter"
           d="m -65.201705,209.45026 c -0.751146,0 -1.502124,0.28642 -2.075325,0.85938 l -8.806698,8.8067 c -1.145928,1.1464 -1.145928,3.00425 0,4.15065 l 2.418974,2.41898 3.083016,-3.09801 -1.293978,-1.29449 c -0.629162,-0.62935 -0.629162,-1.67438 0,-2.30374 l 2.920752,-2.92126 c 0.314675,-0.31458 0.733831,-0.47181 1.152384,-0.47181 v -5.2e-4 c 0.418554,0 0.837193,0.15775 1.151868,0.47233 l 1.867586,1.86758 a 0.81463812,0.81463812 0 0 1 0,1.15187 l 0.168982,-0.16898 1.361674,1.36167 a 0.81463812,0.81463812 0 0 1 0.913123,0.0987 l 1.867586,1.86811 c 0.629162,0.62935 0.629162,1.6749 0,2.30425 l -2.920752,2.92023 a 0.81463812,0.81463812 0 0 1 0,5.2e-4 c -0.629351,0.62916 -1.674901,0.62916 -2.304252,0 a 0.81463812,0.81463812 0 0 1 0,-5.2e-4 l -1.292944,-1.29294 -3.095419,3.08663 2.808098,2.8081 c 1.146402,1.14593 3.004764,1.14593 4.151167,0 l 8.806181,-8.8067 c 1.145927,-1.1464 1.145927,-3.00425 0,-4.15065 l -8.806181,-8.8067 c -0.573201,-0.57296 -1.324696,-0.85938 -2.075842,-0.85938 z m -2.601392,7.77007 -2.920751,2.92075 1.29191,1.29192 2.921269,-2.92076 -1.291911,-1.29191 z m 2.036569,2.85099 -2.105815,2.10582 1.291911,1.29191 2.105814,-2.10582 z m 2.850988,2.03657 -2.920752,2.92075 1.291395,1.29191 2.921268,-2.92075 v -5.2e-4 z m -6.107637,1.22318 -3.48971,3.50676 1.275375,1.27538 3.503662,-3.49333 z" /><path
           id="path4-8"
           style="fill:#c08400;fill-opacity:1;stroke:none;stroke-width:5.87101;stroke-linecap:butt;stroke-linejoin:miter"
           d="m -80.16875,194.48322 c -0.751146,0 -1.502124,0.28641 -2.075326,0.85938 l -8.806697,8.80618 c -1.145928,1.1464 -1.145928,3.00476 0,4.15117 l 5.198649,5.19865 v -3.19516 c 0,-1.52118 1.252823,-2.77399 2.773991,-2.77399 v -2.77296 c 0,-1.46414 0.581859,-2.67997 1.46606,-3.46593 0.8842,-0.78596 2.027217,-1.15756 3.15743,-1.15756 1.130212,0 2.273747,0.3716 3.157947,1.15756 0.884198,0.78596 1.46606,2.00179 1.46606,3.46593 v 2.77296 c 1.446681,0 2.64679,1.13385 2.761072,2.55333 l 1.782837,-1.78283 c 1.145927,-1.14641 1.145927,-3.00477 0,-4.15117 l -8.806697,-8.80618 c -0.573202,-0.57297 -1.32418,-0.85938 -2.075326,-0.85938 z m 1.714107,7.49877 c -0.719227,0 -1.425685,0.24338 -1.928564,0.69039 -0.502879,0.447 -0.845944,1.08233 -0.845943,2.08411 v 2.77296 h 5.547465 v -2.77296 c 0,-1.00178 -0.343065,-1.63711 -0.845944,-2.08411 -0.50288,-0.44701 -1.207789,-0.69039 -1.927014,-0.69039 z m -4.62349,7.39851 c -0.521664,0 -0.925008,0.40127 -0.925008,0.92294 v 5.04414 l 1.759065,1.75906 c 1.146403,1.14592 3.004249,1.14592 4.150652,0 l 5.18573,-5.18573 v -1.61747 c 0,-0.52167 -0.401277,-0.92294 -0.922942,-0.92294 h -0.926041 -7.397482 z m 4.622973,1.84847 c 1.021335,1.6e-4 1.849114,0.82817 1.848983,1.8495 1.37e-4,1.02134 -0.827644,1.84934 -1.848983,1.8495 -1.02155,1.4e-4 -1.849636,-0.82795 -1.849499,-1.8495 -1.31e-4,-1.02155 0.827953,-1.84964 1.849499,-1.8495 z" /><path
           id="path5-6"
           style="fill:#44642f;fill-opacity:1;stroke:none;stroke-width:5.87101;stroke-linecap:butt;stroke-linejoin:miter"
           d="m -80.16875,224.41731 c -0.751146,0 -1.502124,0.28642 -2.075326,0.85938 l -8.806697,8.8067 c -1.145927,1.1464 -1.145927,3.00476 0,4.15116 l 4.032312,4.0318 c 0.653482,-1.05781 1.820326,-1.76888 3.148128,-1.76888 h 2.96106 c 2.035536,0 3.701583,1.66552 3.701583,3.70106 v 1.95647 l 2.791044,-2.79104 c -0.260693,-0.62913 -0.802536,-1.1192 -1.495516,-1.29812 a 0.74030844,0.74030844 0 0 1 -0.531751,-0.90227 0.74030844,0.74030844 0 0 1 0.710034,-0.55552 0.74030844,0.74030844 0 0 1 0.192237,0.0238 c 0.946999,0.2445 1.728517,0.84724 2.218986,1.63866 l 4.035929,-4.03593 c 1.145927,-1.1464 1.145927,-3.00476 0,-4.15116 l -8.806697,-8.8067 c -0.573202,-0.57296 -1.32418,-0.85938 -2.075326,-0.85938 z m -2.221053,7.19646 c 0.904821,0 1.819625,0.29734 2.527494,0.92656 0.707869,0.62922 1.174089,1.60235 1.174089,2.77451 0,1.17215 -0.46622,2.1458 -1.174089,2.77502 -0.707869,0.62922 -1.622673,0.92656 -2.527494,0.92656 -0.904821,0 -1.819625,-0.29734 -2.527494,-0.92656 -0.70787,-0.62922 -1.174089,-1.60287 -1.174089,-2.77502 0,-1.17216 0.466219,-2.14529 1.174089,-2.77451 0.707869,-0.62922 1.622673,-0.92656 2.527494,-0.92656 z m 5.173844,0.0966 a 0.74030844,0.74030844 0 0 1 0.192237,0.0233 c 1.803147,0.46168 2.783292,2.04712 2.783292,3.58583 0,1.5387 -0.980145,3.12415 -2.783292,3.58582 a 0.74030844,0.74030844 0 0 1 -0.900721,-0.53381 0.74030844,0.74030844 0 0 1 0.533301,-0.90072 c 1.165828,-0.2985 1.670183,-1.20139 1.670183,-2.15129 0,-0.9499 -0.504355,-1.85331 -1.670183,-2.15181 a 0.74030844,0.74030844 0 0 1 -0.533301,-0.90072 0.74030844,0.74030844 0 0 1 0.708484,-0.55656 z m -5.173844,1.3839 c -0.575796,0 -1.141499,0.19559 -1.544092,0.55345 -0.402593,0.35786 -0.676961,0.86509 -0.676961,1.66709 0,0.802 0.274368,1.30973 0.676961,1.66759 0.402593,0.35786 0.968296,0.55346 1.544092,0.55346 0.575795,0 1.142015,-0.1956 1.544609,-0.55346 0.402593,-0.35786 0.676444,-0.86559 0.676444,-1.66759 0,-0.802 -0.273851,-1.30923 -0.676444,-1.66709 -0.402594,-0.35786 -0.968814,-0.55345 -1.544609,-0.55345 z m -1.48053,8.88369 c -0.936666,0 -1.728976,0.56688 -2.057755,1.37925 l 3.684012,3.68349 c 0.96459,0.9642 2.431431,1.11415 3.555856,0.45579 v -3.29799 c 0,-1.23535 -0.985701,-2.22054 -2.221053,-2.22054 z" /><g
           style="fill:none;stroke:#000000;stroke-width:2;stroke-linecap:round;stroke-linejoin:round"
           id="g66"
           transform="matrix(0.74030844,0,0,0.74030844,-89.052452,230.13292)"><path
             stroke="none"
             d="M 0,0 H 24 V 24 H 0 Z"
             fill="none"
             id="path1-10" /></g></g></g></g></svg>
