<?xml version="1.0" encoding="UTF-8" standalone="no"?>
<!-- Created with Inkscape (http://www.inkscape.org/) -->

<svg
   width="512"
   height="512"
   viewBox="0 0 512 512"
   version="1.1"
   id="svg1"
   xml:space="preserve"
   inkscape:version="1.4.2 (ebf0e940d0, 2025-05-08)"
   sodipodi:docname="drawing_sub.svg"
   inkscape:export-filename="drawing_sub.png"
   inkscape:export-xdpi="96"
   inkscape:export-ydpi="96"
   xmlns:inkscape="http://www.inkscape.org/namespaces/inkscape"
   xmlns:sodipodi="http://sodipodi.sourceforge.net/DTD/sodipodi-0.dtd"
   xmlns="http://www.w3.org/2000/svg"
   xmlns:svg="http://www.w3.org/2000/svg"><sodipodi:namedview
     id="namedview1"
     pagecolor="#ffffff"
     bordercolor="#000000"
     borderopacity="0.25"
     inkscape:showpageshadow="2"
     inkscape:pageopacity="0.0"
     inkscape:pagecheckerboard="0"
     inkscape:deskcolor="#d1d1d1"
     inkscape:document-units="px"
     showguides="true"
     inkscape:zoom="0.58495915"
     inkscape:cx="470.97306"
     inkscape:cy="376.09464"
     inkscape:window-width="1920"
     inkscape:window-height="1011"
     inkscape:window-x="0"
     inkscape:window-y="0"
     inkscape:window-maximized="1"
     inkscape:current-layer="layer1" /><defs
     id="defs1"><rect
       x="-62.858325"
       y="499.24016"
       width="582.64832"
       height="103.958"
       id="rect1" /><filter
       height="1.108032"
       y="-0.05401599"
       width="1.053992"
       x="-0.026996003"
       id="filter3238"
       style="color-interpolation-filters:sRGB"><feGaussianBlur
         id="feGaussianBlur3240"
         stdDeviation="0.72001796" /></filter><filter
       height="1.0741538"
       y="-0.03707692"
       width="1.0354847"
       x="-0.017742332"
       id="filter3250"
       style="color-interpolation-filters:sRGB"><feGaussianBlur
         id="feGaussianBlur3252"
         stdDeviation="0.50545754" /></filter><filter
       height="1.048"
       y="-0.024"
       width="1.048"
       x="-0.024"
       id="filter3190"
       style="color-interpolation-filters:sRGB"><feGaussianBlur
         id="feGaussianBlur3192"
         stdDeviation="1.6404166" /></filter><filter
       height="1.2606643"
       y="-0.13033222"
       width="1.1239401"
       x="-0.061970063"
       id="filter3304"
       style="color-interpolation-filters:sRGB"><feGaussianBlur
         id="feGaussianBlur3306"
         stdDeviation="1.7767668" /></filter><filter
       height="1.2657105"
       y="-0.13285526"
       width="1.1388615"
       x="-0.06943077"
       id="filter1616"
       style="color-interpolation-filters:sRGB"><feGaussianBlur
         id="feGaussianBlur1618"
         stdDeviation="1.8790961" /></filter><filter
       height="1.1021183"
       y="-0.051059158"
       width="1.0556012"
       x="-0.027800612"
       id="filter2205"
       style="color-interpolation-filters:sRGB"><feGaussianBlur
         id="feGaussianBlur2207"
         stdDeviation="1.0586831" /></filter><filter
       height="1.2661427"
       y="-0.13307135"
       width="1.1332573"
       x="-0.066628675"
       id="filter3304-8"
       style="color-interpolation-filters:sRGB"><feGaussianBlur
         id="feGaussianBlur3306-9"
         stdDeviation="1.7767668" /></filter><filter
       height="1.4545048"
       y="-0.22725242"
       width="1.2375263"
       x="-0.11876316"
       id="filter3376"
       style="color-interpolation-filters:sRGB"><feGaussianBlur
         id="feGaussianBlur3378"
         stdDeviation="3.2142434" /></filter><filter
       height="1.0741538"
       y="-0.03707692"
       width="1.0354847"
       x="-0.017742332"
       id="filter3250-7"
       style="color-interpolation-filters:sRGB"><feGaussianBlur
         id="feGaussianBlur3252-3"
         stdDeviation="0.50545754" /></filter><filter
       height="1.108032"
       y="-0.05401599"
       width="1.053992"
       x="-0.026996003"
       id="filter3238-6"
       style="color-interpolation-filters:sRGB"><feGaussianBlur
         id="feGaussianBlur3240-1"
         stdDeviation="0.72001796" /></filter></defs><g
     inkscape:label="Layer 1"
     inkscape:groupmode="layer"
     id="layer1"><g
       id="g42"
       inkscape:label="Imagotipo"
       transform="matrix(1.7251653,0,0,1.7251653,395.23874,201.98913)"><g
         id="g41"
         inkscape:label="plumas"><path
           id="path31"
           style="opacity:1;fill:#00815b;fill-opacity:1;stroke:none;stroke-width:0.222187;stroke-linecap:square;stroke-linejoin:round"
           d="M -51.138548,92.104531 C -98.741306,107.8571 -181.93612,85.514813 -166.76719,27.307742 c 21.05267,52.714538 77.793567,64.000219 115.628642,64.796789 z"
           sodipodi:nodetypes="ccc" /><path
           id="path32"
           style="opacity:1;fill:#00815b;fill-opacity:1;stroke:none;stroke-width:0.222187;stroke-linecap:square;stroke-linejoin:round"
           d="M 26.517506,42.964193 C -10.00457,108.72208 -160.57171,72.846764 -149.12243,4.0882201 -129.40522,57.699296 -18.735168,79.974658 26.517506,42.964193 Z"
           sodipodi:nodetypes="ccc" /></g><g
         id="g40"
         inkscape:label="head_aguila_vector_ncut"><path
           id="path38"
           style="display:none;opacity:1;fill:#ffffff;stroke:none;stroke-width:0.222187;stroke-linecap:square;stroke-linejoin:round"
           d="m -28.339638,-75.3286 c -0.367644,0.500171 -2.819955,1.179633 -8.911861,1.849349 -1.040273,9.414655 -20.268231,20.599335 -27.639408,-0.01287 -0.661451,-1.019876 -13.798964,-6.775867 -16.661636,-9.47123 16.455093,-0.156827 39.88544,1.95165 53.212905,7.634751 z"
           sodipodi:nodetypes="ccccc" /><path
           id="path40"
           style="display:none;opacity:1;fill:#333333;fill-opacity:1;stroke:none;stroke-linecap:square;stroke-linejoin:round;stroke-opacity:1"
           d="m 23.590872,-25.965063 c -12.468455,-21.841621 -59.818399,-20.813364 -81.499505,-1.669831 -20.787173,18.3542269 -22.063166,54.582326 15.716909,70.481776 -85.761186,-5.163066 -91.838176,-58.509334 -91.235086,-62.537985 -27.56827,12.5138658 -45.00695,34.410553 -51.38166,60.756238 -7.75616,-38.7996 16.66302,-72.661833 25.95966,-83.072877 -10.87578,3.28776 -27.1762,17.418648 -37.49551,30.270138 2.68453,-53.645934 42.50706,-96.317216 104.91573,-98.353686 30.173449,-0.90129 65.56593,11.567287 71.969954,29.057829 24.6877267,5.488415 54.873749,20.474526 43.049508,55.068398 z"
           sodipodi:nodetypes="cscccccccc" /></g><path
         id="path29"
         style="opacity:1;fill:#333333;fill-opacity:1;stroke:none;stroke-linecap:square;stroke-linejoin:round;stroke-opacity:1"
         d="m -91.427734,-110.0918 c -62.408666,2.03647 -102.231486,44.707585 -104.916016,98.353519 10.31931,-12.85149 26.61836,-26.981772 37.49414,-30.269531 -9.29664,10.411044 -33.71514,44.2726651 -25.95898,83.072265 6.37471,-26.345685 23.81259,-48.2419935 51.38086,-60.755859 -0.60309,4.028651 5.47514,57.375996 91.236324,62.539062 -37.780075,-15.89945 -36.50397,-52.1281947 -15.716797,-70.482422 21.681106,-19.143533 69.031545,-20.171699 81.5,1.669922 11.824241,-34.593872 -18.3630547,-49.579944 -43.050781,-55.068359 -6.404024,-17.490542 -41.795301,-29.959887 -71.96875,-29.058597 z m 9.875,27.128909 c 16.455093,-0.156827 39.885425,1.951665 53.21289,7.634766 -0.367644,0.500171 -2.820203,1.179893 -8.912109,1.849609 -1.040273,9.414655 -20.267495,20.598534 -27.638672,-0.01367 -0.661451,-1.019875 -13.799437,-6.77534 -16.662109,-9.470703 z"
         inkscape:label="cabeza" /></g><text
       xml:space="preserve"
       id="text1"
       style="font-style:normal;font-variant:normal;font-weight:bold;font-stretch:normal;font-size:85.3333px;font-family:'Nimbus Sans';-inkscape-font-specification:'Nimbus Sans, Bold';font-variant-ligatures:normal;font-variant-caps:normal;font-variant-numeric:normal;font-variant-east-asian:normal;text-align:start;writing-mode:lr-tb;direction:ltr;white-space:pre;shape-inside:url(#rect1);fill:#00815b;fill-opacity:1;stroke-width:0;stroke-linecap:square;stroke-linejoin:round"
       transform="matrix(2.1267486,0,0,2.1267486,120.70067,-702.75113)"><tspan
         x="-62.857422"
         y="572.11487"
         id="tspan2">NAME</tspan></text></g></svg>
