<?xml version="1.0" encoding="UTF-8" standalone="no"?>
<svg
   xmlns:dc="http://purl.org/dc/elements/1.1/"
   xmlns:cc="http://creativecommons.org/ns#"
   xmlns:rdf="http://www.w3.org/1999/02/22-rdf-syntax-ns#"
   xmlns:svg="http://www.w3.org/2000/svg"
   xmlns="http://www.w3.org/2000/svg"
   id="propuesta-00"
   version="1.1"
   viewBox="0 0 132.29167 132.29167"
   height="500"
   width="500">
  <defs
     id="defs248" />
  <metadata
     id="metadata251">
    <rdf:RDF>
      <cc:Work
         rdf:about="">
        <dc:format>image/svg+xml</dc:format>
        <dc:type
           rdf:resource="http://purl.org/dc/dcmitype/StillImage" />
        <dc:title></dc:title>
      </cc:Work>
    </rdf:RDF>
  </metadata>
  <g
     transform="matrix(0.87549351,0,0,0.87549351,64.997999,-0.29323907)"
     id="g1139">
    <rect
       style="opacity:1;fill:#070664;fill-opacity:1;stroke:#999999;stroke-width:0.15187083;stroke-linecap:round;stroke-linejoin:bevel;stroke-miterlimit:4;stroke-dasharray:none;stroke-dashoffset:0;stroke-opacity:1;paint-order:stroke fill markers"
       id="rect887"
       width="150.95338"
       height="150.95338"
       x="-74.165619"
       y="0.41087687"
       ry="17.161016" />
    <path
       style="fill:#ffffff;stroke-width:0.14757854"
       d="m -13.130618,17.687702 -0.306254,0.38913 c -0.303223,0.385657 -0.306255,0.479546 -0.306255,11.657478 V 41.00447 H 1.3101724 16.363471 V 29.73431 c 0,-11.177932 -0.0024,-11.271821 -0.30625,-11.657478 l -0.30445,-0.38913 H 1.3101824 Z m 14.4227814,7.526657 c 1.866911,0 3.555544,0.06013 3.752515,0.135121 0.197031,0.07488 0.403244,0.25602 0.45938,0.401736 0.117668,0.306428 0.119228,8.947855 0.0024,9.254281 -0.04306,0.112247 -0.244585,0.279097 -0.446772,0.371106 -0.373529,0.170122 -6.982495,0.227642 -7.438374,0.06484 -0.563666,-0.201916 -0.589584,-0.419501 -0.587287,-5.0532 0.0018,-2.480436 0.05027,-4.583838 0.109884,-4.673075 0.292241,-0.43758 0.823241,-0.500818 4.148848,-0.500818 z m -2.341943,2.06631 v 3.098578 3.098567 h 2.359955 2.361766 v -3.098567 -3.098578 h -2.361766 z m 13.6103066,15.790112 0.192743,0.996228 c 0.105554,0.547877 0.769751,3.934955 1.477225,7.526657 l 1.288067,6.530413 h 5.588241 c 3.073606,0 5.588232,-0.03346 5.588232,-0.07388 0,-0.0404 -0.504906,-1.352181 -1.120526,-2.914825 -0.61556,-1.562655 -1.88362,-4.798913 -2.81933,-7.193384 -0.935697,-2.394462 -1.762566,-4.469944 -1.837521,-4.611831 -0.12477,-0.237405 -0.482285,-0.259402 -4.246126,-0.259402 z m -26.638728,0.0018 -4.165062,0.0038 -1.534874,3.945273 c -0.843882,2.170005 -2.155653,5.526021 -2.914821,7.458193 -0.759174,1.932182 -1.379945,3.543315 -1.379945,3.579574 0,0.038 2.514306,0.06484 5.586439,0.06484 h 5.58464 l 1.43759,-7.341092 c 0.789913,-4.038135 1.46206,-7.425203 1.4934384,-7.526652 0.04484,-0.144673 -0.8429134,-0.185531 -4.1074054,-0.183753 z m 6.1719204,0.07203 -1.432187,7.231201 c -0.7883844,3.977234 -1.4395154,7.348388 -1.4430024,7.490627 -0.0084,0.244376 0.661427,0.257623 12.0916454,0.257623 11.4302486,0 12.1004186,-0.01359 12.0934376,-0.257623 C 13.398813,57.724381 12.749,54.353046 11.96061,50.375812 L 10.526627,43.144611 H 1.3101754 Z m 1.234023,6.420534 h 7.982433 7.982433 l 0.363897,0.362102 c 0.199088,0.199232 0.3621086,0.500386 0.3621086,0.670156 0,0.169704 -0.1630446,0.472546 -0.3621086,0.671954 l -0.363897,0.362102 h -7.982433 -7.982433 l -0.362102,-0.362102 c -0.199057,-0.199231 -0.362092,-0.502184 -0.362092,-0.671954 0,-0.169704 0.163045,-0.470758 0.362092,-0.670156 z M -21.111242,60.04264 c -5.943054,0 -7.680265,0.04047 -7.791476,0.183753 -0.07885,0.101451 -0.726832,1.679408 -1.439396,3.505711 -0.712519,1.826266 -1.982783,5.066419 -2.824748,7.200578 -0.841926,2.134161 -1.531265,3.943197 -1.531265,4.020944 0,0.08816 3.448176,0.142302 9.220054,0.142302 h 9.221864 l 0.08108,-0.333271 c 0.360107,-1.475562 2.84687,-14.499157 2.786909,-14.59572 -0.04225,-0.06836 -3.51699,-0.124315 -7.723008,-0.124315 z m 34.822916,0 -12.4573496,0.0038 -12.4573444,0.0038 -0.08108,0.327868 c -0.04411,0.180859 -0.681203,3.417275 -1.41597,7.191575 -0.734802,3.774343 -1.369842,7.012502 -1.412372,7.195177 v 0.0018 l -0.07924,0.331494 H 1.3173934 c 14.6996226,0 15.5049376,-0.0129 15.4352236,-0.257624 -0.04054,-0.142059 -0.142269,-0.623657 -0.226988,-1.070092 -1.088007,-5.74385 -2.563252,-13.132656 -2.673412,-13.394121 z m 10.016325,0.0018 c -4.206625,0.0046 -7.682233,0.06198 -7.723027,0.127906 -0.05817,0.09401 2.448247,13.190283 2.792316,14.592113 l 0.08108,0.331461 h 9.220057 c 5.79287,9e-6 9.22185,-0.05341 9.22185,-0.142304 0,-0.07795 -0.92169,-2.484218 -2.04829,-5.348645 -1.12665,-2.864426 -2.39781,-6.104825 -2.82475,-7.20058 -0.4269,-1.095787 -0.84329,-2.076973 -0.92417,-2.179806 -0.11539,-0.14816 -1.7922,-0.187135 -7.795066,-0.180162 z M 1.3101754,66.682947 c 11.2135876,0 11.4708146,0.0084 11.7277426,0.291858 0.144668,0.159628 0.26302,0.460232 0.26302,0.668352 0,0.208295 -0.118748,0.508687 -0.26302,0.668357 -0.256928,0.283421 -0.514155,0.290045 -11.7277426,0.290045 -11.213553,0 -11.4708104,-0.0066 -11.7277364,-0.290045 -0.144674,-0.159628 -0.263027,-0.45989 -0.263027,-0.668357 0,-0.208294 0.1187,-0.508692 0.263027,-0.668352 0.256926,-0.283421 0.5141834,-0.291858 11.7277364,-0.291858 z m 0,10.479303 c -8.766166,0 -15.9375254,0.04888 -15.9378394,0.109884 -2.75e-4,0.06086 -0.632586,3.329898 -1.403361,7.265432 -0.770813,3.935539 -1.401561,7.273481 -1.401561,7.416759 0,0.246468 0.935344,0.261215 18.7427614,0.261215 17.7421206,0 18.7427576,-0.01534 18.7427576,-0.259402 0,-0.141885 -0.630467,-3.488718 -1.401561,-7.438373 -0.771082,-3.949691 -1.401562,-7.220926 -1.401562,-7.269037 0,-0.04815 -7.173465,-0.08642 -15.9396346,-0.08642 z m 29.4796796,0.0038 c -8.53085,-0.0028 -11.473735,0.03985 -11.473735,0.16573 0,0.209933 2.784207,14.44392 2.875199,14.69841 0.05206,0.145719 2.78272,0.183752 12.983376,0.183752 7.10478,0 12.91852,-0.02824 12.91852,-0.06309 0,-0.06422 -1.07337,-2.829182 -3.52913,-9.086745 -0.74858,-1.907424 -1.57235,-4.014504 -1.83031,-4.682094 l -0.47021,-1.212391 z m -58.950351,0.03068 -11.466524,0.03967 -0.338675,0.810666 c -0.52241,1.25661 -5.504265,14.01317 -5.505373,14.096505 0,0.0418 5.824759,0.05515 12.945556,0.03416 l 12.947342,-0.03782 1.433992,-7.231201 c 0.788456,-3.977234 1.437714,-7.348039 1.441199,-7.490627 0.0084,-0.245771 -0.602647,-0.257484 -11.457511,-0.221578 z m 29.4994954,6.45836 c 14.5332636,0 14.7333836,0.0046 15.0244716,0.295447 0.293535,0.2936 0.389025,0.960147 0.181948,1.270063 -0.05973,0.08921 -0.253137,0.238031 -0.430563,0.331459 -0.457167,0.240192 -29.2117,0.233708 -29.636412,-0.0073 -0.162349,-0.09207 -0.34394,-0.239671 -0.403536,-0.327869 -0.215232,-0.318282 -0.106813,-0.965073 0.210771,-1.26105 0.320582,-0.298586 0.433465,-0.300852 15.0532964,-0.300852 z"
       id="path835" />
    <text
       xml:space="preserve"
       style="font-style:normal;font-weight:normal;font-size:39.75693512px;line-height:1.25;font-family:sans-serif;letter-spacing:0px;word-spacing:0px;fill:#ffffff;fill-opacity:1;stroke:none;stroke-width:5.96354055"
       x="-55.412445"
       y="141.10883"
       id="text891"><tspan
         id="tspan889"
         x="-55.412445"
         y="141.10883"
         style="font-style:normal;font-variant:normal;font-weight:normal;font-stretch:normal;font-family:Metrophobic;-inkscape-font-specification:Metrophobic;fill:#ffffff;stroke-width:5.96354055">MxOS</tspan></text>
  </g>
</svg>
