<?xml version="1.0" encoding="UTF-8" standalone="no"?>
<!--
Propuesta p1 para logotipo proyecto MxOS.
Autor: Miguel Angel Marcial Martinez @fitorec
Licencia: Creative Commons CC BY-SA 4.0
-->
<svg
   xmlns:dc="http://purl.org/dc/elements/1.1/"
   xmlns:cc="http://creativecommons.org/ns#"
   xmlns:rdf="http://www.w3.org/1999/02/22-rdf-syntax-ns#"
   xmlns:svg="http://www.w3.org/2000/svg"
   xmlns="http://www.w3.org/2000/svg"
   xmlns:xlink="http://www.w3.org/1999/xlink"
   xmlns:sodipodi="http://sodipodi.sourceforge.net/DTD/sodipodi-0.dtd"
   xmlns:inkscape="http://www.inkscape.org/namespaces/inkscape"
   width="566.92914"
   height="566.92914"
   viewBox="0 0 150 150"
   version="1.1"
   id="propuesta-00"
   sodipodi:docname="p1.svg"
   inkscape:version="0.92.5 (2060ec1f9f, 2020-04-08)">
  <sodipodi:namedview
     pagecolor="#ffffff"
     bordercolor="#666666"
     borderopacity="1"
     objecttolerance="10"
     gridtolerance="10"
     guidetolerance="10"
     inkscape:pageopacity="0"
     inkscape:pageshadow="2"
     inkscape:window-width="1366"
     inkscape:window-height="737"
     id="namedview8"
     showgrid="false"
     units="px"
     inkscape:zoom="0.41627778"
     inkscape:cx="283.46457"
     inkscape:cy="283.46457"
     inkscape:window-x="1366"
     inkscape:window-y="0"
     inkscape:window-maximized="1"
     inkscape:current-layer="propuesta-00" />
  <defs
     id="defs248">
    <linearGradient
       inkscape:collect="always"
       xlink:href="#linearGradient918"
       id="linearGradient922"
       gradientUnits="userSpaceOnUse"
       x1="240.31708"
       y1="79.293938"
       x2="236.57248"
       y2="120.41698"
       gradientTransform="translate(6.3873629,-1.5889831)" />
    <linearGradient
       inkscape:collect="always"
       id="linearGradient918">
      <stop
         style="stop-color:#808080;stop-opacity:1;"
         offset="0"
         id="stop914" />
      <stop
         style="stop-color:#808080;stop-opacity:0"
         offset="1"
         id="stop916" />
    </linearGradient>
    <filter
       inkscape:collect="always"
       style="color-interpolation-filters:sRGB"
       id="filter928"
       x="-0.014526019"
       width="1.029052"
       y="-0.069006689"
       height="1.1380134">
      <feGaussianBlur
         inkscape:collect="always"
         stdDeviation="0.57169789"
         id="feGaussianBlur930" />
    </filter>
  </defs>
  <metadata
     id="metadata251">
    <rdf:RDF>
      <cc:Work
         rdf:about="">
        <dc:format>image/svg+xml</dc:format>
        <dc:type
           rdf:resource="http://purl.org/dc/dcmitype/StillImage" />
        <dc:title></dc:title>
      </cc:Work>
    </rdf:RDF>
  </metadata>
  <g
     id="g1125"
     transform="matrix(0.97656746,0,0,0.97656746,-77.887287,0.89066832)"
     inkscape:export-xdpi="49.811825"
     inkscape:export-ydpi="49.811825">
    <rect
       style="opacity:1;fill:#ffffff;fill-opacity:1;stroke:#070664;stroke-width:2.64583325;stroke-linecap:round;stroke-linejoin:bevel;stroke-miterlimit:4;stroke-dasharray:none;stroke-dashoffset:0;stroke-opacity:1;paint-order:stroke fill markers"
       id="rect904"
       width="150.95338"
       height="150.95338"
       x="81.079094"
       y="0.41087687"
       ry="17.161016" />
    <text
       xml:space="preserve"
       style="font-style:normal;font-weight:normal;font-size:39.75693512px;line-height:1.25;font-family:sans-serif;letter-spacing:0px;word-spacing:0px;fill:#4d4d4d;fill-opacity:1;stroke:none;stroke-width:5.96354055"
       x="99.832268"
       y="138.88425"
       id="text910"><tspan
         sodipodi:role="line"
         id="tspan908"
         x="99.832268"
         y="138.88425"
         style="font-style:normal;font-variant:normal;font-weight:normal;font-stretch:normal;font-family:Metrophobic;-inkscape-font-specification:Metrophobic;fill:#4d4d4d;fill-opacity:1;stroke-width:5.96354055">MxOS</tspan></text>
    <g
       transform="translate(-97.826792,-0.86030948)"
       id="g967">
      <path
         style="opacity:0.22000002;fill:url(#linearGradient922);fill-opacity:1;stroke:none;stroke-width:0.26458332px;stroke-linecap:butt;stroke-linejoin:miter;stroke-opacity:1;filter:url(#filter928)"
         d="m 301.61076,90.68439 -93.74035,0.224716 -0.71601,18.884944 67.81267,0.77355 z"
         id="path912"
         inkscape:connector-curvature="0"
         sodipodi:nodetypes="ccccc" />
      <path
         style="fill:#070664;fill-opacity:1;stroke-width:0.14757854"
         d="m 265.63202,41.706498 0.19275,0.99632 c 0.10557,0.547878 0.76996,3.934971 1.47743,7.526674 l 1.28828,6.53035 h 5.58779 c 3.07359,0 5.58829,-0.03348 5.58829,-0.0739 0,-0.0404 -0.50474,-1.352423 -1.12035,-2.915065 -0.61555,-1.562656 -1.88375,-4.798891 -2.81948,-7.19336 -0.9357,-2.394463 -1.76265,-4.46972 -1.83761,-4.611605 -0.12475,-0.237405 -0.48188,-0.259416 -4.24571,-0.259416 z m -26.63868,0.0021 -4.16513,0.0036 -1.53479,3.94498 c -0.84389,2.170004 -2.15538,5.526288 -2.91455,7.458458 -0.75917,1.932184 -1.38027,3.543369 -1.38027,3.579628 0,0.038 2.5146,0.06459 5.58673,0.06459 h 5.58468 l 1.43764,-7.341153 c 0.7899,-4.038137 1.46207,-7.425224 1.49344,-7.526673 0.0448,-0.144672 -0.84326,-0.18523 -4.10775,-0.183452 z m 6.17223,0.07183 -1.43247,7.231081 c -0.78838,3.977235 -1.43932,7.348262 -1.44281,7.490499 -0.008,0.244378 0.66155,0.257866 12.09177,0.257866 11.43025,0 12.1003,-0.01383 12.09332,-0.257866 -0.005,-0.142057 -0.65492,-3.513264 -1.44333,-7.490499 l -1.4335,-7.231081 h -9.21649 z m 1.23403,6.420279 h 7.98246 7.98246 l 0.3638,0.362251 c 0.19909,0.199231 0.36173,0.500473 0.36174,0.670243 0,0.169706 -0.16268,0.472387 -0.36174,0.671795 l -0.3638,0.362252 h -7.98246 -7.98246 l -0.36225,-0.362252 c -0.19905,-0.199231 -0.36225,-0.502023 -0.36225,-0.671795 0,-0.169704 0.16321,-0.470845 0.36225,-0.670243 z m -14.43891,10.477912 c -5.94305,0 -7.68055,0.04017 -7.79177,0.183452 -0.0789,0.101451 -0.72663,1.679426 -1.43919,3.505729 -0.71252,1.826268 -1.98318,5.066435 -2.82515,7.200595 -0.84193,2.134161 -1.53118,3.943197 -1.53118,4.020942 0,0.08816 3.44823,0.14211 9.22011,0.14211 h 9.22218 l 0.0811,-0.332795 c 0.36011,-1.475563 2.84687,-14.499444 2.78691,-14.596009 -0.0422,-0.06836 -3.51702,-0.124024 -7.72304,-0.124024 z m 34.82269,0 -12.45713,0.0036 -12.45764,0.0036 -0.0811,0.328145 c -0.0441,0.180858 -0.68117,3.416993 -1.41594,7.191293 -0.7348,3.774342 -1.36978,7.012752 -1.41231,7.195425 v 0.0016 l -0.0791,0.331718 h 15.50913 c 14.69962,0 15.50495,-0.01314 15.43524,-0.257865 -0.0405,-0.14206 -0.14267,-0.623784 -0.22739,-1.070219 -1.08799,-5.74385 -2.56304,-13.132551 -2.67321,-13.394015 z m 10.01644,0.0016 c -4.20664,0.0046 -7.68226,0.06223 -7.72306,0.128158 -0.0582,0.09401 2.44801,13.190043 2.7921,14.591874 l 0.0811,0.331245 h 9.22012 c 5.79287,1.1e-5 9.22165,-0.05321 9.22165,-0.14211 0,-0.07795 -0.92133,-2.484083 -2.04795,-5.34851 -1.12665,-2.864426 -2.39768,-6.104839 -2.82461,-7.200595 -0.42691,-1.095785 -0.84363,-2.076879 -0.92451,-2.179712 -0.11539,-0.148159 -1.792,-0.187322 -7.79486,-0.18035 z m -22.41776,6.638356 c 11.21358,0 11.47052,0.0085 11.72745,0.29197 0.14468,0.159628 0.26302,0.460058 0.26302,0.668176 0,0.208296 -0.11874,0.509024 -0.26302,0.668695 -0.25693,0.283419 -0.51387,0.289904 -11.72745,0.289904 -11.21356,0 -11.47104,-0.0065 -11.72797,-0.289904 -0.14467,-0.159629 -0.26303,-0.460227 -0.26303,-0.668695 0,-0.208293 0.1187,-0.508516 0.26303,-0.668176 0.25693,-0.283419 0.51441,-0.29197 11.72797,-0.29197 z m 0,10.479463 c -8.76617,0 -15.93774,0.04907 -15.93805,0.110069 -2.8e-4,0.06086 -0.63276,3.329657 -1.40353,7.265191 -0.77082,3.93554 -1.40146,7.273324 -1.40146,7.416602 0,0.246467 0.93562,0.261482 18.74304,0.261482 17.74212,0 18.74254,-0.01535 18.74254,-0.259416 0,-0.141886 -0.63037,-3.48865 -1.40148,-7.438305 -0.77107,-3.949692 -1.40147,-7.221212 -1.40147,-7.269324 0,-0.04815 -7.17342,-0.0863 -15.93959,-0.0863 z m 29.47933,0.0036 c -8.53083,-0.0028 -11.47371,0.04 -11.47371,0.16588 0,0.209934 2.78429,14.44384 2.87528,14.698329 0.0521,0.145719 2.78252,0.183967 12.98318,0.183967 7.10478,0 12.9186,-0.02819 12.9186,-0.06304 0,-0.06422 -1.07323,-2.829222 -3.52899,-9.086784 -0.74858,-1.907424 -1.57241,-4.014811 -1.83038,-4.682403 l -0.47025,-1.212329 z m -52.57921,0.0155 c -1.58359,1.11e-4 -3.65747,0.006 -6.37119,0.01499 v 5.16e-4 l -11.46648,0.03979 -0.33848,0.810286 c -0.52241,1.25661 -5.5045,14.013479 -5.50561,14.096815 0,0.0418 5.82518,0.05509 12.94598,0.0341 l 12.94701,-0.03772 1.43402,-7.231599 c 0.78846,-3.977233 1.43778,-7.347911 1.44126,-7.490497 0.006,-0.18433 -0.33575,-0.237011 -5.08651,-0.236681 z m 23.1283,6.473507 c 14.53328,0 14.73386,0.0047 15.02492,0.29559 0.29353,0.2936 0.38899,0.960289 0.18191,1.270206 -0.0597,0.08921 -0.25355,0.237818 -0.43098,0.331245 -0.45718,0.240194 -29.21173,0.233775 -29.63644,-0.0072 -0.16235,-0.09207 -0.34348,-0.239432 -0.40308,-0.327629 -0.21523,-0.318283 -0.10725,-0.965446 0.21033,-1.261422 0.32058,-0.298585 0.43351,-0.300757 15.05334,-0.300757 z"
         id="path906"
         inkscape:connector-curvature="0" />
      <path
         style="opacity:1;fill:#070664;fill-opacity:1;stroke:none;stroke-width:1.9045471;stroke-linecap:round;stroke-linejoin:bevel;stroke-miterlimit:4;stroke-dasharray:none;stroke-dashoffset:0;stroke-opacity:1;paint-order:stroke fill markers"
         d="m 240.83101,27.118023 -0.28757,0.214859 c -0.28454,0.212945 -0.28709,0.264616 -0.28709,6.436627 v 6.222911 h 14.12623 14.12623 v -6.222911 c 0,-6.172011 -10e-4,-6.223682 -0.28756,-6.436627 l -0.28565,-0.214859 h -13.55302 z m 13.53459,4.155931 c 1.75195,0 3.33631,0.03307 3.52115,0.07447 0.18489,0.04134 0.37842,0.141533 0.4311,0.221992 0.11044,0.169198 0.112,4.940615 10e-4,5.109811 -0.0405,0.06198 -0.22925,0.154069 -0.41899,0.204872 -0.3505,0.09393 -6.55286,0.125561 -6.98066,0.03567 -0.52894,-0.111492 -0.55305,-0.231478 -0.55091,-2.790023 0.001,-1.369599 0.0475,-2.531028 0.10335,-2.580301 0.27424,-0.241614 0.77228,-0.276492 3.89307,-0.276492 z m -2.19772,1.140776 v 1.71088 1.711164 h 2.2147 2.21617 V 34.12561 32.41473 h -2.21617 z"
         id="rect954"
         inkscape:connector-curvature="0" />
    </g>
  </g>
</svg>
