<?xml version="1.0" encoding="UTF-8" standalone="no"?>
<svg
   xmlns:dc="http://purl.org/dc/elements/1.1/"
   xmlns:cc="http://creativecommons.org/ns#"
   xmlns:rdf="http://www.w3.org/1999/02/22-rdf-syntax-ns#"
   xmlns:svg="http://www.w3.org/2000/svg"
   xmlns="http://www.w3.org/2000/svg"
   xmlns:xlink="http://www.w3.org/1999/xlink"
   id="propuesta-00"
   version="1.1"
   viewBox="0 0 132.29167 132.29167"
   height="500"
   width="500">
  <defs
     id="defs248">
    <linearGradient
       y2="120.41698"
       x2="236.57248"
       y1="79.293938"
       x1="240.31708"
       gradientTransform="translate(-225.72238,76.297949)"
       gradientUnits="userSpaceOnUse"
       id="linearGradient1331"
       xlink:href="#linearGradient918" />
    <linearGradient
       id="linearGradient918">
      <stop
         id="stop914"
         offset="0"
         style="stop-color:#808080;stop-opacity:1;" />
      <stop
         id="stop916"
         offset="1"
         style="stop-color:#808080;stop-opacity:0" />
    </linearGradient>
    <filter
       height="1.1380134"
       y="-0.069006689"
       width="1.029052"
       x="-0.014526019"
       id="filter928"
       style="color-interpolation-filters:sRGB">
      <feGaussianBlur
         id="feGaussianBlur930"
         stdDeviation="0.57169789" />
    </filter>
  </defs>
  <metadata
     id="metadata251">
    <rdf:RDF>
      <cc:Work
         rdf:about="">
        <dc:format>image/svg+xml</dc:format>
        <dc:type
           rdf:resource="http://purl.org/dc/dcmitype/StillImage" />
        <dc:title></dc:title>
      </cc:Work>
    </rdf:RDF>
  </metadata>
  <g
     transform="matrix(0.86127828,0,0,0.86127828,50.270577,-59.289984)"
     id="g98">
    <rect
       style="opacity:1;fill:#ffffff;fill-opacity:1;stroke:#000000;stroke-width:2.64583349;stroke-linecap:round;stroke-linejoin:bevel;stroke-miterlimit:4;stroke-dasharray:none;stroke-dashoffset:0;stroke-opacity:1;paint-order:stroke fill markers"
       id="rect1317"
       width="150.95338"
       height="150.95338"
       x="-57.044487"
       y="70.162437"
       ry="17.161016" />
    <text
       xml:space="preserve"
       style="font-style:normal;font-weight:normal;font-size:39.75693893px;line-height:1.25;font-family:sans-serif;letter-spacing:0px;word-spacing:0px;fill:#4d4d4d;fill-opacity:1;stroke:none;stroke-width:5.96354055"
       x="-40.425014"
       y="209.48929"
       id="text1321"><tspan
         id="tspan1319"
         x="-40.425014"
         y="209.48929"
         style="font-style:normal;font-variant:normal;font-weight:normal;font-stretch:normal;font-family:Metrophobic;-inkscape-font-specification:Metrophobic;fill:#4d4d4d;fill-opacity:1;stroke-width:5.96354055">MxOS</tspan></text>
    <circle
       style="opacity:1;fill:#10b981;fill-opacity:1;stroke:none;stroke-width:2.20374513;stroke-linecap:round;stroke-linejoin:bevel;stroke-miterlimit:4;stroke-dasharray:none;stroke-dashoffset:0;stroke-opacity:1;paint-order:stroke fill markers"
       id="path1333"
       cx="9.1346245"
       cy="128.73029"
       r="47.759583" />
    <path
       id="path1323"
       d="m 69.501035,168.57133 -93.740353,0.22471 -0.71601,18.88494 67.812673,0.77355 z"
       style="opacity:0.22000002;fill:url(#linearGradient1331);fill-opacity:1;stroke:none;stroke-width:0.26458332px;stroke-linecap:butt;stroke-linejoin:miter;stroke-opacity:1;filter:url(#filter928)" />
    <path
       style="fill:#003b27;fill-opacity:1;stroke-width:0.18591595"
       d="m 36.444635,128.77504 0.242819,1.25514 c 0.133001,0.69021 0.969992,4.95719 1.861241,9.48193 l 1.62298,8.22678 h 7.03933 c 3.87203,0 7.04,-0.0422 7.04,-0.0931 0,-0.0509 -0.63587,-1.70375 -1.41139,-3.67233 -0.77546,-1.9686 -2.37308,-6.04553 -3.55188,-9.06203 -1.17878,-3.01649 -2.22055,-5.63085 -2.31498,-5.80959 -0.15716,-0.29907 -0.6071,-0.3268 -5.348689,-0.3268 z m -33.5587611,0.003 -5.247132,0.005 -1.933499,4.96979 c -1.063111,2.73372 -2.715291,6.96189 -3.67167,9.396 -0.956382,2.43411 -1.738839,4.46384 -1.738839,4.50953 0,0.0479 3.16783,0.0814 7.038028,0.0814 h 7.035461 l 1.811071,-9.24822 c 0.995119,-5.08715 1.84191,-9.35412 1.881438,-9.48192 0.0564,-0.18225 -1.062349,-0.23335 -5.174858,-0.23111 z m 7.7756201,0.0905 -1.8046121,9.10955 c -0.993179,5.01043 -1.8132,9.25717 -1.8176,9.43636 -0.01,0.30786 0.833422,0.32485 15.2329311,0.32485 14.399551,0 15.243673,-0.0174 15.234873,-0.32485 -0.006,-0.17896 -0.825022,-4.42593 -1.818273,-9.43636 l -1.805868,-9.10955 H 22.272213 Z m 1.55462,8.08812 h 10.056099 10.056111 l 0.458309,0.45636 c 0.250822,0.25099 0.45571,0.63048 0.45571,0.84435 0,0.2138 -0.20493,0.59511 -0.45571,0.84631 l -0.458309,0.45636 H 22.272213 12.216114 l -0.456379,-0.45636 c -0.250751,-0.25098 -0.456341,-0.63243 -0.456341,-0.84631 0,-0.21379 0.205619,-0.59316 0.456341,-0.84435 z m -18.1898111,13.19983 c -7.4869119,0 -9.6757909,0.0506 -9.8158909,0.23111 -0.0994,0.1278 -0.915379,2.1157 -1.81307,4.41643 -0.89762,2.30069 -2.498371,6.38257 -3.55904,9.07114 -1.060649,2.68856 -1.92894,4.96755 -1.92894,5.06549 0,0.11106 4.344011,0.17903 11.615262,0.17903 H 0.14251191 l 0.10223,-0.41925 c 0.453642,-1.85889 3.58641099,-18.26606 3.51088099,-18.38771 -0.0532,-0.0861 -4.43066999,-0.15624 -9.72932,-0.15624 z m 43.8687911,0 -15.69317,0.005 -15.6938511,0.005 -0.101561,0.41339 c -0.0556,0.22784 -0.85812,4.30464 -1.78377,9.05942 -0.925679,4.75483 -1.72561,8.8345 -1.779209,9.06463 v 0.002 l -0.100219,0.41795 H 22.281314 c 18.51826,0 19.532781,-0.0166 19.444951,-0.32486 -0.051,-0.17896 -0.17969,-0.78583 -0.286421,-1.34824 -1.370629,-7.23596 -3.228901,-16.54407 -3.36769,-16.87346 z m 12.618471,0.002 c -5.29942,0.006 -9.677891,0.0784 -9.729289,0.16145 -0.0733,0.11843 3.083909,16.6165 3.517379,18.38249 l 0.1022,0.4173 h 11.61529 c 7.29771,1e-5 11.61722,-0.067 11.61722,-0.17903 0,-0.0982 -1.16064,-3.12939 -2.57993,-6.73792 -1.41933,-3.60854 -3.02057,-7.69074 -3.55841,-9.07114 -0.53781,-1.38045 -1.06278,-2.61641 -1.16467,-2.74595 -0.14536,-0.18665 -2.25752,-0.23598 -9.81979,-0.2272 z m -28.241352,8.36284 c 14.126591,0 14.450282,0.0107 14.77396,0.36782 0.182261,0.20109 0.33138,0.57957 0.33138,0.84175 0,0.26241 -0.149619,0.64125 -0.33138,0.8424 -0.323678,0.35705 -0.647369,0.36522 -14.77396,0.36522 -14.1265891,0 -14.4509391,-0.008 -14.7746201,-0.36522 -0.182261,-0.20109 -0.331351,-0.57977 -0.331351,-0.8424 0,-0.2624 0.149532,-0.64061 0.331351,-0.84175 0.323681,-0.35705 0.648031,-0.36782 14.7746201,-0.36782 z"
       id="path1325" />
    <path
       id="path1327"
       d="m 8.6176329,110.93446 -0.28978,0.27068 c -0.28671,0.26826 -0.289279,0.33335 -0.289279,8.10871 v 7.83947 h 14.2342901 14.23429 v -7.83947 c 0,-7.77536 -0.0011,-7.84045 -0.289759,-8.10871 l -0.28784,-0.27068 H 22.272864 Z m 13.6381201,5.23555 c 1.76535,0 3.36183,0.0417 3.548092,0.0938 0.186298,0.0521 0.381299,0.1783 0.43439,0.27966 0.111239,0.21315 0.112879,6.22407 0.0011,6.43722 -0.0408,0.0781 -0.23101,0.19409 -0.42219,0.25809 -0.35319,0.11833 -6.602992,0.15818 -7.034062,0.0449 -0.53299,-0.14046 -0.557289,-0.29161 -0.55512,-3.51481 0.0011,-1.72538 0.0479,-3.18852 0.10418,-3.2506 0.276352,-0.30438 0.77819,-0.34832 3.922861,-0.34832 z m -2.214528,1.43712 v 2.15532 2.15569 h 2.231639 2.233131 v -2.15569 -2.15532 h -2.233131 z"
       style="opacity:1;fill:#003b27;fill-opacity:1;stroke:none;stroke-width:2.14581943;stroke-linecap:round;stroke-linejoin:bevel;stroke-miterlimit:4;stroke-dasharray:none;stroke-dashoffset:0;stroke-opacity:1;paint-order:stroke fill markers" />
  </g>
</svg>
