<?xml version="1.0" encoding="UTF-8" standalone="no"?>
<svg
   xmlns:dc="http://purl.org/dc/elements/1.1/"
   xmlns:cc="http://creativecommons.org/ns#"
   xmlns:rdf="http://www.w3.org/1999/02/22-rdf-syntax-ns#"
   xmlns:svg="http://www.w3.org/2000/svg"
   xmlns="http://www.w3.org/2000/svg"
   id="propuesta-00"
   version="1.1"
   viewBox="0 0 150 150"
   height="150mm"
   width="150mm">
  <defs
     id="defs248">
    <filter
       height="1.2606643"
       y="-0.13033222"
       width="1.1239401"
       x="-0.061970063"
       id="filter3304-3"
       style="color-interpolation-filters:sRGB">
      <feGaussianBlur
         id="feGaussianBlur3306-7"
         stdDeviation="1.7767668" />
    </filter>
    <filter
       height="1.4545048"
       y="-0.22725242"
       width="1.2375263"
       x="-0.11876316"
       id="filter3376-3"
       style="color-interpolation-filters:sRGB">
      <feGaussianBlur
         id="feGaussianBlur3378-6"
         stdDeviation="3.2142434" />
    </filter>
    <filter
       height="1.0741538"
       y="-0.03707692"
       width="1.0354847"
       x="-0.017742332"
       id="filter3250-5"
       style="color-interpolation-filters:sRGB">
      <feGaussianBlur
         id="feGaussianBlur3252-9"
         stdDeviation="0.50545754" />
    </filter>
    <filter
       height="1.108032"
       y="-0.05401599"
       width="1.053992"
       x="-0.026996003"
       id="filter3238-2"
       style="color-interpolation-filters:sRGB">
      <feGaussianBlur
         id="feGaussianBlur3240-2"
         stdDeviation="0.72001796" />
    </filter>
    <filter
       height="1.2606643"
       y="-0.13033222"
       width="1.1239401"
       x="-0.061970063"
       id="filter3304"
       style="color-interpolation-filters:sRGB">
      <feGaussianBlur
         id="feGaussianBlur3306"
         stdDeviation="1.7767668" />
    </filter>
    <filter
       height="1.4545048"
       y="-0.22725242"
       width="1.2375263"
       x="-0.11876316"
       id="filter3376"
       style="color-interpolation-filters:sRGB">
      <feGaussianBlur
         id="feGaussianBlur3378"
         stdDeviation="3.2142434" />
    </filter>
    <filter
       height="1.0741538"
       y="-0.03707692"
       width="1.0354847"
       x="-0.017742332"
       id="filter3250"
       style="color-interpolation-filters:sRGB">
      <feGaussianBlur
         id="feGaussianBlur3252"
         stdDeviation="0.50545754" />
    </filter>
    <filter
       height="1.108032"
       y="-0.05401599"
       width="1.053992"
       x="-0.026996003"
       id="filter3238"
       style="color-interpolation-filters:sRGB">
      <feGaussianBlur
         id="feGaussianBlur3240"
         stdDeviation="0.72001796" />
    </filter>
    <filter
       height="1.2606643"
       y="-0.13033222"
       width="1.1239401"
       x="-0.061970063"
       id="filter3304-36"
       style="color-interpolation-filters:sRGB">
      <feGaussianBlur
         id="feGaussianBlur3306-75"
         stdDeviation="1.7767668" />
    </filter>
    <filter
       height="1.4545048"
       y="-0.22725242"
       width="1.2375263"
       x="-0.11876316"
       id="filter3376-35"
       style="color-interpolation-filters:sRGB">
      <feGaussianBlur
         id="feGaussianBlur3378-62"
         stdDeviation="3.2142434" />
    </filter>
    <filter
       height="1.0741538"
       y="-0.03707692"
       width="1.0354847"
       x="-0.017742332"
       id="filter3250-9"
       style="color-interpolation-filters:sRGB">
      <feGaussianBlur
         id="feGaussianBlur3252-1"
         stdDeviation="0.50545754" />
    </filter>
    <filter
       height="1.108032"
       y="-0.05401599"
       width="1.053992"
       x="-0.026996003"
       id="filter3238-27"
       style="color-interpolation-filters:sRGB">
      <feGaussianBlur
         id="feGaussianBlur3240-0"
         stdDeviation="0.72001796" />
    </filter>
    <filter
       height="1.2606643"
       y="-0.13033222"
       width="1.1239401"
       x="-0.061970063"
       id="filter3304-3-9"
       style="color-interpolation-filters:sRGB">
      <feGaussianBlur
         id="feGaussianBlur3306-7-3"
         stdDeviation="1.7767668" />
    </filter>
    <filter
       height="1.4545048"
       y="-0.22725242"
       width="1.2375263"
       x="-0.11876316"
       id="filter3376-3-6"
       style="color-interpolation-filters:sRGB">
      <feGaussianBlur
         id="feGaussianBlur3378-6-0"
         stdDeviation="3.2142434" />
    </filter>
    <filter
       height="1.0741538"
       y="-0.03707692"
       width="1.0354847"
       x="-0.017742332"
       id="filter3250-5-6"
       style="color-interpolation-filters:sRGB">
      <feGaussianBlur
         id="feGaussianBlur3252-9-2"
         stdDeviation="0.50545754" />
    </filter>
    <filter
       height="1.108032"
       y="-0.05401599"
       width="1.053992"
       x="-0.026996003"
       id="filter3238-2-6"
       style="color-interpolation-filters:sRGB">
      <feGaussianBlur
         id="feGaussianBlur3240-2-1"
         stdDeviation="0.72001796" />
    </filter>
    <filter
       height="1.108032"
       y="-0.05401599"
       width="1.053992"
       x="-0.026996003"
       id="filter3238-2-8"
       style="color-interpolation-filters:sRGB">
      <feGaussianBlur
         id="feGaussianBlur3240-2-7"
         stdDeviation="0.72001796" />
    </filter>
    <filter
       height="1.0741538"
       y="-0.03707692"
       width="1.0354847"
       x="-0.017742332"
       id="filter3250-5-9"
       style="color-interpolation-filters:sRGB">
      <feGaussianBlur
         id="feGaussianBlur3252-9-20"
         stdDeviation="0.50545754" />
    </filter>
    <filter
       height="1.4545048"
       y="-0.22725242"
       width="1.2375263"
       x="-0.11876316"
       id="filter3376-3-2"
       style="color-interpolation-filters:sRGB">
      <feGaussianBlur
         id="feGaussianBlur3378-6-3"
         stdDeviation="3.2142434" />
    </filter>
    <filter
       height="1.2606643"
       y="-0.13033222"
       width="1.1239401"
       x="-0.061970063"
       id="filter3304-3-7"
       style="color-interpolation-filters:sRGB">
      <feGaussianBlur
         id="feGaussianBlur3306-7-5"
         stdDeviation="1.7767668" />
    </filter>
    <filter
       height="1.4545048"
       y="-0.22725242"
       width="1.2375263"
       x="-0.11876316"
       id="filter3376-3-9"
       style="color-interpolation-filters:sRGB">
      <feGaussianBlur
         id="feGaussianBlur3378-6-2"
         stdDeviation="3.2142434" />
    </filter>
    <filter
       height="1.108032"
       y="-0.05401599"
       width="1.053992"
       x="-0.026996003"
       id="filter3238-2-2"
       style="color-interpolation-filters:sRGB">
      <feGaussianBlur
         id="feGaussianBlur3240-2-8"
         stdDeviation="0.72001796" />
    </filter>
    <filter
       height="1.2606643"
       y="-0.13033222"
       width="1.1239401"
       x="-0.061970063"
       id="filter3304-3-97"
       style="color-interpolation-filters:sRGB">
      <feGaussianBlur
         id="feGaussianBlur3306-7-36"
         stdDeviation="1.7767668" />
    </filter>
    <filter
       height="1.0741538"
       y="-0.03707692"
       width="1.0354847"
       x="-0.017742332"
       id="filter3250-5-1"
       style="color-interpolation-filters:sRGB">
      <feGaussianBlur
         id="feGaussianBlur3252-9-29"
         stdDeviation="0.50545754" />
    </filter>
    <filter
       height="1.4503051"
       y="-0.22515257"
       width="1.0857033"
       x="-0.042851612"
       id="filter1375"
       style="color-interpolation-filters:sRGB">
      <feGaussianBlur
         id="feGaussianBlur1377"
         stdDeviation="1.2438038" />
    </filter>
  </defs>
  <metadata
     id="metadata251">
    <rdf:RDF>
      <cc:Work
         rdf:about="">
        <dc:format>image/svg+xml</dc:format>
        <dc:type
           rdf:resource="http://purl.org/dc/dcmitype/StillImage" />
        <dc:title></dc:title>
      </cc:Work>
    </rdf:RDF>
  </metadata>
  <g
     transform="translate(-150.71624,-4.5964573)"
     id="g2250">
    <g
       id="g2089"
       transform="translate(-0.31779661,6.0381356)">
      <text
         transform="matrix(0.7782703,0,0,0.7782703,162.49427,-52.595846)"
         xml:space="preserve"
         style="font-style:normal;font-weight:normal;font-size:44.88074112px;line-height:1.25;font-family:sans-serif;letter-spacing:0px;word-spacing:0px;fill:#ffffff;fill-opacity:1;stroke:none;stroke-width:6.73211098;filter:url(#filter3376-3-9)"
         x="83.17794"
         y="242.62523"
         id="text1895"><tspan
           id="tspan1893"
           x="83.17794"
           y="242.62523"
           style="font-weight:bold;fill:#ffffff;fill-opacity:1;stroke-width:6.73211098">OS</tspan></text>
      <path
         transform="matrix(0.7782703,0,0,0.7782703,162.49427,-52.595846)"
         id="path1901"
         d="m 102.24372,209.31531 c -5.244864,0 -9.365007,1.50487 -12.359967,4.51445 -2.98037,3.00958 -4.47053,7.16572 -4.47053,12.46901 0,4.66494 1.16158,8.44194 3.48041,11.33368 -1.57927,-2.64215 -2.37299,-5.88501 -2.37299,-9.73481 0,-5.3033 1.49018,-9.45994 4.47053,-12.46953 2.99498,-3.00958 7.114593,-4.51445 12.359457,-4.51445 5.25947,0 9.37961,1.50487 12.35996,4.51445 0.35028,0.35371 0.67792,0.72462 0.98703,1.11001 -0.58955,-0.98636 -1.28514,-1.89112 -2.09444,-2.70836 -2.98038,-3.00958 -7.09999,-4.51445 -12.35946,-4.51445 z m 34.53691,0 c -3.94459,0 -6.96852,0.87666 -9.0723,2.62981 -2.10381,1.75315 -3.15589,4.25839 -3.15589,7.51634 0,2.48564 0.68916,4.48319 2.06396,5.99446 -0.63646,-1.24016 -0.95705,-2.70434 -0.95705,-4.39559 0,-3.25795 1.05209,-5.7637 3.15587,-7.51686 2.10381,-1.75315 5.12823,-2.62981 9.07285,-2.62981 1.79697,0 3.64511,0.13893 5.54434,0.41651 1.55131,0.2148 3.14881,0.52709 4.78782,0.92708 v -1.32034 c -2.03073,-0.54055 -3.99597,-0.94212 -5.89523,-1.20509 -1.89926,-0.27758 -3.74737,-0.41651 -5.54437,-0.41651 z m -27.8448,10.05106 c 0.95787,1.78791 1.43814,4.09773 1.43814,6.9324 0,3.43326 -0.70882,6.09974 -2.12595,7.99899 -1.41714,1.89926 -3.41839,2.84893 -6.0043,2.84893 -2.328254,0 -4.182034,-0.78118 -5.564007,-2.33837 0.207303,0.38653 0.436173,0.74984 0.688343,1.0878 1.41713,1.89925 3.411274,2.84892 5.982574,2.84892 2.58591,0 4.58767,-0.94967 6.0048,-2.84892 1.41714,-1.89926 2.12545,-4.56523 2.12545,-7.99848 0,-3.44787 -0.70831,-6.12145 -2.12545,-8.0207 -0.13398,-0.17957 -0.27517,-0.34798 -0.4196,-0.51057 z m 24.42744,1.67174 c 0.11637,0.59972 0.41826,1.08983 0.90848,1.46864 0.65743,0.48212 1.84083,0.89839 3.55017,1.24902 l 3.59408,0.72295 c 3.63781,0.73049 6.22366,1.84089 7.75769,3.33107 0.0862,0.0838 0.16922,0.17012 0.25061,0.25786 -0.35354,-0.69986 -0.80491,-1.3194 -1.35752,-1.85622 -1.53403,-1.49018 -4.11988,-2.60058 -7.75767,-3.33106 l -3.5941,-0.72347 c -1.55297,-0.31856 -2.66702,-0.6917 -3.35174,-1.11879 z m 8.76329,11.63494 c 0.0715,0.2838 0.1111,0.58994 0.1111,0.92346 0,1.13955 -0.48979,2.01622 -1.46865,2.62982 -0.97882,0.61361 -2.38836,0.92036 -4.22918,0.92036 -1.8116,0 -3.69623,-0.27786 -5.65393,-0.83303 -1.94307,-0.56977 -3.95954,-1.40942 -6.04872,-2.51975 v 7.12206 c 0.36915,0.13682 0.73827,0.26571 1.10741,0.39067 v -5.91438 c 2.08918,1.11035 4.10515,1.9505 6.04822,2.52027 1.95768,0.55517 3.84233,0.83251 5.65391,0.83251 1.84081,0 3.25088,-0.30675 4.22973,-0.92036 0.97883,-0.6136 1.46812,-1.49026 1.46812,-2.62982 0,-1.02267 -0.33615,-1.81161 -1.00819,-2.36678 -0.0621,-0.0525 -0.13584,-0.10361 -0.20982,-0.15503 z"
         style="font-style:normal;font-weight:normal;font-size:44.88074112px;line-height:1.25;font-family:sans-serif;letter-spacing:0px;word-spacing:0px;fill:#179872;fill-opacity:1;stroke:none;stroke-width:6.73211098;filter:url(#filter3238-2-2)" />
      <text
         transform="matrix(0.7782703,0,0,0.7782703,162.49427,-52.595846)"
         id="text1889"
         y="243.36633"
         x="11.263751"
         style="font-style:normal;font-weight:normal;font-size:44.88074112px;line-height:1.25;font-family:sans-serif;letter-spacing:0px;word-spacing:0px;fill:#ffffff;fill-opacity:1;stroke:none;stroke-width:6.73211098;filter:url(#filter3304-3-97)"
         xml:space="preserve"><tspan
           style="font-weight:bold;fill:#ffffff;fill-opacity:1;stroke-width:6.73211098"
           y="243.36633"
           x="11.263751"
           id="tspan1887">Mx<tspan
   id="tspan1885"
   style="fill:#ffffff;fill-opacity:1;stroke-width:6.73211098" /></tspan></text>
      <path
         style="font-style:normal;font-weight:bold;font-size:39.83174896px;line-height:1.25;font-family:sans-serif;letter-spacing:0px;word-spacing:0px;fill:#00815b;fill-opacity:1;stroke:none;stroke-width:5.23940229"
         d="m 173.84286,110.61709 v 25.46364 h 6.22509 v -18.62406 l 5.86709,13.72945 h 4.16139 l 5.86709,-13.72945 v 18.62406 h 6.20832 v -25.46364 h -8.34 l -5.8331,13.62749 -5.79866,-13.62749 z m 32.42239,6.36195 6.89033,9.32924 -7.23156,9.77245 h 6.46391 l 4.24703,-6.03748 4.29779,6.03748 h 6.46391 l -7.23157,-9.80643 6.89033,-9.29526 h -6.4639 l -3.95656,5.66226 -3.9058,-5.66226 z"
         id="path1891" />
      <path
         transform="matrix(0.7782703,0,0,0.7782703,162.49427,-52.595846)"
         id="path1899"
         d="m 14.685401,209.72565 v 32.71842 h 2.12339 v -31.73244 h 9.03406 l -0.4196,-0.98598 z m 25.68371,0 -6.64043,15.51326 1.26918,2.98225 7.49464,-17.50953 h 8.59274 v -0.98598 z m 15.975762,8.17417 8.85322,11.98739 -9.29196,12.55686 h 2.85306 l 8.56229,-11.5714 -8.85323,-11.98738 h 6.8616 l -0.67956,-0.98547 z m 18.40817,0 -4.35787,6.2358 1.39681,2.0252 5.08445,-7.27553 h 5.45134 l 0.73072,-0.98547 z m -49.945262,1.59939 v 3.98425 l 5.41467,12.67107 h 1.70272 z m 20.42408,0 -2.12338,4.96869 v 17.97617 h 2.12338 z m 26.560122,16.17266 -0.70641,1.00459 4.1057,5.76761 h 1.4216 z"
         style="font-style:normal;font-weight:normal;font-size:44.88074112px;line-height:1.25;font-family:sans-serif;letter-spacing:0px;word-spacing:0px;fill:#1b9c77;fill-opacity:1;stroke:none;stroke-width:6.73211098;filter:url(#filter3250-5-1)" />
      <path
         style="font-style:normal;font-weight:bold;font-size:39.83174896px;line-height:1.25;font-family:sans-serif;letter-spacing:0px;word-spacing:0px;fill:#00815b;fill-opacity:1;stroke:none;stroke-width:5.23940229"
         d="m 242.06732,110.30804 c -4.08191,0 -7.28837,1.17109 -9.61927,3.51336 -2.31952,2.34227 -3.47937,5.57707 -3.47937,9.70447 0,4.11602 1.15985,7.34543 3.47937,9.6877 2.3309,2.34227 5.53736,3.51336 9.61927,3.51336 4.09329,0 7.29976,-1.17109 9.61928,-3.51336 2.31953,-2.34227 3.47938,-5.57168 3.47938,-9.6877 0,-4.1274 -1.15985,-7.3622 -3.47938,-9.70447 -2.31952,-2.34227 -5.52599,-3.51336 -9.61928,-3.51336 z m 26.87932,0 c -3.06996,0 -5.42386,0.68205 -7.06117,2.04648 -1.63732,1.36442 -2.45569,3.31475 -2.45569,5.85031 0,2.02391 0.58532,3.63277 1.75646,4.82664 1.1825,1.19387 3.04736,2.06353 5.59429,2.6093 l 2.54133,0.56283 c 1.54636,0.34111 2.57528,0.72757 3.08694,1.15964 0.52303,0.43207 0.78443,1.04619 0.78443,1.84211 0,0.88688 -0.38062,1.56893 -1.14242,2.04648 -0.76181,0.47755 -1.85912,0.71645 -3.29178,0.71645 -1.4099,0 -2.87659,-0.21595 -4.4002,-0.64802 -1.51224,-0.44344 -3.0815,-1.09715 -4.70745,-1.96129 v 5.54308 c 1.62595,0.60262 3.25189,1.05702 4.87784,1.36401 1.62594,0.30701 3.24605,0.46087 4.86062,0.46087 3.42243,0 5.96395,-0.6825 7.624,-2.04693 1.67142,-1.37579 2.50689,-3.46785 2.50689,-6.2763 0,-2.1376 -0.59657,-3.78604 -1.79045,-4.9458 -1.19388,-1.15977 -3.20675,-2.02404 -6.03792,-2.59255 l -2.79692,-0.56282 c -1.33032,-0.27289 -2.25127,-0.59682 -2.76294,-0.97204 -0.50028,-0.38659 -0.75043,-0.92107 -0.75043,-1.60328 0,-0.90962 0.37522,-1.58043 1.12566,-2.01249 0.75042,-0.43207 1.91028,-0.64803 3.47937,-0.64803 1.1825,0 2.43863,0.15882 3.76895,0.47718 1.33032,0.31837 2.69488,0.79031 4.09341,1.41568 v -5.38946 c -1.58046,-0.4207 -3.10968,-0.73338 -4.58781,-0.93804 -1.47813,-0.21604 -2.91647,-0.32401 -4.31501,-0.32401 z m -26.87932,4.75865 c 2.01254,0 3.5701,0.73874 4.67302,2.21687 1.10291,1.47813 1.65449,3.55893 1.65449,6.24231 0,2.672 -0.55158,4.74696 -1.65449,6.22508 -1.10292,1.47813 -2.66048,2.21733 -4.67302,2.21733 -2.00115,0 -3.55332,-0.7392 -4.65624,-2.21733 -1.10291,-1.47812 -1.65404,-3.55308 -1.65404,-6.22508 0,-2.68338 0.55113,-4.76418 1.65404,-6.24231 1.10292,-1.47813 2.65509,-2.21687 4.65624,-2.21687 z"
         id="path1897" />
    </g>
    <g
       id="g2078"
       transform="translate(-1.1424184,7.6403486)">
      <ellipse
         style="opacity:1;fill:#808080;fill-opacity:0.3351064;stroke:none;stroke-width:1.58749998;stroke-linecap:round;stroke-linejoin:bevel;stroke-miterlimit:4;stroke-dasharray:none;stroke-dashoffset:0;stroke-opacity:1;paint-order:markers stroke fill;filter:url(#filter1375)"
         id="ellipse2017"
         cx="223.59254"
         cy="87.191833"
         rx="34.831001"
         ry="6.6291256"
         transform="matrix(1.3566428,0,0,1.1329835,-74.174203,-2.8871778)" />
      <g
         transform="translate(4.4943227,-8.5392132)"
         id="g2070">
        <path
           style="fill:#c04646;fill-opacity:1;stroke:#000000;stroke-width:1.11073291;stroke-linecap:butt;stroke-linejoin:miter;stroke-miterlimit:4;stroke-dasharray:none;stroke-opacity:1"
           d="m 221.87077,32.041803 c -0.60611,1.070769 -1.26079,1.034822 -1.22645,2.825359 0.0343,1.790537 2.10025,3.722085 3.31948,6.909061 1.21924,3.186977 3.68356,8.0409 3.5752,12.299203 -0.10837,4.258302 -1.96123,9.176766 -4.17697,12.046165 -2.21574,2.869399 -7.48297,5.004374 -7.48297,5.004374 l -6.78497,0.784175 -8.15657,-4.183189 c 0,0 -3.97105,-3.090809 -5.36686,-5.240124 -1.39581,-2.149315 -2.4791,-4.185069 -2.73452,-7.3859 -0.25542,-3.200831 2.431,-8.538617 2.21069,-11.173584 -0.22031,-2.634967 -0.87711,-2.670871 -1.58541,-4.184526 -0.7083,-1.513654 -2.4322,-3.430614 -2.72588,-4.837074 -0.29368,-1.40646 0.11197,-1.862782 0.31087,-3.052698 0.19891,-1.189915 0.94992,-4.060441 0.94992,-4.060441 l 1.04585,1.581629 c 0,0 -0.66926,1.949655 -0.35142,3.450879 0.31783,1.501224 2.0121,3.512302 2.84508,4.983317 0.83298,1.471016 0.17193,3.905959 2.15687,3.840411 1.98494,-0.06555 1.66146,-4.560069 3.23814,-6.777673 1.57667,-2.217605 4.49852,-4.410913 6.26384,-6.201343 1.76531,-1.79043 3.30087,-2.998173 4.34913,-4.518895 1.04827,-1.520722 1.88433,-2.904537 2.05228,-4.350489 0.16793,-1.445955 -0.45522,-2.390119 -0.81609,-3.837976 -0.36087,-1.447858 -1.38508,-4.834638 -1.38508,-4.834638 0,0 2.2282,2.939165 3.38949,4.904655 1.16129,1.96549 2.88842,4.469266 3.45222,6.922579 0.56379,2.453313 0.52177,5.081596 -0.0798,7.367513 -0.60153,2.285917 -2.56967,4.091191 -3.28977,5.967799 -0.72011,1.876607 -1.18327,3.390698 -1.19077,5.108734 -0.007,1.718036 0.43616,3.905544 1.10612,4.940331 0.66997,1.034786 0.9247,1.604837 1.86924,1.397278 0.94455,-0.207559 1.36495,-1.566226 1.65165,-3.050264 0.2867,-1.484037 -0.72213,-3.782317 -0.64036,-5.563412 0.0818,-1.781094 0.48954,-3.535576 1.04451,-4.989525 0.55498,-1.453948 1.12922,-2.711682 2.11741,-3.673343 0.9882,-0.961661 3.54793,-1.918436 3.54793,-1.918436 0,0 -1.89594,2.4293 -2.50206,3.500069 z"
           id="path1907" />
        <path
           style="fill:#000000;stroke:#000000;stroke-width:0.22214657px;stroke-linecap:butt;stroke-linejoin:miter;stroke-opacity:1"
           d="m 211.39489,11.127779 c 0,0 1.02431,3.38677 1.38517,4.834628 0.36087,1.447856 0.98383,2.392159 0.8159,3.838115 -0.16801,1.445946 -1.00405,2.829518 -2.0523,4.350243 -1.04826,1.52072 -2.5838,2.728458 -4.34909,4.51889 -1.76532,1.790429 -4.68697,3.983832 -6.26365,6.201436 -1.57668,2.217605 -1.25312,6.712215 -3.23806,6.777764 -0.0854,0.0028 -0.16452,-4.31e-4 -0.24049,-0.0066 l -0.82623,2.580144 -0.61571,9.994753 3.88627,9.246462 5.55155,6.576878 1.34082,0.687804 9.46978,0.233417 c 1.20931,-0.530046 5.23029,-2.414777 7.10324,-4.840273 2.21574,-2.869397 4.06874,-7.787721 4.17709,-12.046026 0.0545,-2.141877 -0.54228,-4.434244 -1.3037,-6.589581 l 0.83769,7.212882 -3.62027,5.263435 1.10946,-4.312368 -0.49413,-5.682862 -0.73973,-1.95241 -0.0367,5.628367 -1.36146,4.152816 -1.55485,0.780198 1.64084,-4.258254 -3.04659,3.578667 -3.20393,2.489781 3.87222,-5.103887 0.64169,-2.348163 -4.88004,4.464821 -3.00717,-3.390942 -2.36109,-8.420384 0.55903,-8.123449 0.3244,-3.185559 -2.16271,6.753383 -0.59733,7.180571 0.25793,4.049512 -0.99159,-2.112819 -0.42659,-6.346308 0.99312,-5.799188 3.74194,-6.458233 -3.93764,4.426901 -3.10548,6.790829 -0.36119,8.814355 2.82931,6.456663 -0.86397,0.582338 -2.59086,-6.164163 -0.81107,-6.51935 3.37323,-8.105081 0.0811,-0.796388 -4.05662,4.280459 -1.23374,6.847548 2.74066,11.275528 1.0975,2.391821 -2.094,-1.822541 -3.30351,-8.382468 0.66451,-7.84449 3.01096,-5.862352 6.37215,-7.262814 2.87311,-3.194229 2.35834,-4.72162 0.0206,-4.155036 -0.63373,-3.545678 c -0.83778,-1.286523 -1.86129,-2.693633 -2.3982,-3.417897 -0.22704,-0.306256 -0.36617,-0.489985 -0.36617,-0.489985 z"
           id="path1909" />
        <path
           style="fill:#f9f9f9;stroke:#000000;stroke-width:1.05833328;stroke-linecap:butt;stroke-linejoin:miter;stroke-miterlimit:4;stroke-dasharray:none;stroke-opacity:1"
           d="m 215.32253,77.264178 c 4.0312,4.863304 37.69855,0.275926 40.18429,5.690191 2.48574,5.414265 4.62632,9.524098 -3.66975,13.790024 -18.94461,10.184197 -34.24339,5.699167 -52.22151,-3.838796 -16.02612,-8.502363 -18.71985,-10.950715 -18.71985,-10.950715 2.0817,-2.792689 3.90476,-3.876887 7.47423,-3.872511 6.83893,3.400998 9.39576,6.734829 21.55312,13.582691 15.42541,8.688638 14.8482,5.810295 33.51713,0.804278 7.27692,-3.282737 7.03319,-3.1239 6.36748,-4.900137 -0.66571,-1.776237 -26.98913,-0.07356 -33.63327,-3.948503 -6.64414,-3.874942 -6.57515,-3.390264 -8.3515,-9.644883 -0.54013,-3.471424 1.81272,-9.097917 3.37006,-10.380695 0.92641,-0.763076 2.02113,-0.720045 3.04293,0.627431 1.22354,1.613518 -2.94456,8.178322 1.08664,13.041625 z"
           id="path1938" />
        <path
           style="fill:#000000;stroke:#000000;stroke-width:0.26458332px;stroke-linecap:butt;stroke-linejoin:miter;stroke-opacity:1"
           d="m 214.28304,66.636759 c -1.32953,0.547547 -2.68397,1.468729 -4.09639,2.948141 1.18996,-0.859745 2.5051,-1.408485 3.85041,-1.72031 0.0902,-0.437139 0.17298,-0.844249 0.24598,-1.227831 z m -0.76171,5.341276 c -0.90332,0.932418 -1.72242,2.15854 -2.43654,3.799769 0.69884,-1.036312 1.5603,-1.891295 2.51405,-2.588991 -0.05,-0.404915 -0.0754,-0.809426 -0.0775,-1.210778 z m 0.89814,3.924824 c -0.35266,1.509742 -0.3575,3.273832 0.17208,5.465818 -0.0803,-1.481045 0.17639,-2.897053 0.65112,-4.208529 -0.32769,-0.408926 -0.60102,-0.82909 -0.8232,-1.257289 z m 3.29489,2.667537 c 0.24747,1.502698 0.90218,3.110637 2.17816,4.907195 -0.69199,-1.490445 -0.96825,-3.060231 -0.96273,-4.59972 -0.43481,-0.09293 -0.84208,-0.194964 -1.21543,-0.307475 z m -28.58999,0.224277 c -1.08436,2.364327 -3.36181,4.014867 -5.59242,4.99401 0.35034,0.224348 0.75311,0.476507 1.19527,0.749824 2.00611,-1.088996 3.63962,-2.621796 4.39715,-5.743834 z m 33.06672,0.570508 c 0.26677,1.457044 0.91921,3.014744 2.15025,4.748029 -0.6974,-1.5021 -0.97278,-3.084853 -0.96273,-4.635891 -0.40701,-0.0338 -0.80127,-0.07174 -1.18752,-0.112138 z m 4.91391,0.335896 c 0.30209,1.360329 0.94612,2.811325 2.08308,4.412133 -0.65766,-1.416494 -0.93868,-2.904521 -0.96067,-4.370276 -0.37801,-0.01286 -0.75244,-0.02646 -1.12241,-0.04186 z m 6.13451,0.159163 c 0.0323,1.337752 0.35245,2.824961 1.07745,4.540292 -0.34007,-1.542497 -0.28818,-3.073368 0.016,-4.523756 -0.36492,-0.0055 -0.72985,-0.01066 -1.09347,-0.01654 z m 5.5888,0.09198 c -0.14098,1.224698 -0.0673,2.618044 0.29456,4.25142 -0.0525,-1.495705 0.23704,-2.918799 0.74517,-4.230748 -0.34412,-0.0079 -0.69234,-0.01389 -1.03973,-0.02066 z m 4.50567,0.129709 c -0.61178,1.327849 -0.97554,2.953909 -0.98288,5.044136 0.3609,-1.913644 1.25804,-3.581191 2.41225,-4.976442 -0.46834,-0.02524 -0.94518,-0.04758 -1.42937,-0.06769 z m 5.83375,0.438214 c -0.97087,0.828918 -1.8368,1.973683 -2.56676,3.582728 1.13111,-1.561071 2.74242,-2.617544 4.48138,-3.292822 -0.59164,-0.111665 -1.23779,-0.205621 -1.91462,-0.289906 z m -58.24554,0.971518 c -0.8527,1.859227 -2.44333,3.276669 -4.16873,4.27364 0.33811,0.200533 0.70746,0.416629 1.08365,0.636137 1.39467,-1.042712 2.50101,-2.502624 3.08508,-4.909777 z m 2.80862,1.909961 c -0.81341,1.773539 -2.29924,3.1428 -3.93206,4.131013 0.3371,0.191985 0.71026,0.401159 1.07228,0.605132 1.28831,-1.030666 2.30747,-2.45993 2.85978,-4.736145 z m 60.92703,0.257865 c -1.51191,0.03741 -3.0782,0.508408 -4.80384,1.7632 2.05555,-0.959509 4.45047,-0.916393 6.57789,-0.427363 -0.18238,-0.417743 -0.37564,-0.844974 -0.57464,-1.278475 -0.39725,-0.04497 -0.79642,-0.06733 -1.19941,-0.05736 z m -57.89311,1.876888 c -0.75172,1.639041 -2.07813,2.932856 -3.56361,3.900019 0.34387,0.189871 0.66411,0.368719 1.02681,0.56741 1.13591,-1.008457 2.03129,-2.384044 2.5368,-4.467429 z m 3.37086,1.797823 c -0.75772,1.652106 -2.09888,2.954353 -3.59875,3.923792 0.33419,0.180332 0.69464,0.37238 1.04283,0.559139 1.14468,-1.009928 2.04766,-2.388249 2.55592,-4.482931 z m 51.64852,1.506884 c -0.24936,-0.003 -0.50676,0.0021 -0.77308,0.01654 2.39996,0.333693 4.50377,1.837894 6.05751,3.541387 0.21771,-0.396599 0.376,-0.795985 0.48369,-1.199409 -1.43864,-1.360831 -3.15099,-2.326576 -5.76812,-2.358514 z m -48.39033,1.077455 c -0.63906,1.393409 -1.6942,2.53651 -2.90835,3.442684 0.30696,0.160774 0.61437,0.322932 0.91985,0.480589 0.87466,-0.949841 1.5678,-2.189408 1.9885,-3.923273 z m 46.00598,1.296045 c 1.82645,1.04036 3.11752,2.816614 3.95842,4.677749 0.34798,-0.212926 0.66917,-0.425903 0.96945,-0.63872 -0.91598,-1.719583 -2.30367,-3.15251 -4.92787,-4.039029 z m -42.29819,1.175639 c -0.55642,1.2132 -1.42859,2.236812 -2.44585,3.079914 0.27949,0.135456 0.55716,0.265526 0.83561,0.39791 0.69599,-0.88655 1.25224,-2.002404 1.61024,-3.477824 z m 38.64105,0.63872 c 1.59792,1.329587 2.55515,3.276119 3.06131,5.233789 0.34813,-0.161795 0.6975,-0.327906 1.048,-0.49971 -0.6086,-1.810549 -1.72768,-3.426775 -4.10931,-4.734079 z m -35.60764,0.93431 c -0.5343,1.164971 -1.35863,2.156156 -2.3239,2.979664 0.27389,0.122523 0.54654,0.23891 0.81959,0.358116 0.64598,-0.864002 1.16479,-1.938528 1.50431,-3.33778 z m 31.12936,0.700733 c 1.33527,1.624664 1.90716,3.746077 2.02778,5.785696 0.37129,-0.12149 0.74415,-0.25008 1.11777,-0.38292 -0.26044,-1.885749 -1.05856,-3.677237 -3.14555,-5.402776 z m -27.59005,1.209228 c -0.4734,1.032208 -1.17529,1.927103 -2.00039,2.690791 0.24917,0.09781 0.49857,0.195739 0.74724,0.290423 0.52912,-0.800439 0.95884,-1.768261 1.25315,-2.981214 z m 22.87096,0.701249 c 1.19559,1.454722 1.77955,3.307988 1.97559,5.143879 0.36115,-0.074 0.72325,-0.15267 1.08624,-0.2372 -0.32957,-1.704646 -1.15865,-3.333107 -3.06183,-4.906679 z m -19.12803,0.549836 c -0.19172,1.094285 -0.62718,2.117881 -1.21181,3.049433 0.24462,0.0772 0.48891,0.15155 0.73328,0.22531 0.32455,-0.924944 0.50228,-1.993847 0.47853,-3.274743 z m 14.75104,0.217043 c 0.79241,1.580592 0.9797,3.38442 0.82165,5.117 0.3594,-0.0227 0.71933,-0.0485 1.08004,-0.0811 -0.0282,-1.59969 -0.51748,-3.240106 -1.90169,-5.03587 z m -10.4991,0.887801 c 0.12076,1.118251 -0.0195,2.236079 -0.33073,3.305229 0.25577,0.0545 0.5116,0.11198 0.76739,0.16226 0.0838,-1.02811 -0.0343,-2.164744 -0.43666,-3.467489 z m 5.21415,0.295588 c 0.49848,1.240268 0.64119,2.579331 0.55242,3.899511 0.30366,0.0226 0.6074,0.0419 0.91157,0.0579 -0.11481,-1.23321 -0.5412,-2.530703 -1.46399,-3.957381 z"
           id="path1947" />
      </g>
    </g>
  </g>
</svg>
