<?xml version="1.0" encoding="UTF-8" standalone="no"?>
<!--
Propuesta logotipo proyecto MxOS - fondo colores blancos
Autor: Miguel Angel Marcial Martinez @fitorec
Licencia: Creative Commons CC BY-SA 4.0
-->

<svg
   xmlns:dc="http://purl.org/dc/elements/1.1/"
   xmlns:cc="http://creativecommons.org/ns#"
   xmlns:rdf="http://www.w3.org/1999/02/22-rdf-syntax-ns#"
   xmlns:svg="http://www.w3.org/2000/svg"
   xmlns="http://www.w3.org/2000/svg"
   xmlns:sodipodi="http://sodipodi.sourceforge.net/DTD/sodipodi-0.dtd"
   xmlns:inkscape="http://www.inkscape.org/namespaces/inkscape"
   id="propuesta-00"
   version="1.1"
   viewBox="0 0 132.29167 132.29167"
   height="500"
   width="500"
   sodipodi:docname="incorrecto-0.svg"
   inkscape:version="0.92.5 (2060ec1f9f, 2020-04-08)">
  <sodipodi:namedview
     pagecolor="#ffffff"
     bordercolor="#666666"
     borderopacity="1"
     objecttolerance="10"
     gridtolerance="10"
     guidetolerance="10"
     inkscape:pageopacity="0"
     inkscape:pageshadow="2"
     inkscape:window-width="1366"
     inkscape:window-height="697"
     id="namedview33"
     showgrid="false"
     showguides="false"
     inkscape:zoom="0.6675088"
     inkscape:cx="156.24813"
     inkscape:cy="263.19415"
     inkscape:window-x="0"
     inkscape:window-y="0"
     inkscape:window-maximized="1"
     inkscape:current-layer="propuesta-00" />
  <defs
     id="defs248">
    <filter
       style="color-interpolation-filters:sRGB"
       id="filter3238"
       x="-0.026996003"
       width="1.053992"
       y="-0.05401599"
       height="1.108032">
      <feGaussianBlur
         stdDeviation="0.72001796"
         id="feGaussianBlur3240" />
    </filter>
    <filter
       style="color-interpolation-filters:sRGB"
       id="filter3250"
       x="-0.017742332"
       width="1.0354847"
       y="-0.03707692"
       height="1.0741538">
      <feGaussianBlur
         stdDeviation="0.50545754"
         id="feGaussianBlur3252" />
    </filter>
    <filter
       style="color-interpolation-filters:sRGB"
       id="filter3190"
       x="-0.024"
       width="1.048"
       y="-0.024"
       height="1.048">
      <feGaussianBlur
         stdDeviation="1.6404166"
         id="feGaussianBlur3192" />
    </filter>
    <filter
       style="color-interpolation-filters:sRGB"
       id="filter3304"
       x="-0.061970063"
       width="1.1239401"
       y="-0.13033222"
       height="1.2606643">
      <feGaussianBlur
         stdDeviation="1.7767668"
         id="feGaussianBlur3306" />
    </filter>
    <filter
       style="color-interpolation-filters:sRGB"
       id="filter1616"
       x="-0.06943077"
       width="1.1388615"
       y="-0.13285526"
       height="1.2657105">
      <feGaussianBlur
         stdDeviation="1.8790961"
         id="feGaussianBlur1618" />
    </filter>
    <filter
       style="color-interpolation-filters:sRGB"
       id="filter2205"
       x="-0.027800612"
       width="1.0556012"
       y="-0.051059158"
       height="1.1021183">
      <feGaussianBlur
         stdDeviation="1.0586831"
         id="feGaussianBlur2207" />
    </filter>
    <filter
       style="color-interpolation-filters:sRGB"
       id="filter3304-8"
       x="-0.061970063"
       width="1.1239401"
       y="-0.13033222"
       height="1.2606643">
      <feGaussianBlur
         stdDeviation="1.7767668"
         id="feGaussianBlur3306-9" />
    </filter>
    <filter
       style="color-interpolation-filters:sRGB"
       id="filter3376"
       x="-0.11876316"
       width="1.2375263"
       y="-0.22725242"
       height="1.4545048">
      <feGaussianBlur
         stdDeviation="3.2142434"
         id="feGaussianBlur3378" />
    </filter>
    <filter
       style="color-interpolation-filters:sRGB"
       id="filter3250-7"
       x="-0.017742332"
       width="1.0354847"
       y="-0.03707692"
       height="1.0741538">
      <feGaussianBlur
         stdDeviation="0.50545754"
         id="feGaussianBlur3252-3" />
    </filter>
    <filter
       style="color-interpolation-filters:sRGB"
       id="filter3238-6"
       x="-0.026996003"
       width="1.053992"
       y="-0.05401599"
       height="1.108032">
      <feGaussianBlur
         stdDeviation="0.72001796"
         id="feGaussianBlur3240-1" />
    </filter>
  </defs>
  <metadata
     id="metadata251">
    <rdf:RDF>
      <cc:Work
         rdf:about="">
        <dc:format>image/svg+xml</dc:format>
        <dc:type
           rdf:resource="http://purl.org/dc/dcmitype/StillImage" />
        <dc:title />
      </cc:Work>
    </rdf:RDF>
  </metadata>
  <rect
     y="-1.9343585"
     x="-4.4408921e-16"
     height="134.22603"
     width="135.7605"
     id="rect835"
     style="opacity:1;fill:#ffffff;fill-opacity:1;stroke:none;stroke-width:20.89837265;stroke-linecap:round;stroke-linejoin:bevel;stroke-miterlimit:4;stroke-dasharray:none;stroke-dashoffset:0;stroke-opacity:1;paint-order:stroke fill markers" />
  <g
     id="g874"
     transform="matrix(-1.219485,0,0,1.1977982,163.56999,-16.364405)">
    <path
       style="fill:#000000;stroke-width:0.05445049"
       d="m 72.397733,35.792212 c -3.640867,-4.48e-4 -4.461429,0.02415 -7.214827,0.216237 -1.956018,0.136463 -3.913342,0.323061 -5.858815,0.554228 A 56.786975,45.147154 0 0 0 25.764328,77.688508 v 0.02534 A 56.786975,45.147154 0 0 0 60.78659,119.38344 c -0.655408,-1.10009 -1.267823,-2.2121 -1.836505,-3.33831 -2.680082,-5.30766 -4.208494,-10.31635 -4.745608,-15.552 -0.117467,-1.145343 -0.164127,-3.981336 -0.0843,-5.121381 0.235335,-3.362252 0.917042,-6.316084 2.134975,-9.250543 1.532392,-3.692137 3.841934,-7.017911 7.020291,-10.10888 2.657537,-2.584456 5.416378,-4.606837 9.177707,-6.727869 1.635211,-0.922103 3.820206,-2.003846 5.487656,-2.716599 0.387304,-0.165557 0.803859,-0.34371 0.925488,-0.395838 1.047381,-0.449039 2.269833,-0.91789 4.008116,-1.537351 9.097208,-3.241913 20.73317,-5.451642 33.97353,-6.451855 0.7906,-0.05972 1.59918,-0.122559 1.79702,-0.139659 0.29046,-0.02508 0.42281,-0.0082 0.68667,0.0876 1.11983,0.406413 2.41448,1.410232 3.489,2.705032 0.9381,1.130414 1.80783,2.74273 2.14661,3.979314 0.0896,0.326926 0.13998,0.438758 0.16385,0.364436 0.088,-0.27383 0.32945,-1.772402 0.45267,-2.809156 0.70657,-5.944789 -0.22657,-10.40277 -2.64755,-12.647808 -0.77168,-0.71561 -2.42413,-1.671716 -4.29152,-2.483285 -0.34969,-0.151976 -0.71047,-0.309105 -0.80169,-0.349009 -0.68797,-0.300976 -2.78116,-1.070846 -3.98056,-1.464077 -5.69169,-1.866065 -13.11957,-3.339511 -19.764809,-3.920917 -0.981492,-0.08588 -1.026811,-0.09676 -1.102703,-0.260586 -0.03666,-0.07916 -0.248528,-0.409659 -0.470844,-0.73438 -0.826405,-1.207043 -1.91333,-1.981577 -3.827774,-2.727895 -1.91218,-0.745437 -5.777906,-1.462457 -9.553699,-1.772042 -2.385227,-0.195573 -3.071967,-0.217708 -6.744838,-0.218166 z m 4.732258,7.354544 c 1.082876,-0.0035 2.140705,0.01596 2.813687,0.06473 2.248418,0.162972 3.639186,0.382141 4.756685,0.74953 0.586273,0.192742 0.827241,0.311695 0.827241,0.407958 0,0.04095 -0.159241,0.197094 -0.353558,0.347082 -0.789961,0.609738 -1.73089,1.090397 -2.618019,1.337365 -0.640351,0.178257 -0.635135,0.178556 -1.977362,-0.151779 -2.537344,-0.624452 -5.265384,-1.525778 -7.103508,-2.346931 -0.341611,-0.152623 -0.395246,-0.192377 -0.304148,-0.226705 0.279581,-0.105365 2.154202,-0.175412 3.958982,-0.181252 z m 55.140629,17.38106 c -0.0113,-0.02558 -0.0249,0.209112 -0.0387,0.696641 -0.009,0.302352 0.003,0.549848 0.0261,0.549821 0.0228,-3.1e-5 0.0375,-0.319878 0.0327,-0.71069 -0.004,-0.338493 -0.0114,-0.515875 -0.0202,-0.535772 z m -62.809256,13.983521 -0.384222,0.292539 c -1.21654,0.926595 -2.029604,1.625129 -3.153895,2.709438 -1.620712,1.563081 -2.756516,2.905528 -3.911557,4.623068 -3.640336,5.413142 -5.014558,11.888056 -4.02089,18.946778 0.634934,4.51045 2.150971,9.06231 4.590268,13.78216 0.670082,1.29655 1.407122,2.6129 1.943852,3.47192 0.133447,0.21357 0.403389,0.64815 0.600049,0.9655 0.318605,0.51411 0.673548,1.05446 1.054992,1.61034 a 56.786975,45.147154 0 0 0 11.096,1.72301 c -0.231852,-0.19312 -0.453914,-0.38167 -0.649469,-0.55616 -0.468161,-0.41773 -2.549832,-2.437 -2.90427,-2.81714 -0.774957,-0.83115 -1.283951,-1.41519 -2.246582,-2.57777 -0.61609,-0.74406 -1.743238,-2.27916 -2.470629,-3.36503 -3.047959,-4.5501 -5.20716,-9.5961 -6.165514,-14.408835 -1.164368,-5.847274 -0.677449,-11.422046 1.4341,-16.421081 1.09626,-2.595368 2.579797,-4.950961 4.582319,-7.276036 z m -3.868103,20.407282 c -0.01393,0.0037 -0.0035,0.08586 0.0088,0.211829 0.632453,6.370902 4.784178,14.820942 10.28352,20.929832 1.179416,1.31014 3.086119,3.11769 4.342647,4.11677 1.279379,1.01724 2.584909,1.89208 3.905592,2.62432 a 56.786975,45.147154 0 0 0 12.563332,-1.41422 c 1.226702,-0.94777 2.817657,-2.25741 2.817657,-2.33592 0,-0.019 -0.09328,-0.0401 -0.207311,-0.0468 -1.230551,-0.0727 -3.73726,-0.51641 -5.496164,-0.97293 -4.043027,-1.04932 -8.060956,-2.8028 -11.960444,-5.21971 -1.34868,-0.83592 -3.294797,-2.20214 -4.421301,-3.1039 -1.426131,-1.14159 -2.08484,-1.71661 -3.36603,-2.9378 -3.625453,-3.45568 -6.535288,-7.425072 -8.099996,-11.04958 -0.256854,-0.595064 -0.347037,-0.807895 -0.370306,-0.801862 z m 8.103114,8.075151 c -0.03728,0.0269 1.536249,1.51619 2.294285,2.16843 0.395299,0.34012 1.0049,0.84274 1.354593,1.11699 0.349684,0.27426 0.685513,0.53917 0.746297,0.58839 0.06079,0.0493 0.396622,0.29577 0.746306,0.54789 6.632535,4.78215 14.21124,7.61246 21.810324,8.14512 0.45611,0.032 0.91647,0.0656 1.0229,0.075 0.10642,0.009 0.41086,0.0212 0.67673,0.0256 l 0.48361,0.009 0.86984,-0.7644 c 1.24608,-1.09454 2.20768,-1.98712 3.00083,-2.78601 l 0.69093,-0.6961 0.11331,-0.45092 c 0.0622,-0.24799 0.0925,-0.45093 0.0673,-0.45093 -0.0251,0 -0.37496,0.0589 -0.77754,0.13111 -4.08169,0.73125 -9.027956,0.6757 -14.058484,-0.15811 -5.657321,-0.9377 -11.419865,-2.8649 -15.652194,-5.23459 -1.081499,-0.60555 -2.605269,-1.61483 -3.10249,-2.05495 -0.102184,-0.0904 -0.227183,-0.1845 -0.277736,-0.20907 -0.0043,-0.002 -0.0078,-0.003 -0.0088,-0.002 z"
       id="path45"
       inkscape:connector-curvature="0" />
    <path
       style="fill:#ce1125;fill-opacity:1;stroke-width:0.05445049"
       d="m 68.078965,73.170149 -0.384317,0.292903 c -1.21654,0.926595 -2.029874,1.625141 -3.154166,2.709453 -1.620711,1.563083 -2.756499,2.905158 -3.911548,4.622697 -3.640336,5.413142 -5.014557,11.88823 -4.020891,18.946956 0.634926,4.510452 2.15132,9.062252 4.590617,13.782112 0.670082,1.29655 1.406887,2.61303 1.943618,3.47203 0.133447,0.21358 0.403667,0.64823 0.600328,0.96557 0.318603,0.51414 0.67339,1.05443 1.054833,1.61031 a 56.786975,45.147153 0 0 0 11.096063,1.72294 c -0.231852,-0.19313 -0.453819,-0.38165 -0.649374,-0.55613 -0.468161,-0.41774 -2.549971,-2.43713 -2.90441,-2.81728 -0.774957,-0.83114 -1.283846,-1.41505 -2.246476,-2.57762 -0.61609,-0.74406 -1.743204,-2.27922 -2.470595,-3.36509 -3.047959,-4.55009 -5.207325,-9.5962 -6.16568,-14.408944 -1.164367,-5.84727 -0.677344,-11.421809 1.434205,-16.42084 1.09626,-2.595367 2.579545,-4.951207 4.582066,-7.276277 z m -3.868346,20.407537 c -0.01393,0.0034 -0.0035,0.08575 0.009,0.211711 0.632452,6.370893 4.783986,14.821163 10.283328,20.930043 1.179416,1.31016 3.086127,3.1177 4.342656,4.11677 1.279388,1.01724 2.585013,1.89209 3.905696,2.62434 a 56.786975,45.147153 0 0 0 12.563115,-1.41431 c 1.226702,-0.94775 2.818005,-2.25774 2.818005,-2.33622 0,-0.019 -0.09343,-0.04 -0.207459,-0.0467 -1.230551,-0.0727 -3.737146,-0.51647 -5.49605,-0.97298 -4.043028,-1.04935 -8.061053,-2.80251 -11.960541,-5.21942 -1.34868,-0.83593 -3.294909,-2.20231 -4.421413,-3.10407 -1.426133,-1.14159 -2.084937,-1.71656 -3.366127,-2.93775 -3.625454,-3.4557 -6.535141,-7.425015 -8.099849,-11.049527 -0.256853,-0.595065 -0.347097,-0.807917 -0.370367,-0.801878 z m 8.103453,8.075534 c -0.03457,0.0293 1.536772,1.51647 2.29418,2.16817 0.395299,0.34013 1.004858,0.84236 1.354551,1.11661 0.349683,0.27425 0.685347,0.53921 0.746131,0.58843 0.06079,0.0493 0.396439,0.29569 0.746123,0.54782 6.632543,4.78215 14.211423,7.61272 21.810505,8.14539 0.456109,0.032 0.916468,0.0652 1.022888,0.0746 0.10643,0.009 0.41096,0.0213 0.67683,0.0258 l 0.48377,0.009 0.86943,-0.76436 c 1.24607,-1.09453 2.208,-1.98695 3.00116,-2.78583 l 0.69078,-0.69624 0.1134,-0.45093 c 0.0622,-0.24798 0.0923,-0.45092 0.0671,-0.45092 -0.0252,0 -0.3746,0.0588 -0.77718,0.13096 -4.08169,0.73125 -9.027981,0.67579 -14.058518,-0.15801 -5.657321,-0.9377 -11.420152,-2.865 -15.652481,-5.2347 -1.081499,-0.60554 -2.605191,-1.61456 -3.102412,-2.05468 -0.102183,-0.0904 -0.227105,-0.18452 -0.277657,-0.20909 -0.0043,-0.002 -0.0078,-0.003 -0.0087,-0.002 z"
       id="path859"
       inkscape:connector-curvature="0" />
  </g>
  <path
     style="font-style:normal;font-weight:bold;font-size:25.34844398px;line-height:1.25;font-family:sans-serif;letter-spacing:0px;word-spacing:0px;fill:#006847;fill-opacity:1;stroke:none;stroke-width:3.80226684"
     d="m 113.94906,7.2584877 c -0.73218,-0.3188052 -1.46184,-0.5906349 -2.18904,-0.8155873 -2.12838,-0.6583987 -3.90605,-0.6903825 -5.33381,-0.095581 -1.42775,0.5948014 -2.41397,1.7714472 -2.95777,3.5293312 -0.43405,1.4031564 -0.3728,2.6440514 0.18309,3.7229224 0.56377,1.081308 1.67002,2.084021 3.31875,3.008627 l 1.641,0.935392 c 0.99891,0.568124 1.62914,1.056979 1.8912,1.466262 0.26996,0.411722 0.31976,0.893455 0.14907,1.445258 -0.1902,0.614866 -0.60075,1.006212 -1.23132,1.173914 -0.63057,0.167701 -1.44244,0.09764 -2.43569,-0.209611 -0.97748,-0.302378 -1.94803,-0.766446 -2.91167,-1.392756 -0.95333,-0.631756 -1.90084,-1.421547 -2.84277,-2.369355 L 100.04122,21.5 c 0.99802,0.7665 2.02753,1.430718 3.08894,1.992264 1.06142,0.561525 2.152,1.01541 3.27139,1.361664 2.37274,0.733997 4.28085,0.805683 5.72436,0.215755 1.45385,-0.595368 2.48215,-1.866476 3.08446,-3.813551 0.4584,-1.481998 0.39835,-2.753093 -0.18063,-3.813194 -0.57897,-1.060098 -1.78922,-2.090438 -3.63013,-3.091775 l -1.81846,-0.990533 c -0.86378,-0.474496 -1.43291,-0.896216 -1.70718,-1.266086 -0.26394,-0.375312 -0.32282,-0.799481 -0.17651,-1.272454 0.19509,-0.630632 0.59936,-1.0152544 1.2123,-1.1538624 0.61293,-0.138608 1.4633,-0.03999 2.55113,0.296529 0.81983,0.2536034 1.65669,0.6333744 2.51071,1.1394004 0.85402,0.506028 1.69897,1.126067 2.53445,1.859562 l 1.15572,-3.7366914 c -1.0055,-0.630622 -1.99853,-1.175029 -2.97942,-1.6339288 -0.24462,-0.1166958 -0.48926,-0.2283525 -0.73331,-0.3346205 z M 93.36508,1.4625145 C 92.606515,1.1522449 91.771001,0.91221535 90.858433,0.74209565 87.946331,0.19922585 85.502997,0.60848465 83.52859,1.9695003 c -1.966293,1.3625285 -3.223769,3.5156973 -3.772685,6.4602452 -0.547406,2.9364345 -0.149481,5.3945495 1.193799,7.3740435 1.351392,1.981006 3.483252,3.243012 6.395353,3.785883 2.920212,0.54438 5.363351,0.135598 7.329644,-1.226928 1.966297,-1.362527 3.223279,-3.512323 3.770685,-6.44876 C 98.994304,8.9694365 98.597068,6.5074719 97.253788,4.5279782 96.330285,3.1670768 95.033934,2.1451021 93.36508,1.4625145 Z m -2.141649,2.9626192 c 0.918294,0.3757763 1.598659,1.0140574 2.041348,1.9149594 0.590253,1.2012027 0.707165,2.7589774 0.350293,4.6733399 -0.35536,1.906249 -1.025283,3.313501 -2.008696,4.221342 -0.983416,0.907841 -2.192592,1.227953 -3.628361,0.9603 -1.427661,-0.266143 -2.436612,-0.999794 -3.026864,-2.201001 -0.590251,-1.201201 -0.707852,-2.755126 -0.352494,-4.6613755 0.356874,-1.9143628 1.026801,-3.3251886 2.01022,-4.2330303 0.983417,-0.9078398 2.188941,-1.2291174 3.6166,-0.9629759 0.358943,0.066913 0.691856,0.1631815 0.997954,0.2884414 z m -17.29087,-0.833171 -4.636186,0.7142192 -2.212325,4.4980386 -3.427052,-3.6297147 -4.636185,0.7142207 5.972603,5.9302475 -4.106678,7.80827 4.636186,-0.71422 2.378818,-4.799781 3.749752,3.855941 4.636186,-0.714219 -6.270281,-6.235072 z m -24.790007,1.0000689 -5.274564,2.9683922 1.161537,10.6943742 -8.517891,-6.554239 -5.285026,2.974657 9.063115,16.103695 3.936918,-2.215335 -6.629033,-11.77901 8.597304,6.594723 2.631812,-1.48116 -1.17599,-10.770994 6.628554,11.778813 3.926179,-2.209743 z"
     id="path858"
     inkscape:connector-curvature="0" />
  <text
     xml:space="preserve"
     style="font-style:normal;font-weight:normal;font-size:5.61244965px;line-height:1.25;font-family:sans-serif;letter-spacing:0px;word-spacing:0px;fill:#000000;fill-opacity:1;stroke:none;stroke-width:0.84186757"
     x="2.106492"
     y="76.069115"
     id="text861"><tspan
       sodipodi:role="line"
       id="tspan859"
       x="2.106492"
       y="76.069115"
       style="font-style:normal;font-variant:normal;font-weight:bold;font-stretch:normal;font-family:Hack;-inkscape-font-specification:Hack;fill:#000000;stroke-width:0.84186757">Distribución Linux</tspan><tspan
       sodipodi:role="line"
       x="2.106492"
       y="83.084679"
       style="font-style:normal;font-variant:normal;font-weight:bold;font-stretch:normal;font-family:Hack;-inkscape-font-specification:Hack;fill:#000000;stroke-width:0.84186757"
       id="tspan886">segura, abierta y</tspan><tspan
       sodipodi:role="line"
       x="2.106492"
       y="90.100235"
       style="font-style:normal;font-variant:normal;font-weight:bold;font-stretch:normal;font-family:Hack;-inkscape-font-specification:Hack;fill:#000000;stroke-width:0.84186757"
       id="tspan888">soberana para México</tspan></text>
</svg>
