<?xml version="1.0" encoding="UTF-8" standalone="no"?>
<!--
Propuesta logotipo proyecto MxOS - fondo color negro
Autor: Miguel Angel Marcial Martinez @fitorec
Licencia: Creative Commons CC BY-SA 4.0
-->

<svg
   xmlns:dc="http://purl.org/dc/elements/1.1/"
   xmlns:cc="http://creativecommons.org/ns#"
   xmlns:rdf="http://www.w3.org/1999/02/22-rdf-syntax-ns#"
   xmlns:svg="http://www.w3.org/2000/svg"
   xmlns="http://www.w3.org/2000/svg"
   xmlns:sodipodi="http://sodipodi.sourceforge.net/DTD/sodipodi-0.dtd"
   xmlns:inkscape="http://www.inkscape.org/namespaces/inkscape"
   id="propuesta-00"
   version="1.1"
   viewBox="0 0 132.29167 132.29167"
   height="500"
   width="500"
   sodipodi:docname="logo_rojo.svg"
   inkscape:version="0.92.5 (2060ec1f9f, 2020-04-08)">
  <sodipodi:namedview
     pagecolor="#ffffff"
     bordercolor="#666666"
     borderopacity="1"
     objecttolerance="10"
     gridtolerance="10"
     guidetolerance="10"
     inkscape:pageopacity="0"
     inkscape:pageshadow="2"
     inkscape:window-width="1366"
     inkscape:window-height="697"
     id="namedview46"
     showgrid="false"
     inkscape:zoom="0.944"
     inkscape:cx="143.23325"
     inkscape:cy="274.71751"
     inkscape:window-x="0"
     inkscape:window-y="0"
     inkscape:window-maximized="1"
     inkscape:current-layer="propuesta-00" />
  <defs
     id="defs248">
    <filter
       style="color-interpolation-filters:sRGB"
       id="filter3238"
       x="-0.026996003"
       width="1.053992"
       y="-0.05401599"
       height="1.108032">
      <feGaussianBlur
         stdDeviation="0.72001796"
         id="feGaussianBlur3240" />
    </filter>
    <filter
       style="color-interpolation-filters:sRGB"
       id="filter3250"
       x="-0.017742332"
       width="1.0354847"
       y="-0.03707692"
       height="1.0741538">
      <feGaussianBlur
         stdDeviation="0.50545754"
         id="feGaussianBlur3252" />
    </filter>
    <filter
       style="color-interpolation-filters:sRGB"
       id="filter3190"
       x="-0.024"
       width="1.048"
       y="-0.024"
       height="1.048">
      <feGaussianBlur
         stdDeviation="1.6404166"
         id="feGaussianBlur3192" />
    </filter>
    <filter
       style="color-interpolation-filters:sRGB"
       id="filter3304"
       x="-0.061970063"
       width="1.1239401"
       y="-0.13033222"
       height="1.2606643">
      <feGaussianBlur
         stdDeviation="1.7767668"
         id="feGaussianBlur3306" />
    </filter>
    <filter
       style="color-interpolation-filters:sRGB"
       id="filter1616"
       x="-0.06943077"
       width="1.1388615"
       y="-0.13285526"
       height="1.2657105">
      <feGaussianBlur
         stdDeviation="1.8790961"
         id="feGaussianBlur1618" />
    </filter>
    <filter
       style="color-interpolation-filters:sRGB"
       id="filter2205"
       x="-0.027800612"
       width="1.0556012"
       y="-0.051059158"
       height="1.1021183">
      <feGaussianBlur
         stdDeviation="1.0586831"
         id="feGaussianBlur2207" />
    </filter>
    <filter
       style="color-interpolation-filters:sRGB"
       id="filter3304-8"
       x="-0.061970063"
       width="1.1239401"
       y="-0.13033222"
       height="1.2606643">
      <feGaussianBlur
         stdDeviation="1.7767668"
         id="feGaussianBlur3306-9" />
    </filter>
    <filter
       style="color-interpolation-filters:sRGB"
       id="filter3376"
       x="-0.11876316"
       width="1.2375263"
       y="-0.22725242"
       height="1.4545048">
      <feGaussianBlur
         stdDeviation="3.2142434"
         id="feGaussianBlur3378" />
    </filter>
    <filter
       style="color-interpolation-filters:sRGB"
       id="filter3250-7"
       x="-0.017742332"
       width="1.0354847"
       y="-0.03707692"
       height="1.0741538">
      <feGaussianBlur
         stdDeviation="0.50545754"
         id="feGaussianBlur3252-3" />
    </filter>
    <filter
       style="color-interpolation-filters:sRGB"
       id="filter3238-6"
       x="-0.026996003"
       width="1.053992"
       y="-0.05401599"
       height="1.108032">
      <feGaussianBlur
         stdDeviation="0.72001796"
         id="feGaussianBlur3240-1" />
    </filter>
    <filter
       height="1.0545849"
       y="-0.027292467"
       width="1.0428328"
       x="-0.021416401"
       id="filter968"
       style="color-interpolation-filters:sRGB">
      <feGaussianBlur
         id="feGaussianBlur970"
         stdDeviation="1.1805045" />
    </filter>
    <filter
       height="1.1091038"
       y="-0.054551901"
       width="1.0857063"
       x="-0.042853164"
       id="filter1041"
       style="color-interpolation-filters:sRGB">
      <feGaussianBlur
         id="feGaussianBlur1043"
         stdDeviation="1.8092071" />
    </filter>
    <filter
       height="1.0258254"
       y="-0.012912677"
       width="1.0224156"
       x="-0.011207823"
       id="filter1060"
       style="color-interpolation-filters:sRGB">
      <feGaussianBlur
         id="feGaussianBlur1062"
         stdDeviation="0.26759921" />
    </filter>
    <filter
       height="1.0461201"
       y="-0.02306005"
       width="1.0162204"
       x="-0.0081101932"
       id="filter1092"
       style="color-interpolation-filters:sRGB">
      <feGaussianBlur
         id="feGaussianBlur1094"
         stdDeviation="0.21587953" />
    </filter>
  </defs>
  <metadata
     id="metadata251">
    <rdf:RDF>
      <cc:Work
         rdf:about="">
        <dc:format>image/svg+xml</dc:format>
        <dc:type
           rdf:resource="http://purl.org/dc/dcmitype/StillImage" />
        <dc:title></dc:title>
      </cc:Work>
    </rdf:RDF>
  </metadata>
  <rect
     y="0.15858208"
     x="0.44943213"
     height="132.13309"
     width="131.68365"
     id="rect835"
     style="opacity:1;fill:#ffffff;fill-opacity:1;stroke:none;stroke-width:20.42110062;stroke-linecap:round;stroke-linejoin:bevel;stroke-miterlimit:4;stroke-dasharray:none;stroke-dashoffset:0;stroke-opacity:1;paint-order:stroke fill markers"
     inkscape:export-filename="/home/fitorec/proyectos/mx-os/recursos-graficos/propuestas_logotipo/output/logo_fondo_negro.png"
     inkscape:export-xdpi="96.443253"
     inkscape:export-ydpi="96.443253" />
  <path
     id="path45"
     d="m 61.086995,15.277649 c -4.521434,-5.57e-4 -5.540454,0.02999 -8.95978,0.268535 -2.429093,0.169467 -4.859809,0.401196 -7.275807,0.688272 A 70.521275,56.066287 0 0 0 3.1749978,67.306836 v 0.03147 A 70.521275,56.066287 0 0 0 46.667621,119.08596 c -0.813922,-1.36615 -1.574454,-2.74711 -2.280675,-4.1457 -3.328278,-6.59135 -5.226346,-12.81142 -5.893364,-19.313355 -0.145878,-1.422352 -0.203822,-4.944248 -0.104685,-6.360021 0.292252,-4.175434 1.138834,-7.84367 2.651332,-11.487847 1.903011,-4.585104 4.771131,-8.715238 8.718194,-12.553778 3.30028,-3.209524 6.726365,-5.72103 11.397396,-8.355048 2.030697,-1.145119 4.744148,-2.488489 6.814881,-3.373626 0.480976,-0.205598 0.998278,-0.426839 1.149324,-0.491574 1.300696,-0.557642 2.818806,-1.139888 4.977505,-1.909169 11.297426,-4.025991 25.747621,-6.770157 42.190241,-8.012279 0.98181,-0.07416 1.98596,-0.1522 2.23165,-0.173436 0.36071,-0.03115 0.52506,-0.01018 0.85274,0.108782 1.39067,0.504706 2.99844,1.751305 4.33284,3.359261 1.16498,1.403812 2.24506,3.406077 2.66578,4.941737 0.11121,0.405996 0.17383,0.544875 0.20348,0.452577 0.10927,-0.340057 0.40913,-2.201068 0.56215,-3.488568 0.87746,-7.382575 -0.28137,-12.918748 -3.28788,-15.706763 -0.95832,-0.888685 -3.01042,-2.076031 -5.32945,-3.083883 -0.43427,-0.188733 -0.8823,-0.383864 -0.99558,-0.433419 -0.85436,-0.37377 -3.45381,-1.329838 -4.94329,-1.818174 -7.06826,-2.317385 -16.292617,-4.147194 -24.545051,-4.869217 -1.218873,-0.106646 -1.275152,-0.12016 -1.3694,-0.32361 -0.04553,-0.09831 -0.308636,-0.508737 -0.58472,-0.911994 -1.026277,-1.498975 -2.376081,-2.460835 -4.753546,-3.387654 -2.374654,-0.925726 -7.17533,-1.816162 -11.864324,-2.200622 -2.962109,-0.242874 -3.814942,-0.270363 -8.37612,-0.270931 z m 5.876786,9.133288 c 1.344776,-0.0043 2.658448,0.01982 3.494195,0.08038 2.792213,0.202388 4.519347,0.474565 5.90712,0.930809 0.728067,0.239358 1.027315,0.38708 1.027315,0.506625 0,0.05085 -0.197754,0.244763 -0.439069,0.431027 -0.981018,0.757206 -2.149517,1.354116 -3.251203,1.660815 -0.795225,0.22137 -0.788747,0.221741 -2.4556,-0.188488 -3.151018,-0.77548 -6.538852,-1.894797 -8.821538,-2.914552 -0.424232,-0.189535 -0.490839,-0.238904 -0.377708,-0.281534 0.3472,-0.130849 2.67521,-0.217837 4.916488,-0.22509 z m 68.476749,21.584782 c -0.014,-0.03176 -0.0309,0.259688 -0.048,0.865129 -0.0108,0.375478 0.004,0.682832 0.0324,0.682799 0.0283,-3.9e-5 0.0466,-0.397243 0.0406,-0.882575 -0.005,-0.42036 -0.0142,-0.640643 -0.0251,-0.665353 z m -78.000084,17.365527 -0.477148,0.363292 c -1.510768,1.150698 -2.520477,2.018177 -3.916686,3.364733 -2.012691,1.941122 -3.423197,3.608249 -4.857592,5.741187 -4.520775,6.722346 -6.227361,14.76326 -4.993369,23.529184 0.788497,5.601328 2.671198,11.254088 5.700455,17.115468 0.832145,1.61013 1.747443,3.24484 2.413985,4.31162 0.165722,0.26522 0.500951,0.80491 0.745175,1.19901 0.395661,0.63846 0.83645,1.30949 1.310148,1.99981 a 70.521275,56.066287 0 0 0 13.77964,2.13974 c -0.287926,-0.23983 -0.563696,-0.47398 -0.806547,-0.69067 -0.581389,-0.51877 -3.166525,-3.02641 -3.606687,-3.49849 -0.962385,-1.03217 -1.594483,-1.75746 -2.789932,-3.20122 -0.765095,-0.92402 -2.164851,-2.83039 -3.068167,-4.17888 -3.785127,-5.65057 -6.466545,-11.916985 -7.656683,-17.893711 -1.445978,-7.261475 -0.841295,-14.184542 1.780946,-20.392626 1.361398,-3.223075 3.203738,-6.148384 5.690582,-9.035793 z m -4.803629,25.342916 c -0.0173,0.0046 -0.0043,0.106631 0.01092,0.263061 0.785416,7.911743 5.941262,18.405487 12.770656,25.991847 1.464666,1.62701 3.832517,3.87173 5.392944,5.11244 1.588806,1.26327 3.210087,2.34969 4.850185,3.25903 a 70.521275,56.066287 0 0 0 15.601856,-1.75626 c 1.523388,-1.17699 3.499126,-2.80338 3.499126,-2.90088 0,-0.0236 -0.115845,-0.0498 -0.257451,-0.0581 -1.528168,-0.0903 -4.64114,-0.64131 -6.825447,-1.20824 -5.020859,-1.30311 -10.010551,-3.48068 -14.853155,-6.48213 -1.674867,-1.03809 -4.091665,-2.73474 -5.490621,-3.8546 -1.771051,-1.41769 -2.589073,-2.13178 -4.180127,-3.64832 -4.502292,-4.291469 -8.11589,-9.220883 -10.059033,-13.722002 -0.318975,-0.738984 -0.43097,-1.00329 -0.459866,-0.995797 z m 10.062905,10.028173 c -0.04629,0.03336 1.907801,1.882905 2.849173,2.692885 0.490904,0.42238 1.247942,1.04656 1.68221,1.38715 0.434258,0.34058 0.851309,0.66957 0.926794,0.73069 0.07549,0.0612 0.492548,0.3673 0.926805,0.6804 8.236656,5.93874 17.648321,9.45359 27.085292,10.11507 0.566421,0.0398 1.138131,0.0814 1.270295,0.0931 0.132165,0.0116 0.51023,0.0263 0.840397,0.0318 l 0.600585,0.0109 1.080209,-0.94928 c 1.547448,-1.35926 2.741618,-2.46772 3.726608,-3.45982 l 0.85803,-0.86446 0.14071,-0.55998 c 0.0772,-0.30796 0.11489,-0.55999 0.0836,-0.55999 -0.0312,0 -0.46565,0.0732 -0.9656,0.16282 -5.068872,0.90811 -11.211425,0.83913 -17.458619,-0.19635 -7.025581,-1.16448 -14.181833,-3.55779 -19.437779,-6.50061 -1.343066,-0.752 -3.23537,-2.00539 -3.852847,-2.551947 -0.126898,-0.112323 -0.282129,-0.229122 -0.344908,-0.259639 -0.0054,-0.0026 -0.0097,-0.004 -0.01092,-0.0026 z"
     style="fill:#333333;fill-opacity:1;stroke-width:0.06761969" />
  <path
     style="fill:#000000;fill-opacity:1;stroke-width:0.06761969"
     d="m 57.440454,63.361227 -0.47715,0.36329 c -1.51077,1.1507 -2.52048,2.01818 -3.91669,3.36474 -2.01269,1.94112 -3.4232,3.60824 -4.85759,5.74118 -4.52078,6.72235 -6.22736,14.76326 -4.99337,23.5292 0.7885,5.601333 2.6712,11.254093 5.70046,17.115473 0.83214,1.61013 1.74744,3.24484 2.41398,4.31162 0.16572,0.26522 0.50095,0.80491 0.74518,1.19901 0.39566,0.63846 0.83645,1.30949 1.31014,1.99981 4.49225,1.07588 9.10834,1.79268 13.77964,2.13973 -0.28792,-0.23982 -0.56369,-0.47397 -0.80654,-0.69066 -0.58139,-0.51877 -3.16653,-3.02641 -3.60669,-3.49849 -0.96239,-1.03217 -1.59448,-1.75746 -2.78993,-3.20122 -0.7651,-0.92402 -2.16485,-2.83039 -3.06817,-4.17888 -3.78513,-5.65057 -6.46654,-11.916993 -7.65668,-17.893713 -1.44598,-7.26149 -0.8413,-14.18456 1.78094,-20.39264 1.3614,-3.22308 3.20374,-6.14839 5.69059,-9.0358 z m -4.80363,25.34292 c -0.0173,0.005 -0.004,0.10663 0.0109,0.26306 0.78541,7.91175 5.94126,18.405503 12.77065,25.991863 1.46467,1.62701 3.83252,3.87173 5.39295,5.11244 1.5888,1.26327 3.527877,3.70033 5.167977,4.60966 6.566669,-1.43709 16.428258,-1.26393 18.783183,-6.00777 0,-0.0236 -0.11584,-0.0498 -0.25745,-0.0581 -1.52817,-0.0903 -4.64114,-0.64131 -6.82544,-1.20824 -5.02086,-1.30311 -10.01056,-3.48068 -14.85316,-6.48213 -1.67487,-1.03809 -4.09166,-2.73474 -5.49062,-3.8546 -1.77105,-1.41769 -2.58907,-2.13178 -4.18013,-3.64832 -4.50229,-4.291473 -8.11589,-9.220883 -10.05903,-13.722023 -0.31898,-0.73898 -0.43097,-1.00329 -0.45987,-0.99579 z m 10.0629,10.02818 c -0.0463,0.0334 1.9078,1.882913 2.84917,2.692893 0.49091,0.42238 1.24795,1.04656 1.68221,1.38715 0.43426,0.34058 0.85131,0.66957 0.9268,0.73069 0.0755,0.0612 0.49255,0.3673 0.9268,0.6804 8.23666,5.93874 17.64832,9.45359 27.0853,10.11507 0.56642,0.0398 1.13813,0.0814 1.27029,0.0931 0.13217,0.0116 0.51023,0.0263 0.8404,0.0318 l 0.60058,0.0109 1.08021,-0.94928 c 1.547446,-1.35926 2.741616,-2.46772 3.726606,-3.45982 l 0.85803,-0.86446 0.14071,-0.55998 c 0.0772,-0.30796 0.11489,-0.55999 0.0836,-0.55999 -0.0312,0 -0.46565,0.0732 -0.9656,0.16282 -5.068866,0.90811 -11.211426,0.83913 -17.458616,-0.19635 -7.02558,-1.16448 -14.18183,-3.55779 -19.43778,-6.50061 -1.34306,-0.752 -3.23537,-2.005393 -3.85285,-2.551953 -0.12689,-0.11232 -0.28212,-0.22912 -0.3449,-0.25964 -0.005,-0.003 -0.01,-0.004 -0.0109,-0.003 z"
     id="path1045" />
  <path
     id="path859"
     d="m 55.723705,61.695683 -0.477267,0.363744 c -1.510768,1.150697 -2.520812,2.018192 -3.917021,3.364751 -2.012691,1.941125 -3.423176,3.60779 -4.857582,5.740727 -4.520774,6.722345 -6.22736,14.763475 -4.993369,23.5294 0.788487,5.601335 2.671631,11.254015 5.700888,17.115415 0.832145,1.61012 1.747151,3.245 2.413694,4.31176 0.165722,0.26523 0.501296,0.80501 0.745521,1.1991 0.39566,0.63848 0.836254,1.30945 1.309952,1.99977 4.49228,1.07586 9.10839,1.79262 13.779717,2.13964 -0.287926,-0.23983 -0.563578,-0.47395 -0.806429,-0.69063 -0.581389,-0.51877 -3.166698,-3.02657 -3.60686,-3.49866 -0.962385,-1.03215 -1.594353,-1.75728 -2.789801,-3.20103 -0.765096,-0.92402 -2.164809,-2.83046 -3.068124,-4.17896 -3.785128,-5.65056 -6.466751,-11.917111 -7.65689,-17.893843 -1.445977,-7.261471 -0.841164,-14.184248 1.781077,-20.392328 1.361397,-3.223073 3.203424,-6.148688 5.690268,-9.036091 z m -4.803931,25.343233 c -0.0173,0.0042 -0.0043,0.106485 0.01114,0.262914 0.785415,7.911738 5.941024,18.40576 12.770418,25.99211 1.464665,1.62703 3.832527,3.87174 5.392955,5.11244 1.588816,1.26327 3.210216,2.34971 4.850314,3.25905 5.379879,0.5006 14.632162,0.24114 19.101144,-4.65762 0,-0.0236 -0.116029,-0.0497 -0.257634,-0.058 -1.528168,-0.0903 -4.640999,-0.64139 -6.825306,-1.20831 -5.02086,-1.30313 -10.010671,-3.48031 -14.853275,-6.48177 -1.674867,-1.0381 -4.091805,-2.73495 -5.490761,-3.85481 -1.771052,-1.41769 -2.589192,-2.13172 -4.180247,-3.64826 C 56.936229,97.465178 53.322815,92.535856 51.379672,88.034732 51.060698,87.295747 50.948627,87.031415 50.91973,87.038914 Z M 60.9831,97.067573 c -0.04293,0.03633 1.90845,1.883237 2.849043,2.692559 0.490904,0.422378 1.247889,1.046088 1.682157,1.386668 0.434257,0.34058 0.851103,0.66962 0.926588,0.73074 0.07549,0.0612 0.492321,0.36721 0.926578,0.68032 8.236666,5.93874 17.648548,9.45391 27.085518,10.1154 0.566422,0.0397 1.138121,0.081 1.270285,0.0927 0.132165,0.0116 0.510349,0.0265 0.840516,0.032 l 0.600779,0.0109 1.079701,-0.94922 c 1.54745,-1.35925 2.742025,-2.46751 3.727025,-3.45961 l 0.85784,-0.86463 0.14082,-0.55998 c 0.0772,-0.30796 0.11456,-0.55998 0.0833,-0.55998 -0.0312,0 -0.46519,0.073 -0.96514,0.16263 -5.068876,0.90811 -11.211461,0.83924 -17.458666,-0.19623 -7.025581,-1.16449 -14.18219,-3.55792 -19.438135,-6.500749 -1.343067,-0.75199 -3.235274,-2.00505 -3.852751,-2.551616 -0.126897,-0.112315 -0.282032,-0.229145 -0.34481,-0.259661 -0.0054,-0.002 -0.0097,-0.0038 -0.01082,-0.0022 z"
     style="fill:#ff0000;fill-opacity:1;stroke-width:0.06761969" />
  <path
     inkscape:connector-curvature="0"
     d="m 59.606335,64.965903 h 5.455513 L 67.8206,75.117495 70.563855,64.965903 h 5.486509 V 88.105334 H 72.113717 V 69.568992 L 69.664936,79.689586 H 66.022761 L 63.542983,69.568992 v 18.536342 h -3.936648 z"
     style="font-style:normal;font-variant:normal;font-weight:bold;font-stretch:normal;font-size:29.70537186px;line-height:1.25;font-family:Hack;-inkscape-font-specification:'Hack Bold';letter-spacing:0px;word-spacing:0px;fill:#ff0000;fill-opacity:1;stroke:none;stroke-width:4.76117468"
     id="path34" />
  <path
     inkscape:connector-curvature="0"
     d="m 83.450425,79.054143 -5.904972,-8.307256 h 5.300526 l 2.882742,5.176536 2.898241,-5.176536 h 5.300526 l -5.842977,8.307256 6.354431,9.051191 h -5.300526 l -3.409695,-5.842977 -3.394196,5.842977 h -5.300526 z"
     style="font-style:normal;font-variant:normal;font-weight:bold;font-stretch:normal;font-size:29.70537186px;line-height:1.25;font-family:Hack;-inkscape-font-specification:'Hack Bold';letter-spacing:0px;word-spacing:0px;fill:#ff0000;fill-opacity:1;stroke:none;stroke-width:4.76117468"
     id="path36" />
  <path
     inkscape:connector-curvature="0"
     d="m 103.54386,88.554794 q -2.09233,0 -3.595702,-0.774931 -1.487858,-0.79043 -2.46427,-2.247299 -2.061316,-3.053227 -2.061316,-8.973697 0,-2.960235 0.511454,-5.192036 0.511454,-2.247299 1.549862,-3.797161 1.069404,-1.580858 2.619262,-2.293795 1.54987,-0.728435 3.44071,-0.728435 2.0303,0 3.54917,0.774931 1.51887,0.759432 2.54177,2.262798 2.04583,3.053227 2.04583,8.973698 0,5.92047 -2.04583,8.958199 -0.99191,1.472367 -2.51077,2.262797 -1.50336,0.774931 -3.58017,0.774931 z m 0,-4.107133 q 1.76684,0 2.57276,-1.875333 0.80593,-1.844334 0.80593,-6.02896 0,-4.169128 -0.80593,-6.013462 -0.80592,-1.875333 -2.57276,-1.875333 -0.91442,0 -1.53437,0.480458 -0.61996,0.464958 -1.02292,1.394875 -0.80593,1.844334 -0.80593,6.013462 0,4.184626 0.80593,6.02896 0.80594,1.875333 2.55729,1.875333 z"
     style="font-style:normal;font-variant:normal;font-weight:bold;font-stretch:normal;font-size:29.70537186px;line-height:1.25;font-family:Hack;-inkscape-font-specification:'Hack Bold';letter-spacing:0px;word-spacing:0px;fill:#ff0000;fill-opacity:1;stroke:none;stroke-width:4.76117468"
     id="path38" />
  <path
     inkscape:connector-curvature="0"
     d="m 119.68513,88.554794 q -0.92991,0 -1.81333,-0.09299 -0.88342,-0.093 -1.76684,-0.309972 -1.76685,-0.418463 -3.3477,-1.224391 v -4.727078 q 0.96091,0.68194 1.81333,1.146898 0.85242,0.464958 1.73585,0.790429 1.72034,0.635444 3.34769,0.635444 0.88342,0 1.53437,-0.185984 0.65094,-0.201481 1.11591,-0.588947 0.92991,-0.759432 0.92991,-2.138809 0,-1.053906 -0.61994,-1.828836 -0.32548,-0.402964 -0.79044,-0.697438 -0.44946,-0.309972 -1.0074,-0.526953 l -2.24731,-0.852424 Q 116.7869,77.2718 115.64,76.589862 q -1.1469,-0.697438 -1.75135,-1.410375 -1.22439,-1.425872 -1.22439,-3.890151 0,-3.161718 2.01483,-4.944058 2.03031,-1.79784 5.5175,-1.79784 0.83692,0 1.65835,0.093 0.82143,0.09299 1.54986,0.263475 0.72844,0.170486 1.53436,0.44946 0.82144,0.263477 1.62737,0.635444 v 4.463601 q -1.45688,-1.038408 -2.99124,-1.580859 -1.53436,-0.542451 -3.02223,-0.542451 -1.65835,0 -2.52628,0.666439 -0.88342,0.68194 -0.88342,1.890832 0,0.976412 0.65094,1.596357 0.30998,0.309973 0.91442,0.635443 0.61995,0.325471 1.76685,0.759432 l 1.96832,0.743934 q 2.80525,1.053906 4.10713,2.696759 1.31738,1.689349 1.31738,4.35511 0,3.425194 -2.07681,5.14554 -2.09231,1.735845 -6.10646,1.735845 z"
     style="font-style:normal;font-variant:normal;font-weight:bold;font-stretch:normal;font-size:29.70537186px;line-height:1.25;font-family:Hack;-inkscape-font-specification:'Hack Bold';letter-spacing:0px;word-spacing:0px;fill:#ff0000;fill-opacity:1;stroke:none;stroke-width:4.76117468"
     id="path40" />
</svg>
