<?xml version="1.0" encoding="UTF-8" standalone="no"?>
<!--
Propuesta logotipo proyecto MxOS - fondo color negro
Autor: Miguel Angel Marcial Martinez @fitorec
Licencia: Creative Commons CC BY-SA 4.0
-->

<svg
   xmlns:dc="http://purl.org/dc/elements/1.1/"
   xmlns:cc="http://creativecommons.org/ns#"
   xmlns:rdf="http://www.w3.org/1999/02/22-rdf-syntax-ns#"
   xmlns:svg="http://www.w3.org/2000/svg"
   xmlns="http://www.w3.org/2000/svg"
   xmlns:sodipodi="http://sodipodi.sourceforge.net/DTD/sodipodi-0.dtd"
   xmlns:inkscape="http://www.inkscape.org/namespaces/inkscape"
   id="propuesta-00"
   version="1.1"
   viewBox="0 0 132.29167 132.29167"
   height="500"
   width="500"
   sodipodi:docname="logo_fondo_negro.svg"
   inkscape:version="0.92.5 (2060ec1f9f, 2020-04-08)">
  <sodipodi:namedview
     pagecolor="#ffffff"
     bordercolor="#666666"
     borderopacity="1"
     objecttolerance="10"
     gridtolerance="10"
     guidetolerance="10"
     inkscape:pageopacity="0"
     inkscape:pageshadow="2"
     inkscape:window-width="1366"
     inkscape:window-height="697"
     id="namedview46"
     showgrid="false"
     inkscape:zoom="0.3337544"
     inkscape:cx="265.91429"
     inkscape:cy="196.98777"
     inkscape:window-x="0"
     inkscape:window-y="0"
     inkscape:window-maximized="1"
     inkscape:current-layer="propuesta-00" />
  <defs
     id="defs248">
    <filter
       style="color-interpolation-filters:sRGB"
       id="filter3238"
       x="-0.026996003"
       width="1.053992"
       y="-0.05401599"
       height="1.108032">
      <feGaussianBlur
         stdDeviation="0.72001796"
         id="feGaussianBlur3240" />
    </filter>
    <filter
       style="color-interpolation-filters:sRGB"
       id="filter3250"
       x="-0.017742332"
       width="1.0354847"
       y="-0.03707692"
       height="1.0741538">
      <feGaussianBlur
         stdDeviation="0.50545754"
         id="feGaussianBlur3252" />
    </filter>
    <filter
       style="color-interpolation-filters:sRGB"
       id="filter3190"
       x="-0.024"
       width="1.048"
       y="-0.024"
       height="1.048">
      <feGaussianBlur
         stdDeviation="1.6404166"
         id="feGaussianBlur3192" />
    </filter>
    <filter
       style="color-interpolation-filters:sRGB"
       id="filter3304"
       x="-0.061970063"
       width="1.1239401"
       y="-0.13033222"
       height="1.2606643">
      <feGaussianBlur
         stdDeviation="1.7767668"
         id="feGaussianBlur3306" />
    </filter>
    <filter
       style="color-interpolation-filters:sRGB"
       id="filter1616"
       x="-0.06943077"
       width="1.1388615"
       y="-0.13285526"
       height="1.2657105">
      <feGaussianBlur
         stdDeviation="1.8790961"
         id="feGaussianBlur1618" />
    </filter>
    <filter
       style="color-interpolation-filters:sRGB"
       id="filter2205"
       x="-0.027800612"
       width="1.0556012"
       y="-0.051059158"
       height="1.1021183">
      <feGaussianBlur
         stdDeviation="1.0586831"
         id="feGaussianBlur2207" />
    </filter>
    <filter
       style="color-interpolation-filters:sRGB"
       id="filter3304-8"
       x="-0.061970063"
       width="1.1239401"
       y="-0.13033222"
       height="1.2606643">
      <feGaussianBlur
         stdDeviation="1.7767668"
         id="feGaussianBlur3306-9" />
    </filter>
    <filter
       style="color-interpolation-filters:sRGB"
       id="filter3376"
       x="-0.11876316"
       width="1.2375263"
       y="-0.22725242"
       height="1.4545048">
      <feGaussianBlur
         stdDeviation="3.2142434"
         id="feGaussianBlur3378" />
    </filter>
    <filter
       style="color-interpolation-filters:sRGB"
       id="filter3250-7"
       x="-0.017742332"
       width="1.0354847"
       y="-0.03707692"
       height="1.0741538">
      <feGaussianBlur
         stdDeviation="0.50545754"
         id="feGaussianBlur3252-3" />
    </filter>
    <filter
       style="color-interpolation-filters:sRGB"
       id="filter3238-6"
       x="-0.026996003"
       width="1.053992"
       y="-0.05401599"
       height="1.108032">
      <feGaussianBlur
         stdDeviation="0.72001796"
         id="feGaussianBlur3240-1" />
    </filter>
    <filter
       height="1.0545849"
       y="-0.027292467"
       width="1.0428328"
       x="-0.021416401"
       id="filter968"
       style="color-interpolation-filters:sRGB">
      <feGaussianBlur
         id="feGaussianBlur970"
         stdDeviation="1.1805045" />
    </filter>
    <filter
       height="1.1091038"
       y="-0.054551901"
       width="1.0857063"
       x="-0.042853164"
       id="filter1041"
       style="color-interpolation-filters:sRGB">
      <feGaussianBlur
         id="feGaussianBlur1043"
         stdDeviation="1.8092071" />
    </filter>
    <filter
       height="1.0258254"
       y="-0.012912677"
       width="1.0224156"
       x="-0.011207823"
       id="filter1060"
       style="color-interpolation-filters:sRGB">
      <feGaussianBlur
         id="feGaussianBlur1062"
         stdDeviation="0.26759921" />
    </filter>
    <filter
       height="1.0461201"
       y="-0.02306005"
       width="1.0162204"
       x="-0.0081101932"
       id="filter1092"
       style="color-interpolation-filters:sRGB">
      <feGaussianBlur
         id="feGaussianBlur1094"
         stdDeviation="0.21587953" />
    </filter>
  </defs>
  <metadata
     id="metadata251">
    <rdf:RDF>
      <cc:Work
         rdf:about="">
        <dc:format>image/svg+xml</dc:format>
        <dc:type
           rdf:resource="http://purl.org/dc/dcmitype/StillImage" />
        <dc:title />
      </cc:Work>
    </rdf:RDF>
  </metadata>
  <rect
     y="0.15858208"
     x="0.44943213"
     height="132.13309"
     width="131.68365"
     id="rect835"
     style="opacity:1;fill:#1a1a1a;fill-opacity:1;stroke:none;stroke-width:20.42110062;stroke-linecap:round;stroke-linejoin:bevel;stroke-miterlimit:4;stroke-dasharray:none;stroke-dashoffset:0;stroke-opacity:1;paint-order:stroke fill markers"
     inkscape:export-filename="/home/fitorec/proyectos/mx-os/recursos-graficos/propuestas_logotipo/output/logo_fondo_negro.png"
     inkscape:export-xdpi="96.443253"
     inkscape:export-ydpi="96.443253" />
  <path
     id="path45"
     d="m 61.086995,15.277649 c -4.521434,-5.57e-4 -5.540454,0.02999 -8.95978,0.268535 -2.429093,0.169467 -4.859809,0.401196 -7.275807,0.688272 A 70.521275,56.066287 0 0 0 3.1749978,67.306836 v 0.03147 A 70.521275,56.066287 0 0 0 46.667621,119.08596 c -0.813922,-1.36615 -1.574454,-2.74711 -2.280675,-4.1457 -3.328278,-6.59135 -5.226346,-12.81142 -5.893364,-19.313355 -0.145878,-1.422352 -0.203822,-4.944248 -0.104685,-6.360021 0.292252,-4.175434 1.138834,-7.84367 2.651332,-11.487847 1.903011,-4.585104 4.771131,-8.715238 8.718194,-12.553778 3.30028,-3.209524 6.726365,-5.72103 11.397396,-8.355048 2.030697,-1.145119 4.744148,-2.488489 6.814881,-3.373626 0.480976,-0.205598 0.998278,-0.426839 1.149324,-0.491574 1.300696,-0.557642 2.818806,-1.139888 4.977505,-1.909169 11.297426,-4.025991 25.747621,-6.770157 42.190241,-8.012279 0.98181,-0.07416 1.98596,-0.1522 2.23165,-0.173436 0.36071,-0.03115 0.52506,-0.01018 0.85274,0.108782 1.39067,0.504706 2.99844,1.751305 4.33284,3.359261 1.16498,1.403812 2.24506,3.406077 2.66578,4.941737 0.11121,0.405996 0.17383,0.544875 0.20348,0.452577 0.10927,-0.340057 0.40913,-2.201068 0.56215,-3.488568 0.87746,-7.382575 -0.28137,-12.918748 -3.28788,-15.706763 -0.95832,-0.888685 -3.01042,-2.076031 -5.32945,-3.083883 -0.43427,-0.188733 -0.8823,-0.383864 -0.99558,-0.433419 -0.85436,-0.37377 -3.45381,-1.329838 -4.94329,-1.818174 -7.06826,-2.317385 -16.292617,-4.147194 -24.545051,-4.869217 -1.218873,-0.106646 -1.275152,-0.12016 -1.3694,-0.32361 -0.04553,-0.09831 -0.308636,-0.508737 -0.58472,-0.911994 -1.026277,-1.498975 -2.376081,-2.460835 -4.753546,-3.387654 -2.374654,-0.925726 -7.17533,-1.816162 -11.864324,-2.200622 -2.962109,-0.242874 -3.814942,-0.270363 -8.37612,-0.270931 z m 5.876786,9.133288 c 1.344776,-0.0043 2.658448,0.01982 3.494195,0.08038 2.792213,0.202388 4.519347,0.474565 5.90712,0.930809 0.728067,0.239358 1.027315,0.38708 1.027315,0.506625 0,0.05085 -0.197754,0.244763 -0.439069,0.431027 -0.981018,0.757206 -2.149517,1.354116 -3.251203,1.660815 -0.795225,0.22137 -0.788747,0.221741 -2.4556,-0.188488 -3.151018,-0.77548 -6.538852,-1.894797 -8.821538,-2.914552 -0.424232,-0.189535 -0.490839,-0.238904 -0.377708,-0.281534 0.3472,-0.130849 2.67521,-0.217837 4.916488,-0.22509 z m 68.476749,21.584782 c -0.014,-0.03176 -0.0309,0.259688 -0.048,0.865129 -0.0108,0.375478 0.004,0.682832 0.0324,0.682799 0.0283,-3.9e-5 0.0466,-0.397243 0.0406,-0.882575 -0.005,-0.42036 -0.0142,-0.640643 -0.0251,-0.665353 z m -78.000084,17.365527 -0.477148,0.363292 c -1.510768,1.150698 -2.520477,2.018177 -3.916686,3.364733 -2.012691,1.941122 -3.423197,3.608249 -4.857592,5.741187 -4.520775,6.722346 -6.227361,14.76326 -4.993369,23.529184 0.788497,5.601328 2.671198,11.254088 5.700455,17.115468 0.832145,1.61013 1.747443,3.24484 2.413985,4.31162 0.165722,0.26522 0.500951,0.80491 0.745175,1.19901 0.395661,0.63846 0.83645,1.30949 1.310148,1.99981 a 70.521275,56.066287 0 0 0 13.77964,2.13974 c -0.287926,-0.23983 -0.563696,-0.47398 -0.806547,-0.69067 -0.581389,-0.51877 -3.166525,-3.02641 -3.606687,-3.49849 -0.962385,-1.03217 -1.594483,-1.75746 -2.789932,-3.20122 -0.765095,-0.92402 -2.164851,-2.83039 -3.068167,-4.17888 -3.785127,-5.65057 -6.466545,-11.916985 -7.656683,-17.893711 -1.445978,-7.261475 -0.841295,-14.184542 1.780946,-20.392626 1.361398,-3.223075 3.203738,-6.148384 5.690582,-9.035793 z m -4.803629,25.342916 c -0.0173,0.0046 -0.0043,0.106631 0.01092,0.263061 0.785416,7.911743 5.941262,18.405487 12.770656,25.991847 1.464666,1.62701 3.832517,3.87173 5.392944,5.11244 1.588806,1.26327 3.210087,2.34969 4.850185,3.25903 a 70.521275,56.066287 0 0 0 15.601856,-1.75626 c 1.523388,-1.17699 3.499126,-2.80338 3.499126,-2.90088 0,-0.0236 -0.115845,-0.0498 -0.257451,-0.0581 -1.528168,-0.0903 -4.64114,-0.64131 -6.825447,-1.20824 -5.020859,-1.30311 -10.010551,-3.48068 -14.853155,-6.48213 -1.674867,-1.03809 -4.091665,-2.73474 -5.490621,-3.8546 -1.771051,-1.41769 -2.589073,-2.13178 -4.180127,-3.64832 -4.502292,-4.291469 -8.11589,-9.220883 -10.059033,-13.722002 -0.318975,-0.738984 -0.43097,-1.00329 -0.459866,-0.995797 z m 10.062905,10.028173 c -0.04629,0.03336 1.907801,1.882905 2.849173,2.692885 0.490904,0.42238 1.247942,1.04656 1.68221,1.38715 0.434258,0.34058 0.851309,0.66957 0.926794,0.73069 0.07549,0.0612 0.492548,0.3673 0.926805,0.6804 8.236656,5.93874 17.648321,9.45359 27.085292,10.11507 0.566421,0.0398 1.138131,0.0814 1.270295,0.0931 0.132165,0.0116 0.51023,0.0263 0.840397,0.0318 l 0.600585,0.0109 1.080209,-0.94928 c 1.547448,-1.35926 2.741618,-2.46772 3.726608,-3.45982 l 0.85803,-0.86446 0.14071,-0.55998 c 0.0772,-0.30796 0.11489,-0.55999 0.0836,-0.55999 -0.0312,0 -0.46565,0.0732 -0.9656,0.16282 -5.068872,0.90811 -11.211425,0.83913 -17.458619,-0.19635 -7.025581,-1.16448 -14.181833,-3.55779 -19.437779,-6.50061 -1.343066,-0.752 -3.23537,-2.00539 -3.852847,-2.551947 -0.126898,-0.112323 -0.282129,-0.229122 -0.344908,-0.259639 -0.0054,-0.0026 -0.0097,-0.004 -0.01092,-0.0026 z"
     style="fill:#8d8d8d;fill-opacity:1;stroke-width:0.06761969" />
  <path
     style="fill:#000000;fill-opacity:1;stroke-width:0.06761969"
     d="m 57.440454,63.361227 -0.47715,0.36329 c -1.51077,1.1507 -2.52048,2.01818 -3.91669,3.36474 -2.01269,1.94112 -3.4232,3.60824 -4.85759,5.74118 -4.52078,6.72235 -6.22736,14.76326 -4.99337,23.5292 0.7885,5.601333 2.6712,11.254093 5.70046,17.115473 0.83214,1.61013 1.74744,3.24484 2.41398,4.31162 0.16572,0.26522 0.50095,0.80491 0.74518,1.19901 0.39566,0.63846 0.83645,1.30949 1.31014,1.99981 4.49225,1.07588 9.10834,1.79268 13.77964,2.13973 -0.28792,-0.23982 -0.56369,-0.47397 -0.80654,-0.69066 -0.58139,-0.51877 -3.16653,-3.02641 -3.60669,-3.49849 -0.96239,-1.03217 -1.59448,-1.75746 -2.78993,-3.20122 -0.7651,-0.92402 -2.16485,-2.83039 -3.06817,-4.17888 -3.78513,-5.65057 -6.46654,-11.916993 -7.65668,-17.893713 -1.44598,-7.26149 -0.8413,-14.18456 1.78094,-20.39264 1.3614,-3.22308 3.20374,-6.14839 5.69059,-9.0358 z m -4.80363,25.34292 c -0.0173,0.005 -0.004,0.10663 0.0109,0.26306 0.78541,7.91175 5.94126,18.405503 12.77065,25.991863 1.46467,1.62701 3.83252,3.87173 5.39295,5.11244 1.5888,1.26327 3.527877,3.70033 5.167977,4.60966 6.566669,-1.43709 16.428258,-1.26393 18.783183,-6.00777 0,-0.0236 -0.11584,-0.0498 -0.25745,-0.0581 -1.52817,-0.0903 -4.64114,-0.64131 -6.82544,-1.20824 -5.02086,-1.30311 -10.01056,-3.48068 -14.85316,-6.48213 -1.67487,-1.03809 -4.09166,-2.73474 -5.49062,-3.8546 -1.77105,-1.41769 -2.58907,-2.13178 -4.18013,-3.64832 -4.50229,-4.291473 -8.11589,-9.220883 -10.05903,-13.722023 -0.31898,-0.73898 -0.43097,-1.00329 -0.45987,-0.99579 z m 10.0629,10.02818 c -0.0463,0.0334 1.9078,1.882913 2.84917,2.692893 0.49091,0.42238 1.24795,1.04656 1.68221,1.38715 0.43426,0.34058 0.85131,0.66957 0.9268,0.73069 0.0755,0.0612 0.49255,0.3673 0.9268,0.6804 8.23666,5.93874 17.64832,9.45359 27.0853,10.11507 0.56642,0.0398 1.13813,0.0814 1.27029,0.0931 0.13217,0.0116 0.51023,0.0263 0.8404,0.0318 l 0.60058,0.0109 1.08021,-0.94928 c 1.547446,-1.35926 2.741616,-2.46772 3.726606,-3.45982 l 0.85803,-0.86446 0.14071,-0.55998 c 0.0772,-0.30796 0.11489,-0.55999 0.0836,-0.55999 -0.0312,0 -0.46565,0.0732 -0.9656,0.16282 -5.068866,0.90811 -11.211426,0.83913 -17.458616,-0.19635 -7.02558,-1.16448 -14.18183,-3.55779 -19.43778,-6.50061 -1.34306,-0.752 -3.23537,-2.005393 -3.85285,-2.551953 -0.12689,-0.11232 -0.28212,-0.22912 -0.3449,-0.25964 -0.005,-0.003 -0.01,-0.004 -0.0109,-0.003 z"
     id="path1045" />
  <path
     id="path859"
     d="m 55.723705,61.695683 -0.477267,0.363744 c -1.510768,1.150697 -2.520812,2.018192 -3.917021,3.364751 -2.012691,1.941125 -3.423176,3.60779 -4.857582,5.740727 -4.520774,6.722345 -6.22736,14.763475 -4.993369,23.5294 0.788487,5.601335 2.671631,11.254015 5.700888,17.115415 0.832145,1.61012 1.747151,3.245 2.413694,4.31176 0.165722,0.26523 0.501296,0.80501 0.745521,1.1991 0.39566,0.63848 0.836254,1.30945 1.309952,1.99977 4.49228,1.07586 9.10839,1.79262 13.779717,2.13964 -0.287926,-0.23983 -0.563578,-0.47395 -0.806429,-0.69063 -0.581389,-0.51877 -3.166698,-3.02657 -3.60686,-3.49866 -0.962385,-1.03215 -1.594353,-1.75728 -2.789801,-3.20103 -0.765096,-0.92402 -2.164809,-2.83046 -3.068124,-4.17896 -3.785128,-5.65056 -6.466751,-11.917111 -7.65689,-17.893843 -1.445977,-7.261471 -0.841164,-14.184248 1.781077,-20.392328 1.361397,-3.223073 3.203424,-6.148688 5.690268,-9.036091 z m -4.803931,25.343233 c -0.0173,0.0042 -0.0043,0.106485 0.01114,0.262914 0.785415,7.911738 5.941024,18.40576 12.770418,25.99211 1.464665,1.62703 3.832527,3.87174 5.392955,5.11244 1.588816,1.26327 3.210216,2.34971 4.850314,3.25905 5.379879,0.5006 14.632162,0.24114 19.101144,-4.65762 0,-0.0236 -0.116029,-0.0497 -0.257634,-0.058 -1.528168,-0.0903 -4.640999,-0.64139 -6.825306,-1.20831 -5.02086,-1.30313 -10.010671,-3.48031 -14.853275,-6.48177 -1.674867,-1.0381 -4.091805,-2.73495 -5.490761,-3.85481 -1.771052,-1.41769 -2.589192,-2.13172 -4.180247,-3.64826 C 56.936229,97.465178 53.322815,92.535856 51.379672,88.034732 51.060698,87.295747 50.948627,87.031415 50.91973,87.038914 Z M 60.9831,97.067573 c -0.04293,0.03633 1.90845,1.883237 2.849043,2.692559 0.490904,0.422378 1.247889,1.046088 1.682157,1.386668 0.434257,0.34058 0.851103,0.66962 0.926588,0.73074 0.07549,0.0612 0.492321,0.36721 0.926578,0.68032 8.236666,5.93874 17.648548,9.45391 27.085518,10.1154 0.566422,0.0397 1.138121,0.081 1.270285,0.0927 0.132165,0.0116 0.510349,0.0265 0.840516,0.032 l 0.600779,0.0109 1.079701,-0.94922 c 1.54745,-1.35925 2.742025,-2.46751 3.727025,-3.45961 l 0.85784,-0.86463 0.14082,-0.55998 c 0.0772,-0.30796 0.11456,-0.55998 0.0833,-0.55998 -0.0312,0 -0.46519,0.073 -0.96514,0.16263 -5.068876,0.90811 -11.211461,0.83924 -17.458666,-0.19623 -7.025581,-1.16449 -14.18219,-3.55792 -19.438135,-6.500749 -1.343067,-0.75199 -3.235274,-2.00505 -3.852751,-2.551616 -0.126897,-0.112315 -0.282032,-0.229145 -0.34481,-0.259661 -0.0054,-0.002 -0.0097,-0.0038 -0.01082,-0.0022 z"
     style="fill:#4cb996;fill-opacity:1;stroke-width:0.06761969" />
  <path
     id="path1047"
     d="m 49.19935,71.678425 c -0.18948,0.330523 -0.3595,0.649637 -0.48214,0.939993 -7.86114,14.582278 0.87351,35.941672 13.45758,48.428572 a 70.521276,56.066287 0 0 0 3.21893,0.36846 c -0.28792,-0.23983 -0.56383,-0.47424 -0.80669,-0.69092 -0.58137,-0.51877 -3.16685,-3.0264 -3.60701,-3.49849 -0.96237,-1.03215 -1.59404,-1.75709 -2.78948,-3.20084 -0.7651,-0.92402 -2.16472,-2.83057 -3.06804,-4.17907 -3.78513,-5.65056 -6.46675,-11.917275 -7.6569,-17.894007 -1.43686,-7.215671 -0.84666,-14.095828 1.73375,-20.273698 z m 1.68568,15.315862 c -0.0108,0.0026 -0.008,0.05298 -0.002,0.121438 0.17396,0.680024 0.36547,1.574313 0.52865,1.952337 1.94314,4.501123 4.9607,9.410525 9.46299,13.702008 1.59104,1.51654 2.40905,2.23067 4.1801,3.64836 1.39895,1.11986 3.81627,2.81696 5.49113,3.85506 4.84262,3.00146 9.832,5.17865 14.85286,6.48178 2.05381,0.53305 4.91199,1.04666 6.51846,1.18184 0.63133,-0.52422 1.09398,-0.92781 1.09398,-0.9741 0,-0.0236 -0.11626,-0.0496 -0.25787,-0.0579 -1.52815,-0.0903 -4.64111,-0.64128 -6.8254,-1.2082 -5.02087,-1.30312 -10.01025,-3.48031 -14.85286,-6.48177 -1.67487,-1.0381 -4.09218,-2.7352 -5.49114,-3.85506 -1.77104,-1.41769 -2.58905,-2.13182 -4.1801,-3.64836 C 56.90154,97.420242 53.28815,92.491195 51.34501,87.990071 51.02604,87.251087 50.91398,86.986768 50.88509,86.994267 Z M 60.9485,97.023133 c -0.003,0.0022 0.0234,0.02971 0.0346,0.04444 1.30611,0.957178 3.33211,2.826695 4.13824,3.258717 5.25595,2.94283 11.91847,5.90485 18.94406,7.06934 6.24721,1.03547 12.38999,1.10396 17.45888,0.19586 0.49995,-0.0896 0.93361,-0.16227 0.9648,-0.16227 0.0259,0 -0.003,0.18994 -0.0548,0.42478 l 0.36018,-0.36328 0.14057,-0.56018 c 0.0772,-0.30795 0.11446,-0.55965 0.0832,-0.55965 -0.0312,0 -0.46485,0.0726 -0.96481,0.16226 -5.06888,0.90811 -11.21166,0.83962 -17.45887,-0.19585 -7.02559,-1.16449 -14.18215,-3.55808 -19.43809,-6.500905 -1.34308,-0.75199 -3.23501,-2.005216 -3.8525,-2.551782 -0.12686,-0.112315 -0.28241,-0.228901 -0.34517,-0.259416 -0.005,-0.0019 -0.009,-0.0033 -0.0103,-0.0021 z"
     style="fill:#7bd5b8;fill-opacity:1;stroke-width:0.06761969;filter:url(#filter1060)" />
  <g
     transform="matrix(1.0685327,0,0,1.0685327,-8.2356702,-6.1068417)"
     id="g1178">
    <path
       id="path34"
       style="font-style:normal;font-variant:normal;font-weight:bold;font-stretch:normal;font-size:29.70537186px;line-height:1.25;font-family:Hack;-inkscape-font-specification:'Hack Bold';letter-spacing:0px;word-spacing:0px;fill:#4cb996;fill-opacity:1;stroke:none;stroke-width:4.45580626"
       d="m 63.490809,66.514338 h 5.105611 l 2.581814,9.500497 2.56731,-9.500497 h 5.13462 V 88.16967 H 75.196002 V 70.822197 l -2.291723,9.471488 H 69.495703 L 67.174971,70.822197 V 88.16967 h -3.684162 z" />
    <path
       id="path36"
       style="font-style:normal;font-variant:normal;font-weight:bold;font-stretch:normal;font-size:29.70537186px;line-height:1.25;font-family:Hack;-inkscape-font-specification:'Hack Bold';letter-spacing:0px;word-spacing:0px;fill:#4cb996;fill-opacity:1;stroke:none;stroke-width:4.45580626"
       d="m 85.805605,79.698997 -5.526243,-7.774452 h 4.960565 l 2.697851,4.844528 2.712356,-4.844528 h 4.960565 l -5.468225,7.774452 5.946876,8.470673 h -4.960565 l -3.191007,-5.468225 -3.176502,5.468225 h -4.960565 z" />
    <path
       id="path38"
       style="font-style:normal;font-variant:normal;font-weight:bold;font-stretch:normal;font-size:29.70537186px;line-height:1.25;font-family:Hack;-inkscape-font-specification:'Hack Bold';letter-spacing:0px;word-spacing:0px;fill:#4cb996;fill-opacity:1;stroke:none;stroke-width:4.45580626"
       d="m 104.6103,88.590303 q -1.95813,0 -3.36508,-0.725229 -1.392431,-0.739734 -2.306219,-2.103164 -1.929109,-2.857401 -1.929109,-8.398149 0,-2.770374 0.478651,-4.859033 0.478651,-2.103164 1.450458,-3.553622 1.000816,-1.479466 2.451269,-2.146677 1.45047,-0.681715 3.22003,-0.681715 1.90009,0 3.32154,0.725229 1.42145,0.710724 2.37875,2.117668 1.91461,2.857402 1.91461,8.39815 0,5.540748 -1.91461,8.383645 -0.92829,1.377934 -2.34974,2.117668 -1.40694,0.725229 -3.35055,0.725229 z m 0,-3.843713 q 1.65352,0 2.40775,-1.755054 0.75424,-1.726044 0.75424,-5.64228 0,-3.901731 -0.75424,-5.627775 -0.75423,-1.755054 -2.40775,-1.755054 -0.85577,0 -1.43596,0.449642 -0.58019,0.435137 -0.95731,1.305412 -0.75424,1.726044 -0.75424,5.627775 0,3.916236 0.75424,5.64228 0.75425,1.755054 2.39327,1.755054 z" />
    <path
       id="path40"
       style="font-style:normal;font-variant:normal;font-weight:bold;font-stretch:normal;font-size:29.70537186px;line-height:1.25;font-family:Hack;-inkscape-font-specification:'Hack Bold';letter-spacing:0px;word-spacing:0px;fill:#4cb996;fill-opacity:1;stroke:none;stroke-width:4.45580626"
       d="m 119.71632,88.590303 q -0.87027,0 -1.69703,-0.08703 -0.82676,-0.08703 -1.65352,-0.290091 -1.65353,-0.391624 -3.13299,-1.145862 v -4.423896 q 0.89928,0.638202 1.69703,1.073339 0.79775,0.435137 1.62452,0.739733 1.61,0.594688 3.13298,0.594688 0.82676,0 1.43596,-0.174055 0.60919,-0.188559 1.04433,-0.551174 0.87027,-0.710724 0.87027,-2.001631 0,-0.986312 -0.58018,-1.71154 -0.3046,-0.377119 -0.73974,-0.652706 -0.42063,-0.290092 -0.94279,-0.493156 l -2.10317,-0.797752 q -1.66802,-0.638201 -2.74136,-1.276402 -1.07334,-0.652706 -1.63902,-1.319917 -1.14586,-1.334421 -1.14586,-3.640648 0,-2.958934 1.8856,-4.62696 1.90009,-1.682531 5.16362,-1.682531 0.78325,0 1.55199,0.08703 0.76875,0.08703 1.45046,0.246577 0.68172,0.159551 1.43595,0.420633 0.76875,0.246578 1.52299,0.594688 v 4.177318 q -1.36344,-0.971807 -2.79939,-1.479467 -1.43595,-0.50766 -2.82839,-0.50766 -1.55199,0 -2.36425,0.623696 -0.82676,0.638202 -0.82676,1.769559 0,0.913788 0.60919,1.493971 0.2901,0.290092 0.85577,0.594688 0.58019,0.304596 1.65353,0.710724 l 1.84208,0.69622 q 2.62533,0.986311 3.84371,2.523796 1.23289,1.580999 1.23289,4.075786 0,3.205511 -1.94361,4.815519 -1.95812,1.624513 -5.71481,1.624513 z" />
    <path
       style="font-style:normal;font-variant:normal;font-weight:bold;font-stretch:normal;font-size:29.70537186px;line-height:1.25;font-family:Hack;-inkscape-font-specification:'Hack Bold';letter-spacing:0px;word-spacing:0px;fill:#2b9a76;fill-opacity:1;stroke:none;stroke-width:4.45580626;filter:url(#filter1092)"
       d="m 104.61019,66.122424 c -1.17971,0 -2.25297,0.22765 -3.21996,0.682127 -0.96697,0.444807 -1.783799,1.160328 -2.451009,2.146639 -0.64787,0.966973 -1.131447,2.151163 -1.450558,3.553272 -0.319101,1.392439 -0.478523,3.012226 -0.478523,4.859134 0,3.116083 0.459047,5.593096 1.374591,7.435723 9.8e-4,0.002 0.002,0.0037 0.003,0.0057 0.0772,0.155059 0.15716,0.306639 0.24082,0.452686 0.0412,0.07272 0.0853,0.141417 0.12815,0.211873 0.0279,0.04542 0.0547,0.09245 0.0832,0.136943 -0.005,-0.0086 -0.009,-0.01776 -0.0139,-0.02635 0.038,0.06019 0.0738,0.123568 0.11317,0.181901 0.60919,0.90895 1.378029,1.609556 2.306319,2.102715 0.93797,0.483489 2.05923,0.725535 3.36465,0.725535 1.29573,0 2.41274,-0.242046 3.3507,-0.725535 0.94764,-0.493159 1.73087,-1.198565 2.34973,-2.117185 1.27641,-1.895269 1.91461,-4.690153 1.91461,-8.383985 0,-3.39671 -0.54316,-6.0325 -1.62264,-7.916312 0.0108,0.01738 0.0216,0.03457 0.0326,0.05168 -0.1036,-0.183939 -0.21079,-0.363559 -0.32453,-0.5333 -0.6382,-0.937964 -1.43103,-1.643885 -2.37867,-2.117701 -0.94763,-0.483484 -2.05504,-0.725535 -3.32176,-0.725535 z m 15.5851,0 c -2.17569,0 -3.89731,0.560895 -5.16403,1.682583 -1.25706,1.112018 -1.88567,2.654488 -1.88567,4.627108 0,1.077822 0.192,1.993138 0.56792,2.752288 0.0229,0.04651 0.045,0.09364 0.0692,0.13901 0.0237,0.0439 0.0489,0.0864 0.0739,0.12919 0.0417,0.07209 0.0848,0.142944 0.13022,0.211873 0.007,0.01078 0.0134,0.02237 0.0207,0.03307 -0.002,-0.0034 -0.003,-0.007 -0.005,-0.01033 0.0897,0.134189 0.18495,0.263879 0.28939,0.385506 0.37712,0.444799 0.92362,0.884684 1.63918,1.319815 0.71556,0.425469 1.62891,0.850937 2.74092,1.276409 l 2.10323,0.797882 c 0.34811,0.135372 0.66268,0.299593 0.94309,0.492993 0.2901,0.183722 0.53643,0.401265 0.73949,0.652675 0.006,0.008 0.0114,0.01629 0.0176,0.02429 -0.0964,-0.26534 -0.23337,-0.512511 -0.41496,-0.739489 -0.20306,-0.251412 -0.44939,-0.468955 -0.73949,-0.652674 -0.28041,-0.1934 -0.59498,-0.357614 -0.94309,-0.492993 l -2.10324,-0.797885 c -1.11202,-0.425469 -2.02535,-0.850938 -2.74091,-1.276409 -0.71556,-0.435128 -1.26206,-0.875006 -1.63918,-1.319816 -0.0358,-0.04169 -0.0667,-0.08755 -0.10077,-0.130741 -0.27096,-0.685046 -0.40928,-1.482391 -0.40928,-2.39727 0,-1.972625 0.62862,-3.515088 1.88568,-4.627108 1.26673,-1.121688 2.98833,-1.682583 5.16402,-1.682583 0.52217,0 1.03936,0.02931 1.55185,0.08733 0.5125,0.05802 0.99608,0.140132 1.45055,0.246497 0.45448,0.106365 0.93275,0.246589 1.43558,0.420645 0.29777,0.09551 0.59288,0.208695 0.88728,0.328663 v 3.330546 c -0.90896,-0.647872 -1.84253,-1.141058 -2.79983,-1.479497 -0.9573,-0.338437 -1.89995,-0.507463 -2.82825,-0.507463 -1.03466,0 -1.8227,0.207936 -2.3642,0.623737 -0.55118,0.425465 -0.82682,1.015161 -0.82682,1.769401 0,0.543652 0.16281,0.998241 0.48627,1.364773 -0.0594,-0.2004 -0.0894,-0.41666 -0.0894,-0.649573 0,-0.754237 0.27616,-1.343932 0.82734,-1.769401 0.54149,-0.415798 1.32902,-0.623734 2.36368,-0.623734 0.9283,0 1.87096,0.169024 2.82825,0.507463 0.9573,0.338439 1.89087,0.831622 2.79983,1.479494 v -3.881416 c 1.5e-4,6.6e-5 3.7e-4,-6.4e-5 5.2e-4,0 v -0.29559 c -1.4e-4,-6.6e-5 -3.7e-4,6.9e-5 -5.2e-4,0 -0.0423,-0.01953 -0.0851,-0.03605 -0.12764,-0.05426 -0.0898,-0.03844 -0.1794,-0.07715 -0.26923,-0.115239 v 5.16e-4 c -0.37303,-0.158189 -0.74785,-0.304512 -1.12603,-0.425813 -0.50282,-0.174056 -0.98109,-0.314283 -1.43557,-0.420648 -0.45447,-0.10636 -0.93806,-0.188476 -1.45056,-0.246496 -0.51249,-0.05802 -1.02967,-0.08733 -1.55184,-0.08733 z m -56.704552,0.391705 v 20.940327 0.7152 h 0.238745 3.445785 V 71.728799 l -0.397391,-1.622123 v 17.34778 H 63.729483 V 66.911522 h 4.771802 l 2.279447,8.388118 0.101288,-0.374653 -2.177646,-8.013465 -0.108005,-0.397393 H 68.39328 Z m 10.254671,0 -2.502172,9.259385 0.173632,0.63872 2.567284,-9.500712 h 4.498436 V 87.454456 H 75.434713 V 71.21927 l -0.238747,0.986502 v 15.248684 0.7152 h 0.238747 3.445267 V 66.911522 66.514129 h -0.397391 z m 31.103531,0.0057 c 1.26672,0 2.37413,0.242054 3.32176,0.725538 0.92607,0.463031 1.70315,1.149392 2.33371,2.055688 0.8802,1.833644 1.32343,4.280061 1.32343,7.347355 0,3.693829 -0.6382,6.488713 -1.91461,8.383984 -0.61886,0.91862 -1.40209,1.624023 -2.34973,2.117183 -0.93796,0.483492 -2.05497,0.725538 -3.3507,0.725538 -1.30542,0 -2.42668,-0.242046 -3.36465,-0.725538 -0.912529,-0.484788 -1.670099,-1.171189 -2.274279,-2.057755 -0.881725,-1.831649 -1.324987,-4.272714 -1.324987,-7.330818 0,-1.846921 0.159425,-3.466695 0.478526,-4.859137 0.319109,-1.402109 0.802691,-2.586299 1.450561,-3.553269 0.66721,-0.986311 1.484039,-1.701835 2.451009,-2.146642 0.96699,-0.454474 2.04025,-0.682127 3.21996,-0.682127 z m -0.63614,2.731098 c -0.57052,0 -1.04878,0.150344 -1.43557,0.450104 -0.38679,0.290089 -0.70616,0.725162 -0.95757,1.305345 -0.50283,1.150695 -0.75396,3.026413 -0.75396,5.627564 0,2.610829 0.25113,4.49185 0.75396,5.642549 0.11726,0.27287 0.25116,0.512702 0.4005,0.721921 -0.001,-0.002 -0.002,-0.0037 -0.003,-0.0067 -0.50283,-1.150691 -0.75396,-3.03172 -0.75396,-5.642549 0,-2.601151 0.25113,-4.476875 0.75396,-5.627566 0.25141,-0.580184 0.57077,-1.015254 0.95756,-1.305346 0.38679,-0.299757 0.86505,-0.450101 1.43557,-0.450101 0.84715,0 1.51652,0.347065 2.0097,1.03818 -0.50288,-1.168564 -1.30544,-1.753383 -2.40709,-1.753383 z m -29.414225,0.855763 -2.29185,9.471774 H 69.46195 l -2.047938,-8.35918 v 0.577226 l 1.906344,7.781954 0.175183,0.7152 h 0.141595 3.266982 l 1.894459,-7.829494 z m 32.067805,1.305864 c 0.0525,0.09953 0.10472,0.199186 0.15193,0.309023 0.50282,1.150699 0.75396,3.026405 0.75396,5.627566 0,2.610818 -0.25114,4.49185 -0.75396,5.642549 -0.50282,1.17003 -1.30578,1.754931 -2.40812,1.754931 -0.84314,0 -1.50953,-0.349848 -2.00143,-1.046448 0.50576,0.95921 1.25082,1.443839 2.24018,1.443839 1.10234,0 1.9053,-0.584901 2.40812,-1.754931 0.50282,-1.150699 0.75396,-3.031728 0.75396,-5.642549 0,-2.601161 -0.25114,-4.476864 -0.75396,-5.627563 -0.11441,-0.266237 -0.24519,-0.500727 -0.39068,-0.706417 z m -26.587003,0.512112 0.28267,0.397393 4.790922,6.739639 0.0553,-0.07803 -4.735113,-6.661608 h 4.787823 l -0.22118,-0.397408 h -4.849316 z m 10.370944,0 -2.703711,4.828646 0.22996,0.412895 2.712496,-4.844148 h 3.541387 l -4.685504,6.661608 0.449585,0.640789 5.136637,-7.302397 0.279572,-0.397393 h -0.900721 z m 27.098599,1.401982 c 0.10118,0.23078 0.24588,0.437912 0.43667,0.619601 0.1934,0.1934 0.47865,0.391734 0.85576,0.594797 0.38679,0.20306 0.93809,0.439798 1.65365,0.710549 l 1.84175,0.696598 c 1.75022,0.657539 3.03143,1.498877 3.84369,2.523879 0.0191,0.02447 0.0354,0.05099 0.0537,0.07596 0.35777,0.831382 0.54312,1.790616 0.54312,2.887163 0,2.137008 -0.6478,3.74187 -1.94355,4.815207 -1.30541,1.083011 -3.21043,1.624709 -5.7149,1.624709 -0.58017,0 -1.14587,-0.02934 -1.69705,-0.08733 -0.55117,-0.058 -1.10196,-0.154524 -1.65313,-0.289904 -0.86988,-0.206026 -1.69973,-0.49581 -2.497,-0.853178 v -3.603927 c 0.59952,0.425468 1.16522,0.783227 1.69705,1.073319 0.53184,0.290089 1.07301,0.536419 1.62419,0.739489 1.07333,0.396449 2.11782,0.594794 3.13314,0.594794 0.55118,0 1.02995,-0.0581 1.43609,-0.174149 0.40612,-0.1257 0.75428,-0.309131 1.04438,-0.55087 0.58018,-0.473811 0.87023,-1.141344 0.87023,-2.001946 0,-0.611809 -0.17,-1.147051 -0.50487,-1.608169 0.17607,0.364371 0.26613,0.767188 0.26613,1.210778 0,0.8606 -0.29005,1.528135 -0.87023,2.001946 -0.2901,0.241739 -0.63826,0.42517 -1.04438,0.55087 -0.40614,0.116039 -0.88491,0.174149 -1.43609,0.174149 -1.01532,0 -2.05981,-0.198345 -3.13314,-0.594796 -0.55118,-0.203068 -1.09236,-0.44939 -1.6242,-0.73949 -0.53183,-0.290078 -1.09753,-0.647858 -1.69705,-1.073319 v 3.896402 0.527617 c 0.0784,0.04 0.15962,0.07421 0.23875,0.112657 0.91638,0.445108 1.8797,0.792683 2.89439,1.03301 0.55117,0.135371 1.10196,0.231886 1.65313,0.289906 0.55118,0.058 1.11688,0.08733 1.69706,0.08733 2.50446,0 4.40948,-0.541694 5.71489,-1.624705 1.29576,-1.073341 1.94355,-2.6782 1.94355,-4.815211 0,-1.307097 -0.257,-2.423925 -0.76532,-3.354316 -8e-5,-1.19e-4 8e-5,-3.99e-4 0,-5.19e-4 -0.014,-0.02566 -0.0306,-0.04955 -0.045,-0.07493 -0.0613,-0.108788 -0.12492,-0.215939 -0.19276,-0.319876 -0.0728,-0.111595 -0.14815,-0.22117 -0.22996,-0.32608 -0.81226,-1.024988 -2.09347,-1.866336 -3.84369,-2.523876 l -1.84175,-0.696598 c -0.71556,-0.270751 -1.26685,-0.507492 -1.65364,-0.710552 -0.37711,-0.20307 -0.66236,-0.401394 -0.85576,-0.594794 -0.0735,-0.07 -0.13775,-0.14496 -0.19793,-0.22221 z m -31.964969,6.403226 -5.47615,7.724596 -0.506947,0.7152 h 0.520383 4.440039 l 3.17655,-5.4684 0.235128,0.403076 -5.19e-4,5.16e-4 2.955893,5.065324 h 0.0067 l -5.16e-4,-5.16e-4 h 4.913911 0.04031 5.16e-4 l -0.502296,-0.7152 h -5.16e-4 l -5.185214,-7.38663 -0.02067,0.02842 5.165574,7.358209 h -4.814692 l -3.19102,-5.468401 -3.176551,5.468401 h -3.535683 l 5.216221,-7.358209 z"
       id="path1077" />
  </g>
</svg>
