<?xml version="1.0" encoding="UTF-8" standalone="no"?>
<!--
Propuesta logotipo proyecto MxOS - fondo colores blancos
Autor: Miguel Angel Marcial Martinez @fitorec
Licencia: Creative Commons CC BY-SA 4.0
-->

<svg
   xmlns:dc="http://purl.org/dc/elements/1.1/"
   xmlns:cc="http://creativecommons.org/ns#"
   xmlns:rdf="http://www.w3.org/1999/02/22-rdf-syntax-ns#"
   xmlns:svg="http://www.w3.org/2000/svg"
   xmlns="http://www.w3.org/2000/svg"
   xmlns:sodipodi="http://sodipodi.sourceforge.net/DTD/sodipodi-0.dtd"
   xmlns:inkscape="http://www.inkscape.org/namespaces/inkscape"
   id="propuesta-00"
   version="1.1"
   viewBox="0 0 343.95834 104.51042"
   height="395"
   width="1300"
   sodipodi:docname="logo_horizontal.svg"
   inkscape:version="0.92.5 (2060ec1f9f, 2020-04-08)">
  <sodipodi:namedview
     pagecolor="#ffffff"
     bordercolor="#666666"
     borderopacity="1"
     objecttolerance="10"
     gridtolerance="10"
     guidetolerance="10"
     inkscape:pageopacity="0"
     inkscape:pageshadow="2"
     inkscape:window-width="1366"
     inkscape:window-height="697"
     id="namedview33"
     showgrid="false"
     showguides="false"
     inkscape:zoom="0.472"
     inkscape:cx="338.82622"
     inkscape:cy="159.06567"
     inkscape:window-x="0"
     inkscape:window-y="0"
     inkscape:window-maximized="1"
     inkscape:current-layer="propuesta-00" />
  <defs
     id="defs248">
    <filter
       style="color-interpolation-filters:sRGB"
       id="filter3238"
       x="-0.026996003"
       width="1.053992"
       y="-0.05401599"
       height="1.108032">
      <feGaussianBlur
         stdDeviation="0.72001796"
         id="feGaussianBlur3240" />
    </filter>
    <filter
       style="color-interpolation-filters:sRGB"
       id="filter3250"
       x="-0.017742332"
       width="1.0354847"
       y="-0.03707692"
       height="1.0741538">
      <feGaussianBlur
         stdDeviation="0.50545754"
         id="feGaussianBlur3252" />
    </filter>
    <filter
       style="color-interpolation-filters:sRGB"
       id="filter3190"
       x="-0.024"
       width="1.048"
       y="-0.024"
       height="1.048">
      <feGaussianBlur
         stdDeviation="1.6404166"
         id="feGaussianBlur3192" />
    </filter>
    <filter
       style="color-interpolation-filters:sRGB"
       id="filter3304"
       x="-0.061970063"
       width="1.1239401"
       y="-0.13033222"
       height="1.2606643">
      <feGaussianBlur
         stdDeviation="1.7767668"
         id="feGaussianBlur3306" />
    </filter>
    <filter
       style="color-interpolation-filters:sRGB"
       id="filter1616"
       x="-0.069430768"
       width="1.1388615"
       y="-0.13285527"
       height="1.2657105">
      <feGaussianBlur
         stdDeviation="1.8790961"
         id="feGaussianBlur1618" />
    </filter>
    <filter
       style="color-interpolation-filters:sRGB"
       id="filter2205"
       x="-0.027800612"
       width="1.0556012"
       y="-0.051059157"
       height="1.1021183">
      <feGaussianBlur
         stdDeviation="1.0586831"
         id="feGaussianBlur2207" />
    </filter>
    <filter
       style="color-interpolation-filters:sRGB"
       id="filter3304-8"
       x="-0.061970063"
       width="1.1239401"
       y="-0.13033222"
       height="1.2606643">
      <feGaussianBlur
         stdDeviation="1.7767668"
         id="feGaussianBlur3306-9" />
    </filter>
    <filter
       style="color-interpolation-filters:sRGB"
       id="filter3376"
       x="-0.11876316"
       width="1.2375263"
       y="-0.22725242"
       height="1.4545048">
      <feGaussianBlur
         stdDeviation="3.2142434"
         id="feGaussianBlur3378" />
    </filter>
    <filter
       style="color-interpolation-filters:sRGB"
       id="filter3250-7"
       x="-0.017742332"
       width="1.0354847"
       y="-0.03707692"
       height="1.0741538">
      <feGaussianBlur
         stdDeviation="0.50545754"
         id="feGaussianBlur3252-3" />
    </filter>
    <filter
       style="color-interpolation-filters:sRGB"
       id="filter3238-6"
       x="-0.026996003"
       width="1.053992"
       y="-0.05401599"
       height="1.108032">
      <feGaussianBlur
         stdDeviation="0.72001796"
         id="feGaussianBlur3240-1" />
    </filter>
  </defs>
  <metadata
     id="metadata251">
    <rdf:RDF>
      <cc:Work
         rdf:about="">
        <dc:format>image/svg+xml</dc:format>
        <dc:type
           rdf:resource="http://purl.org/dc/dcmitype/StillImage" />
        <dc:title />
      </cc:Work>
    </rdf:RDF>
  </metadata>
  <rect
     y="-2.5239867e-06"
     x="-1.4916992e-07"
     height="104.51042"
     width="343.95834"
     id="rect835"
     style="opacity:1;fill:#ffffff;fill-opacity:1;stroke:none;stroke-width:29.3521595;stroke-linecap:round;stroke-linejoin:bevel;stroke-miterlimit:4;stroke-dasharray:none;stroke-dashoffset:0;stroke-opacity:1;paint-order:stroke fill markers" />
  <g
     id="g851"
     transform="matrix(0.49464981,0,0,0.49464981,88.215759,-7.976314)">
    <path
       id="path34"
       style="font-style:normal;font-variant:normal;font-weight:bold;font-stretch:normal;font-size:29.70537186px;line-height:1.25;font-family:Hack;-inkscape-font-specification:'Hack Bold';letter-spacing:0px;word-spacing:0px;fill:#389476;fill-opacity:1;stroke:none;stroke-width:11.45955944"
       d="m 146.64173,50.905116 h 13.13074 l 6.63998,24.433627 6.60267,-24.433627 h 13.20535 v 55.693754 h -9.47502 V 61.984181 l -5.89392,24.359021 h -8.76626 l -5.96852,-24.359021 v 44.614689 h -9.47502 z"
       inkscape:connector-curvature="0" />
    <path
       id="path36"
       style="font-style:normal;font-variant:normal;font-weight:bold;font-stretch:normal;font-size:29.70537186px;line-height:1.25;font-family:Hack;-inkscape-font-specification:'Hack Bold';letter-spacing:0px;word-spacing:0px;fill:#389476;fill-opacity:1;stroke:none;stroke-width:11.45955944"
       d="M 207.73568,84.813767 193.52315,64.819228 h 12.75771 l 6.9384,12.459284 6.97571,-12.459284 h 12.75771 l -14.06332,19.994539 15.29433,21.785103 h -12.75771 l -8.20672,-14.063328 -8.16941,14.063328 h -12.75771 z"
       inkscape:connector-curvature="0" />
    <path
       id="path38"
       style="font-style:normal;font-variant:normal;font-weight:bold;font-stretch:normal;font-size:29.70537186px;line-height:1.25;font-family:Hack;-inkscape-font-specification:'Hack Bold';letter-spacing:0px;word-spacing:0px;fill:#389476;fill-opacity:1;stroke:none;stroke-width:11.45955944"
       d="m 259.8023,107.68066 q -5.03597,0 -8.6544,-1.86516 -3.58109,-1.90247 -5.93119,-5.40897 -4.96134,-7.348743 -4.96134,-21.598584 0,-7.12492 1.23101,-12.496588 1.23101,-5.408972 3.73033,-9.139298 2.57392,-3.80493 6.30424,-5.52088 3.73035,-1.753253 8.28135,-1.753253 4.8867,0 8.54242,1.865163 3.65573,1.827859 6.11774,5.446274 4.92404,7.348741 4.92404,21.598582 0,14.249841 -4.92404,21.561274 -2.3874,3.54381 -6.04313,5.44628 -3.6184,1.86516 -8.61703,1.86516 z m 0,-9.885361 q 4.25257,0 6.19231,-4.513693 1.93978,-4.439086 1.93978,-14.510964 0,-10.034574 -1.93978,-14.473659 -1.93974,-4.513694 -6.19231,-4.513694 -2.20089,0 -3.69304,1.156401 -1.49214,1.119097 -2.46203,3.357293 -1.93978,4.439085 -1.93978,14.473659 0,10.071878 1.93978,14.510964 1.9398,4.513693 6.15507,4.513693 z"
       inkscape:connector-curvature="0" />
    <path
       id="path40"
       style="font-style:normal;font-variant:normal;font-weight:bold;font-stretch:normal;font-size:29.70537186px;line-height:1.25;font-family:Hack;-inkscape-font-specification:'Hack Bold';letter-spacing:0px;word-spacing:0px;fill:#389476;fill-opacity:1;stroke:none;stroke-width:11.45955944"
       d="m 302.35653,107.68066 q -2.23818,0 -4.36447,-0.22382 -2.12628,-0.22383 -4.25256,-0.74607 -4.2526,-1.00719 -8.05751,-2.94696 V 92.386322 q 2.31279,1.641345 4.36447,2.760441 2.05167,1.119097 4.17798,1.902465 4.14064,1.529434 8.05748,1.529434 2.12628,0 3.69304,-0.447639 1.56673,-0.484941 2.68583,-1.417524 2.23819,-1.827858 2.23819,-5.147847 0,-2.536623 -1.49212,-4.401783 -0.78338,-0.969885 -1.90249,-1.678647 -1.08178,-0.746066 -2.42469,-1.268311 l -5.40899,-2.05168 q -4.28985,-1.641342 -7.0503,-3.282684 -2.76044,-1.678646 -4.21527,-3.394597 -2.94696,-3.431899 -2.94696,-9.363114 0,-7.609864 4.84944,-11.899737 4.8867,-4.327177 13.27993,-4.327177 2.01439,0 3.99145,0.223826 1.97709,0.223826 3.73033,0.634153 1.75327,0.410338 3.69302,1.081795 1.97709,0.634156 3.91686,1.529434 v 10.743336 q -3.50653,-2.499318 -7.19954,-3.804932 -3.69302,-1.305613 -7.27413,-1.305613 -3.99145,0 -6.08044,1.604038 -2.12628,1.641344 -2.12628,4.550998 0,2.350104 1.56673,3.842234 0.74608,0.746066 2.20089,1.529434 1.49215,0.783368 4.25259,1.827858 l 4.73751,1.790557 q 6.75189,2.536621 9.88535,6.490765 3.17078,4.066055 3.17078,10.482213 0,8.244017 -4.99862,12.384682 -5.03595,4.17796 -14.6975,4.17796 z"
       inkscape:connector-curvature="0" />
  </g>
  <g
     id="g855"
     transform="matrix(0.83474577,0,0,0.83474577,13.810131,-3.576183)">
    <path
       style="fill:#333333;stroke-width:0.06761969"
       d="m 57.911995,14.748482 c -4.521434,-5.57e-4 -5.540454,0.02999 -8.95978,0.268535 -2.429093,0.169467 -4.859809,0.401196 -7.275807,0.688272 A 70.521275,56.066287 0 0 0 -2.408275e-6,66.777669 v 0.03147 A 70.521275,56.066287 0 0 0 43.492621,118.55679 c -0.813922,-1.36615 -1.574454,-2.74711 -2.280675,-4.1457 -3.328278,-6.59135 -5.226346,-12.81142 -5.893364,-19.313352 -0.145878,-1.422352 -0.203822,-4.944248 -0.104685,-6.360021 0.292252,-4.175434 1.138834,-7.84367 2.651332,-11.487847 1.903011,-4.585104 4.771131,-8.715238 8.718194,-12.553778 3.30028,-3.209524 6.726365,-5.72103 11.397396,-8.355048 2.030697,-1.145119 4.744148,-2.488489 6.814881,-3.373626 0.480976,-0.205598 0.998278,-0.426839 1.149324,-0.491574 1.300696,-0.557642 2.818806,-1.139888 4.977505,-1.909169 11.297426,-4.025991 25.747621,-6.770157 42.190241,-8.012279 0.98181,-0.07416 1.98596,-0.1522 2.23165,-0.173436 0.36071,-0.03115 0.52506,-0.01018 0.85274,0.108782 1.39067,0.504706 2.99844,1.751305 4.33284,3.359261 1.16498,1.403812 2.24506,3.406077 2.66578,4.941737 0.11121,0.405996 0.17383,0.544875 0.20348,0.452577 0.10927,-0.340057 0.40913,-2.201068 0.56215,-3.488568 0.87746,-7.382575 -0.28137,-12.918748 -3.28788,-15.706763 -0.95832,-0.888685 -3.01042,-2.076031 -5.32945,-3.083883 -0.43427,-0.188733 -0.8823,-0.383864 -0.99558,-0.433419 -0.85436,-0.37377 -3.45381,-1.329838 -4.94329,-1.818174 -7.06826,-2.317385 -16.292617,-4.147194 -24.545051,-4.869217 -1.218873,-0.106646 -1.275152,-0.12016 -1.3694,-0.32361 -0.04553,-0.09831 -0.308636,-0.508737 -0.58472,-0.911994 -1.026277,-1.498975 -2.376081,-2.460835 -4.753546,-3.387654 -2.374654,-0.925726 -7.17533,-1.816162 -11.864324,-2.200622 -2.962109,-0.242874 -3.814942,-0.270363 -8.37612,-0.270931 z m 5.876786,9.133288 c 1.344776,-0.0043 2.658448,0.01982 3.494195,0.08038 2.792213,0.202388 4.519347,0.474565 5.90712,0.930809 0.728067,0.239358 1.027315,0.38708 1.027315,0.506625 0,0.05085 -0.197754,0.244763 -0.439069,0.431027 -0.981018,0.757206 -2.149517,1.354116 -3.251203,1.660815 -0.795225,0.22137 -0.788747,0.221741 -2.4556,-0.188488 -3.151018,-0.77548 -6.538852,-1.894797 -8.821538,-2.914552 -0.424232,-0.189535 -0.490839,-0.238904 -0.377708,-0.281534 0.3472,-0.130849 2.67521,-0.217837 4.916488,-0.22509 z m 68.476749,21.584782 c -0.014,-0.03176 -0.0309,0.259688 -0.048,0.865129 -0.0108,0.375478 0.004,0.682832 0.0324,0.682799 0.0283,-3.9e-5 0.0466,-0.397243 0.0406,-0.882575 -0.005,-0.42036 -0.0142,-0.640643 -0.0251,-0.665353 z m -78.000084,17.365527 -0.477148,0.363292 c -1.510768,1.150698 -2.520477,2.018177 -3.916686,3.364733 -2.012691,1.941122 -3.423197,3.608249 -4.857592,5.741187 -4.520775,6.722346 -6.227361,14.76326 -4.993369,23.529184 0.788497,5.601325 2.671198,11.254085 5.700455,17.115465 0.832145,1.61013 1.747443,3.24484 2.413985,4.31162 0.165722,0.26522 0.500951,0.80491 0.745175,1.19901 0.395661,0.63846 0.83645,1.30949 1.310148,1.99981 a 70.521275,56.066287 0 0 0 13.77964,2.13974 c -0.287926,-0.23983 -0.563696,-0.47398 -0.806547,-0.69067 -0.581389,-0.51877 -3.166525,-3.02641 -3.606687,-3.49849 -0.962385,-1.03217 -1.594483,-1.75746 -2.789932,-3.20122 -0.765095,-0.92402 -2.164851,-2.83039 -3.068167,-4.17888 -3.785127,-5.65057 -6.466545,-11.916982 -7.656683,-17.893708 -1.445978,-7.261475 -0.841295,-14.184542 1.780946,-20.392626 1.361398,-3.223075 3.203738,-6.148384 5.690582,-9.035793 z m -4.803629,25.342916 c -0.0173,0.0046 -0.0043,0.106631 0.01092,0.263061 0.785416,7.911743 5.941262,18.405484 12.770656,25.991844 1.464666,1.62701 3.832517,3.87173 5.392944,5.11244 1.588806,1.26327 3.210087,2.34969 4.850185,3.25903 a 70.521275,56.066287 0 0 0 15.601856,-1.75626 c 1.523388,-1.17699 3.499126,-2.80338 3.499126,-2.90088 0,-0.0236 -0.115845,-0.0498 -0.257451,-0.0581 -1.528168,-0.0903 -4.64114,-0.64131 -6.825447,-1.20824 -5.020859,-1.30311 -10.010551,-3.48068 -14.853155,-6.48213 -1.674867,-1.03809 -4.091665,-2.73474 -5.490621,-3.8546 -1.771051,-1.41769 -2.589073,-2.13178 -4.180127,-3.64832 -4.502292,-4.291466 -8.11589,-9.22088 -10.059033,-13.721999 -0.318975,-0.738984 -0.43097,-1.00329 -0.459866,-0.995797 z m 10.062905,10.028173 c -0.04629,0.03336 1.907801,1.882902 2.849173,2.692882 0.490904,0.42238 1.247942,1.04656 1.68221,1.38715 0.434258,0.34058 0.851309,0.66957 0.926794,0.73069 0.07549,0.0612 0.492548,0.3673 0.926805,0.6804 8.236656,5.93874 17.648321,9.45359 27.085292,10.11507 0.566421,0.0398 1.138131,0.0814 1.270295,0.0931 0.132165,0.0116 0.51023,0.0263 0.840397,0.0318 l 0.600585,0.0109 1.080209,-0.94928 c 1.54745,-1.35926 2.741622,-2.46772 3.726608,-3.45982 l 0.85803,-0.86446 0.14071,-0.55998 c 0.0772,-0.30796 0.11489,-0.55999 0.0836,-0.55999 -0.0312,0 -0.46565,0.0732 -0.9656,0.16282 -5.068872,0.90811 -11.211425,0.83913 -17.458619,-0.19635 -7.025581,-1.16448 -14.181833,-3.55779 -19.437779,-6.50061 -1.343066,-0.752 -3.23537,-2.005387 -3.852847,-2.551944 -0.126898,-0.112323 -0.282129,-0.229122 -0.344908,-0.259639 -0.0054,-0.0026 -0.0097,-0.004 -0.01092,-0.0026 z"
       id="path45"
       inkscape:connector-curvature="0" />
    <path
       style="fill:#389476;fill-opacity:1;stroke-width:0.06761969"
       d="m 52.548705,61.166516 -0.477267,0.363744 c -1.510768,1.150697 -2.520812,2.018192 -3.917021,3.364751 -2.012691,1.941125 -3.423176,3.60779 -4.857582,5.740727 -4.520774,6.722345 -6.22736,14.763475 -4.993369,23.5294 0.788487,5.601331 2.671631,11.254012 5.700888,17.115412 0.832145,1.61012 1.747151,3.245 2.413694,4.31176 0.165722,0.26523 0.501296,0.80501 0.745521,1.1991 0.39566,0.63848 0.836254,1.30945 1.309952,1.99977 a 70.521275,56.066286 0 0 0 13.779717,2.13964 c -0.287926,-0.23983 -0.563578,-0.47395 -0.806429,-0.69063 -0.581389,-0.51877 -3.166698,-3.02657 -3.60686,-3.49866 -0.962385,-1.03215 -1.594353,-1.75728 -2.789801,-3.20103 -0.765096,-0.92402 -2.164809,-2.83046 -3.068124,-4.17896 -3.785128,-5.65056 -6.466751,-11.917108 -7.65689,-17.89384 -1.445977,-7.261471 -0.841164,-14.184248 1.781077,-20.392328 1.361397,-3.223073 3.203424,-6.148688 5.690268,-9.036091 z m -4.803931,25.343233 c -0.0173,0.0042 -0.0043,0.106485 0.01114,0.262914 0.785415,7.911738 5.941024,18.405757 12.770418,25.992107 1.464665,1.62703 3.832527,3.87174 5.392955,5.11244 1.588816,1.26327 3.210216,2.34971 4.850314,3.25905 a 70.521275,56.066286 0 0 0 15.601586,-1.75636 c 1.523388,-1.17698 3.499558,-2.80379 3.499558,-2.90126 0,-0.0236 -0.116029,-0.0497 -0.257634,-0.058 -1.528168,-0.0903 -4.640999,-0.64139 -6.825306,-1.20831 -5.02086,-1.30313 -10.010671,-3.48031 -14.853275,-6.48177 -1.674867,-1.0381 -4.091805,-2.73495 -5.490761,-3.85481 -1.771052,-1.41769 -2.589192,-2.13172 -4.180247,-3.64826 C 53.761229,96.936011 50.147815,92.006689 48.204672,87.505565 47.885698,86.76658 47.773627,86.502248 47.74473,86.509747 Z M 57.8081,96.538406 c -0.04293,0.03633 1.90845,1.883237 2.849043,2.692559 0.490904,0.422383 1.247889,1.046085 1.682157,1.386665 0.434257,0.34058 0.851103,0.66962 0.926588,0.73074 0.07549,0.0612 0.492321,0.36721 0.926578,0.68032 8.236666,5.93874 17.648548,9.45391 27.085518,10.1154 0.566422,0.0397 1.138121,0.081 1.270285,0.0927 0.132165,0.0116 0.510349,0.0265 0.840516,0.032 l 0.600779,0.0109 1.079701,-0.94922 c 1.54745,-1.35925 2.742023,-2.46751 3.72702,-3.45961 l 0.857841,-0.86463 0.140827,-0.55998 c 0.07721,-0.30796 0.114558,-0.55998 0.08327,-0.55998 -0.03125,0 -0.465198,0.073 -0.965143,0.16263 -5.068876,0.90811 -11.211461,0.83924 -17.458666,-0.19623 -7.025581,-1.16449 -14.18219,-3.55792 -19.438135,-6.500746 -1.343067,-0.75199 -3.235274,-2.00505 -3.852751,-2.551616 -0.126897,-0.112315 -0.282032,-0.229145 -0.34481,-0.259661 -0.0054,-0.002 -0.0097,-0.0038 -0.01082,-0.0022 z"
       id="path859"
       inkscape:connector-curvature="0" />
  </g>
  <rect
     style="opacity:1;fill:#a02c2c;fill-opacity:1;stroke:none;stroke-width:20.00000191;stroke-linecap:round;stroke-linejoin:bevel;stroke-miterlimit:4;stroke-dasharray:none;stroke-dashoffset:0;stroke-opacity:1;paint-order:stroke fill markers"
     id="rect857"
     width="244.85455"
     height="4.7647476"
     x="71.976967"
     y="53.778748"
     ry="1.7878124" />
  <text
     xml:space="preserve"
     style="font-style:normal;font-weight:normal;font-size:6.90707016px;line-height:1.25;font-family:sans-serif;letter-spacing:0px;word-spacing:0px;fill:#4d4d4d;fill-opacity:1;stroke:none;stroke-width:1.03606069;"
     x="75.889641"
     y="70.715111"
     id="text861"><tspan
       sodipodi:role="line"
       id="tspan859"
       x="75.889641"
       y="70.715111"
       style="font-style:normal;font-variant:normal;font-weight:normal;font-stretch:normal;font-family:Hack;-inkscape-font-specification:Hack;stroke-width:1.03606069;fill:#4d4d4d;">Distribución Linux segura, abierta y soberana para México</tspan></text>
</svg>
